<?xml version="1.0" encoding="utf-8" standalone="no"?>
<!DOCTYPE svg PUBLIC "-//W3C//DTD SVG 1.1//EN"
  "http://www.w3.org/Graphics/SVG/1.1/DTD/svg11.dtd">
<!-- Created with matplotlib (https://matplotlib.org/) -->
<svg height="394.458058pt" version="1.1" viewBox="0 0 519.394687 394.458058" width="519.394687pt" xmlns="http://www.w3.org/2000/svg" xmlns:xlink="http://www.w3.org/1999/xlink">
 <defs>
  <style type="text/css">
*{stroke-linecap:butt;stroke-linejoin:round;}
  </style>
 </defs>
 <g id="figure_1">
  <g id="patch_1">
   <path d="M 0 394.458058 
L 519.394687 394.458058 
L 519.394687 0 
L 0 0 
z
" style="fill:#ffffff;stroke:#ffffff;stroke-linejoin:miter;"/>
  </g>
  <g id="axes_1">
   <g id="patch_2">
    <path d="M 40.169063 358.745371 
L 430.769063 358.745371 
L 430.769063 26.105371 
L 40.169063 26.105371 
z
" style="fill:#ffffff;stroke:#7f7f7f;stroke-linejoin:miter;"/>
   </g>
   <g id="matplotlib.axis_1">
    <g id="xtick_1">
     <g id="line2d_1">
      <path clip-path="url(#p1e8253b2b7)" d="M 54.662785 358.745371 
L 54.662785 26.105371 
" style="fill:none;stroke:#e5e5e5;stroke-width:0.8;"/>
     </g>
     <g id="line2d_2">
      <path d="M 54.662785 358.745371 
" style="fill:none;stroke:#000000;stroke-width:1.5;"/>
      <defs>
       <path d="M 0 0 
L 0 2.75 
" id="m148e827632" style="stroke:#000000;"/>
      </defs>
      <g>
       <use style="stroke:#000000;" x="54.662785" xlink:href="#m148e827632" y="358.745371"/>
      </g>
     </g>
     <g id="text_1">
      <!-- −7 -->
      <defs>
       <path d="M 10.59375 35.5 
L 73.1875 35.5 
L 73.1875 27.203125 
L 10.59375 27.203125 
z
" id="DejaVuSans-8722"/>
       <path d="M 8.203125 72.90625 
L 55.078125 72.90625 
L 55.078125 68.703125 
L 28.609375 0 
L 18.3125 0 
L 43.21875 64.59375 
L 8.203125 64.59375 
z
" id="DejaVuSans-55"/>
      </defs>
      <g style="fill:#4d4d4d;" transform="translate(48.176222 370.381996)scale(0.088 -0.088)">
       <use xlink:href="#DejaVuSans-8722"/>
       <use x="83.789062" xlink:href="#DejaVuSans-55"/>
      </g>
     </g>
    </g>
    <g id="xtick_2">
     <g id="line2d_3">
      <path clip-path="url(#p1e8253b2b7)" d="M 178.547609 358.745371 
L 178.547609 26.105371 
" style="fill:none;stroke:#e5e5e5;stroke-width:0.8;"/>
     </g>
     <g id="line2d_4">
      <path d="M 178.547609 358.745371 
" style="fill:none;stroke:#000000;stroke-width:1.5;"/>
      <g>
       <use style="stroke:#000000;" x="178.547609" xlink:href="#m148e827632" y="358.745371"/>
      </g>
     </g>
     <g id="text_2">
      <!-- −6 -->
      <defs>
       <path d="M 33.015625 40.375 
Q 26.375 40.375 22.484375 35.828125 
Q 18.609375 31.296875 18.609375 23.390625 
Q 18.609375 15.53125 22.484375 10.953125 
Q 26.375 6.390625 33.015625 6.390625 
Q 39.65625 6.390625 43.53125 10.953125 
Q 47.40625 15.53125 47.40625 23.390625 
Q 47.40625 31.296875 43.53125 35.828125 
Q 39.65625 40.375 33.015625 40.375 
z
M 52.59375 71.296875 
L 52.59375 62.3125 
Q 48.875 64.0625 45.09375 64.984375 
Q 41.3125 65.921875 37.59375 65.921875 
Q 27.828125 65.921875 22.671875 59.328125 
Q 17.53125 52.734375 16.796875 39.40625 
Q 19.671875 43.65625 24.015625 45.921875 
Q 28.375 48.1875 33.59375 48.1875 
Q 44.578125 48.1875 50.953125 41.515625 
Q 57.328125 34.859375 57.328125 23.390625 
Q 57.328125 12.15625 50.6875 5.359375 
Q 44.046875 -1.421875 33.015625 -1.421875 
Q 20.359375 -1.421875 13.671875 8.265625 
Q 6.984375 17.96875 6.984375 36.375 
Q 6.984375 53.65625 15.1875 63.9375 
Q 23.390625 74.21875 37.203125 74.21875 
Q 40.921875 74.21875 44.703125 73.484375 
Q 48.484375 72.75 52.59375 71.296875 
z
" id="DejaVuSans-54"/>
      </defs>
      <g style="fill:#4d4d4d;" transform="translate(172.061047 370.381996)scale(0.088 -0.088)">
       <use xlink:href="#DejaVuSans-8722"/>
       <use x="83.789062" xlink:href="#DejaVuSans-54"/>
      </g>
     </g>
    </g>
    <g id="xtick_3">
     <g id="line2d_5">
      <path clip-path="url(#p1e8253b2b7)" d="M 302.432434 358.745371 
L 302.432434 26.105371 
" style="fill:none;stroke:#e5e5e5;stroke-width:0.8;"/>
     </g>
     <g id="line2d_6">
      <path d="M 302.432434 358.745371 
" style="fill:none;stroke:#000000;stroke-width:1.5;"/>
      <g>
       <use style="stroke:#000000;" x="302.432434" xlink:href="#m148e827632" y="358.745371"/>
      </g>
     </g>
     <g id="text_3">
      <!-- −5 -->
      <defs>
       <path d="M 10.796875 72.90625 
L 49.515625 72.90625 
L 49.515625 64.59375 
L 19.828125 64.59375 
L 19.828125 46.734375 
Q 21.96875 47.46875 24.109375 47.828125 
Q 26.265625 48.1875 28.421875 48.1875 
Q 40.625 48.1875 47.75 41.5 
Q 54.890625 34.8125 54.890625 23.390625 
Q 54.890625 11.625 47.5625 5.09375 
Q 40.234375 -1.421875 26.90625 -1.421875 
Q 22.3125 -1.421875 17.546875 -0.640625 
Q 12.796875 0.140625 7.71875 1.703125 
L 7.71875 11.625 
Q 12.109375 9.234375 16.796875 8.0625 
Q 21.484375 6.890625 26.703125 6.890625 
Q 35.15625 6.890625 40.078125 11.328125 
Q 45.015625 15.765625 45.015625 23.390625 
Q 45.015625 31 40.078125 35.4375 
Q 35.15625 39.890625 26.703125 39.890625 
Q 22.75 39.890625 18.8125 39.015625 
Q 14.890625 38.140625 10.796875 36.28125 
z
" id="DejaVuSans-53"/>
      </defs>
      <g style="fill:#4d4d4d;" transform="translate(295.945872 370.381996)scale(0.088 -0.088)">
       <use xlink:href="#DejaVuSans-8722"/>
       <use x="83.789062" xlink:href="#DejaVuSans-53"/>
      </g>
     </g>
    </g>
    <g id="xtick_4">
     <g id="line2d_7">
      <path clip-path="url(#p1e8253b2b7)" d="M 426.317259 358.745371 
L 426.317259 26.105371 
" style="fill:none;stroke:#e5e5e5;stroke-width:0.8;"/>
     </g>
     <g id="line2d_8">
      <path d="M 426.317259 358.745371 
" style="fill:none;stroke:#000000;stroke-width:1.5;"/>
      <g>
       <use style="stroke:#000000;" x="426.317259" xlink:href="#m148e827632" y="358.745371"/>
      </g>
     </g>
     <g id="text_4">
      <!-- −4 -->
      <defs>
       <path d="M 37.796875 64.3125 
L 12.890625 25.390625 
L 37.796875 25.390625 
z
M 35.203125 72.90625 
L 47.609375 72.90625 
L 47.609375 25.390625 
L 58.015625 25.390625 
L 58.015625 17.1875 
L 47.609375 17.1875 
L 47.609375 0 
L 37.796875 0 
L 37.796875 17.1875 
L 4.890625 17.1875 
L 4.890625 26.703125 
z
" id="DejaVuSans-52"/>
      </defs>
      <g style="fill:#4d4d4d;" transform="translate(419.830696 370.381996)scale(0.088 -0.088)">
       <use xlink:href="#DejaVuSans-8722"/>
       <use x="83.789062" xlink:href="#DejaVuSans-52"/>
      </g>
     </g>
    </g>
    <g id="xtick_5">
     <g id="line2d_9">
      <path clip-path="url(#p1e8253b2b7)" d="M 116.605197 358.745371 
L 116.605197 26.105371 
" style="fill:none;stroke:#fafafa;"/>
     </g>
     <g id="line2d_10">
      <path d="M 116.605197 358.745371 
" style="fill:none;stroke:#000000;stroke-width:1.5;"/>
     </g>
    </g>
    <g id="xtick_6">
     <g id="line2d_11">
      <path clip-path="url(#p1e8253b2b7)" d="M 240.490022 358.745371 
L 240.490022 26.105371 
" style="fill:none;stroke:#fafafa;"/>
     </g>
     <g id="line2d_12">
      <path d="M 240.490022 358.745371 
" style="fill:none;stroke:#000000;stroke-width:1.5;"/>
     </g>
    </g>
    <g id="xtick_7">
     <g id="line2d_13">
      <path clip-path="url(#p1e8253b2b7)" d="M 364.374846 358.745371 
L 364.374846 26.105371 
" style="fill:none;stroke:#fafafa;"/>
     </g>
     <g id="line2d_14">
      <path d="M 364.374846 358.745371 
" style="fill:none;stroke:#000000;stroke-width:1.5;"/>
     </g>
    </g>
    <g id="text_5">
     <!-- x -->
     <defs>
      <path d="M 54.890625 54.6875 
L 35.109375 28.078125 
L 55.90625 0 
L 45.3125 0 
L 29.390625 21.484375 
L 13.484375 0 
L 2.875 0 
L 24.125 28.609375 
L 4.6875 54.6875 
L 15.28125 54.6875 
L 29.78125 35.203125 
L 44.28125 54.6875 
z
" id="DejaVuSans-120"/>
     </defs>
     <g transform="translate(225.91375 384.970402)scale(0.11 -0.11)">
      <use xlink:href="#DejaVuSans-120"/>
     </g>
    </g>
   </g>
   <g id="matplotlib.axis_2">
    <g id="ytick_1">
     <g id="line2d_15">
      <path clip-path="url(#p1e8253b2b7)" d="M 40.169063 340.375947 
L 430.769063 340.375947 
" style="fill:none;stroke:#e5e5e5;stroke-width:0.8;"/>
     </g>
     <g id="line2d_16">
      <path d="M 40.169063 340.375947 
" style="fill:none;stroke:#000000;stroke-width:1.5;"/>
      <defs>
       <path d="M 0 0 
L -2.75 0 
" id="m22ae1208ab" style="stroke:#000000;"/>
      </defs>
      <g>
       <use style="stroke:#000000;" x="40.169063" xlink:href="#m22ae1208ab" y="340.375947"/>
      </g>
     </g>
     <g id="text_6">
      <!-- −4 -->
      <g style="fill:#4d4d4d;" transform="translate(22.245938 342.804197)scale(0.088 -0.088)">
       <use xlink:href="#DejaVuSans-8722"/>
       <use x="83.789062" xlink:href="#DejaVuSans-52"/>
      </g>
     </g>
    </g>
    <g id="ytick_2">
     <g id="line2d_17">
      <path clip-path="url(#p1e8253b2b7)" d="M 40.169063 257.251568 
L 430.769063 257.251568 
" style="fill:none;stroke:#e5e5e5;stroke-width:0.8;"/>
     </g>
     <g id="line2d_18">
      <path d="M 40.169063 257.251568 
" style="fill:none;stroke:#000000;stroke-width:1.5;"/>
      <g>
       <use style="stroke:#000000;" x="40.169063" xlink:href="#m22ae1208ab" y="257.251568"/>
      </g>
     </g>
     <g id="text_7">
      <!-- −2 -->
      <defs>
       <path d="M 19.1875 8.296875 
L 53.609375 8.296875 
L 53.609375 0 
L 7.328125 0 
L 7.328125 8.296875 
Q 12.9375 14.109375 22.625 23.890625 
Q 32.328125 33.6875 34.8125 36.53125 
Q 39.546875 41.84375 41.421875 45.53125 
Q 43.3125 49.21875 43.3125 52.78125 
Q 43.3125 58.59375 39.234375 62.25 
Q 35.15625 65.921875 28.609375 65.921875 
Q 23.96875 65.921875 18.8125 64.3125 
Q 13.671875 62.703125 7.8125 59.421875 
L 7.8125 69.390625 
Q 13.765625 71.78125 18.9375 73 
Q 24.125 74.21875 28.421875 74.21875 
Q 39.75 74.21875 46.484375 68.546875 
Q 53.21875 62.890625 53.21875 53.421875 
Q 53.21875 48.921875 51.53125 44.890625 
Q 49.859375 40.875 45.40625 35.40625 
Q 44.1875 33.984375 37.640625 27.21875 
Q 31.109375 20.453125 19.1875 8.296875 
z
" id="DejaVuSans-50"/>
      </defs>
      <g style="fill:#4d4d4d;" transform="translate(22.245938 259.679818)scale(0.088 -0.088)">
       <use xlink:href="#DejaVuSans-8722"/>
       <use x="83.789062" xlink:href="#DejaVuSans-50"/>
      </g>
     </g>
    </g>
    <g id="ytick_3">
     <g id="line2d_19">
      <path clip-path="url(#p1e8253b2b7)" d="M 40.169063 174.127189 
L 430.769063 174.127189 
" style="fill:none;stroke:#e5e5e5;stroke-width:0.8;"/>
     </g>
     <g id="line2d_20">
      <path d="M 40.169063 174.127189 
" style="fill:none;stroke:#000000;stroke-width:1.5;"/>
      <g>
       <use style="stroke:#000000;" x="40.169063" xlink:href="#m22ae1208ab" y="174.127189"/>
      </g>
     </g>
     <g id="text_8">
      <!-- 0 -->
      <defs>
       <path d="M 31.78125 66.40625 
Q 24.171875 66.40625 20.328125 58.90625 
Q 16.5 51.421875 16.5 36.375 
Q 16.5 21.390625 20.328125 13.890625 
Q 24.171875 6.390625 31.78125 6.390625 
Q 39.453125 6.390625 43.28125 13.890625 
Q 47.125 21.390625 47.125 36.375 
Q 47.125 51.421875 43.28125 58.90625 
Q 39.453125 66.40625 31.78125 66.40625 
z
M 31.78125 74.21875 
Q 44.046875 74.21875 50.515625 64.515625 
Q 56.984375 54.828125 56.984375 36.375 
Q 56.984375 17.96875 50.515625 8.265625 
Q 44.046875 -1.421875 31.78125 -1.421875 
Q 19.53125 -1.421875 13.0625 8.265625 
Q 6.59375 17.96875 6.59375 36.375 
Q 6.59375 54.828125 13.0625 64.515625 
Q 19.53125 74.21875 31.78125 74.21875 
z
" id="DejaVuSans-48"/>
      </defs>
      <g style="fill:#4d4d4d;" transform="translate(29.620063 176.555439)scale(0.088 -0.088)">
       <use xlink:href="#DejaVuSans-48"/>
      </g>
     </g>
    </g>
    <g id="ytick_4">
     <g id="line2d_21">
      <path clip-path="url(#p1e8253b2b7)" d="M 40.169063 91.00281 
L 430.769063 91.00281 
" style="fill:none;stroke:#e5e5e5;stroke-width:0.8;"/>
     </g>
     <g id="line2d_22">
      <path d="M 40.169063 91.00281 
" style="fill:none;stroke:#000000;stroke-width:1.5;"/>
      <g>
       <use style="stroke:#000000;" x="40.169063" xlink:href="#m22ae1208ab" y="91.00281"/>
      </g>
     </g>
     <g id="text_9">
      <!-- 2 -->
      <g style="fill:#4d4d4d;" transform="translate(29.620063 93.43106)scale(0.088 -0.088)">
       <use xlink:href="#DejaVuSans-50"/>
      </g>
     </g>
    </g>
    <g id="ytick_5">
     <g id="line2d_23">
      <path clip-path="url(#p1e8253b2b7)" d="M 40.169063 298.813757 
L 430.769063 298.813757 
" style="fill:none;stroke:#fafafa;"/>
     </g>
     <g id="line2d_24">
      <path d="M 40.169063 298.813757 
" style="fill:none;stroke:#000000;stroke-width:1.5;"/>
     </g>
    </g>
    <g id="ytick_6">
     <g id="line2d_25">
      <path clip-path="url(#p1e8253b2b7)" d="M 40.169063 215.689379 
L 430.769063 215.689379 
" style="fill:none;stroke:#fafafa;"/>
     </g>
     <g id="line2d_26">
      <path d="M 40.169063 215.689379 
" style="fill:none;stroke:#000000;stroke-width:1.5;"/>
     </g>
    </g>
    <g id="ytick_7">
     <g id="line2d_27">
      <path clip-path="url(#p1e8253b2b7)" d="M 40.169063 132.565 
L 430.769063 132.565 
" style="fill:none;stroke:#fafafa;"/>
     </g>
     <g id="line2d_28">
      <path d="M 40.169063 132.565 
" style="fill:none;stroke:#000000;stroke-width:1.5;"/>
     </g>
    </g>
    <g id="ytick_8">
     <g id="line2d_29">
      <path clip-path="url(#p1e8253b2b7)" d="M 40.169063 49.440621 
L 430.769063 49.440621 
" style="fill:none;stroke:#fafafa;"/>
     </g>
     <g id="line2d_30">
      <path d="M 40.169063 49.440621 
" style="fill:none;stroke:#000000;stroke-width:1.5;"/>
     </g>
    </g>
    <g id="text_10">
     <!-- y -->
     <defs>
      <path d="M 32.171875 -5.078125 
Q 28.375 -14.84375 24.75 -17.8125 
Q 21.140625 -20.796875 15.09375 -20.796875 
L 7.90625 -20.796875 
L 7.90625 -13.28125 
L 13.1875 -13.28125 
Q 16.890625 -13.28125 18.9375 -11.515625 
Q 21 -9.765625 23.484375 -3.21875 
L 25.09375 0.875 
L 2.984375 54.6875 
L 12.5 54.6875 
L 29.59375 11.921875 
L 46.6875 54.6875 
L 56.203125 54.6875 
z
" id="DejaVuSans-121"/>
     </defs>
     <g transform="translate(15.558281 193.520683)rotate(-90)scale(0.11 -0.11)">
      <use xlink:href="#DejaVuSans-121"/>
     </g>
    </g>
   </g>
   <g id="PathCollection_1">
    <path clip-path="url(#p1e8253b2b7)" d="M 296.078909 326.752612 
C 296.666484 326.752612 297.230073 326.519166 297.645551 326.103688 
C 298.06103 325.688209 298.294476 325.12462 298.294476 324.537045 
C 298.294476 323.94947 298.06103 323.385881 297.645551 322.970402 
C 297.230073 322.554924 296.666484 322.321478 296.078909 322.321478 
C 295.491333 322.321478 294.927744 322.554924 294.512266 322.970402 
C 294.096788 323.385881 293.863341 323.94947 293.863341 324.537045 
C 293.863341 325.12462 294.096788 325.688209 294.512266 326.103688 
C 294.927744 326.519166 295.491333 326.752612 296.078909 326.752612 
z
" style="fill:#1b9e77;stroke:#1b9e77;stroke-width:0.886227;"/>
    <path clip-path="url(#p1e8253b2b7)" d="M 248.846591 318.260132 
C 249.434166 318.260132 249.997755 318.026686 250.413233 317.611208 
C 250.828712 317.195729 251.062158 316.63214 251.062158 316.044565 
C 251.062158 315.45699 250.828712 314.893401 250.413233 314.477922 
C 249.997755 314.062444 249.434166 313.828998 248.846591 313.828998 
C 248.259015 313.828998 247.695426 314.062444 247.279948 314.477922 
C 246.864469 314.893401 246.631023 315.45699 246.631023 316.044565 
C 246.631023 316.63214 246.864469 317.195729 247.279948 317.611208 
C 247.695426 318.026686 248.259015 318.260132 248.846591 318.260132 
z
" style="fill:#1b9e77;stroke:#1b9e77;stroke-width:0.886227;"/>
    <path clip-path="url(#p1e8253b2b7)" d="M 224.406719 326.485213 
C 224.994294 326.485213 225.557883 326.251766 225.973362 325.836288 
C 226.38884 325.420809 226.622286 324.857221 226.622286 324.269645 
C 226.622286 323.68207 226.38884 323.118481 225.973362 322.703003 
C 225.557883 322.287524 224.994294 322.054078 224.406719 322.054078 
C 223.819144 322.054078 223.255555 322.287524 222.840076 322.703003 
C 222.424598 323.118481 222.191152 323.68207 222.191152 324.269645 
C 222.191152 324.857221 222.424598 325.420809 222.840076 325.836288 
C 223.255555 326.251766 223.819144 326.485213 224.406719 326.485213 
z
" style="fill:#1b9e77;stroke:#1b9e77;stroke-width:0.886227;"/>
   </g>
   <g id="PathCollection_2">
    <path clip-path="url(#p1e8253b2b7)" d="M 325.036754 298.699227 
L 329.467889 298.699227 
M 327.252321 300.914794 
L 327.252321 296.48366 
" style="fill:#1b9e77;stroke:#1b9e77;stroke-width:0.886227;"/>
    <path clip-path="url(#p1e8253b2b7)" d="M 349.605168 317.0218 
L 354.036303 317.0218 
M 351.820735 319.237367 
L 351.820735 314.806233 
" style="fill:#1b9e77;stroke:#1b9e77;stroke-width:0.886227;"/>
    <path clip-path="url(#p1e8253b2b7)" d="M 338.581931 294.361674 
L 343.013066 294.361674 
M 340.797498 296.577241 
L 340.797498 292.146106 
" style="fill:#1b9e77;stroke:#1b9e77;stroke-width:0.886227;"/>
   </g>
   <g id="PathCollection_3">
    <path clip-path="url(#p1e8253b2b7)" d="M 177.359063 274.184809 
C 178.181668 274.184809 178.970693 273.857985 179.552363 273.276315 
C 180.134032 272.694645 180.460857 271.905621 180.460857 271.083015 
C 180.460857 270.26041 180.134032 269.471385 179.552363 268.889715 
C 178.970693 268.308045 178.181668 267.981221 177.359063 267.981221 
C 176.536457 267.981221 175.747433 268.308045 175.165763 268.889715 
C 174.584093 269.471385 174.257269 270.26041 174.257269 271.083015 
C 174.257269 271.905621 174.584093 272.694645 175.165763 273.276315 
C 175.747433 273.857985 176.536457 274.184809 177.359063 274.184809 
z
" style="fill:#1b9e77;stroke:#1b9e77;stroke-width:0.886227;"/>
    <path clip-path="url(#p1e8253b2b7)" d="M 114.16401 270.781743 
C 114.986615 270.781743 115.77564 270.454918 116.35731 269.873248 
C 116.938979 269.291579 117.265804 268.502554 117.265804 267.679949 
C 117.265804 266.857343 116.938979 266.068319 116.35731 265.486649 
C 115.77564 264.904979 114.986615 264.578154 114.16401 264.578154 
C 113.341404 264.578154 112.55238 264.904979 111.97071 265.486649 
C 111.38904 266.068319 111.062216 266.857343 111.062216 267.679949 
C 111.062216 268.502554 111.38904 269.291579 111.97071 269.873248 
C 112.55238 270.454918 113.341404 270.781743 114.16401 270.781743 
z
" style="fill:#1b9e77;stroke:#1b9e77;stroke-width:0.886227;"/>
    <path clip-path="url(#p1e8253b2b7)" d="M 220.021561 320.779821 
C 220.844167 320.779821 221.633191 320.452996 222.214861 319.871327 
C 222.796531 319.289657 223.123356 318.500632 223.123356 317.678027 
C 223.123356 316.855421 222.796531 316.066397 222.214861 315.484727 
C 221.633191 314.903057 220.844167 314.576233 220.021561 314.576233 
C 219.198956 314.576233 218.409932 314.903057 217.828262 315.484727 
C 217.246592 316.066397 216.919767 316.855421 216.919767 317.678027 
C 216.919767 318.500632 217.246592 319.289657 217.828262 319.871327 
C 218.409932 320.452996 219.198956 320.779821 220.021561 320.779821 
z
" style="fill:#1b9e77;stroke:#1b9e77;stroke-width:0.886227;"/>
   </g>
   <g id="PathCollection_4">
    <path clip-path="url(#p1e8253b2b7)" d="M 54.821814 335.387012 
L 61.025402 335.387012 
M 57.923608 338.488807 
L 57.923608 332.285218 
" style="fill:#1b9e77;stroke:#1b9e77;stroke-width:0.886227;"/>
    <path clip-path="url(#p1e8253b2b7)" d="M 83.197534 343.625371 
L 89.401123 343.625371 
M 86.299329 346.727165 
L 86.299329 340.523577 
" style="fill:#1b9e77;stroke:#1b9e77;stroke-width:0.886227;"/>
    <path clip-path="url(#p1e8253b2b7)" d="M 311.856573 309.561224 
L 318.060162 309.561224 
M 314.958367 312.663018 
L 314.958367 306.45943 
" style="fill:#1b9e77;stroke:#1b9e77;stroke-width:0.886227;"/>
   </g>
   <g id="PathCollection_5">
    <path clip-path="url(#p1e8253b2b7)" d="M 334.736206 182.28101 
C 335.793842 182.28101 336.808302 181.860807 337.556163 181.112945 
C 338.304025 180.365084 338.724228 179.350624 338.724228 178.292988 
C 338.724228 177.235353 338.304025 176.220893 337.556163 175.473032 
C 336.808302 174.72517 335.793842 174.304967 334.736206 174.304967 
C 333.678571 174.304967 332.664111 174.72517 331.91625 175.473032 
C 331.168388 176.220893 330.748185 177.235353 330.748185 178.292988 
C 330.748185 179.350624 331.168388 180.365084 331.91625 181.112945 
C 332.664111 181.860807 333.678571 182.28101 334.736206 182.28101 
z
" style="fill:#1b9e77;stroke:#1b9e77;stroke-width:0.886227;"/>
    <path clip-path="url(#p1e8253b2b7)" d="M 369.599016 174.046278 
C 370.656652 174.046278 371.671112 173.626075 372.418973 172.878214 
C 373.166834 172.130353 373.587037 171.115893 373.587037 170.058257 
C 373.587037 169.000622 373.166834 167.986162 372.418973 167.2383 
C 371.671112 166.490439 370.656652 166.070236 369.599016 166.070236 
C 368.541381 166.070236 367.526921 166.490439 366.77906 167.2383 
C 366.031198 167.986162 365.610995 169.000622 365.610995 170.058257 
C 365.610995 171.115893 366.031198 172.130353 366.77906 172.878214 
C 367.526921 173.626075 368.541381 174.046278 369.599016 174.046278 
z
" style="fill:#1b9e77;stroke:#1b9e77;stroke-width:0.886227;"/>
    <path clip-path="url(#p1e8253b2b7)" d="M 345.65772 166.27433 
C 346.715356 166.27433 347.729816 165.854127 348.477677 165.106266 
C 349.225538 164.358405 349.645741 163.343945 349.645741 162.286309 
C 349.645741 161.228674 349.225538 160.214214 348.477677 159.466352 
C 347.729816 158.718491 346.715356 158.298288 345.65772 158.298288 
C 344.600084 158.298288 343.585625 158.718491 342.837763 159.466352 
C 342.089902 160.214214 341.669699 161.228674 341.669699 162.286309 
C 341.669699 163.343945 342.089902 164.358405 342.837763 165.106266 
C 343.585625 165.854127 344.600084 166.27433 345.65772 166.27433 
z
" style="fill:#1b9e77;stroke:#1b9e77;stroke-width:0.886227;"/>
   </g>
   <g id="PathCollection_6">
    <path clip-path="url(#p1e8253b2b7)" d="M 232.465314 188.138871 
L 240.441356 188.138871 
M 236.453335 192.126892 
L 236.453335 184.15085 
" style="fill:#1b9e77;stroke:#1b9e77;stroke-width:0.886227;"/>
    <path clip-path="url(#p1e8253b2b7)" d="M 240.187912 154.700498 
L 248.163955 154.700498 
M 244.175934 158.68852 
L 244.175934 150.712477 
" style="fill:#1b9e77;stroke:#1b9e77;stroke-width:0.886227;"/>
    <path clip-path="url(#p1e8253b2b7)" d="M 231.531962 163.162492 
L 239.508004 163.162492 
M 235.519983 167.150513 
L 235.519983 159.17447 
" style="fill:#1b9e77;stroke:#1b9e77;stroke-width:0.886227;"/>
   </g>
   <g id="PathCollection_7">
    <path clip-path="url(#p1e8253b2b7)" d="M 189.215346 110.4561 
C 190.508012 110.4561 191.747907 109.942518 192.66196 109.028466 
C 193.576012 108.114413 194.089594 106.874517 194.089594 105.581852 
C 194.089594 104.289186 193.576012 103.049291 192.66196 102.135238 
C 191.747907 101.221185 190.508012 100.707604 189.215346 100.707604 
C 187.92268 100.707604 186.682785 101.221185 185.768732 102.135238 
C 184.854679 103.049291 184.341098 104.289186 184.341098 105.581852 
C 184.341098 106.874517 184.854679 108.114413 185.768732 109.028466 
C 186.682785 109.942518 187.92268 110.4561 189.215346 110.4561 
z
" style="fill:#1b9e77;stroke:#1b9e77;stroke-width:0.886227;"/>
    <path clip-path="url(#p1e8253b2b7)" d="M 204.541216 137.972836 
C 205.833882 137.972836 207.073777 137.459254 207.98783 136.545202 
C 208.901882 135.631149 209.415464 134.391253 209.415464 133.098588 
C 209.415464 131.805922 208.901882 130.566026 207.98783 129.651974 
C 207.073777 128.737921 205.833882 128.22434 204.541216 128.22434 
C 203.24855 128.22434 202.008655 128.737921 201.094602 129.651974 
C 200.180549 130.566026 199.666968 131.805922 199.666968 133.098588 
C 199.666968 134.391253 200.180549 135.631149 201.094602 136.545202 
C 202.008655 137.459254 203.24855 137.972836 204.541216 137.972836 
z
" style="fill:#1b9e77;stroke:#1b9e77;stroke-width:0.886227;"/>
    <path clip-path="url(#p1e8253b2b7)" d="M 221.205323 121.782987 
C 222.497989 121.782987 223.737884 121.269406 224.651937 120.355353 
C 225.56599 119.4413 226.079571 118.201405 226.079571 116.908739 
C 226.079571 115.616073 225.56599 114.376178 224.651937 113.462125 
C 223.737884 112.548072 222.497989 112.034491 221.205323 112.034491 
C 219.912657 112.034491 218.672762 112.548072 217.758709 113.462125 
C 216.844656 114.376178 216.331075 115.616073 216.331075 116.908739 
C 216.331075 118.201405 216.844656 119.4413 217.758709 120.355353 
C 218.672762 121.269406 219.912657 121.782987 221.205323 121.782987 
z
" style="fill:#1b9e77;stroke:#1b9e77;stroke-width:0.886227;"/>
   </g>
   <g id="PathCollection_8">
    <path clip-path="url(#p1e8253b2b7)" d="M 248.539445 91.574952 
L 258.287941 91.574952 
M 253.413693 96.449201 
L 253.413693 86.700704 
" style="fill:#1b9e77;stroke:#1b9e77;stroke-width:0.886227;"/>
    <path clip-path="url(#p1e8253b2b7)" d="M 220.073106 81.429583 
L 229.821602 81.429583 
M 224.947354 86.303831 
L 224.947354 76.555335 
" style="fill:#1b9e77;stroke:#1b9e77;stroke-width:0.886227;"/>
    <path clip-path="url(#p1e8253b2b7)" d="M 222.423439 98.168221 
L 232.171935 98.168221 
M 227.297687 103.042469 
L 227.297687 93.293973 
" style="fill:#1b9e77;stroke:#1b9e77;stroke-width:0.886227;"/>
   </g>
   <g id="PathCollection_9">
    <path clip-path="url(#p1e8253b2b7)" d="M 151.342182 317.218794 
C 151.929757 317.218794 152.493346 316.985348 152.908824 316.56987 
C 153.324303 316.154391 153.557749 315.590802 153.557749 315.003227 
C 153.557749 314.415652 153.324303 313.852063 152.908824 313.436584 
C 152.493346 313.021106 151.929757 312.78766 151.342182 312.78766 
C 150.754606 312.78766 150.191017 313.021106 149.775539 313.436584 
C 149.36006 313.852063 149.126614 314.415652 149.126614 315.003227 
C 149.126614 315.590802 149.36006 316.154391 149.775539 316.56987 
C 150.191017 316.985348 150.754606 317.218794 151.342182 317.218794 
z
" style="fill:#d95f02;stroke:#d95f02;stroke-width:0.886227;"/>
    <path clip-path="url(#p1e8253b2b7)" d="M 120.468859 321.720652 
C 121.056434 321.720652 121.620023 321.487206 122.035502 321.071727 
C 122.45098 320.656249 122.684426 320.09266 122.684426 319.505085 
C 122.684426 318.917509 122.45098 318.353921 122.035502 317.938442 
C 121.620023 317.522964 121.056434 317.289517 120.468859 317.289517 
C 119.881284 317.289517 119.317695 317.522964 118.902216 317.938442 
C 118.486738 318.353921 118.253292 318.917509 118.253292 319.505085 
C 118.253292 320.09266 118.486738 320.656249 118.902216 321.071727 
C 119.317695 321.487206 119.881284 321.720652 120.468859 321.720652 
z
" style="fill:#d95f02;stroke:#d95f02;stroke-width:0.886227;"/>
    <path clip-path="url(#p1e8253b2b7)" d="M 156.94749 337.116603 
C 157.535065 337.116603 158.098654 336.883157 158.514132 336.467678 
C 158.929611 336.0522 159.163057 335.488611 159.163057 334.901036 
C 159.163057 334.31346 158.929611 333.749871 158.514132 333.334393 
C 158.098654 332.918914 157.535065 332.685468 156.94749 332.685468 
C 156.359914 332.685468 155.796326 332.918914 155.380847 333.334393 
C 154.965369 333.749871 154.731922 334.31346 154.731922 334.901036 
C 154.731922 335.488611 154.965369 336.0522 155.380847 336.467678 
C 155.796326 336.883157 156.359914 337.116603 156.94749 337.116603 
z
" style="fill:#d95f02;stroke:#d95f02;stroke-width:0.886227;"/>
   </g>
   <g id="PathCollection_10">
    <path clip-path="url(#p1e8253b2b7)" d="M 278.590223 296.123024 
L 283.021358 296.123024 
M 280.805791 298.338591 
L 280.805791 293.907456 
" style="fill:#d95f02;stroke:#d95f02;stroke-width:0.886227;"/>
    <path clip-path="url(#p1e8253b2b7)" d="M 262.149235 291.131305 
L 266.580369 291.131305 
M 264.364802 293.346872 
L 264.364802 288.915737 
" style="fill:#d95f02;stroke:#d95f02;stroke-width:0.886227;"/>
    <path clip-path="url(#p1e8253b2b7)" d="M 229.848534 277.7001 
L 234.279669 277.7001 
M 232.064101 279.915667 
L 232.064101 275.484533 
" style="fill:#d95f02;stroke:#d95f02;stroke-width:0.886227;"/>
   </g>
   <g id="PathCollection_11">
    <path clip-path="url(#p1e8253b2b7)" d="M 120.000411 312.555038 
C 120.823017 312.555038 121.612041 312.228213 122.193711 311.646543 
C 122.775381 311.064874 123.102205 310.275849 123.102205 309.453244 
C 123.102205 308.630638 122.775381 307.841614 122.193711 307.259944 
C 121.612041 306.678274 120.823017 306.351449 120.000411 306.351449 
C 119.177806 306.351449 118.388781 306.678274 117.807111 307.259944 
C 117.225442 307.841614 116.898617 308.630638 116.898617 309.453244 
C 116.898617 310.275849 117.225442 311.064874 117.807111 311.646543 
C 118.388781 312.228213 119.177806 312.555038 120.000411 312.555038 
z
" style="fill:#d95f02;stroke:#d95f02;stroke-width:0.886227;"/>
    <path clip-path="url(#p1e8253b2b7)" d="M 103.62009 306.719947 
C 104.442696 306.719947 105.23172 306.393123 105.81339 305.811453 
C 106.39506 305.229783 106.721884 304.440758 106.721884 303.618153 
C 106.721884 302.795547 106.39506 302.006523 105.81339 301.424853 
C 105.23172 300.843183 104.442696 300.516359 103.62009 300.516359 
C 102.797485 300.516359 102.00846 300.843183 101.42679 301.424853 
C 100.84512 302.006523 100.518296 302.795547 100.518296 303.618153 
C 100.518296 304.440758 100.84512 305.229783 101.42679 305.811453 
C 102.00846 306.393123 102.797485 306.719947 103.62009 306.719947 
z
" style="fill:#d95f02;stroke:#d95f02;stroke-width:0.886227;"/>
    <path clip-path="url(#p1e8253b2b7)" d="M 171.896652 320.463361 
C 172.719257 320.463361 173.508282 320.136536 174.089952 319.554866 
C 174.671622 318.973196 174.998446 318.184172 174.998446 317.361567 
C 174.998446 316.538961 174.671622 315.749937 174.089952 315.168267 
C 173.508282 314.586597 172.719257 314.259772 171.896652 314.259772 
C 171.074046 314.259772 170.285022 314.586597 169.703352 315.168267 
C 169.121682 315.749937 168.794858 316.538961 168.794858 317.361567 
C 168.794858 318.184172 169.121682 318.973196 169.703352 319.554866 
C 170.285022 320.136536 171.074046 320.463361 171.896652 320.463361 
z
" style="fill:#d95f02;stroke:#d95f02;stroke-width:0.886227;"/>
   </g>
   <g id="PathCollection_12">
    <path clip-path="url(#p1e8253b2b7)" d="M 202.053425 282.673041 
L 208.257014 282.673041 
M 205.155219 285.774835 
L 205.155219 279.571247 
" style="fill:#d95f02;stroke:#d95f02;stroke-width:0.886227;"/>
    <path clip-path="url(#p1e8253b2b7)" d="M 64.779671 326.290091 
L 70.98326 326.290091 
M 67.881466 329.391885 
L 67.881466 323.188297 
" style="fill:#d95f02;stroke:#d95f02;stroke-width:0.886227;"/>
    <path clip-path="url(#p1e8253b2b7)" d="M 121.823287 337.818333 
L 128.026876 337.818333 
M 124.925082 340.920128 
L 124.925082 334.716539 
" style="fill:#d95f02;stroke:#d95f02;stroke-width:0.886227;"/>
   </g>
   <g id="PathCollection_13">
    <path clip-path="url(#p1e8253b2b7)" d="M 345.487472 156.882221 
C 346.545108 156.882221 347.559568 156.462018 348.307429 155.714157 
C 349.05529 154.966296 349.475493 153.951836 349.475493 152.8942 
C 349.475493 151.836565 349.05529 150.822105 348.307429 150.074243 
C 347.559568 149.326382 346.545108 148.906179 345.487472 148.906179 
C 344.429836 148.906179 343.415376 149.326382 342.667515 150.074243 
C 341.919654 150.822105 341.499451 151.836565 341.499451 152.8942 
C 341.499451 153.951836 341.919654 154.966296 342.667515 155.714157 
C 343.415376 156.462018 344.429836 156.882221 345.487472 156.882221 
z
" style="fill:#d95f02;stroke:#d95f02;stroke-width:0.886227;"/>
    <path clip-path="url(#p1e8253b2b7)" d="M 366.009275 142.202428 
C 367.066911 142.202428 368.081371 141.782225 368.829232 141.034364 
C 369.577093 140.286502 369.997296 139.272042 369.997296 138.214407 
C 369.997296 137.156771 369.577093 136.142311 368.829232 135.39445 
C 368.081371 134.646589 367.066911 134.226386 366.009275 134.226386 
C 364.951639 134.226386 363.93718 134.646589 363.189318 135.39445 
C 362.441457 136.142311 362.021254 137.156771 362.021254 138.214407 
C 362.021254 139.272042 362.441457 140.286502 363.189318 141.034364 
C 363.93718 141.782225 364.951639 142.202428 366.009275 142.202428 
z
" style="fill:#d95f02;stroke:#d95f02;stroke-width:0.886227;"/>
    <path clip-path="url(#p1e8253b2b7)" d="M 342.273789 152.629895 
C 343.331424 152.629895 344.345884 152.209692 345.093746 151.46183 
C 345.841607 150.713969 346.26181 149.699509 346.26181 148.641873 
C 346.26181 147.584238 345.841607 146.569778 345.093746 145.821917 
C 344.345884 145.074055 343.331424 144.653852 342.273789 144.653852 
C 341.216153 144.653852 340.201693 145.074055 339.453832 145.821917 
C 338.705971 146.569778 338.285768 147.584238 338.285768 148.641873 
C 338.285768 149.699509 338.705971 150.713969 339.453832 151.46183 
C 340.201693 152.209692 341.216153 152.629895 342.273789 152.629895 
z
" style="fill:#d95f02;stroke:#d95f02;stroke-width:0.886227;"/>
   </g>
   <g id="PathCollection_14">
    <path clip-path="url(#p1e8253b2b7)" d="M 271.750143 173.274965 
L 279.726185 173.274965 
M 275.738164 177.262986 
L 275.738164 169.286944 
" style="fill:#d95f02;stroke:#d95f02;stroke-width:0.886227;"/>
    <path clip-path="url(#p1e8253b2b7)" d="M 286.754834 142.66469 
L 294.730876 142.66469 
M 290.742855 146.652711 
L 290.742855 138.676669 
" style="fill:#d95f02;stroke:#d95f02;stroke-width:0.886227;"/>
    <path clip-path="url(#p1e8253b2b7)" d="M 271.908754 159.066707 
L 279.884796 159.066707 
M 275.896775 163.054728 
L 275.896775 155.078685 
" style="fill:#d95f02;stroke:#d95f02;stroke-width:0.886227;"/>
   </g>
   <g id="PathCollection_15">
    <path clip-path="url(#p1e8253b2b7)" d="M 253.111948 47.826871 
C 254.404614 47.826871 255.64451 47.313289 256.558562 46.399237 
C 257.472615 45.485184 257.986196 44.245288 257.986196 42.952623 
C 257.986196 41.659957 257.472615 40.420062 256.558562 39.506009 
C 255.64451 38.591956 254.404614 38.078375 253.111948 38.078375 
C 251.819283 38.078375 250.579387 38.591956 249.665335 39.506009 
C 248.751282 40.420062 248.2377 41.659957 248.2377 42.952623 
C 248.2377 44.245288 248.751282 45.485184 249.665335 46.399237 
C 250.579387 47.313289 251.819283 47.826871 253.111948 47.826871 
z
" style="fill:#d95f02;stroke:#d95f02;stroke-width:0.886227;"/>
    <path clip-path="url(#p1e8253b2b7)" d="M 287.28142 51.437357 
C 288.574085 51.437357 289.813981 50.923775 290.728034 50.009722 
C 291.642086 49.09567 292.155668 47.855774 292.155668 46.563108 
C 292.155668 45.270443 291.642086 44.030547 290.728034 43.116495 
C 289.813981 42.202442 288.574085 41.68886 287.28142 41.68886 
C 285.988754 41.68886 284.748859 42.202442 283.834806 43.116495 
C 282.920753 44.030547 282.407172 45.270443 282.407172 46.563108 
C 282.407172 47.855774 282.920753 49.09567 283.834806 50.009722 
C 284.748859 50.923775 285.988754 51.437357 287.28142 51.437357 
z
" style="fill:#d95f02;stroke:#d95f02;stroke-width:0.886227;"/>
    <path clip-path="url(#p1e8253b2b7)" d="M 263.01345 46.099618 
C 264.306116 46.099618 265.546012 45.586037 266.460064 44.671984 
C 267.374117 43.757931 267.887699 42.518036 267.887699 41.22537 
C 267.887699 39.932705 267.374117 38.692809 266.460064 37.778756 
C 265.546012 36.864704 264.306116 36.351122 263.01345 36.351122 
C 261.720785 36.351122 260.480889 36.864704 259.566837 37.778756 
C 258.652784 38.692809 258.139202 39.932705 258.139202 41.22537 
C 258.139202 42.518036 258.652784 43.757931 259.566837 44.671984 
C 260.480889 45.586037 261.720785 46.099618 263.01345 46.099618 
z
" style="fill:#d95f02;stroke:#d95f02;stroke-width:0.886227;"/>
   </g>
   <g id="PathCollection_16">
    <path clip-path="url(#p1e8253b2b7)" d="M 280.905834 60.6745 
L 290.65433 60.6745 
M 285.780082 65.548748 
L 285.780082 55.800252 
" style="fill:#d95f02;stroke:#d95f02;stroke-width:0.886227;"/>
    <path clip-path="url(#p1e8253b2b7)" d="M 223.320815 56.949316 
L 233.069311 56.949316 
M 228.195063 61.823564 
L 228.195063 52.075068 
" style="fill:#d95f02;stroke:#d95f02;stroke-width:0.886227;"/>
    <path clip-path="url(#p1e8253b2b7)" d="M 257.435231 64.932166 
L 267.183727 64.932166 
M 262.309479 69.806414 
L 262.309479 60.057918 
" style="fill:#d95f02;stroke:#d95f02;stroke-width:0.886227;"/>
   </g>
   <g id="PathCollection_17">
    <path clip-path="url(#p1e8253b2b7)" d="M 198.25716 248.29934 
C 198.844735 248.29934 199.408324 248.065894 199.823803 247.650416 
C 200.239281 247.234937 200.472727 246.671348 200.472727 246.083773 
C 200.472727 245.496198 200.239281 244.932609 199.823803 244.51713 
C 199.408324 244.101652 198.844735 243.868206 198.25716 243.868206 
C 197.669585 243.868206 197.105996 244.101652 196.690517 244.51713 
C 196.275039 244.932609 196.041593 245.496198 196.041593 246.083773 
C 196.041593 246.671348 196.275039 247.234937 196.690517 247.650416 
C 197.105996 248.065894 197.669585 248.29934 198.25716 248.29934 
z
" style="fill:#7570b3;stroke:#7570b3;stroke-width:0.886227;"/>
    <path clip-path="url(#p1e8253b2b7)" d="M 149.753534 246.659794 
C 150.34111 246.659794 150.904699 246.426348 151.320177 246.010869 
C 151.735656 245.595391 151.969102 245.031802 151.969102 244.444227 
C 151.969102 243.856651 151.735656 243.293062 151.320177 242.877584 
C 150.904699 242.462105 150.34111 242.228659 149.753534 242.228659 
C 149.165959 242.228659 148.60237 242.462105 148.186892 242.877584 
C 147.771413 243.293062 147.537967 243.856651 147.537967 244.444227 
C 147.537967 245.031802 147.771413 245.595391 148.186892 246.010869 
C 148.60237 246.426348 149.165959 246.659794 149.753534 246.659794 
z
" style="fill:#7570b3;stroke:#7570b3;stroke-width:0.886227;"/>
    <path clip-path="url(#p1e8253b2b7)" d="M 126.096615 256.879368 
C 126.68419 256.879368 127.247779 256.645922 127.663258 256.230443 
C 128.078736 255.814965 128.312182 255.251376 128.312182 254.663801 
C 128.312182 254.076225 128.078736 253.512637 127.663258 253.097158 
C 127.247779 252.68168 126.68419 252.448233 126.096615 252.448233 
C 125.50904 252.448233 124.945451 252.68168 124.529972 253.097158 
C 124.114494 253.512637 123.881048 254.076225 123.881048 254.663801 
C 123.881048 255.251376 124.114494 255.814965 124.529972 256.230443 
C 124.945451 256.645922 125.50904 256.879368 126.096615 256.879368 
z
" style="fill:#7570b3;stroke:#7570b3;stroke-width:0.886227;"/>
   </g>
   <g id="PathCollection_18">
    <path clip-path="url(#p1e8253b2b7)" d="M 88.604432 215.341858 
L 93.035567 215.341858 
M 90.82 217.557425 
L 90.82 213.126291 
" style="fill:#7570b3;stroke:#7570b3;stroke-width:0.886227;"/>
    <path clip-path="url(#p1e8253b2b7)" d="M 108.925447 230.793568 
L 113.356581 230.793568 
M 111.141014 233.009135 
L 111.141014 228.578001 
" style="fill:#7570b3;stroke:#7570b3;stroke-width:0.886227;"/>
    <path clip-path="url(#p1e8253b2b7)" d="M 104.920423 221.166143 
L 109.351558 221.166143 
M 107.13599 223.38171 
L 107.13599 218.950576 
" style="fill:#7570b3;stroke:#7570b3;stroke-width:0.886227;"/>
   </g>
   <g id="PathCollection_19">
    <path clip-path="url(#p1e8253b2b7)" d="M 190.586487 239.668644 
C 191.409092 239.668644 192.198116 239.34182 192.779786 238.76015 
C 193.361456 238.17848 193.688281 237.389456 193.688281 236.56685 
C 193.688281 235.744245 193.361456 234.95522 192.779786 234.37355 
C 192.198116 233.791881 191.409092 233.465056 190.586487 233.465056 
C 189.763881 233.465056 188.974857 233.791881 188.393187 234.37355 
C 187.811517 234.95522 187.484692 235.744245 187.484692 236.56685 
C 187.484692 237.389456 187.811517 238.17848 188.393187 238.76015 
C 188.974857 239.34182 189.763881 239.668644 190.586487 239.668644 
z
" style="fill:#7570b3;stroke:#7570b3;stroke-width:0.886227;"/>
    <path clip-path="url(#p1e8253b2b7)" d="M 159.28524 229.495807 
C 160.107846 229.495807 160.89687 229.168982 161.47854 228.587313 
C 162.06021 228.005643 162.387034 227.216618 162.387034 226.394013 
C 162.387034 225.571407 162.06021 224.782383 161.47854 224.200713 
C 160.89687 223.619043 160.107846 223.292219 159.28524 223.292219 
C 158.462635 223.292219 157.67361 223.619043 157.09194 224.200713 
C 156.510271 224.782383 156.183446 225.571407 156.183446 226.394013 
C 156.183446 227.216618 156.510271 228.005643 157.09194 228.587313 
C 157.67361 229.168982 158.462635 229.495807 159.28524 229.495807 
z
" style="fill:#7570b3;stroke:#7570b3;stroke-width:0.886227;"/>
    <path clip-path="url(#p1e8253b2b7)" d="M 152.369695 220.070074 
C 153.192301 220.070074 153.981325 219.743249 154.562995 219.161579 
C 155.144665 218.579909 155.47149 217.790885 155.47149 216.968279 
C 155.47149 216.145674 155.144665 215.35665 154.562995 214.77498 
C 153.981325 214.19331 153.192301 213.866485 152.369695 213.866485 
C 151.54709 213.866485 150.758066 214.19331 150.176396 214.77498 
C 149.594726 215.35665 149.267901 216.145674 149.267901 216.968279 
C 149.267901 217.790885 149.594726 218.579909 150.176396 219.161579 
C 150.758066 219.743249 151.54709 220.070074 152.369695 220.070074 
z
" style="fill:#7570b3;stroke:#7570b3;stroke-width:0.886227;"/>
   </g>
   <g id="PathCollection_20">
    <path clip-path="url(#p1e8253b2b7)" d="M 139.772643 192.601289 
L 145.976232 192.601289 
M 142.874438 195.703083 
L 142.874438 189.499494 
" style="fill:#7570b3;stroke:#7570b3;stroke-width:0.886227;"/>
    <path clip-path="url(#p1e8253b2b7)" d="M 137.508616 204.853883 
L 143.712204 204.853883 
M 140.61041 207.955678 
L 140.61041 201.752089 
" style="fill:#7570b3;stroke:#7570b3;stroke-width:0.886227;"/>
    <path clip-path="url(#p1e8253b2b7)" d="M 147.034592 183.589469 
L 153.23818 183.589469 
M 150.136386 186.691263 
L 150.136386 180.487675 
" style="fill:#7570b3;stroke:#7570b3;stroke-width:0.886227;"/>
   </g>
   <g id="PathCollection_21">
    <path clip-path="url(#p1e8253b2b7)" d="M 128.834762 103.022202 
C 129.892397 103.022202 130.906857 102.601999 131.654718 101.854137 
C 132.40258 101.106276 132.822783 100.091816 132.822783 99.034181 
C 132.822783 97.976545 132.40258 96.962085 131.654718 96.214224 
C 130.906857 95.466363 129.892397 95.046159 128.834762 95.046159 
C 127.777126 95.046159 126.762666 95.466363 126.014805 96.214224 
C 125.266943 96.962085 124.84674 97.976545 124.84674 99.034181 
C 124.84674 100.091816 125.266943 101.106276 126.014805 101.854137 
C 126.762666 102.601999 127.777126 103.022202 128.834762 103.022202 
z
" style="fill:#7570b3;stroke:#7570b3;stroke-width:0.886227;"/>
    <path clip-path="url(#p1e8253b2b7)" d="M 155.645819 96.145367 
C 156.703454 96.145367 157.717914 95.725164 158.465775 94.977303 
C 159.213637 94.229441 159.63384 93.214981 159.63384 92.157346 
C 159.63384 91.09971 159.213637 90.08525 158.465775 89.337389 
C 157.717914 88.589528 156.703454 88.169325 155.645819 88.169325 
C 154.588183 88.169325 153.573723 88.589528 152.825862 89.337389 
C 152.078001 90.08525 151.657797 91.09971 151.657797 92.157346 
C 151.657797 93.214981 152.078001 94.229441 152.825862 94.977303 
C 153.573723 95.725164 154.588183 96.145367 155.645819 96.145367 
z
" style="fill:#7570b3;stroke:#7570b3;stroke-width:0.886227;"/>
    <path clip-path="url(#p1e8253b2b7)" d="M 139.544144 87.867822 
C 140.60178 87.867822 141.61624 87.447619 142.364101 86.699758 
C 143.111963 85.951897 143.532166 84.937437 143.532166 83.879801 
C 143.532166 82.822166 143.111963 81.807706 142.364101 81.059844 
C 141.61624 80.311983 140.60178 79.89178 139.544144 79.89178 
C 138.486509 79.89178 137.472049 80.311983 136.724188 81.059844 
C 135.976326 81.807706 135.556123 82.822166 135.556123 83.879801 
C 135.556123 84.937437 135.976326 85.951897 136.724188 86.699758 
C 137.472049 87.447619 138.486509 87.867822 139.544144 87.867822 
z
" style="fill:#7570b3;stroke:#7570b3;stroke-width:0.886227;"/>
   </g>
   <g id="PathCollection_22">
    <path clip-path="url(#p1e8253b2b7)" d="M 348.463022 97.031091 
L 356.439064 97.031091 
M 352.451043 101.019112 
L 352.451043 93.04307 
" style="fill:#7570b3;stroke:#7570b3;stroke-width:0.886227;"/>
    <path clip-path="url(#p1e8253b2b7)" d="M 310.77765 90.892937 
L 318.753693 90.892937 
M 314.765672 94.880958 
L 314.765672 86.904916 
" style="fill:#7570b3;stroke:#7570b3;stroke-width:0.886227;"/>
    <path clip-path="url(#p1e8253b2b7)" d="M 336.595929 80.010497 
L 344.571971 80.010497 
M 340.58395 83.998518 
L 340.58395 76.022476 
" style="fill:#7570b3;stroke:#7570b3;stroke-width:0.886227;"/>
   </g>
   <g id="PathCollection_23">
    <path clip-path="url(#p1e8253b2b7)" d="M 164.298697 75.153298 
C 165.591363 75.153298 166.831258 74.639717 167.745311 73.725664 
C 168.659364 72.811611 169.172945 71.571716 169.172945 70.27905 
C 169.172945 68.986384 168.659364 67.746489 167.745311 66.832436 
C 166.831258 65.918384 165.591363 65.404802 164.298697 65.404802 
C 163.006031 65.404802 161.766136 65.918384 160.852083 66.832436 
C 159.938031 67.746489 159.424449 68.986384 159.424449 70.27905 
C 159.424449 71.571716 159.938031 72.811611 160.852083 73.725664 
C 161.766136 74.639717 163.006031 75.153298 164.298697 75.153298 
z
" style="fill:#7570b3;stroke:#7570b3;stroke-width:0.886227;"/>
    <path clip-path="url(#p1e8253b2b7)" d="M 149.101311 79.762869 
C 150.393976 79.762869 151.633872 79.249287 152.547925 78.335235 
C 153.461977 77.421182 153.975559 76.181286 153.975559 74.888621 
C 153.975559 73.595955 153.461977 72.35606 152.547925 71.442007 
C 151.633872 70.527954 150.393976 70.014373 149.101311 70.014373 
C 147.808645 70.014373 146.568749 70.527954 145.654697 71.442007 
C 144.740644 72.35606 144.227063 73.595955 144.227063 74.888621 
C 144.227063 76.181286 144.740644 77.421182 145.654697 78.335235 
C 146.568749 79.249287 147.808645 79.762869 149.101311 79.762869 
z
" style="fill:#7570b3;stroke:#7570b3;stroke-width:0.886227;"/>
    <path clip-path="url(#p1e8253b2b7)" d="M 170.080988 70.209896 
C 171.373653 70.209896 172.613549 69.696315 173.527602 68.782262 
C 174.441654 67.86821 174.955236 66.628314 174.955236 65.335648 
C 174.955236 64.042983 174.441654 62.803087 173.527602 61.889035 
C 172.613549 60.974982 171.373653 60.4614 170.080988 60.4614 
C 168.788322 60.4614 167.548426 60.974982 166.634374 61.889035 
C 165.720321 62.803087 165.20674 64.042983 165.20674 65.335648 
C 165.20674 66.628314 165.720321 67.86821 166.634374 68.782262 
C 167.548426 69.696315 168.788322 70.209896 170.080988 70.209896 
z
" style="fill:#7570b3;stroke:#7570b3;stroke-width:0.886227;"/>
   </g>
   <g id="PathCollection_24">
    <path clip-path="url(#p1e8253b2b7)" d="M 408.140269 62.268395 
L 417.888765 62.268395 
M 413.014517 67.142643 
L 413.014517 57.394147 
" style="fill:#7570b3;stroke:#7570b3;stroke-width:0.886227;"/>
    <path clip-path="url(#p1e8253b2b7)" d="M 384.719996 72.179664 
L 394.468492 72.179664 
M 389.594244 77.053912 
L 389.594244 67.305416 
" style="fill:#7570b3;stroke:#7570b3;stroke-width:0.886227;"/>
    <path clip-path="url(#p1e8253b2b7)" d="M 388.551818 74.133897 
L 398.300314 74.133897 
M 393.426066 79.008145 
L 393.426066 69.259649 
" style="fill:#7570b3;stroke:#7570b3;stroke-width:0.886227;"/>
   </g>
   <g id="patch_3">
    <path d="M 437.969063 314.142773 
L 512.194687 314.142773 
L 512.194687 66.387968 
L 437.969063 66.387968 
z
" style="fill:#ffffff;"/>
   </g>
   <g id="text_11">
    <!-- CellLine -->
    <defs>
     <path d="M 64.40625 67.28125 
L 64.40625 56.890625 
Q 59.421875 61.53125 53.78125 63.8125 
Q 48.140625 66.109375 41.796875 66.109375 
Q 29.296875 66.109375 22.65625 58.46875 
Q 16.015625 50.828125 16.015625 36.375 
Q 16.015625 21.96875 22.65625 14.328125 
Q 29.296875 6.6875 41.796875 6.6875 
Q 48.140625 6.6875 53.78125 8.984375 
Q 59.421875 11.28125 64.40625 15.921875 
L 64.40625 5.609375 
Q 59.234375 2.09375 53.4375 0.328125 
Q 47.65625 -1.421875 41.21875 -1.421875 
Q 24.65625 -1.421875 15.125 8.703125 
Q 5.609375 18.84375 5.609375 36.375 
Q 5.609375 53.953125 15.125 64.078125 
Q 24.65625 74.21875 41.21875 74.21875 
Q 47.75 74.21875 53.53125 72.484375 
Q 59.328125 70.75 64.40625 67.28125 
z
" id="DejaVuSans-67"/>
     <path d="M 56.203125 29.59375 
L 56.203125 25.203125 
L 14.890625 25.203125 
Q 15.484375 15.921875 20.484375 11.0625 
Q 25.484375 6.203125 34.421875 6.203125 
Q 39.59375 6.203125 44.453125 7.46875 
Q 49.3125 8.734375 54.109375 11.28125 
L 54.109375 2.78125 
Q 49.265625 0.734375 44.1875 -0.34375 
Q 39.109375 -1.421875 33.890625 -1.421875 
Q 20.796875 -1.421875 13.15625 6.1875 
Q 5.515625 13.8125 5.515625 26.8125 
Q 5.515625 40.234375 12.765625 48.109375 
Q 20.015625 56 32.328125 56 
Q 43.359375 56 49.78125 48.890625 
Q 56.203125 41.796875 56.203125 29.59375 
z
M 47.21875 32.234375 
Q 47.125 39.59375 43.09375 43.984375 
Q 39.0625 48.390625 32.421875 48.390625 
Q 24.90625 48.390625 20.390625 44.140625 
Q 15.875 39.890625 15.1875 32.171875 
z
" id="DejaVuSans-101"/>
     <path d="M 9.421875 75.984375 
L 18.40625 75.984375 
L 18.40625 0 
L 9.421875 0 
z
" id="DejaVuSans-108"/>
     <path d="M 9.8125 72.90625 
L 19.671875 72.90625 
L 19.671875 8.296875 
L 55.171875 8.296875 
L 55.171875 0 
L 9.8125 0 
z
" id="DejaVuSans-76"/>
     <path d="M 9.421875 54.6875 
L 18.40625 54.6875 
L 18.40625 0 
L 9.421875 0 
z
M 9.421875 75.984375 
L 18.40625 75.984375 
L 18.40625 64.59375 
L 9.421875 64.59375 
z
" id="DejaVuSans-105"/>
     <path d="M 54.890625 33.015625 
L 54.890625 0 
L 45.90625 0 
L 45.90625 32.71875 
Q 45.90625 40.484375 42.875 44.328125 
Q 39.84375 48.1875 33.796875 48.1875 
Q 26.515625 48.1875 22.3125 43.546875 
Q 18.109375 38.921875 18.109375 30.90625 
L 18.109375 0 
L 9.078125 0 
L 9.078125 54.6875 
L 18.109375 54.6875 
L 18.109375 46.1875 
Q 21.34375 51.125 25.703125 53.5625 
Q 30.078125 56 35.796875 56 
Q 45.21875 56 50.046875 50.171875 
Q 54.890625 44.34375 54.890625 33.015625 
z
" id="DejaVuSans-110"/>
    </defs>
    <g transform="translate(450.169062 89.981562)scale(0.11 -0.11)">
     <use xlink:href="#DejaVuSans-67"/>
     <use x="69.824219" xlink:href="#DejaVuSans-101"/>
     <use x="131.347656" xlink:href="#DejaVuSans-108"/>
     <use x="159.130859" xlink:href="#DejaVuSans-108"/>
     <use x="186.914062" xlink:href="#DejaVuSans-76"/>
     <use x="242.626953" xlink:href="#DejaVuSans-105"/>
     <use x="270.410156" xlink:href="#DejaVuSans-110"/>
     <use x="333.789062" xlink:href="#DejaVuSans-101"/>
    </g>
   </g>
   <g id="patch_4">
    <path clip-path="url(#p93649e4d7a)" d="M 450.169062 109.473906 
L 466.009062 109.473906 
L 466.009062 93.633906 
L 450.169062 93.633906 
z
" style="fill:#ffffff;stroke:#000000;stroke-linejoin:miter;"/>
   </g>
   <g id="line2d_31">
    <path clip-path="url(#p93649e4d7a)" d="M 458.089063 101.553906 
" style="fill:none;stroke:#1f77b4;stroke-linecap:square;stroke-width:1.5;"/>
    <defs>
     <path d="M 0 1.772454 
C 0.47006 1.772454 0.920931 1.585697 1.253314 1.253314 
C 1.585697 0.920931 1.772454 0.47006 1.772454 0 
C 1.772454 -0.47006 1.585697 -0.920931 1.253314 -1.253314 
C 0.920931 -1.585697 0.47006 -1.772454 0 -1.772454 
C -0.47006 -1.772454 -0.920931 -1.585697 -1.253314 -1.253314 
C -1.585697 -0.920931 -1.772454 -0.47006 -1.772454 0 
C -1.772454 0.47006 -1.585697 0.920931 -1.253314 1.253314 
C -0.920931 1.585697 -0.47006 1.772454 0 1.772454 
z
" id="m6b2dd6ca99" style="stroke:#1b9e77;stroke-width:0.886227;"/>
    </defs>
    <g clip-path="url(#p93649e4d7a)">
     <use style="fill:#1b9e77;stroke:#1b9e77;stroke-width:0.886227;" x="458.089063" xlink:href="#m6b2dd6ca99" y="101.553906"/>
    </g>
   </g>
   <g id="text_12">
    <!-- CloneA -->
    <defs>
     <path d="M 30.609375 48.390625 
Q 23.390625 48.390625 19.1875 42.75 
Q 14.984375 37.109375 14.984375 27.296875 
Q 14.984375 17.484375 19.15625 11.84375 
Q 23.34375 6.203125 30.609375 6.203125 
Q 37.796875 6.203125 41.984375 11.859375 
Q 46.1875 17.53125 46.1875 27.296875 
Q 46.1875 37.015625 41.984375 42.703125 
Q 37.796875 48.390625 30.609375 48.390625 
z
M 30.609375 56 
Q 42.328125 56 49.015625 48.375 
Q 55.71875 40.765625 55.71875 27.296875 
Q 55.71875 13.875 49.015625 6.21875 
Q 42.328125 -1.421875 30.609375 -1.421875 
Q 18.84375 -1.421875 12.171875 6.21875 
Q 5.515625 13.875 5.515625 27.296875 
Q 5.515625 40.765625 12.171875 48.375 
Q 18.84375 56 30.609375 56 
z
" id="DejaVuSans-111"/>
     <path d="M 34.1875 63.1875 
L 20.796875 26.90625 
L 47.609375 26.90625 
z
M 28.609375 72.90625 
L 39.796875 72.90625 
L 67.578125 0 
L 57.328125 0 
L 50.6875 18.703125 
L 17.828125 18.703125 
L 11.1875 0 
L 0.78125 0 
z
" id="DejaVuSans-65"/>
    </defs>
    <g transform="translate(469.009063 103.982156)scale(0.088 -0.088)">
     <use xlink:href="#DejaVuSans-67"/>
     <use x="69.824219" xlink:href="#DejaVuSans-108"/>
     <use x="97.607422" xlink:href="#DejaVuSans-111"/>
     <use x="158.789062" xlink:href="#DejaVuSans-110"/>
     <use x="222.167969" xlink:href="#DejaVuSans-101"/>
     <use x="283.691406" xlink:href="#DejaVuSans-65"/>
    </g>
   </g>
   <g id="patch_5">
    <path clip-path="url(#pa77589a0ee)" d="M 450.169062 127.313906 
L 466.009062 127.313906 
L 466.009062 111.473906 
L 450.169062 111.473906 
z
" style="fill:#ffffff;stroke:#000000;stroke-linejoin:miter;"/>
   </g>
   <g id="line2d_32">
    <path clip-path="url(#pa77589a0ee)" d="M 458.089063 119.393906 
" style="fill:none;stroke:#1f77b4;stroke-linecap:square;stroke-width:1.5;"/>
    <defs>
     <path d="M 0 1.772454 
C 0.47006 1.772454 0.920931 1.585697 1.253314 1.253314 
C 1.585697 0.920931 1.772454 0.47006 1.772454 0 
C 1.772454 -0.47006 1.585697 -0.920931 1.253314 -1.253314 
C 0.920931 -1.585697 0.47006 -1.772454 0 -1.772454 
C -0.47006 -1.772454 -0.920931 -1.585697 -1.253314 -1.253314 
C -1.585697 -0.920931 -1.772454 -0.47006 -1.772454 0 
C -1.772454 0.47006 -1.585697 0.920931 -1.253314 1.253314 
C -0.920931 1.585697 -0.47006 1.772454 0 1.772454 
z
" id="mac5731599c" style="stroke:#d95f02;stroke-width:0.886227;"/>
    </defs>
    <g clip-path="url(#pa77589a0ee)">
     <use style="fill:#d95f02;stroke:#d95f02;stroke-width:0.886227;" x="458.089063" xlink:href="#mac5731599c" y="119.393906"/>
    </g>
   </g>
   <g id="text_13">
    <!-- CloneE -->
    <defs>
     <path d="M 9.8125 72.90625 
L 55.90625 72.90625 
L 55.90625 64.59375 
L 19.671875 64.59375 
L 19.671875 43.015625 
L 54.390625 43.015625 
L 54.390625 34.71875 
L 19.671875 34.71875 
L 19.671875 8.296875 
L 56.78125 8.296875 
L 56.78125 0 
L 9.8125 0 
z
" id="DejaVuSans-69"/>
    </defs>
    <g transform="translate(469.009063 121.822156)scale(0.088 -0.088)">
     <use xlink:href="#DejaVuSans-67"/>
     <use x="69.824219" xlink:href="#DejaVuSans-108"/>
     <use x="97.607422" xlink:href="#DejaVuSans-111"/>
     <use x="158.789062" xlink:href="#DejaVuSans-110"/>
     <use x="222.167969" xlink:href="#DejaVuSans-101"/>
     <use x="283.691406" xlink:href="#DejaVuSans-69"/>
    </g>
   </g>
   <g id="patch_6">
    <path clip-path="url(#p63d6e0c8d1)" d="M 450.169062 145.153906 
L 466.009062 145.153906 
L 466.009062 129.313906 
L 450.169062 129.313906 
z
" style="fill:#ffffff;stroke:#000000;stroke-linejoin:miter;"/>
   </g>
   <g id="line2d_33">
    <path clip-path="url(#p63d6e0c8d1)" d="M 458.089063 137.233906 
" style="fill:none;stroke:#1f77b4;stroke-linecap:square;stroke-width:1.5;"/>
    <defs>
     <path d="M 0 1.772454 
C 0.47006 1.772454 0.920931 1.585697 1.253314 1.253314 
C 1.585697 0.920931 1.772454 0.47006 1.772454 0 
C 1.772454 -0.47006 1.585697 -0.920931 1.253314 -1.253314 
C 0.920931 -1.585697 0.47006 -1.772454 0 -1.772454 
C -0.47006 -1.772454 -0.920931 -1.585697 -1.253314 -1.253314 
C -1.585697 -0.920931 -1.772454 -0.47006 -1.772454 0 
C -1.772454 0.47006 -1.585697 0.920931 -1.253314 1.253314 
C -0.920931 1.585697 -0.47006 1.772454 0 1.772454 
z
" id="m39bde18e68" style="stroke:#7570b3;stroke-width:0.886227;"/>
    </defs>
    <g clip-path="url(#p63d6e0c8d1)">
     <use style="fill:#7570b3;stroke:#7570b3;stroke-width:0.886227;" x="458.089063" xlink:href="#m39bde18e68" y="137.233906"/>
    </g>
   </g>
   <g id="text_14">
    <!-- WT -->
    <defs>
     <path d="M 3.328125 72.90625 
L 13.28125 72.90625 
L 28.609375 11.28125 
L 43.890625 72.90625 
L 54.984375 72.90625 
L 70.3125 11.28125 
L 85.59375 72.90625 
L 95.609375 72.90625 
L 77.296875 0 
L 64.890625 0 
L 49.515625 63.28125 
L 33.984375 0 
L 21.578125 0 
z
" id="DejaVuSans-87"/>
     <path d="M -0.296875 72.90625 
L 61.375 72.90625 
L 61.375 64.59375 
L 35.5 64.59375 
L 35.5 0 
L 25.59375 0 
L 25.59375 64.59375 
L -0.296875 64.59375 
z
" id="DejaVuSans-84"/>
    </defs>
    <g transform="translate(469.009063 139.662156)scale(0.088 -0.088)">
     <use xlink:href="#DejaVuSans-87"/>
     <use x="98.876953" xlink:href="#DejaVuSans-84"/>
    </g>
   </g>
   <g id="text_15">
    <!-- Batch -->
    <defs>
     <path d="M 19.671875 34.8125 
L 19.671875 8.109375 
L 35.5 8.109375 
Q 43.453125 8.109375 47.28125 11.40625 
Q 51.125 14.703125 51.125 21.484375 
Q 51.125 28.328125 47.28125 31.5625 
Q 43.453125 34.8125 35.5 34.8125 
z
M 19.671875 64.796875 
L 19.671875 42.828125 
L 34.28125 42.828125 
Q 41.5 42.828125 45.03125 45.53125 
Q 48.578125 48.25 48.578125 53.8125 
Q 48.578125 59.328125 45.03125 62.0625 
Q 41.5 64.796875 34.28125 64.796875 
z
M 9.8125 72.90625 
L 35.015625 72.90625 
Q 46.296875 72.90625 52.390625 68.21875 
Q 58.5 63.53125 58.5 54.890625 
Q 58.5 48.1875 55.375 44.234375 
Q 52.25 40.28125 46.1875 39.3125 
Q 53.46875 37.75 57.5 32.78125 
Q 61.53125 27.828125 61.53125 20.40625 
Q 61.53125 10.640625 54.890625 5.3125 
Q 48.25 0 35.984375 0 
L 9.8125 0 
z
" id="DejaVuSans-66"/>
     <path d="M 34.28125 27.484375 
Q 23.390625 27.484375 19.1875 25 
Q 14.984375 22.515625 14.984375 16.5 
Q 14.984375 11.71875 18.140625 8.90625 
Q 21.296875 6.109375 26.703125 6.109375 
Q 34.1875 6.109375 38.703125 11.40625 
Q 43.21875 16.703125 43.21875 25.484375 
L 43.21875 27.484375 
z
M 52.203125 31.203125 
L 52.203125 0 
L 43.21875 0 
L 43.21875 8.296875 
Q 40.140625 3.328125 35.546875 0.953125 
Q 30.953125 -1.421875 24.3125 -1.421875 
Q 15.921875 -1.421875 10.953125 3.296875 
Q 6 8.015625 6 15.921875 
Q 6 25.140625 12.171875 29.828125 
Q 18.359375 34.515625 30.609375 34.515625 
L 43.21875 34.515625 
L 43.21875 35.40625 
Q 43.21875 41.609375 39.140625 45 
Q 35.0625 48.390625 27.6875 48.390625 
Q 23 48.390625 18.546875 47.265625 
Q 14.109375 46.140625 10.015625 43.890625 
L 10.015625 52.203125 
Q 14.9375 54.109375 19.578125 55.046875 
Q 24.21875 56 28.609375 56 
Q 40.484375 56 46.34375 49.84375 
Q 52.203125 43.703125 52.203125 31.203125 
z
" id="DejaVuSans-97"/>
     <path d="M 18.3125 70.21875 
L 18.3125 54.6875 
L 36.8125 54.6875 
L 36.8125 47.703125 
L 18.3125 47.703125 
L 18.3125 18.015625 
Q 18.3125 11.328125 20.140625 9.421875 
Q 21.96875 7.515625 27.59375 7.515625 
L 36.8125 7.515625 
L 36.8125 0 
L 27.59375 0 
Q 17.1875 0 13.234375 3.875 
Q 9.28125 7.765625 9.28125 18.015625 
L 9.28125 47.703125 
L 2.6875 47.703125 
L 2.6875 54.6875 
L 9.28125 54.6875 
L 9.28125 70.21875 
z
" id="DejaVuSans-116"/>
     <path d="M 48.78125 52.59375 
L 48.78125 44.1875 
Q 44.96875 46.296875 41.140625 47.34375 
Q 37.3125 48.390625 33.40625 48.390625 
Q 24.65625 48.390625 19.8125 42.84375 
Q 14.984375 37.3125 14.984375 27.296875 
Q 14.984375 17.28125 19.8125 11.734375 
Q 24.65625 6.203125 33.40625 6.203125 
Q 37.3125 6.203125 41.140625 7.25 
Q 44.96875 8.296875 48.78125 10.40625 
L 48.78125 2.09375 
Q 45.015625 0.34375 40.984375 -0.53125 
Q 36.96875 -1.421875 32.421875 -1.421875 
Q 20.0625 -1.421875 12.78125 6.34375 
Q 5.515625 14.109375 5.515625 27.296875 
Q 5.515625 40.671875 12.859375 48.328125 
Q 20.21875 56 33.015625 56 
Q 37.15625 56 41.109375 55.140625 
Q 45.0625 54.296875 48.78125 52.59375 
z
" id="DejaVuSans-99"/>
     <path d="M 54.890625 33.015625 
L 54.890625 0 
L 45.90625 0 
L 45.90625 32.71875 
Q 45.90625 40.484375 42.875 44.328125 
Q 39.84375 48.1875 33.796875 48.1875 
Q 26.515625 48.1875 22.3125 43.546875 
Q 18.109375 38.921875 18.109375 30.90625 
L 18.109375 0 
L 9.078125 0 
L 9.078125 75.984375 
L 18.109375 75.984375 
L 18.109375 46.1875 
Q 21.34375 51.125 25.703125 53.5625 
Q 30.078125 56 35.796875 56 
Q 45.21875 56 50.046875 50.171875 
Q 54.890625 44.34375 54.890625 33.015625 
z
" id="DejaVuSans-104"/>
    </defs>
    <g transform="translate(450.169062 166.5475)scale(0.11 -0.11)">
     <use xlink:href="#DejaVuSans-66"/>
     <use x="68.603516" xlink:href="#DejaVuSans-97"/>
     <use x="129.882812" xlink:href="#DejaVuSans-116"/>
     <use x="169.091797" xlink:href="#DejaVuSans-99"/>
     <use x="224.072266" xlink:href="#DejaVuSans-104"/>
    </g>
   </g>
   <g id="patch_7">
    <path clip-path="url(#p0ef73ee5bd)" d="M 450.169062 186.039843 
L 466.009062 186.039843 
L 466.009062 170.199843 
L 450.169062 170.199843 
z
" style="fill:#ffffff;stroke:#000000;stroke-linejoin:miter;"/>
   </g>
   <g id="line2d_34">
    <path clip-path="url(#p0ef73ee5bd)" d="M 458.089063 178.119843 
" style="fill:none;stroke:#1f77b4;stroke-linecap:square;stroke-width:1.5;"/>
    <defs>
     <path d="M 0 1.772454 
C 0.47006 1.772454 0.920931 1.585697 1.253314 1.253314 
C 1.585697 0.920931 1.772454 0.47006 1.772454 0 
C 1.772454 -0.47006 1.585697 -0.920931 1.253314 -1.253314 
C 0.920931 -1.585697 0.47006 -1.772454 0 -1.772454 
C -0.47006 -1.772454 -0.920931 -1.585697 -1.253314 -1.253314 
C -1.585697 -0.920931 -1.772454 -0.47006 -1.772454 0 
C -1.772454 0.47006 -1.585697 0.920931 -1.253314 1.253314 
C -0.920931 1.585697 -0.47006 1.772454 0 1.772454 
z
" id="mb18baaaa3f" style="stroke:#000000;stroke-width:0.886227;"/>
    </defs>
    <g clip-path="url(#p0ef73ee5bd)">
     <use style="stroke:#000000;stroke-width:0.886227;" x="458.089063" xlink:href="#mb18baaaa3f" y="178.119843"/>
    </g>
   </g>
   <g id="text_16">
    <!-- 1 -->
    <defs>
     <path d="M 12.40625 8.296875 
L 28.515625 8.296875 
L 28.515625 63.921875 
L 10.984375 60.40625 
L 10.984375 69.390625 
L 28.421875 72.90625 
L 38.28125 72.90625 
L 38.28125 8.296875 
L 54.390625 8.296875 
L 54.390625 0 
L 12.40625 0 
z
" id="DejaVuSans-49"/>
    </defs>
    <g transform="translate(469.009063 180.548093)scale(0.088 -0.088)">
     <use xlink:href="#DejaVuSans-49"/>
    </g>
   </g>
   <g id="patch_8">
    <path clip-path="url(#ped6e09bfc4)" d="M 450.169062 203.879843 
L 466.009062 203.879843 
L 466.009062 188.039843 
L 450.169062 188.039843 
z
" style="fill:#ffffff;stroke:#000000;stroke-linejoin:miter;"/>
   </g>
   <g id="line2d_35">
    <path clip-path="url(#ped6e09bfc4)" d="M 458.089063 195.959843 
" style="fill:none;stroke:#1f77b4;stroke-linecap:square;stroke-width:1.5;"/>
    <defs>
     <path d="M -1.772454 0 
L 1.772454 0 
M 0 1.772454 
L 0 -1.772454 
" id="ma9adc6fd0c" style="stroke:#000000;stroke-width:0.886227;"/>
    </defs>
    <g clip-path="url(#ped6e09bfc4)">
     <use style="stroke:#000000;stroke-width:0.886227;" x="458.089063" xlink:href="#ma9adc6fd0c" y="195.959843"/>
    </g>
   </g>
   <g id="text_17">
    <!-- 2 -->
    <g transform="translate(469.009063 198.388093)scale(0.088 -0.088)">
     <use xlink:href="#DejaVuSans-50"/>
    </g>
   </g>
   <g id="text_18">
    <!-- Dosage -->
    <defs>
     <path d="M 19.671875 64.796875 
L 19.671875 8.109375 
L 31.59375 8.109375 
Q 46.6875 8.109375 53.6875 14.9375 
Q 60.6875 21.78125 60.6875 36.53125 
Q 60.6875 51.171875 53.6875 57.984375 
Q 46.6875 64.796875 31.59375 64.796875 
z
M 9.8125 72.90625 
L 30.078125 72.90625 
Q 51.265625 72.90625 61.171875 64.09375 
Q 71.09375 55.28125 71.09375 36.53125 
Q 71.09375 17.671875 61.125 8.828125 
Q 51.171875 0 30.078125 0 
L 9.8125 0 
z
" id="DejaVuSans-68"/>
     <path d="M 44.28125 53.078125 
L 44.28125 44.578125 
Q 40.484375 46.53125 36.375 47.5 
Q 32.28125 48.484375 27.875 48.484375 
Q 21.1875 48.484375 17.84375 46.4375 
Q 14.5 44.390625 14.5 40.28125 
Q 14.5 37.15625 16.890625 35.375 
Q 19.28125 33.59375 26.515625 31.984375 
L 29.59375 31.296875 
Q 39.15625 29.25 43.1875 25.515625 
Q 47.21875 21.78125 47.21875 15.09375 
Q 47.21875 7.46875 41.1875 3.015625 
Q 35.15625 -1.421875 24.609375 -1.421875 
Q 20.21875 -1.421875 15.453125 -0.5625 
Q 10.6875 0.296875 5.421875 2 
L 5.421875 11.28125 
Q 10.40625 8.6875 15.234375 7.390625 
Q 20.0625 6.109375 24.8125 6.109375 
Q 31.15625 6.109375 34.5625 8.28125 
Q 37.984375 10.453125 37.984375 14.40625 
Q 37.984375 18.0625 35.515625 20.015625 
Q 33.0625 21.96875 24.703125 23.78125 
L 21.578125 24.515625 
Q 13.234375 26.265625 9.515625 29.90625 
Q 5.8125 33.546875 5.8125 39.890625 
Q 5.8125 47.609375 11.28125 51.796875 
Q 16.75 56 26.8125 56 
Q 31.78125 56 36.171875 55.265625 
Q 40.578125 54.546875 44.28125 53.078125 
z
" id="DejaVuSans-115"/>
     <path d="M 45.40625 27.984375 
Q 45.40625 37.75 41.375 43.109375 
Q 37.359375 48.484375 30.078125 48.484375 
Q 22.859375 48.484375 18.828125 43.109375 
Q 14.796875 37.75 14.796875 27.984375 
Q 14.796875 18.265625 18.828125 12.890625 
Q 22.859375 7.515625 30.078125 7.515625 
Q 37.359375 7.515625 41.375 12.890625 
Q 45.40625 18.265625 45.40625 27.984375 
z
M 54.390625 6.78125 
Q 54.390625 -7.171875 48.1875 -13.984375 
Q 42 -20.796875 29.203125 -20.796875 
Q 24.46875 -20.796875 20.265625 -20.09375 
Q 16.0625 -19.390625 12.109375 -17.921875 
L 12.109375 -9.1875 
Q 16.0625 -11.328125 19.921875 -12.34375 
Q 23.78125 -13.375 27.78125 -13.375 
Q 36.625 -13.375 41.015625 -8.765625 
Q 45.40625 -4.15625 45.40625 5.171875 
L 45.40625 9.625 
Q 42.625 4.78125 38.28125 2.390625 
Q 33.9375 0 27.875 0 
Q 17.828125 0 11.671875 7.65625 
Q 5.515625 15.328125 5.515625 27.984375 
Q 5.515625 40.671875 11.671875 48.328125 
Q 17.828125 56 27.875 56 
Q 33.9375 56 38.28125 53.609375 
Q 42.625 51.21875 45.40625 46.390625 
L 45.40625 54.6875 
L 54.390625 54.6875 
z
" id="DejaVuSans-103"/>
    </defs>
    <g transform="translate(450.169062 225.273437)scale(0.11 -0.11)">
     <use xlink:href="#DejaVuSans-68"/>
     <use x="77.001953" xlink:href="#DejaVuSans-111"/>
     <use x="138.183594" xlink:href="#DejaVuSans-115"/>
     <use x="190.283203" xlink:href="#DejaVuSans-97"/>
     <use x="251.5625" xlink:href="#DejaVuSans-103"/>
     <use x="315.039062" xlink:href="#DejaVuSans-101"/>
    </g>
   </g>
   <g id="patch_9">
    <path clip-path="url(#p677f6b6719)" d="M 450.169062 244.765781 
L 468.723786 244.765781 
L 468.723786 228.925781 
L 450.169062 228.925781 
z
" style="fill:#ffffff;stroke:#000000;stroke-linejoin:miter;"/>
   </g>
   <g id="line2d_36">
    <path clip-path="url(#p677f6b6719)" d="M 459.446424 236.845781 
" style="fill:none;stroke:#1f77b4;stroke-linecap:square;stroke-width:1.5;"/>
    <defs>
     <path d="M 0 2.215567 
C 0.587575 2.215567 1.151164 1.982121 1.566643 1.566643 
C 1.982121 1.151164 2.215567 0.587575 2.215567 0 
C 2.215567 -0.587575 1.982121 -1.151164 1.566643 -1.566643 
C 1.151164 -1.982121 0.587575 -2.215567 0 -2.215567 
C -0.587575 -2.215567 -1.151164 -1.982121 -1.566643 -1.566643 
C -1.982121 -1.151164 -2.215567 -0.587575 -2.215567 0 
C -2.215567 0.587575 -1.982121 1.151164 -1.566643 1.566643 
C -1.151164 1.982121 -0.587575 2.215567 0 2.215567 
z
" id="m8c13a62374" style="stroke:#000000;stroke-width:0.886227;"/>
    </defs>
    <g clip-path="url(#p677f6b6719)">
     <use style="stroke:#000000;stroke-width:0.886227;" x="459.446424" xlink:href="#m8c13a62374" y="236.845781"/>
    </g>
   </g>
   <g id="text_19">
    <!-- 0 -->
    <g transform="translate(471.723786 239.274031)scale(0.088 -0.088)">
     <use xlink:href="#DejaVuSans-48"/>
    </g>
   </g>
   <g id="patch_10">
    <path clip-path="url(#p2ab79b9296)" d="M 450.169062 262.605781 
L 468.723786 262.605781 
L 468.723786 246.765781 
L 450.169062 246.765781 
z
" style="fill:#ffffff;stroke:#000000;stroke-linejoin:miter;"/>
   </g>
   <g id="line2d_37">
    <path clip-path="url(#p2ab79b9296)" d="M 459.446424 254.685781 
" style="fill:none;stroke:#1f77b4;stroke-linecap:square;stroke-width:1.5;"/>
    <defs>
     <path d="M 0 3.101794 
C 0.822605 3.101794 1.61163 2.77497 2.1933 2.1933 
C 2.77497 1.61163 3.101794 0.822605 3.101794 0 
C 3.101794 -0.822605 2.77497 -1.61163 2.1933 -2.1933 
C 1.61163 -2.77497 0.822605 -3.101794 0 -3.101794 
C -0.822605 -3.101794 -1.61163 -2.77497 -2.1933 -2.1933 
C -2.77497 -1.61163 -3.101794 -0.822605 -3.101794 0 
C -3.101794 0.822605 -2.77497 1.61163 -2.1933 2.1933 
C -1.61163 2.77497 -0.822605 3.101794 0 3.101794 
z
" id="m59ec8233bf" style="stroke:#000000;stroke-width:0.886227;"/>
    </defs>
    <g clip-path="url(#p2ab79b9296)">
     <use style="stroke:#000000;stroke-width:0.886227;" x="459.446424" xlink:href="#m59ec8233bf" y="254.685781"/>
    </g>
   </g>
   <g id="text_20">
    <!-- 0.7 -->
    <defs>
     <path d="M 10.6875 12.40625 
L 21 12.40625 
L 21 0 
L 10.6875 0 
z
" id="DejaVuSans-46"/>
    </defs>
    <g transform="translate(471.723786 257.114031)scale(0.088 -0.088)">
     <use xlink:href="#DejaVuSans-48"/>
     <use x="63.623047" xlink:href="#DejaVuSans-46"/>
     <use x="95.410156" xlink:href="#DejaVuSans-55"/>
    </g>
   </g>
   <g id="patch_11">
    <path clip-path="url(#pf64abbcd80)" d="M 450.169062 281.38805 
L 468.723786 281.38805 
L 468.723786 264.605781 
L 450.169062 264.605781 
z
" style="fill:#ffffff;stroke:#000000;stroke-linejoin:miter;"/>
   </g>
   <g id="line2d_38">
    <path clip-path="url(#pf64abbcd80)" d="M 459.446424 272.996915 
" style="fill:none;stroke:#1f77b4;stroke-linecap:square;stroke-width:1.5;"/>
    <defs>
     <path d="M 0 3.988021 
C 1.057636 3.988021 2.072096 3.567818 2.819957 2.819957 
C 3.567818 2.072096 3.988021 1.057636 3.988021 0 
C 3.988021 -1.057636 3.567818 -2.072096 2.819957 -2.819957 
C 2.072096 -3.567818 1.057636 -3.988021 0 -3.988021 
C -1.057636 -3.988021 -2.072096 -3.567818 -2.819957 -2.819957 
C -3.567818 -2.072096 -3.988021 -1.057636 -3.988021 0 
C -3.988021 1.057636 -3.567818 2.072096 -2.819957 2.819957 
C -2.072096 3.567818 -1.057636 3.988021 0 3.988021 
z
" id="m1d4ab16776" style="stroke:#000000;stroke-width:0.886227;"/>
    </defs>
    <g clip-path="url(#pf64abbcd80)">
     <use style="stroke:#000000;stroke-width:0.886227;" x="459.446424" xlink:href="#m1d4ab16776" y="272.996915"/>
    </g>
   </g>
   <g id="text_21">
    <!-- 7 -->
    <g transform="translate(471.723786 275.425165)scale(0.088 -0.088)">
     <use xlink:href="#DejaVuSans-55"/>
    </g>
   </g>
   <g id="patch_12">
    <path clip-path="url(#pdd67e9e68f)" d="M 450.169062 301.942773 
L 468.723786 301.942773 
L 468.723786 283.38805 
L 450.169062 283.38805 
z
" style="fill:#ffffff;stroke:#000000;stroke-linejoin:miter;"/>
   </g>
   <g id="line2d_39">
    <path clip-path="url(#pdd67e9e68f)" d="M 459.446424 292.665412 
" style="fill:none;stroke:#1f77b4;stroke-linecap:square;stroke-width:1.5;"/>
    <defs>
     <path d="M 0 4.874248 
C 1.292666 4.874248 2.532561 4.360667 3.446614 3.446614 
C 4.360667 2.532561 4.874248 1.292666 4.874248 0 
C 4.874248 -1.292666 4.360667 -2.532561 3.446614 -3.446614 
C 2.532561 -4.360667 1.292666 -4.874248 0 -4.874248 
C -1.292666 -4.874248 -2.532561 -4.360667 -3.446614 -3.446614 
C -4.360667 -2.532561 -4.874248 -1.292666 -4.874248 0 
C -4.874248 1.292666 -4.360667 2.532561 -3.446614 3.446614 
C -2.532561 4.360667 -1.292666 4.874248 0 4.874248 
z
" id="md3301d6f3e" style="stroke:#000000;stroke-width:0.886227;"/>
    </defs>
    <g clip-path="url(#pdd67e9e68f)">
     <use style="stroke:#000000;stroke-width:0.886227;" x="459.446424" xlink:href="#md3301d6f3e" y="292.665412"/>
    </g>
   </g>
   <g id="text_22">
    <!-- 70 -->
    <g transform="translate(471.723786 295.093662)scale(0.088 -0.088)">
     <use xlink:href="#DejaVuSans-55"/>
     <use x="63.623047" xlink:href="#DejaVuSans-48"/>
    </g>
   </g>
  </g>
  <g id="text_23">
   <!-- Cell Painting Merged (UMAP) -->
   <defs>
    <path id="DejaVuSans-32"/>
    <path d="M 19.671875 64.796875 
L 19.671875 37.40625 
L 32.078125 37.40625 
Q 38.96875 37.40625 42.71875 40.96875 
Q 46.484375 44.53125 46.484375 51.125 
Q 46.484375 57.671875 42.71875 61.234375 
Q 38.96875 64.796875 32.078125 64.796875 
z
M 9.8125 72.90625 
L 32.078125 72.90625 
Q 44.34375 72.90625 50.609375 67.359375 
Q 56.890625 61.8125 56.890625 51.125 
Q 56.890625 40.328125 50.609375 34.8125 
Q 44.34375 29.296875 32.078125 29.296875 
L 19.671875 29.296875 
L 19.671875 0 
L 9.8125 0 
z
" id="DejaVuSans-80"/>
    <path d="M 9.8125 72.90625 
L 24.515625 72.90625 
L 43.109375 23.296875 
L 61.8125 72.90625 
L 76.515625 72.90625 
L 76.515625 0 
L 66.890625 0 
L 66.890625 64.015625 
L 48.09375 14.015625 
L 38.1875 14.015625 
L 19.390625 64.015625 
L 19.390625 0 
L 9.8125 0 
z
" id="DejaVuSans-77"/>
    <path d="M 41.109375 46.296875 
Q 39.59375 47.171875 37.8125 47.578125 
Q 36.03125 48 33.890625 48 
Q 26.265625 48 22.1875 43.046875 
Q 18.109375 38.09375 18.109375 28.8125 
L 18.109375 0 
L 9.078125 0 
L 9.078125 54.6875 
L 18.109375 54.6875 
L 18.109375 46.1875 
Q 20.953125 51.171875 25.484375 53.578125 
Q 30.03125 56 36.53125 56 
Q 37.453125 56 38.578125 55.875 
Q 39.703125 55.765625 41.0625 55.515625 
z
" id="DejaVuSans-114"/>
    <path d="M 45.40625 46.390625 
L 45.40625 75.984375 
L 54.390625 75.984375 
L 54.390625 0 
L 45.40625 0 
L 45.40625 8.203125 
Q 42.578125 3.328125 38.25 0.953125 
Q 33.9375 -1.421875 27.875 -1.421875 
Q 17.96875 -1.421875 11.734375 6.484375 
Q 5.515625 14.40625 5.515625 27.296875 
Q 5.515625 40.1875 11.734375 48.09375 
Q 17.96875 56 27.875 56 
Q 33.9375 56 38.25 53.625 
Q 42.578125 51.265625 45.40625 46.390625 
z
M 14.796875 27.296875 
Q 14.796875 17.390625 18.875 11.75 
Q 22.953125 6.109375 30.078125 6.109375 
Q 37.203125 6.109375 41.296875 11.75 
Q 45.40625 17.390625 45.40625 27.296875 
Q 45.40625 37.203125 41.296875 42.84375 
Q 37.203125 48.484375 30.078125 48.484375 
Q 22.953125 48.484375 18.875 42.84375 
Q 14.796875 37.203125 14.796875 27.296875 
z
" id="DejaVuSans-100"/>
    <path d="M 31 75.875 
Q 24.46875 64.65625 21.28125 53.65625 
Q 18.109375 42.671875 18.109375 31.390625 
Q 18.109375 20.125 21.3125 9.0625 
Q 24.515625 -2 31 -13.1875 
L 23.1875 -13.1875 
Q 15.875 -1.703125 12.234375 9.375 
Q 8.59375 20.453125 8.59375 31.390625 
Q 8.59375 42.28125 12.203125 53.3125 
Q 15.828125 64.359375 23.1875 75.875 
z
" id="DejaVuSans-40"/>
    <path d="M 8.6875 72.90625 
L 18.609375 72.90625 
L 18.609375 28.609375 
Q 18.609375 16.890625 22.84375 11.734375 
Q 27.09375 6.59375 36.625 6.59375 
Q 46.09375 6.59375 50.34375 11.734375 
Q 54.59375 16.890625 54.59375 28.609375 
L 54.59375 72.90625 
L 64.5 72.90625 
L 64.5 27.390625 
Q 64.5 13.140625 57.4375 5.859375 
Q 50.390625 -1.421875 36.625 -1.421875 
Q 22.796875 -1.421875 15.734375 5.859375 
Q 8.6875 13.140625 8.6875 27.390625 
z
" id="DejaVuSans-85"/>
    <path d="M 8.015625 75.875 
L 15.828125 75.875 
Q 23.140625 64.359375 26.78125 53.3125 
Q 30.421875 42.28125 30.421875 31.390625 
Q 30.421875 20.453125 26.78125 9.375 
Q 23.140625 -1.703125 15.828125 -13.1875 
L 8.015625 -13.1875 
Q 14.5 -2 17.703125 9.0625 
Q 20.90625 20.125 20.90625 31.390625 
Q 20.90625 42.671875 17.703125 53.65625 
Q 14.5 64.65625 8.015625 75.875 
z
" id="DejaVuSans-41"/>
   </defs>
   <g transform="translate(134.631281 17.229937)scale(0.132 -0.132)">
    <use xlink:href="#DejaVuSans-67"/>
    <use x="69.824219" xlink:href="#DejaVuSans-101"/>
    <use x="131.347656" xlink:href="#DejaVuSans-108"/>
    <use x="159.130859" xlink:href="#DejaVuSans-108"/>
    <use x="186.914062" xlink:href="#DejaVuSans-32"/>
    <use x="218.701172" xlink:href="#DejaVuSans-80"/>
    <use x="278.941406" xlink:href="#DejaVuSans-97"/>
    <use x="340.220703" xlink:href="#DejaVuSans-105"/>
    <use x="368.003906" xlink:href="#DejaVuSans-110"/>
    <use x="431.382812" xlink:href="#DejaVuSans-116"/>
    <use x="470.591797" xlink:href="#DejaVuSans-105"/>
    <use x="498.375" xlink:href="#DejaVuSans-110"/>
    <use x="561.753906" xlink:href="#DejaVuSans-103"/>
    <use x="625.230469" xlink:href="#DejaVuSans-32"/>
    <use x="657.017578" xlink:href="#DejaVuSans-77"/>
    <use x="743.296875" xlink:href="#DejaVuSans-101"/>
    <use x="804.820312" xlink:href="#DejaVuSans-114"/>
    <use x="845.917969" xlink:href="#DejaVuSans-103"/>
    <use x="909.394531" xlink:href="#DejaVuSans-101"/>
    <use x="970.917969" xlink:href="#DejaVuSans-100"/>
    <use x="1034.394531" xlink:href="#DejaVuSans-32"/>
    <use x="1066.181641" xlink:href="#DejaVuSans-40"/>
    <use x="1105.195312" xlink:href="#DejaVuSans-85"/>
    <use x="1178.388672" xlink:href="#DejaVuSans-77"/>
    <use x="1264.667969" xlink:href="#DejaVuSans-65"/>
    <use x="1333.076172" xlink:href="#DejaVuSans-80"/>
    <use x="1393.378906" xlink:href="#DejaVuSans-41"/>
   </g>
  </g>
 </g>
 <defs>
  <clipPath id="p1e8253b2b7">
   <rect height="332.64" width="390.6" x="40.169063" y="26.105371"/>
  </clipPath>
  <clipPath id="p93649e4d7a">
   <path d="M 450.169062 109.473906 
L 450.169062 93.633906 
L 466.009062 93.633906 
L 466.009062 109.473906 
"/>
  </clipPath>
  <clipPath id="pa77589a0ee">
   <path d="M 450.169062 127.313906 
L 450.169062 111.473906 
L 466.009062 111.473906 
L 466.009062 127.313906 
"/>
  </clipPath>
  <clipPath id="p63d6e0c8d1">
   <path d="M 450.169062 145.153906 
L 450.169062 129.313906 
L 466.009062 129.313906 
L 466.009062 145.153906 
"/>
  </clipPath>
  <clipPath id="p0ef73ee5bd">
   <path d="M 450.169062 186.039843 
L 450.169062 170.199843 
L 466.009062 170.199843 
L 466.009062 186.039843 
"/>
  </clipPath>
  <clipPath id="ped6e09bfc4">
   <path d="M 450.169062 203.879843 
L 450.169062 188.039843 
L 466.009062 188.039843 
L 466.009062 203.879843 
"/>
  </clipPath>
  <clipPath id="p677f6b6719">
   <path d="M 450.169062 244.765781 
L 450.169062 228.925781 
L 468.723786 228.925781 
L 468.723786 244.765781 
"/>
  </clipPath>
  <clipPath id="p2ab79b9296">
   <path d="M 450.169062 262.605781 
L 450.169062 246.765781 
L 468.723786 246.765781 
L 468.723786 262.605781 
"/>
  </clipPath>
  <clipPath id="pf64abbcd80">
   <path d="M 450.169062 281.38805 
L 450.169062 264.605781 
L 468.723786 264.605781 
L 468.723786 281.38805 
"/>
  </clipPath>
  <clipPath id="pdd67e9e68f">
   <path d="M 450.169062 301.942773 
L 450.169062 283.38805 
L 468.723786 283.38805 
L 468.723786 301.942773 
"/>
  </clipPath>
 </defs>
</svg>
