<?xml version="1.0" encoding="utf-8" standalone="no"?>
<!DOCTYPE svg PUBLIC "-//W3C//DTD SVG 1.1//EN"
  "http://www.w3.org/Graphics/SVG/1.1/DTD/svg11.dtd">
<!-- Created with matplotlib (https://matplotlib.org/) -->
<svg height="266.399034pt" version="1.1" viewBox="0 0 409.209812 266.399034" width="409.209812pt" xmlns="http://www.w3.org/2000/svg" xmlns:xlink="http://www.w3.org/1999/xlink">
 <defs>
  <style type="text/css">
*{stroke-linecap:butt;stroke-linejoin:round;}
  </style>
 </defs>
 <g id="figure_1">
  <g id="patch_1">
   <path d="M 0 266.399034 
L 409.209812 266.399034 
L 409.209812 0 
L 0 0 
z
" style="fill:#ffffff;stroke:#ffffff;stroke-linejoin:miter;"/>
  </g>
  <g id="axes_1">
   <g id="patch_2">
    <path d="M 32.794938 217.439517 
L 255.994937 217.439517 
L 255.994937 51.119517 
L 32.794938 51.119517 
z
" style="fill:#ffffff;stroke:#7f7f7f;stroke-linejoin:miter;"/>
   </g>
   <g id="matplotlib.axis_1">
    <g id="xtick_1">
     <g id="line2d_1">
      <path clip-path="url(#p04e2c064a5)" d="M 92.393843 217.439517 
L 92.393843 51.119517 
" style="fill:none;stroke:#e5e5e5;stroke-width:0.8;"/>
     </g>
     <g id="line2d_2">
      <path d="M 92.393843 217.439517 
" style="fill:none;stroke:#000000;stroke-width:1.5;"/>
      <defs>
       <path d="M 0 0 
L 0 2.75 
" id="m30d372a9cd" style="stroke:#000000;"/>
      </defs>
      <g>
       <use style="stroke:#000000;" x="92.393843" xlink:href="#m30d372a9cd" y="217.439517"/>
      </g>
     </g>
     <g id="text_1">
      <!-- 0 -->
      <defs>
       <path d="M 31.78125 66.40625 
Q 24.171875 66.40625 20.328125 58.90625 
Q 16.5 51.421875 16.5 36.375 
Q 16.5 21.390625 20.328125 13.890625 
Q 24.171875 6.390625 31.78125 6.390625 
Q 39.453125 6.390625 43.28125 13.890625 
Q 47.125 21.390625 47.125 36.375 
Q 47.125 51.421875 43.28125 58.90625 
Q 39.453125 66.40625 31.78125 66.40625 
z
M 31.78125 74.21875 
Q 44.046875 74.21875 50.515625 64.515625 
Q 56.984375 54.828125 56.984375 36.375 
Q 56.984375 17.96875 50.515625 8.265625 
Q 44.046875 -1.421875 31.78125 -1.421875 
Q 19.53125 -1.421875 13.0625 8.265625 
Q 6.59375 17.96875 6.59375 36.375 
Q 6.59375 54.828125 13.0625 64.515625 
Q 19.53125 74.21875 31.78125 74.21875 
z
" id="DejaVuSans-48"/>
      </defs>
      <g style="fill:#4d4d4d;" transform="translate(89.594343 229.076142)scale(0.088 -0.088)">
       <use xlink:href="#DejaVuSans-48"/>
      </g>
     </g>
    </g>
    <g id="xtick_2">
     <g id="line2d_3">
      <path clip-path="url(#p04e2c064a5)" d="M 154.949148 217.439517 
L 154.949148 51.119517 
" style="fill:none;stroke:#e5e5e5;stroke-width:0.8;"/>
     </g>
     <g id="line2d_4">
      <path d="M 154.949148 217.439517 
" style="fill:none;stroke:#000000;stroke-width:1.5;"/>
      <g>
       <use style="stroke:#000000;" x="154.949148" xlink:href="#m30d372a9cd" y="217.439517"/>
      </g>
     </g>
     <g id="text_2">
      <!-- 2 -->
      <defs>
       <path d="M 19.1875 8.296875 
L 53.609375 8.296875 
L 53.609375 0 
L 7.328125 0 
L 7.328125 8.296875 
Q 12.9375 14.109375 22.625 23.890625 
Q 32.328125 33.6875 34.8125 36.53125 
Q 39.546875 41.84375 41.421875 45.53125 
Q 43.3125 49.21875 43.3125 52.78125 
Q 43.3125 58.59375 39.234375 62.25 
Q 35.15625 65.921875 28.609375 65.921875 
Q 23.96875 65.921875 18.8125 64.3125 
Q 13.671875 62.703125 7.8125 59.421875 
L 7.8125 69.390625 
Q 13.765625 71.78125 18.9375 73 
Q 24.125 74.21875 28.421875 74.21875 
Q 39.75 74.21875 46.484375 68.546875 
Q 53.21875 62.890625 53.21875 53.421875 
Q 53.21875 48.921875 51.53125 44.890625 
Q 49.859375 40.875 45.40625 35.40625 
Q 44.1875 33.984375 37.640625 27.21875 
Q 31.109375 20.453125 19.1875 8.296875 
z
" id="DejaVuSans-50"/>
      </defs>
      <g style="fill:#4d4d4d;" transform="translate(152.149648 229.076142)scale(0.088 -0.088)">
       <use xlink:href="#DejaVuSans-50"/>
      </g>
     </g>
    </g>
    <g id="xtick_3">
     <g id="line2d_5">
      <path clip-path="url(#p04e2c064a5)" d="M 217.504453 217.439517 
L 217.504453 51.119517 
" style="fill:none;stroke:#e5e5e5;stroke-width:0.8;"/>
     </g>
     <g id="line2d_6">
      <path d="M 217.504453 217.439517 
" style="fill:none;stroke:#000000;stroke-width:1.5;"/>
      <g>
       <use style="stroke:#000000;" x="217.504453" xlink:href="#m30d372a9cd" y="217.439517"/>
      </g>
     </g>
     <g id="text_3">
      <!-- 4 -->
      <defs>
       <path d="M 37.796875 64.3125 
L 12.890625 25.390625 
L 37.796875 25.390625 
z
M 35.203125 72.90625 
L 47.609375 72.90625 
L 47.609375 25.390625 
L 58.015625 25.390625 
L 58.015625 17.1875 
L 47.609375 17.1875 
L 47.609375 0 
L 37.796875 0 
L 37.796875 17.1875 
L 4.890625 17.1875 
L 4.890625 26.703125 
z
" id="DejaVuSans-52"/>
      </defs>
      <g style="fill:#4d4d4d;" transform="translate(214.704953 229.076142)scale(0.088 -0.088)">
       <use xlink:href="#DejaVuSans-52"/>
      </g>
     </g>
    </g>
    <g id="xtick_4">
     <g id="line2d_7">
      <path clip-path="url(#p04e2c064a5)" d="M 61.11619 217.439517 
L 61.11619 51.119517 
" style="fill:none;stroke:#fafafa;"/>
     </g>
     <g id="line2d_8">
      <path d="M 61.11619 217.439517 
" style="fill:none;stroke:#000000;stroke-width:1.5;"/>
     </g>
    </g>
    <g id="xtick_5">
     <g id="line2d_9">
      <path clip-path="url(#p04e2c064a5)" d="M 123.671495 217.439517 
L 123.671495 51.119517 
" style="fill:none;stroke:#fafafa;"/>
     </g>
     <g id="line2d_10">
      <path d="M 123.671495 217.439517 
" style="fill:none;stroke:#000000;stroke-width:1.5;"/>
     </g>
    </g>
    <g id="xtick_6">
     <g id="line2d_11">
      <path clip-path="url(#p04e2c064a5)" d="M 186.2268 217.439517 
L 186.2268 51.119517 
" style="fill:none;stroke:#fafafa;"/>
     </g>
     <g id="line2d_12">
      <path d="M 186.2268 217.439517 
" style="fill:none;stroke:#000000;stroke-width:1.5;"/>
     </g>
    </g>
    <g id="xtick_7">
     <g id="line2d_13">
      <path clip-path="url(#p04e2c064a5)" d="M 248.782106 217.439517 
L 248.782106 51.119517 
" style="fill:none;stroke:#fafafa;"/>
     </g>
     <g id="line2d_14">
      <path d="M 248.782106 217.439517 
" style="fill:none;stroke:#000000;stroke-width:1.5;"/>
     </g>
    </g>
    <g id="text_4">
     <!-- UMAP X -->
     <defs>
      <path d="M 8.6875 72.90625 
L 18.609375 72.90625 
L 18.609375 28.609375 
Q 18.609375 16.890625 22.84375 11.734375 
Q 27.09375 6.59375 36.625 6.59375 
Q 46.09375 6.59375 50.34375 11.734375 
Q 54.59375 16.890625 54.59375 28.609375 
L 54.59375 72.90625 
L 64.5 72.90625 
L 64.5 27.390625 
Q 64.5 13.140625 57.4375 5.859375 
Q 50.390625 -1.421875 36.625 -1.421875 
Q 22.796875 -1.421875 15.734375 5.859375 
Q 8.6875 13.140625 8.6875 27.390625 
z
" id="DejaVuSans-85"/>
      <path d="M 9.8125 72.90625 
L 24.515625 72.90625 
L 43.109375 23.296875 
L 61.8125 72.90625 
L 76.515625 72.90625 
L 76.515625 0 
L 66.890625 0 
L 66.890625 64.015625 
L 48.09375 14.015625 
L 38.1875 14.015625 
L 19.390625 64.015625 
L 19.390625 0 
L 9.8125 0 
z
" id="DejaVuSans-77"/>
      <path d="M 34.1875 63.1875 
L 20.796875 26.90625 
L 47.609375 26.90625 
z
M 28.609375 72.90625 
L 39.796875 72.90625 
L 67.578125 0 
L 57.328125 0 
L 50.6875 18.703125 
L 17.828125 18.703125 
L 11.1875 0 
L 0.78125 0 
z
" id="DejaVuSans-65"/>
      <path d="M 19.671875 64.796875 
L 19.671875 37.40625 
L 32.078125 37.40625 
Q 38.96875 37.40625 42.71875 40.96875 
Q 46.484375 44.53125 46.484375 51.125 
Q 46.484375 57.671875 42.71875 61.234375 
Q 38.96875 64.796875 32.078125 64.796875 
z
M 9.8125 72.90625 
L 32.078125 72.90625 
Q 44.34375 72.90625 50.609375 67.359375 
Q 56.890625 61.8125 56.890625 51.125 
Q 56.890625 40.328125 50.609375 34.8125 
Q 44.34375 29.296875 32.078125 29.296875 
L 19.671875 29.296875 
L 19.671875 0 
L 9.8125 0 
z
" id="DejaVuSans-80"/>
      <path id="DejaVuSans-32"/>
      <path d="M 6.296875 72.90625 
L 16.890625 72.90625 
L 35.015625 45.796875 
L 53.21875 72.90625 
L 63.8125 72.90625 
L 40.375 37.890625 
L 65.375 0 
L 54.78125 0 
L 34.28125 31 
L 13.625 0 
L 2.984375 0 
L 29 38.921875 
z
" id="DejaVuSans-88"/>
     </defs>
     <g transform="translate(119.430016 243.664548)scale(0.11 -0.11)">
      <use xlink:href="#DejaVuSans-85"/>
      <use x="73.193359" xlink:href="#DejaVuSans-77"/>
      <use x="159.472656" xlink:href="#DejaVuSans-65"/>
      <use x="227.880859" xlink:href="#DejaVuSans-80"/>
      <use x="288.183594" xlink:href="#DejaVuSans-32"/>
      <use x="319.970703" xlink:href="#DejaVuSans-88"/>
     </g>
    </g>
   </g>
   <g id="matplotlib.axis_2">
    <g id="ytick_1">
     <g id="line2d_15">
      <path clip-path="url(#p04e2c064a5)" d="M 32.794938 173.433409 
L 255.994937 173.433409 
" style="fill:none;stroke:#e5e5e5;stroke-width:0.8;"/>
     </g>
     <g id="line2d_16">
      <path d="M 32.794938 173.433409 
" style="fill:none;stroke:#000000;stroke-width:1.5;"/>
      <defs>
       <path d="M 0 0 
L -2.75 0 
" id="m3fb6b5d93d" style="stroke:#000000;"/>
      </defs>
      <g>
       <use style="stroke:#000000;" x="32.794938" xlink:href="#m3fb6b5d93d" y="173.433409"/>
      </g>
     </g>
     <g id="text_5">
      <!-- 2 -->
      <g style="fill:#4d4d4d;" transform="translate(22.245938 175.861659)scale(0.088 -0.088)">
       <use xlink:href="#DejaVuSans-50"/>
      </g>
     </g>
    </g>
    <g id="ytick_2">
     <g id="line2d_17">
      <path clip-path="url(#p04e2c064a5)" d="M 32.794938 119.022603 
L 255.994937 119.022603 
" style="fill:none;stroke:#e5e5e5;stroke-width:0.8;"/>
     </g>
     <g id="line2d_18">
      <path d="M 32.794938 119.022603 
" style="fill:none;stroke:#000000;stroke-width:1.5;"/>
      <g>
       <use style="stroke:#000000;" x="32.794938" xlink:href="#m3fb6b5d93d" y="119.022603"/>
      </g>
     </g>
     <g id="text_6">
      <!-- 4 -->
      <g style="fill:#4d4d4d;" transform="translate(22.245938 121.450853)scale(0.088 -0.088)">
       <use xlink:href="#DejaVuSans-52"/>
      </g>
     </g>
    </g>
    <g id="ytick_3">
     <g id="line2d_19">
      <path clip-path="url(#p04e2c064a5)" d="M 32.794938 64.611798 
L 255.994937 64.611798 
" style="fill:none;stroke:#e5e5e5;stroke-width:0.8;"/>
     </g>
     <g id="line2d_20">
      <path d="M 32.794938 64.611798 
" style="fill:none;stroke:#000000;stroke-width:1.5;"/>
      <g>
       <use style="stroke:#000000;" x="32.794938" xlink:href="#m3fb6b5d93d" y="64.611798"/>
      </g>
     </g>
     <g id="text_7">
      <!-- 6 -->
      <defs>
       <path d="M 33.015625 40.375 
Q 26.375 40.375 22.484375 35.828125 
Q 18.609375 31.296875 18.609375 23.390625 
Q 18.609375 15.53125 22.484375 10.953125 
Q 26.375 6.390625 33.015625 6.390625 
Q 39.65625 6.390625 43.53125 10.953125 
Q 47.40625 15.53125 47.40625 23.390625 
Q 47.40625 31.296875 43.53125 35.828125 
Q 39.65625 40.375 33.015625 40.375 
z
M 52.59375 71.296875 
L 52.59375 62.3125 
Q 48.875 64.0625 45.09375 64.984375 
Q 41.3125 65.921875 37.59375 65.921875 
Q 27.828125 65.921875 22.671875 59.328125 
Q 17.53125 52.734375 16.796875 39.40625 
Q 19.671875 43.65625 24.015625 45.921875 
Q 28.375 48.1875 33.59375 48.1875 
Q 44.578125 48.1875 50.953125 41.515625 
Q 57.328125 34.859375 57.328125 23.390625 
Q 57.328125 12.15625 50.6875 5.359375 
Q 44.046875 -1.421875 33.015625 -1.421875 
Q 20.359375 -1.421875 13.671875 8.265625 
Q 6.984375 17.96875 6.984375 36.375 
Q 6.984375 53.65625 15.1875 63.9375 
Q 23.390625 74.21875 37.203125 74.21875 
Q 40.921875 74.21875 44.703125 73.484375 
Q 48.484375 72.75 52.59375 71.296875 
z
" id="DejaVuSans-54"/>
      </defs>
      <g style="fill:#4d4d4d;" transform="translate(22.245938 67.040048)scale(0.088 -0.088)">
       <use xlink:href="#DejaVuSans-54"/>
      </g>
     </g>
    </g>
    <g id="ytick_4">
     <g id="line2d_21">
      <path clip-path="url(#p04e2c064a5)" d="M 32.794938 200.638812 
L 255.994937 200.638812 
" style="fill:none;stroke:#fafafa;"/>
     </g>
     <g id="line2d_22">
      <path d="M 32.794938 200.638812 
" style="fill:none;stroke:#000000;stroke-width:1.5;"/>
     </g>
    </g>
    <g id="ytick_5">
     <g id="line2d_23">
      <path clip-path="url(#p04e2c064a5)" d="M 32.794938 146.228006 
L 255.994937 146.228006 
" style="fill:none;stroke:#fafafa;"/>
     </g>
     <g id="line2d_24">
      <path d="M 32.794938 146.228006 
" style="fill:none;stroke:#000000;stroke-width:1.5;"/>
     </g>
    </g>
    <g id="ytick_6">
     <g id="line2d_25">
      <path clip-path="url(#p04e2c064a5)" d="M 32.794938 91.817201 
L 255.994937 91.817201 
" style="fill:none;stroke:#fafafa;"/>
     </g>
     <g id="line2d_26">
      <path d="M 32.794938 91.817201 
" style="fill:none;stroke:#000000;stroke-width:1.5;"/>
     </g>
    </g>
    <g id="text_8">
     <!-- UMAP Y -->
     <defs>
      <path d="M -0.203125 72.90625 
L 10.40625 72.90625 
L 30.609375 42.921875 
L 50.6875 72.90625 
L 61.28125 72.90625 
L 35.5 34.71875 
L 35.5 0 
L 25.59375 0 
L 25.59375 34.71875 
z
" id="DejaVuSans-89"/>
     </defs>
     <g transform="translate(15.558281 154.156236)rotate(-90)scale(0.11 -0.11)">
      <use xlink:href="#DejaVuSans-85"/>
      <use x="73.193359" xlink:href="#DejaVuSans-77"/>
      <use x="159.472656" xlink:href="#DejaVuSans-65"/>
      <use x="227.880859" xlink:href="#DejaVuSans-80"/>
      <use x="288.183594" xlink:href="#DejaVuSans-32"/>
      <use x="319.970703" xlink:href="#DejaVuSans-89"/>
     </g>
    </g>
   </g>
   <g id="PathCollection_1">
    <path clip-path="url(#p04e2c064a5)" d="M 245.762786 94.401792 
C 246.056573 94.401792 246.338368 94.285069 246.546107 94.07733 
C 246.753846 93.869591 246.870569 93.587796 246.870569 93.294008 
C 246.870569 93.000221 246.753846 92.718426 246.546107 92.510687 
C 246.338368 92.302948 246.056573 92.186225 245.762786 92.186225 
C 245.468998 92.186225 245.187204 92.302948 244.979464 92.510687 
C 244.771725 92.718426 244.655002 93.000221 244.655002 93.294008 
C 244.655002 93.587796 244.771725 93.869591 244.979464 94.07733 
C 245.187204 94.285069 245.468998 94.401792 245.762786 94.401792 
z
" style="fill:#db5f57;stroke:#db5f57;stroke-width:0.886227;"/>
    <path clip-path="url(#p04e2c064a5)" d="M 240.178526 97.391303 
C 240.472314 97.391303 240.754108 97.27458 240.961847 97.06684 
C 241.169587 96.859101 241.28631 96.577307 241.28631 96.283519 
C 241.28631 95.989731 241.169587 95.707937 240.961847 95.500198 
C 240.754108 95.292458 240.472314 95.175735 240.178526 95.175735 
C 239.884738 95.175735 239.602944 95.292458 239.395205 95.500198 
C 239.187465 95.707937 239.070742 95.989731 239.070742 96.283519 
C 239.070742 96.577307 239.187465 96.859101 239.395205 97.06684 
C 239.602944 97.27458 239.884738 97.391303 240.178526 97.391303 
z
" style="fill:#db5f57;stroke:#db5f57;stroke-width:0.886227;"/>
    <path clip-path="url(#p04e2c064a5)" d="M 245.849483 85.597104 
C 246.14327 85.597104 246.425065 85.480381 246.632804 85.272642 
C 246.840543 85.064902 246.957266 84.783108 246.957266 84.48932 
C 246.957266 84.195533 246.840543 83.913738 246.632804 83.705999 
C 246.425065 83.49826 246.14327 83.381537 245.849483 83.381537 
C 245.555695 83.381537 245.273901 83.49826 245.066161 83.705999 
C 244.858422 83.913738 244.741699 84.195533 244.741699 84.48932 
C 244.741699 84.783108 244.858422 85.064902 245.066161 85.272642 
C 245.273901 85.480381 245.555695 85.597104 245.849483 85.597104 
z
" style="fill:#db5f57;stroke:#db5f57;stroke-width:0.886227;"/>
   </g>
   <g id="PathCollection_2">
    <path clip-path="url(#p04e2c064a5)" d="M 210.62109 99.354082 
L 215.052225 99.354082 
M 212.836658 101.569649 
L 212.836658 97.138515 
" style="fill:#db5f57;stroke:#db5f57;stroke-width:0.886227;"/>
    <path clip-path="url(#p04e2c064a5)" d="M 218.096034 104.766721 
L 222.527169 104.766721 
M 220.311602 106.982289 
L 220.311602 102.551154 
" style="fill:#db5f57;stroke:#db5f57;stroke-width:0.886227;"/>
    <path clip-path="url(#p04e2c064a5)" d="M 200.582907 91.556336 
L 205.014042 91.556336 
M 202.798474 93.771903 
L 202.798474 89.340768 
" style="fill:#db5f57;stroke:#db5f57;stroke-width:0.886227;"/>
   </g>
   <g id="PathCollection_3">
    <path clip-path="url(#p04e2c064a5)" d="M 190.415972 100.058326 
C 190.924778 100.058326 191.412813 99.856175 191.772593 99.496395 
C 192.132373 99.136615 192.334524 98.64858 192.334524 98.139774 
C 192.334524 97.630968 192.132373 97.142933 191.772593 96.783152 
C 191.412813 96.423372 190.924778 96.221222 190.415972 96.221222 
C 189.907166 96.221222 189.419131 96.423372 189.059351 96.783152 
C 188.699571 97.142933 188.49742 97.630968 188.49742 98.139774 
C 188.49742 98.64858 188.699571 99.136615 189.059351 99.496395 
C 189.419131 99.856175 189.907166 100.058326 190.415972 100.058326 
z
" style="fill:#db5f57;stroke:#db5f57;stroke-width:0.886227;"/>
    <path clip-path="url(#p04e2c064a5)" d="M 189.658689 115.399348 
C 190.167495 115.399348 190.65553 115.197198 191.01531 114.837417 
C 191.37509 114.477637 191.577241 113.989602 191.577241 113.480796 
C 191.577241 112.97199 191.37509 112.483955 191.01531 112.124175 
C 190.65553 111.764395 190.167495 111.562244 189.658689 111.562244 
C 189.149883 111.562244 188.661848 111.764395 188.302067 112.124175 
C 187.942287 112.483955 187.740137 112.97199 187.740137 113.480796 
C 187.740137 113.989602 187.942287 114.477637 188.302067 114.837417 
C 188.661848 115.197198 189.149883 115.399348 189.658689 115.399348 
z
" style="fill:#db5f57;stroke:#db5f57;stroke-width:0.886227;"/>
    <path clip-path="url(#p04e2c064a5)" d="M 233.835603 95.378051 
C 234.344409 95.378051 234.832444 95.175901 235.192225 94.81612 
C 235.552005 94.45634 235.754156 93.968305 235.754156 93.459499 
C 235.754156 92.950693 235.552005 92.462658 235.192225 92.102878 
C 234.832444 91.743098 234.344409 91.540947 233.835603 91.540947 
C 233.326797 91.540947 232.838762 91.743098 232.478982 92.102878 
C 232.119202 92.462658 231.917051 92.950693 231.917051 93.459499 
C 231.917051 93.968305 232.119202 94.45634 232.478982 94.81612 
C 232.838762 95.175901 233.326797 95.378051 233.835603 95.378051 
z
" style="fill:#db5f57;stroke:#db5f57;stroke-width:0.886227;"/>
   </g>
   <g id="PathCollection_4">
    <path clip-path="url(#p04e2c064a5)" d="M 202.3478 113.58651 
L 210.022008 113.58651 
M 206.184904 117.423614 
L 206.184904 109.749405 
" style="fill:#db5f57;stroke:#db5f57;stroke-width:0.886227;"/>
    <path clip-path="url(#p04e2c064a5)" d="M 213.078993 114.585084 
L 220.753201 114.585084 
M 216.916097 118.422189 
L 216.916097 110.74798 
" style="fill:#db5f57;stroke:#db5f57;stroke-width:0.886227;"/>
    <path clip-path="url(#p04e2c064a5)" d="M 161.971336 72.94413 
L 169.645545 72.94413 
M 165.808441 76.781234 
L 165.808441 69.107026 
" style="fill:#db5f57;stroke:#db5f57;stroke-width:0.886227;"/>
   </g>
   <g id="PathCollection_5">
    <path clip-path="url(#p04e2c064a5)" d="M 112.84251 145.767891 
C 113.492747 145.767891 114.11644 145.509549 114.576227 145.049762 
C 115.036014 144.589975 115.294356 143.966283 115.294356 143.316046 
C 115.294356 142.665809 115.036014 142.042116 114.576227 141.582329 
C 114.11644 141.122542 113.492747 140.8642 112.84251 140.8642 
C 112.192273 140.8642 111.568581 141.122542 111.108794 141.582329 
C 110.649007 142.042116 110.390665 142.665809 110.390665 143.316046 
C 110.390665 143.966283 110.649007 144.589975 111.108794 145.049762 
C 111.568581 145.509549 112.192273 145.767891 112.84251 145.767891 
z
" style="fill:#db5f57;stroke:#db5f57;stroke-width:0.886227;"/>
    <path clip-path="url(#p04e2c064a5)" d="M 104.002647 147.41451 
C 104.652884 147.41451 105.276577 147.156168 105.736364 146.696381 
C 106.196151 146.236594 106.454493 145.612901 106.454493 144.962664 
C 106.454493 144.312427 106.196151 143.688734 105.736364 143.228947 
C 105.276577 142.76916 104.652884 142.510818 104.002647 142.510818 
C 103.35241 142.510818 102.728718 142.76916 102.268931 143.228947 
C 101.809144 143.688734 101.550802 144.312427 101.550802 144.962664 
C 101.550802 145.612901 101.809144 146.236594 102.268931 146.696381 
C 102.728718 147.156168 103.35241 147.41451 104.002647 147.41451 
z
" style="fill:#db5f57;stroke:#db5f57;stroke-width:0.886227;"/>
    <path clip-path="url(#p04e2c064a5)" d="M 104.49297 135.011107 
C 105.143207 135.011107 105.766899 134.752765 106.226686 134.292978 
C 106.686473 133.833191 106.944815 133.209499 106.944815 132.559262 
C 106.944815 131.909025 106.686473 131.285332 106.226686 130.825545 
C 105.766899 130.365758 105.143207 130.107416 104.49297 130.107416 
C 103.842733 130.107416 103.21904 130.365758 102.759253 130.825545 
C 102.299466 131.285332 102.041124 131.909025 102.041124 132.559262 
C 102.041124 133.209499 102.299466 133.833191 102.759253 134.292978 
C 103.21904 134.752765 103.842733 135.011107 104.49297 135.011107 
z
" style="fill:#db5f57;stroke:#db5f57;stroke-width:0.886227;"/>
   </g>
   <g id="PathCollection_6">
    <path clip-path="url(#p04e2c064a5)" d="M 100.731196 121.476964 
L 110.538579 121.476964 
M 105.634887 126.380655 
L 105.634887 116.573273 
" style="fill:#db5f57;stroke:#db5f57;stroke-width:0.886227;"/>
    <path clip-path="url(#p04e2c064a5)" d="M 96.041974 124.210409 
L 105.849356 124.210409 
M 100.945665 129.1141 
L 100.945665 119.306718 
" style="fill:#db5f57;stroke:#db5f57;stroke-width:0.886227;"/>
    <path clip-path="url(#p04e2c064a5)" d="M 96.492687 108.791039 
L 106.300069 108.791039 
M 101.396378 113.69473 
L 101.396378 103.887348 
" style="fill:#db5f57;stroke:#db5f57;stroke-width:0.886227;"/>
   </g>
   <g id="PathCollection_7">
    <path clip-path="url(#p04e2c064a5)" d="M 88.743507 174.586644 
C 89.507355 174.586644 90.24002 174.283164 90.780142 173.743042 
C 91.320265 173.20292 91.623745 172.470254 91.623745 171.706406 
C 91.623745 170.942558 91.320265 170.209893 90.780142 169.669771 
C 90.24002 169.129649 89.507355 168.826169 88.743507 168.826169 
C 87.979659 168.826169 87.246994 169.129649 86.706872 169.669771 
C 86.166749 170.209893 85.863269 170.942558 85.863269 171.706406 
C 85.863269 172.470254 86.166749 173.20292 86.706872 173.743042 
C 87.246994 174.283164 87.979659 174.586644 88.743507 174.586644 
z
" style="fill:#db5f57;stroke:#db5f57;stroke-width:0.886227;"/>
    <path clip-path="url(#p04e2c064a5)" d="M 92.257212 184.232144 
C 93.02106 184.232144 93.753726 183.928664 94.293848 183.388542 
C 94.83397 182.84842 95.13745 182.115755 95.13745 181.351907 
C 95.13745 180.588059 94.83397 179.855393 94.293848 179.315271 
C 93.753726 178.775149 93.02106 178.471669 92.257212 178.471669 
C 91.493364 178.471669 90.760699 178.775149 90.220577 179.315271 
C 89.680455 179.855393 89.376975 180.588059 89.376975 181.351907 
C 89.376975 182.115755 89.680455 182.84842 90.220577 183.388542 
C 90.760699 183.928664 91.493364 184.232144 92.257212 184.232144 
z
" style="fill:#db5f57;stroke:#db5f57;stroke-width:0.886227;"/>
    <path clip-path="url(#p04e2c064a5)" d="M 83.943451 179.050601 
C 84.707299 179.050601 85.439964 178.747121 85.980086 178.206999 
C 86.520208 177.666877 86.823688 176.934211 86.823688 176.170363 
C 86.823688 175.406515 86.520208 174.67385 85.980086 174.133728 
C 85.439964 173.593606 84.707299 173.290126 83.943451 173.290126 
C 83.179603 173.290126 82.446938 173.593606 81.906815 174.133728 
C 81.366693 174.67385 81.063213 175.406515 81.063213 176.170363 
C 81.063213 176.934211 81.366693 177.666877 81.906815 178.206999 
C 82.446938 178.747121 83.179603 179.050601 83.943451 179.050601 
z
" style="fill:#db5f57;stroke:#db5f57;stroke-width:0.886227;"/>
   </g>
   <g id="PathCollection_8">
    <path clip-path="url(#p04e2c064a5)" d="M 75.362407 156.083205 
L 86.883357 156.083205 
M 81.122882 161.84368 
L 81.122882 150.32273 
" style="fill:#db5f57;stroke:#db5f57;stroke-width:0.886227;"/>
    <path clip-path="url(#p04e2c064a5)" d="M 76.809504 125.925231 
L 88.330454 125.925231 
M 82.569979 131.685706 
L 82.569979 120.164756 
" style="fill:#db5f57;stroke:#db5f57;stroke-width:0.886227;"/>
    <path clip-path="url(#p04e2c064a5)" d="M 75.043068 142.357154 
L 86.564018 142.357154 
M 80.803543 148.117629 
L 80.803543 136.596679 
" style="fill:#db5f57;stroke:#db5f57;stroke-width:0.886227;"/>
   </g>
   <g id="PathCollection_9">
    <path clip-path="url(#p04e2c064a5)" d="M 238.295456 75.351205 
C 238.589243 75.351205 238.871038 75.234482 239.078777 75.026742 
C 239.286516 74.819003 239.403239 74.537209 239.403239 74.243421 
C 239.403239 73.949633 239.286516 73.667839 239.078777 73.4601 
C 238.871038 73.252361 238.589243 73.135637 238.295456 73.135637 
C 238.001668 73.135637 237.719873 73.252361 237.512134 73.4601 
C 237.304395 73.667839 237.187672 73.949633 237.187672 74.243421 
C 237.187672 74.537209 237.304395 74.819003 237.512134 75.026742 
C 237.719873 75.234482 238.001668 75.351205 238.295456 75.351205 
z
" style="fill:#57db5f;stroke:#57db5f;stroke-width:0.886227;"/>
    <path clip-path="url(#p04e2c064a5)" d="M 235.246068 82.057207 
C 235.539856 82.057207 235.82165 81.940484 236.029389 81.732745 
C 236.237129 81.525006 236.353852 81.243211 236.353852 80.949424 
C 236.353852 80.655636 236.237129 80.373842 236.029389 80.166102 
C 235.82165 79.958363 235.539856 79.84164 235.246068 79.84164 
C 234.95228 79.84164 234.670486 79.958363 234.462747 80.166102 
C 234.255008 80.373842 234.138284 80.655636 234.138284 80.949424 
C 234.138284 81.243211 234.255008 81.525006 234.462747 81.732745 
C 234.670486 81.940484 234.95228 82.057207 235.246068 82.057207 
z
" style="fill:#57db5f;stroke:#57db5f;stroke-width:0.886227;"/>
    <path clip-path="url(#p04e2c064a5)" d="M 223.238587 69.402112 
C 223.532375 69.402112 223.814169 69.285388 224.021908 69.077649 
C 224.229648 68.86991 224.346371 68.588116 224.346371 68.294328 
C 224.346371 68.00054 224.229648 67.718746 224.021908 67.511007 
C 223.814169 67.303267 223.532375 67.186544 223.238587 67.186544 
C 222.944799 67.186544 222.663005 67.303267 222.455266 67.511007 
C 222.247526 67.718746 222.130803 68.00054 222.130803 68.294328 
C 222.130803 68.588116 222.247526 68.86991 222.455266 69.077649 
C 222.663005 69.285388 222.944799 69.402112 223.238587 69.402112 
z
" style="fill:#57db5f;stroke:#57db5f;stroke-width:0.886227;"/>
   </g>
   <g id="PathCollection_10">
    <path clip-path="url(#p04e2c064a5)" d="M 191.230776 69.791723 
L 195.661911 69.791723 
M 193.446344 72.00729 
L 193.446344 67.576156 
" style="fill:#57db5f;stroke:#57db5f;stroke-width:0.886227;"/>
    <path clip-path="url(#p04e2c064a5)" d="M 182.477733 64.669292 
L 186.908867 64.669292 
M 184.6933 66.88486 
L 184.6933 62.453725 
" style="fill:#57db5f;stroke:#57db5f;stroke-width:0.886227;"/>
    <path clip-path="url(#p04e2c064a5)" d="M 179.21636 58.679517 
L 183.647495 58.679517 
M 181.431927 60.895084 
L 181.431927 56.46395 
" style="fill:#57db5f;stroke:#57db5f;stroke-width:0.886227;"/>
   </g>
   <g id="PathCollection_11">
    <path clip-path="url(#p04e2c064a5)" d="M 234.519232 84.716538 
C 235.028038 84.716538 235.516073 84.514387 235.875854 84.154607 
C 236.235634 83.794827 236.437784 83.306792 236.437784 82.797986 
C 236.437784 82.28918 236.235634 81.801145 235.875854 81.441364 
C 235.516073 81.081584 235.028038 80.879434 234.519232 80.879434 
C 234.010426 80.879434 233.522391 81.081584 233.162611 81.441364 
C 232.802831 81.801145 232.60068 82.28918 232.60068 82.797986 
C 232.60068 83.306792 232.802831 83.794827 233.162611 84.154607 
C 233.522391 84.514387 234.010426 84.716538 234.519232 84.716538 
z
" style="fill:#57db5f;stroke:#57db5f;stroke-width:0.886227;"/>
    <path clip-path="url(#p04e2c064a5)" d="M 189.726914 82.089727 
C 190.23572 82.089727 190.723755 81.887576 191.083536 81.527796 
C 191.443316 81.168016 191.645466 80.679981 191.645466 80.171175 
C 191.645466 79.662369 191.443316 79.174334 191.083536 78.814553 
C 190.723755 78.454773 190.23572 78.252622 189.726914 78.252622 
C 189.218108 78.252622 188.730073 78.454773 188.370293 78.814553 
C 188.010513 79.174334 187.808362 79.662369 187.808362 80.171175 
C 187.808362 80.679981 188.010513 81.168016 188.370293 81.527796 
C 188.730073 81.887576 189.218108 82.089727 189.726914 82.089727 
z
" style="fill:#57db5f;stroke:#57db5f;stroke-width:0.886227;"/>
    <path clip-path="url(#p04e2c064a5)" d="M 188.22111 62.496601 
C 188.729916 62.496601 189.217951 62.294451 189.577731 61.934671 
C 189.937511 61.57489 190.139662 61.086855 190.139662 60.578049 
C 190.139662 60.069243 189.937511 59.581208 189.577731 59.221428 
C 189.217951 58.861648 188.729916 58.659497 188.22111 58.659497 
C 187.712304 58.659497 187.224269 58.861648 186.864488 59.221428 
C 186.504708 59.581208 186.302558 60.069243 186.302558 60.578049 
C 186.302558 61.086855 186.504708 61.57489 186.864488 61.934671 
C 187.224269 62.294451 187.712304 62.496601 188.22111 62.496601 
z
" style="fill:#57db5f;stroke:#57db5f;stroke-width:0.886227;"/>
   </g>
   <g id="PathCollection_12">
    <path clip-path="url(#p04e2c064a5)" d="M 197.221448 75.602983 
L 204.895656 75.602983 
M 201.058552 79.440087 
L 201.058552 71.765879 
" style="fill:#57db5f;stroke:#57db5f;stroke-width:0.886227;"/>
    <path clip-path="url(#p04e2c064a5)" d="M 203.66238 82.326991 
L 211.336588 82.326991 
M 207.499484 86.164096 
L 207.499484 78.489887 
" style="fill:#57db5f;stroke:#57db5f;stroke-width:0.886227;"/>
    <path clip-path="url(#p04e2c064a5)" d="M 174.269767 66.676716 
L 181.943975 66.676716 
M 178.106871 70.51382 
L 178.106871 62.839612 
" style="fill:#57db5f;stroke:#57db5f;stroke-width:0.886227;"/>
   </g>
   <g id="PathCollection_13">
    <path clip-path="url(#p04e2c064a5)" d="M 93.482181 135.651387 
C 94.132418 135.651387 94.75611 135.393045 95.215897 134.933258 
C 95.675684 134.473471 95.934026 133.849778 95.934026 133.199541 
C 95.934026 132.549304 95.675684 131.925612 95.215897 131.465824 
C 94.75611 131.006037 94.132418 130.747696 93.482181 130.747696 
C 92.831944 130.747696 92.208251 131.006037 91.748464 131.465824 
C 91.288677 131.925612 91.030335 132.549304 91.030335 133.199541 
C 91.030335 133.849778 91.288677 134.473471 91.748464 134.933258 
C 92.208251 135.393045 92.831944 135.651387 93.482181 135.651387 
z
" style="fill:#57db5f;stroke:#57db5f;stroke-width:0.886227;"/>
    <path clip-path="url(#p04e2c064a5)" d="M 89.017081 120.302678 
C 89.667318 120.302678 90.291011 120.044336 90.750798 119.584549 
C 91.210585 119.124762 91.468927 118.501069 91.468927 117.850832 
C 91.468927 117.200595 91.210585 116.576903 90.750798 116.117116 
C 90.291011 115.657329 89.667318 115.398987 89.017081 115.398987 
C 88.366844 115.398987 87.743151 115.657329 87.283364 116.117116 
C 86.823577 116.576903 86.565236 117.200595 86.565236 117.850832 
C 86.565236 118.501069 86.823577 119.124762 87.283364 119.584549 
C 87.743151 120.044336 88.366844 120.302678 89.017081 120.302678 
z
" style="fill:#57db5f;stroke:#57db5f;stroke-width:0.886227;"/>
    <path clip-path="url(#p04e2c064a5)" d="M 90.07864 115.546812 
C 90.728877 115.546812 91.35257 115.28847 91.812357 114.828683 
C 92.272144 114.368896 92.530486 113.745204 92.530486 113.094967 
C 92.530486 112.44473 92.272144 111.821037 91.812357 111.36125 
C 91.35257 110.901463 90.728877 110.643121 90.07864 110.643121 
C 89.428403 110.643121 88.80471 110.901463 88.344923 111.36125 
C 87.885136 111.821037 87.626794 112.44473 87.626794 113.094967 
C 87.626794 113.745204 87.885136 114.368896 88.344923 114.828683 
C 88.80471 115.28847 89.428403 115.546812 90.07864 115.546812 
z
" style="fill:#57db5f;stroke:#57db5f;stroke-width:0.886227;"/>
   </g>
   <g id="PathCollection_14">
    <path clip-path="url(#p04e2c064a5)" d="M 103.302303 116.436954 
L 113.109685 116.436954 
M 108.205994 121.340646 
L 108.205994 111.533263 
" style="fill:#57db5f;stroke:#57db5f;stroke-width:0.886227;"/>
    <path clip-path="url(#p04e2c064a5)" d="M 94.635447 112.57002 
L 104.442829 112.57002 
M 99.539138 117.473711 
L 99.539138 107.666329 
" style="fill:#57db5f;stroke:#57db5f;stroke-width:0.886227;"/>
    <path clip-path="url(#p04e2c064a5)" d="M 93.099383 109.637368 
L 102.906765 109.637368 
M 98.003074 114.541059 
L 98.003074 104.733677 
" style="fill:#57db5f;stroke:#57db5f;stroke-width:0.886227;"/>
   </g>
   <g id="PathCollection_15">
    <path clip-path="url(#p04e2c064a5)" d="M 56.275683 195.776761 
C 57.039531 195.776761 57.772196 195.473281 58.312318 194.933159 
C 58.85244 194.393037 59.15592 193.660371 59.15592 192.896523 
C 59.15592 192.132675 58.85244 191.40001 58.312318 190.859888 
C 57.772196 190.319766 57.039531 190.016286 56.275683 190.016286 
C 55.511835 190.016286 54.779169 190.319766 54.239047 190.859888 
C 53.698925 191.40001 53.395445 192.132675 53.395445 192.896523 
C 53.395445 193.660371 53.698925 194.393037 54.239047 194.933159 
C 54.779169 195.473281 55.511835 195.776761 56.275683 195.776761 
z
" style="fill:#57db5f;stroke:#57db5f;stroke-width:0.886227;"/>
    <path clip-path="url(#p04e2c064a5)" d="M 67.005323 188.415136 
C 67.769171 188.415136 68.501837 188.111656 69.041959 187.571533 
C 69.582081 187.031411 69.885561 186.298746 69.885561 185.534898 
C 69.885561 184.77105 69.582081 184.038385 69.041959 183.498263 
C 68.501837 182.95814 67.769171 182.654661 67.005323 182.654661 
C 66.241475 182.654661 65.50881 182.95814 64.968688 183.498263 
C 64.428566 184.038385 64.125086 184.77105 64.125086 185.534898 
C 64.125086 186.298746 64.428566 187.031411 64.968688 187.571533 
C 65.50881 188.111656 66.241475 188.415136 67.005323 188.415136 
z
" style="fill:#57db5f;stroke:#57db5f;stroke-width:0.886227;"/>
    <path clip-path="url(#p04e2c064a5)" d="M 59.944086 191.149301 
C 60.707934 191.149301 61.4406 190.845821 61.980722 190.305699 
C 62.520844 189.765577 62.824324 189.032911 62.824324 188.269063 
C 62.824324 187.505215 62.520844 186.77255 61.980722 186.232428 
C 61.4406 185.692306 60.707934 185.388826 59.944086 185.388826 
C 59.180238 185.388826 58.447573 185.692306 57.907451 186.232428 
C 57.367329 186.77255 57.063849 187.505215 57.063849 188.269063 
C 57.063849 189.032911 57.367329 189.765577 57.907451 190.305699 
C 58.447573 190.845821 59.180238 191.149301 59.944086 191.149301 
z
" style="fill:#57db5f;stroke:#57db5f;stroke-width:0.886227;"/>
   </g>
   <g id="PathCollection_16">
    <path clip-path="url(#p04e2c064a5)" d="M 49.664754 178.86733 
L 61.185704 178.86733 
M 55.425229 184.627805 
L 55.425229 173.106855 
" style="fill:#57db5f;stroke:#57db5f;stroke-width:0.886227;"/>
    <path clip-path="url(#p04e2c064a5)" d="M 45.668768 176.191862 
L 57.189718 176.191862 
M 51.429243 181.952337 
L 51.429243 170.431387 
" style="fill:#57db5f;stroke:#57db5f;stroke-width:0.886227;"/>
    <path clip-path="url(#p04e2c064a5)" d="M 44.893438 183.883652 
L 56.414389 183.883652 
M 50.653914 189.644127 
L 50.653914 178.123177 
" style="fill:#57db5f;stroke:#57db5f;stroke-width:0.886227;"/>
   </g>
   <g id="PathCollection_17">
    <path clip-path="url(#p04e2c064a5)" d="M 163.686785 163.487019 
C 163.980573 163.487019 164.262367 163.370296 164.470106 163.162557 
C 164.677846 162.954818 164.794569 162.673023 164.794569 162.379236 
C 164.794569 162.085448 164.677846 161.803654 164.470106 161.595914 
C 164.262367 161.388175 163.980573 161.271452 163.686785 161.271452 
C 163.392998 161.271452 163.111203 161.388175 162.903464 161.595914 
C 162.695725 161.803654 162.579002 162.085448 162.579002 162.379236 
C 162.579002 162.673023 162.695725 162.954818 162.903464 163.162557 
C 163.111203 163.370296 163.392998 163.487019 163.686785 163.487019 
z
" style="fill:#5f57db;stroke:#5f57db;stroke-width:0.886227;"/>
    <path clip-path="url(#p04e2c064a5)" d="M 168.830945 153.232662 
C 169.124732 153.232662 169.406527 153.115939 169.614266 152.9082 
C 169.822005 152.700461 169.938728 152.418666 169.938728 152.124879 
C 169.938728 151.831091 169.822005 151.549296 169.614266 151.341557 
C 169.406527 151.133818 169.124732 151.017095 168.830945 151.017095 
C 168.537157 151.017095 168.255363 151.133818 168.047623 151.341557 
C 167.839884 151.549296 167.723161 151.831091 167.723161 152.124879 
C 167.723161 152.418666 167.839884 152.700461 168.047623 152.9082 
C 168.255363 153.115939 168.537157 153.232662 168.830945 153.232662 
z
" style="fill:#5f57db;stroke:#5f57db;stroke-width:0.886227;"/>
    <path clip-path="url(#p04e2c064a5)" d="M 159.871568 159.913031 
C 160.165356 159.913031 160.447151 159.796308 160.65489 159.588569 
C 160.862629 159.380829 160.979352 159.099035 160.979352 158.805247 
C 160.979352 158.51146 160.862629 158.229665 160.65489 158.021926 
C 160.447151 157.814187 160.165356 157.697464 159.871568 157.697464 
C 159.577781 157.697464 159.295986 157.814187 159.088247 158.021926 
C 158.880508 158.229665 158.763785 158.51146 158.763785 158.805247 
C 158.763785 159.099035 158.880508 159.380829 159.088247 159.588569 
C 159.295986 159.796308 159.577781 159.913031 159.871568 159.913031 
z
" style="fill:#5f57db;stroke:#5f57db;stroke-width:0.886227;"/>
   </g>
   <g id="PathCollection_18">
    <path clip-path="url(#p04e2c064a5)" d="M 210.040311 124.061653 
L 214.471445 124.061653 
M 212.255878 126.27722 
L 212.255878 121.846086 
" style="fill:#5f57db;stroke:#5f57db;stroke-width:0.886227;"/>
    <path clip-path="url(#p04e2c064a5)" d="M 199.260288 123.472823 
L 203.691423 123.472823 
M 201.475855 125.68839 
L 201.475855 121.257255 
" style="fill:#5f57db;stroke:#5f57db;stroke-width:0.886227;"/>
    <path clip-path="url(#p04e2c064a5)" d="M 194.842054 121.78178 
L 199.273189 121.78178 
M 197.057622 123.997347 
L 197.057622 119.566213 
" style="fill:#5f57db;stroke:#5f57db;stroke-width:0.886227;"/>
   </g>
   <g id="PathCollection_19">
    <path clip-path="url(#p04e2c064a5)" d="M 146.253644 160.22278 
C 146.76245 160.22278 147.250485 160.020629 147.610265 159.660849 
C 147.970045 159.301069 148.172196 158.813034 148.172196 158.304228 
C 148.172196 157.795422 147.970045 157.307387 147.610265 156.947607 
C 147.250485 156.587827 146.76245 156.385676 146.253644 156.385676 
C 145.744838 156.385676 145.256803 156.587827 144.897022 156.947607 
C 144.537242 157.307387 144.335091 157.795422 144.335091 158.304228 
C 144.335091 158.813034 144.537242 159.301069 144.897022 159.660849 
C 145.256803 160.020629 145.744838 160.22278 146.253644 160.22278 
z
" style="fill:#5f57db;stroke:#5f57db;stroke-width:0.886227;"/>
    <path clip-path="url(#p04e2c064a5)" d="M 156.655394 158.220558 
C 157.1642 158.220558 157.652235 158.018408 158.012015 157.658627 
C 158.371795 157.298847 158.573946 156.810812 158.573946 156.302006 
C 158.573946 155.7932 158.371795 155.305165 158.012015 154.945385 
C 157.652235 154.585605 157.1642 154.383454 156.655394 154.383454 
C 156.146588 154.383454 155.658553 154.585605 155.298773 154.945385 
C 154.938993 155.305165 154.736842 155.7932 154.736842 156.302006 
C 154.736842 156.810812 154.938993 157.298847 155.298773 157.658627 
C 155.658553 158.018408 156.146588 158.220558 156.655394 158.220558 
z
" style="fill:#5f57db;stroke:#5f57db;stroke-width:0.886227;"/>
    <path clip-path="url(#p04e2c064a5)" d="M 143.490977 162.088018 
C 143.999783 162.088018 144.487818 161.885868 144.847598 161.526087 
C 145.207378 161.166307 145.409529 160.678272 145.409529 160.169466 
C 145.409529 159.66066 145.207378 159.172625 144.847598 158.812845 
C 144.487818 158.453065 143.999783 158.250914 143.490977 158.250914 
C 142.982171 158.250914 142.494136 158.453065 142.134356 158.812845 
C 141.774576 159.172625 141.572425 159.66066 141.572425 160.169466 
C 141.572425 160.678272 141.774576 161.166307 142.134356 161.526087 
C 142.494136 161.885868 142.982171 162.088018 143.490977 162.088018 
z
" style="fill:#5f57db;stroke:#5f57db;stroke-width:0.886227;"/>
   </g>
   <g id="PathCollection_20">
    <path clip-path="url(#p04e2c064a5)" d="M 203.944 129.023399 
L 211.618208 129.023399 
M 207.781104 132.860504 
L 207.781104 125.186295 
" style="fill:#5f57db;stroke:#5f57db;stroke-width:0.886227;"/>
    <path clip-path="url(#p04e2c064a5)" d="M 189.566435 125.862969 
L 197.240644 125.862969 
M 193.40354 129.700073 
L 193.40354 122.025865 
" style="fill:#5f57db;stroke:#5f57db;stroke-width:0.886227;"/>
    <path clip-path="url(#p04e2c064a5)" d="M 171.3017 142.307994 
L 178.975908 142.307994 
M 175.138804 146.145099 
L 175.138804 138.47089 
" style="fill:#5f57db;stroke:#5f57db;stroke-width:0.886227;"/>
   </g>
   <g id="PathCollection_21">
    <path clip-path="url(#p04e2c064a5)" d="M 49.150883 212.331362 
C 49.80112 212.331362 50.424813 212.073021 50.8846 211.613234 
C 51.344387 211.153446 51.602728 210.529754 51.602728 209.879517 
C 51.602728 209.22928 51.344387 208.605587 50.8846 208.1458 
C 50.424813 207.686013 49.80112 207.427671 49.150883 207.427671 
C 48.500646 207.427671 47.876953 207.686013 47.417166 208.1458 
C 46.957379 208.605587 46.699037 209.22928 46.699037 209.879517 
C 46.699037 210.529754 46.957379 211.153446 47.417166 211.613234 
C 47.876953 212.073021 48.500646 212.331362 49.150883 212.331362 
z
" style="fill:#5f57db;stroke:#5f57db;stroke-width:0.886227;"/>
    <path clip-path="url(#p04e2c064a5)" d="M 64.900592 205.603785 
C 65.550829 205.603785 66.174521 205.345443 66.634308 204.885656 
C 67.094095 204.425869 67.352437 203.802176 67.352437 203.151939 
C 67.352437 202.501702 67.094095 201.87801 66.634308 201.418223 
C 66.174521 200.958436 65.550829 200.700094 64.900592 200.700094 
C 64.250355 200.700094 63.626662 200.958436 63.166875 201.418223 
C 62.707088 201.87801 62.448746 202.501702 62.448746 203.151939 
C 62.448746 203.802176 62.707088 204.425869 63.166875 204.885656 
C 63.626662 205.345443 64.250355 205.603785 64.900592 205.603785 
z
" style="fill:#5f57db;stroke:#5f57db;stroke-width:0.886227;"/>
    <path clip-path="url(#p04e2c064a5)" d="M 59.624017 210.425317 
C 60.274254 210.425317 60.897947 210.166976 61.357734 209.707189 
C 61.817521 209.247402 62.075863 208.623709 62.075863 207.973472 
C 62.075863 207.323235 61.817521 206.699542 61.357734 206.239755 
C 60.897947 205.779968 60.274254 205.521626 59.624017 205.521626 
C 58.97378 205.521626 58.350087 205.779968 57.8903 206.239755 
C 57.430513 206.699542 57.172171 207.323235 57.172171 207.973472 
C 57.172171 208.623709 57.430513 209.247402 57.8903 209.707189 
C 58.350087 210.166976 58.97378 210.425317 59.624017 210.425317 
z
" style="fill:#5f57db;stroke:#5f57db;stroke-width:0.886227;"/>
   </g>
   <g id="PathCollection_22">
    <path clip-path="url(#p04e2c064a5)" d="M 108.636052 180.093793 
L 118.443434 180.093793 
M 113.539743 184.997485 
L 113.539743 175.190102 
" style="fill:#5f57db;stroke:#5f57db;stroke-width:0.886227;"/>
    <path clip-path="url(#p04e2c064a5)" d="M 96.295867 184.278218 
L 106.103249 184.278218 
M 101.199558 189.181909 
L 101.199558 179.374527 
" style="fill:#5f57db;stroke:#5f57db;stroke-width:0.886227;"/>
    <path clip-path="url(#p04e2c064a5)" d="M 102.437605 186.147053 
L 112.244988 186.147053 
M 107.341297 191.050744 
L 107.341297 181.243362 
" style="fill:#5f57db;stroke:#5f57db;stroke-width:0.886227;"/>
   </g>
   <g id="PathCollection_23">
    <path clip-path="url(#p04e2c064a5)" d="M 43.964859 203.983617 
C 44.728707 203.983617 45.461372 203.680137 46.001494 203.140015 
C 46.541616 202.599893 46.845096 201.867228 46.845096 201.10338 
C 46.845096 200.339532 46.541616 199.606866 46.001494 199.066744 
C 45.461372 198.526622 44.728707 198.223142 43.964859 198.223142 
C 43.201011 198.223142 42.468345 198.526622 41.928223 199.066744 
C 41.388101 199.606866 41.084621 200.339532 41.084621 201.10338 
C 41.084621 201.867228 41.388101 202.599893 41.928223 203.140015 
C 42.468345 203.680137 43.201011 203.983617 43.964859 203.983617 
z
" style="fill:#5f57db;stroke:#5f57db;stroke-width:0.886227;"/>
    <path clip-path="url(#p04e2c064a5)" d="M 42.940392 202.351452 
C 43.70424 202.351452 44.436906 202.047972 44.977028 201.50785 
C 45.51715 200.967728 45.82063 200.235062 45.82063 199.471214 
C 45.82063 198.707366 45.51715 197.974701 44.977028 197.434579 
C 44.436906 196.894457 43.70424 196.590977 42.940392 196.590977 
C 42.176544 196.590977 41.443879 196.894457 40.903757 197.434579 
C 40.363635 197.974701 40.060155 198.707366 40.060155 199.471214 
C 40.060155 200.235062 40.363635 200.967728 40.903757 201.50785 
C 41.443879 202.047972 42.176544 202.351452 42.940392 202.351452 
z
" style="fill:#5f57db;stroke:#5f57db;stroke-width:0.886227;"/>
    <path clip-path="url(#p04e2c064a5)" d="M 50.527854 206.435964 
C 51.291702 206.435964 52.024367 206.132484 52.564489 205.592362 
C 53.104611 205.05224 53.408091 204.319574 53.408091 203.555726 
C 53.408091 202.791878 53.104611 202.059213 52.564489 201.519091 
C 52.024367 200.978969 51.291702 200.675489 50.527854 200.675489 
C 49.764006 200.675489 49.03134 200.978969 48.491218 201.519091 
C 47.951096 202.059213 47.647616 202.791878 47.647616 203.555726 
C 47.647616 204.319574 47.951096 205.05224 48.491218 205.592362 
C 49.03134 206.132484 49.764006 206.435964 50.527854 206.435964 
z
" style="fill:#5f57db;stroke:#5f57db;stroke-width:0.886227;"/>
   </g>
   <g id="PathCollection_24">
    <path clip-path="url(#p04e2c064a5)" d="M 83.390168 194.672254 
L 94.911118 194.672254 
M 89.150643 200.432729 
L 89.150643 188.911779 
" style="fill:#5f57db;stroke:#5f57db;stroke-width:0.886227;"/>
    <path clip-path="url(#p04e2c064a5)" d="M 93.863358 193.700607 
L 105.384308 193.700607 
M 99.623833 199.461082 
L 99.623833 187.940132 
" style="fill:#5f57db;stroke:#5f57db;stroke-width:0.886227;"/>
    <path clip-path="url(#p04e2c064a5)" d="M 80.81247 196.022858 
L 92.33342 196.022858 
M 86.572945 201.783333 
L 86.572945 190.262383 
" style="fill:#5f57db;stroke:#5f57db;stroke-width:0.886227;"/>
   </g>
   <g id="patch_3">
    <path d="M 263.194938 259.199034 
L 402.009813 259.199034 
L 402.009813 7.2 
L 263.194938 7.2 
z
" style="fill:#ffffff;"/>
   </g>
   <g id="text_9">
    <!-- Plate -->
    <defs>
     <path d="M 9.421875 75.984375 
L 18.40625 75.984375 
L 18.40625 0 
L 9.421875 0 
z
" id="DejaVuSans-108"/>
     <path d="M 34.28125 27.484375 
Q 23.390625 27.484375 19.1875 25 
Q 14.984375 22.515625 14.984375 16.5 
Q 14.984375 11.71875 18.140625 8.90625 
Q 21.296875 6.109375 26.703125 6.109375 
Q 34.1875 6.109375 38.703125 11.40625 
Q 43.21875 16.703125 43.21875 25.484375 
L 43.21875 27.484375 
z
M 52.203125 31.203125 
L 52.203125 0 
L 43.21875 0 
L 43.21875 8.296875 
Q 40.140625 3.328125 35.546875 0.953125 
Q 30.953125 -1.421875 24.3125 -1.421875 
Q 15.921875 -1.421875 10.953125 3.296875 
Q 6 8.015625 6 15.921875 
Q 6 25.140625 12.171875 29.828125 
Q 18.359375 34.515625 30.609375 34.515625 
L 43.21875 34.515625 
L 43.21875 35.40625 
Q 43.21875 41.609375 39.140625 45 
Q 35.0625 48.390625 27.6875 48.390625 
Q 23 48.390625 18.546875 47.265625 
Q 14.109375 46.140625 10.015625 43.890625 
L 10.015625 52.203125 
Q 14.9375 54.109375 19.578125 55.046875 
Q 24.21875 56 28.609375 56 
Q 40.484375 56 46.34375 49.84375 
Q 52.203125 43.703125 52.203125 31.203125 
z
" id="DejaVuSans-97"/>
     <path d="M 18.3125 70.21875 
L 18.3125 54.6875 
L 36.8125 54.6875 
L 36.8125 47.703125 
L 18.3125 47.703125 
L 18.3125 18.015625 
Q 18.3125 11.328125 20.140625 9.421875 
Q 21.96875 7.515625 27.59375 7.515625 
L 36.8125 7.515625 
L 36.8125 0 
L 27.59375 0 
Q 17.1875 0 13.234375 3.875 
Q 9.28125 7.765625 9.28125 18.015625 
L 9.28125 47.703125 
L 2.6875 47.703125 
L 2.6875 54.6875 
L 9.28125 54.6875 
L 9.28125 70.21875 
z
" id="DejaVuSans-116"/>
     <path d="M 56.203125 29.59375 
L 56.203125 25.203125 
L 14.890625 25.203125 
Q 15.484375 15.921875 20.484375 11.0625 
Q 25.484375 6.203125 34.421875 6.203125 
Q 39.59375 6.203125 44.453125 7.46875 
Q 49.3125 8.734375 54.109375 11.28125 
L 54.109375 2.78125 
Q 49.265625 0.734375 44.1875 -0.34375 
Q 39.109375 -1.421875 33.890625 -1.421875 
Q 20.796875 -1.421875 13.15625 6.1875 
Q 5.515625 13.8125 5.515625 26.8125 
Q 5.515625 40.234375 12.765625 48.109375 
Q 20.015625 56 32.328125 56 
Q 43.359375 56 49.78125 48.890625 
Q 56.203125 41.796875 56.203125 29.59375 
z
M 47.21875 32.234375 
Q 47.125 39.59375 43.09375 43.984375 
Q 39.0625 48.390625 32.421875 48.390625 
Q 24.90625 48.390625 20.390625 44.140625 
Q 15.875 39.890625 15.1875 32.171875 
z
" id="DejaVuSans-101"/>
    </defs>
    <g transform="translate(275.394938 30.793594)scale(0.11 -0.11)">
     <use xlink:href="#DejaVuSans-80"/>
     <use x="60.302734" xlink:href="#DejaVuSans-108"/>
     <use x="88.085938" xlink:href="#DejaVuSans-97"/>
     <use x="149.365234" xlink:href="#DejaVuSans-116"/>
     <use x="188.574219" xlink:href="#DejaVuSans-101"/>
    </g>
   </g>
   <g id="patch_4">
    <path clip-path="url(#p3f6bd20215)" d="M 275.394938 50.285938 
L 291.234938 50.285938 
L 291.234938 34.445938 
L 275.394938 34.445938 
z
" style="fill:#ffffff;stroke:#000000;stroke-linejoin:miter;"/>
   </g>
   <g id="line2d_27">
    <path clip-path="url(#p3f6bd20215)" d="M 283.314938 42.365938 
" style="fill:none;stroke:#1f77b4;stroke-linecap:square;stroke-width:1.5;"/>
    <defs>
     <path d="M 0 0.886227 
C 0.23503 0.886227 0.460466 0.792848 0.626657 0.626657 
C 0.792848 0.460466 0.886227 0.23503 0.886227 0 
C 0.886227 -0.23503 0.792848 -0.460466 0.626657 -0.626657 
C 0.460466 -0.792848 0.23503 -0.886227 0 -0.886227 
C -0.23503 -0.886227 -0.460466 -0.792848 -0.626657 -0.626657 
C -0.792848 -0.460466 -0.886227 -0.23503 -0.886227 0 
C -0.886227 0.23503 -0.792848 0.460466 -0.626657 0.626657 
C -0.460466 0.792848 -0.23503 0.886227 0 0.886227 
z
" id="m150cdf210d" style="stroke:#000000;stroke-width:0.886227;"/>
    </defs>
    <g clip-path="url(#p3f6bd20215)">
     <use style="stroke:#000000;stroke-width:0.886227;" x="283.314938" xlink:href="#m150cdf210d" y="42.365938"/>
    </g>
   </g>
   <g id="text_10">
    <!-- 207106_exposure320 -->
    <defs>
     <path d="M 8.203125 72.90625 
L 55.078125 72.90625 
L 55.078125 68.703125 
L 28.609375 0 
L 18.3125 0 
L 43.21875 64.59375 
L 8.203125 64.59375 
z
" id="DejaVuSans-55"/>
     <path d="M 12.40625 8.296875 
L 28.515625 8.296875 
L 28.515625 63.921875 
L 10.984375 60.40625 
L 10.984375 69.390625 
L 28.421875 72.90625 
L 38.28125 72.90625 
L 38.28125 8.296875 
L 54.390625 8.296875 
L 54.390625 0 
L 12.40625 0 
z
" id="DejaVuSans-49"/>
     <path d="M 50.984375 -16.609375 
L 50.984375 -23.578125 
L -0.984375 -23.578125 
L -0.984375 -16.609375 
z
" id="DejaVuSans-95"/>
     <path d="M 54.890625 54.6875 
L 35.109375 28.078125 
L 55.90625 0 
L 45.3125 0 
L 29.390625 21.484375 
L 13.484375 0 
L 2.875 0 
L 24.125 28.609375 
L 4.6875 54.6875 
L 15.28125 54.6875 
L 29.78125 35.203125 
L 44.28125 54.6875 
z
" id="DejaVuSans-120"/>
     <path d="M 18.109375 8.203125 
L 18.109375 -20.796875 
L 9.078125 -20.796875 
L 9.078125 54.6875 
L 18.109375 54.6875 
L 18.109375 46.390625 
Q 20.953125 51.265625 25.265625 53.625 
Q 29.59375 56 35.59375 56 
Q 45.5625 56 51.78125 48.09375 
Q 58.015625 40.1875 58.015625 27.296875 
Q 58.015625 14.40625 51.78125 6.484375 
Q 45.5625 -1.421875 35.59375 -1.421875 
Q 29.59375 -1.421875 25.265625 0.953125 
Q 20.953125 3.328125 18.109375 8.203125 
z
M 48.6875 27.296875 
Q 48.6875 37.203125 44.609375 42.84375 
Q 40.53125 48.484375 33.40625 48.484375 
Q 26.265625 48.484375 22.1875 42.84375 
Q 18.109375 37.203125 18.109375 27.296875 
Q 18.109375 17.390625 22.1875 11.75 
Q 26.265625 6.109375 33.40625 6.109375 
Q 40.53125 6.109375 44.609375 11.75 
Q 48.6875 17.390625 48.6875 27.296875 
z
" id="DejaVuSans-112"/>
     <path d="M 30.609375 48.390625 
Q 23.390625 48.390625 19.1875 42.75 
Q 14.984375 37.109375 14.984375 27.296875 
Q 14.984375 17.484375 19.15625 11.84375 
Q 23.34375 6.203125 30.609375 6.203125 
Q 37.796875 6.203125 41.984375 11.859375 
Q 46.1875 17.53125 46.1875 27.296875 
Q 46.1875 37.015625 41.984375 42.703125 
Q 37.796875 48.390625 30.609375 48.390625 
z
M 30.609375 56 
Q 42.328125 56 49.015625 48.375 
Q 55.71875 40.765625 55.71875 27.296875 
Q 55.71875 13.875 49.015625 6.21875 
Q 42.328125 -1.421875 30.609375 -1.421875 
Q 18.84375 -1.421875 12.171875 6.21875 
Q 5.515625 13.875 5.515625 27.296875 
Q 5.515625 40.765625 12.171875 48.375 
Q 18.84375 56 30.609375 56 
z
" id="DejaVuSans-111"/>
     <path d="M 44.28125 53.078125 
L 44.28125 44.578125 
Q 40.484375 46.53125 36.375 47.5 
Q 32.28125 48.484375 27.875 48.484375 
Q 21.1875 48.484375 17.84375 46.4375 
Q 14.5 44.390625 14.5 40.28125 
Q 14.5 37.15625 16.890625 35.375 
Q 19.28125 33.59375 26.515625 31.984375 
L 29.59375 31.296875 
Q 39.15625 29.25 43.1875 25.515625 
Q 47.21875 21.78125 47.21875 15.09375 
Q 47.21875 7.46875 41.1875 3.015625 
Q 35.15625 -1.421875 24.609375 -1.421875 
Q 20.21875 -1.421875 15.453125 -0.5625 
Q 10.6875 0.296875 5.421875 2 
L 5.421875 11.28125 
Q 10.40625 8.6875 15.234375 7.390625 
Q 20.0625 6.109375 24.8125 6.109375 
Q 31.15625 6.109375 34.5625 8.28125 
Q 37.984375 10.453125 37.984375 14.40625 
Q 37.984375 18.0625 35.515625 20.015625 
Q 33.0625 21.96875 24.703125 23.78125 
L 21.578125 24.515625 
Q 13.234375 26.265625 9.515625 29.90625 
Q 5.8125 33.546875 5.8125 39.890625 
Q 5.8125 47.609375 11.28125 51.796875 
Q 16.75 56 26.8125 56 
Q 31.78125 56 36.171875 55.265625 
Q 40.578125 54.546875 44.28125 53.078125 
z
" id="DejaVuSans-115"/>
     <path d="M 8.5 21.578125 
L 8.5 54.6875 
L 17.484375 54.6875 
L 17.484375 21.921875 
Q 17.484375 14.15625 20.5 10.265625 
Q 23.53125 6.390625 29.59375 6.390625 
Q 36.859375 6.390625 41.078125 11.03125 
Q 45.3125 15.671875 45.3125 23.6875 
L 45.3125 54.6875 
L 54.296875 54.6875 
L 54.296875 0 
L 45.3125 0 
L 45.3125 8.40625 
Q 42.046875 3.421875 37.71875 1 
Q 33.40625 -1.421875 27.6875 -1.421875 
Q 18.265625 -1.421875 13.375 4.4375 
Q 8.5 10.296875 8.5 21.578125 
z
M 31.109375 56 
z
" id="DejaVuSans-117"/>
     <path d="M 41.109375 46.296875 
Q 39.59375 47.171875 37.8125 47.578125 
Q 36.03125 48 33.890625 48 
Q 26.265625 48 22.1875 43.046875 
Q 18.109375 38.09375 18.109375 28.8125 
L 18.109375 0 
L 9.078125 0 
L 9.078125 54.6875 
L 18.109375 54.6875 
L 18.109375 46.1875 
Q 20.953125 51.171875 25.484375 53.578125 
Q 30.03125 56 36.53125 56 
Q 37.453125 56 38.578125 55.875 
Q 39.703125 55.765625 41.0625 55.515625 
z
" id="DejaVuSans-114"/>
     <path d="M 40.578125 39.3125 
Q 47.65625 37.796875 51.625 33 
Q 55.609375 28.21875 55.609375 21.1875 
Q 55.609375 10.40625 48.1875 4.484375 
Q 40.765625 -1.421875 27.09375 -1.421875 
Q 22.515625 -1.421875 17.65625 -0.515625 
Q 12.796875 0.390625 7.625 2.203125 
L 7.625 11.71875 
Q 11.71875 9.328125 16.59375 8.109375 
Q 21.484375 6.890625 26.8125 6.890625 
Q 36.078125 6.890625 40.9375 10.546875 
Q 45.796875 14.203125 45.796875 21.1875 
Q 45.796875 27.640625 41.28125 31.265625 
Q 36.765625 34.90625 28.71875 34.90625 
L 20.21875 34.90625 
L 20.21875 43.015625 
L 29.109375 43.015625 
Q 36.375 43.015625 40.234375 45.921875 
Q 44.09375 48.828125 44.09375 54.296875 
Q 44.09375 59.90625 40.109375 62.90625 
Q 36.140625 65.921875 28.71875 65.921875 
Q 24.65625 65.921875 20.015625 65.03125 
Q 15.375 64.15625 9.8125 62.3125 
L 9.8125 71.09375 
Q 15.4375 72.65625 20.34375 73.4375 
Q 25.25 74.21875 29.59375 74.21875 
Q 40.828125 74.21875 47.359375 69.109375 
Q 53.90625 64.015625 53.90625 55.328125 
Q 53.90625 49.265625 50.4375 45.09375 
Q 46.96875 40.921875 40.578125 39.3125 
z
" id="DejaVuSans-51"/>
    </defs>
    <g transform="translate(294.234938 44.671813)scale(0.088 -0.088)">
     <use xlink:href="#DejaVuSans-50"/>
     <use x="63.623047" xlink:href="#DejaVuSans-48"/>
     <use x="127.246094" xlink:href="#DejaVuSans-55"/>
     <use x="190.869141" xlink:href="#DejaVuSans-49"/>
     <use x="254.492188" xlink:href="#DejaVuSans-48"/>
     <use x="318.115234" xlink:href="#DejaVuSans-54"/>
     <use x="381.738281" xlink:href="#DejaVuSans-95"/>
     <use x="431.738281" xlink:href="#DejaVuSans-101"/>
     <use x="493.246094" xlink:href="#DejaVuSans-120"/>
     <use x="552.425781" xlink:href="#DejaVuSans-112"/>
     <use x="615.902344" xlink:href="#DejaVuSans-111"/>
     <use x="677.083984" xlink:href="#DejaVuSans-115"/>
     <use x="729.183594" xlink:href="#DejaVuSans-117"/>
     <use x="792.5625" xlink:href="#DejaVuSans-114"/>
     <use x="833.644531" xlink:href="#DejaVuSans-101"/>
     <use x="895.167969" xlink:href="#DejaVuSans-51"/>
     <use x="958.791016" xlink:href="#DejaVuSans-50"/>
     <use x="1022.414062" xlink:href="#DejaVuSans-48"/>
    </g>
   </g>
   <g id="patch_5">
    <path clip-path="url(#p200cdcf024)" d="M 275.394938 68.125938 
L 291.234938 68.125938 
L 291.234938 52.285938 
L 275.394938 52.285938 
z
" style="fill:#ffffff;stroke:#000000;stroke-linejoin:miter;"/>
   </g>
   <g id="line2d_28">
    <path clip-path="url(#p200cdcf024)" d="M 283.314938 60.205938 
" style="fill:none;stroke:#1f77b4;stroke-linecap:square;stroke-width:1.5;"/>
    <defs>
     <path d="M -1.772454 0 
L 1.772454 0 
M 0 1.772454 
L 0 -1.772454 
" id="m1ebdb0d713" style="stroke:#000000;stroke-width:0.886227;"/>
    </defs>
    <g clip-path="url(#p200cdcf024)">
     <use style="stroke:#000000;stroke-width:0.886227;" x="283.314938" xlink:href="#m1ebdb0d713" y="60.205938"/>
    </g>
   </g>
   <g id="text_11">
    <!-- HCT116bortezomib -->
    <defs>
     <path d="M 9.8125 72.90625 
L 19.671875 72.90625 
L 19.671875 43.015625 
L 55.515625 43.015625 
L 55.515625 72.90625 
L 65.375 72.90625 
L 65.375 0 
L 55.515625 0 
L 55.515625 34.71875 
L 19.671875 34.71875 
L 19.671875 0 
L 9.8125 0 
z
" id="DejaVuSans-72"/>
     <path d="M 64.40625 67.28125 
L 64.40625 56.890625 
Q 59.421875 61.53125 53.78125 63.8125 
Q 48.140625 66.109375 41.796875 66.109375 
Q 29.296875 66.109375 22.65625 58.46875 
Q 16.015625 50.828125 16.015625 36.375 
Q 16.015625 21.96875 22.65625 14.328125 
Q 29.296875 6.6875 41.796875 6.6875 
Q 48.140625 6.6875 53.78125 8.984375 
Q 59.421875 11.28125 64.40625 15.921875 
L 64.40625 5.609375 
Q 59.234375 2.09375 53.4375 0.328125 
Q 47.65625 -1.421875 41.21875 -1.421875 
Q 24.65625 -1.421875 15.125 8.703125 
Q 5.609375 18.84375 5.609375 36.375 
Q 5.609375 53.953125 15.125 64.078125 
Q 24.65625 74.21875 41.21875 74.21875 
Q 47.75 74.21875 53.53125 72.484375 
Q 59.328125 70.75 64.40625 67.28125 
z
" id="DejaVuSans-67"/>
     <path d="M -0.296875 72.90625 
L 61.375 72.90625 
L 61.375 64.59375 
L 35.5 64.59375 
L 35.5 0 
L 25.59375 0 
L 25.59375 64.59375 
L -0.296875 64.59375 
z
" id="DejaVuSans-84"/>
     <path d="M 48.6875 27.296875 
Q 48.6875 37.203125 44.609375 42.84375 
Q 40.53125 48.484375 33.40625 48.484375 
Q 26.265625 48.484375 22.1875 42.84375 
Q 18.109375 37.203125 18.109375 27.296875 
Q 18.109375 17.390625 22.1875 11.75 
Q 26.265625 6.109375 33.40625 6.109375 
Q 40.53125 6.109375 44.609375 11.75 
Q 48.6875 17.390625 48.6875 27.296875 
z
M 18.109375 46.390625 
Q 20.953125 51.265625 25.265625 53.625 
Q 29.59375 56 35.59375 56 
Q 45.5625 56 51.78125 48.09375 
Q 58.015625 40.1875 58.015625 27.296875 
Q 58.015625 14.40625 51.78125 6.484375 
Q 45.5625 -1.421875 35.59375 -1.421875 
Q 29.59375 -1.421875 25.265625 0.953125 
Q 20.953125 3.328125 18.109375 8.203125 
L 18.109375 0 
L 9.078125 0 
L 9.078125 75.984375 
L 18.109375 75.984375 
z
" id="DejaVuSans-98"/>
     <path d="M 5.515625 54.6875 
L 48.1875 54.6875 
L 48.1875 46.484375 
L 14.40625 7.171875 
L 48.1875 7.171875 
L 48.1875 0 
L 4.296875 0 
L 4.296875 8.203125 
L 38.09375 47.515625 
L 5.515625 47.515625 
z
" id="DejaVuSans-122"/>
     <path d="M 52 44.1875 
Q 55.375 50.25 60.0625 53.125 
Q 64.75 56 71.09375 56 
Q 79.640625 56 84.28125 50.015625 
Q 88.921875 44.046875 88.921875 33.015625 
L 88.921875 0 
L 79.890625 0 
L 79.890625 32.71875 
Q 79.890625 40.578125 77.09375 44.375 
Q 74.3125 48.1875 68.609375 48.1875 
Q 61.625 48.1875 57.5625 43.546875 
Q 53.515625 38.921875 53.515625 30.90625 
L 53.515625 0 
L 44.484375 0 
L 44.484375 32.71875 
Q 44.484375 40.625 41.703125 44.40625 
Q 38.921875 48.1875 33.109375 48.1875 
Q 26.21875 48.1875 22.15625 43.53125 
Q 18.109375 38.875 18.109375 30.90625 
L 18.109375 0 
L 9.078125 0 
L 9.078125 54.6875 
L 18.109375 54.6875 
L 18.109375 46.1875 
Q 21.1875 51.21875 25.484375 53.609375 
Q 29.78125 56 35.6875 56 
Q 41.65625 56 45.828125 52.96875 
Q 50 49.953125 52 44.1875 
z
" id="DejaVuSans-109"/>
     <path d="M 9.421875 54.6875 
L 18.40625 54.6875 
L 18.40625 0 
L 9.421875 0 
z
M 9.421875 75.984375 
L 18.40625 75.984375 
L 18.40625 64.59375 
L 9.421875 64.59375 
z
" id="DejaVuSans-105"/>
    </defs>
    <g transform="translate(294.234938 62.634188)scale(0.088 -0.088)">
     <use xlink:href="#DejaVuSans-72"/>
     <use x="75.195312" xlink:href="#DejaVuSans-67"/>
     <use x="145.019531" xlink:href="#DejaVuSans-84"/>
     <use x="206.103516" xlink:href="#DejaVuSans-49"/>
     <use x="269.726562" xlink:href="#DejaVuSans-49"/>
     <use x="333.349609" xlink:href="#DejaVuSans-54"/>
     <use x="396.972656" xlink:href="#DejaVuSans-98"/>
     <use x="460.449219" xlink:href="#DejaVuSans-111"/>
     <use x="521.630859" xlink:href="#DejaVuSans-114"/>
     <use x="562.744141" xlink:href="#DejaVuSans-116"/>
     <use x="601.953125" xlink:href="#DejaVuSans-101"/>
     <use x="663.476562" xlink:href="#DejaVuSans-122"/>
     <use x="715.966797" xlink:href="#DejaVuSans-111"/>
     <use x="777.148438" xlink:href="#DejaVuSans-109"/>
     <use x="874.560547" xlink:href="#DejaVuSans-105"/>
     <use x="902.34375" xlink:href="#DejaVuSans-98"/>
    </g>
   </g>
   <g id="text_12">
    <!-- Clone -->
    <defs>
     <path d="M 54.890625 33.015625 
L 54.890625 0 
L 45.90625 0 
L 45.90625 32.71875 
Q 45.90625 40.484375 42.875 44.328125 
Q 39.84375 48.1875 33.796875 48.1875 
Q 26.515625 48.1875 22.3125 43.546875 
Q 18.109375 38.921875 18.109375 30.90625 
L 18.109375 0 
L 9.078125 0 
L 9.078125 54.6875 
L 18.109375 54.6875 
L 18.109375 46.1875 
Q 21.34375 51.125 25.703125 53.5625 
Q 30.078125 56 35.796875 56 
Q 45.21875 56 50.046875 50.171875 
Q 54.890625 44.34375 54.890625 33.015625 
z
" id="DejaVuSans-110"/>
    </defs>
    <g transform="translate(275.394938 89.519531)scale(0.11 -0.11)">
     <use xlink:href="#DejaVuSans-67"/>
     <use x="69.824219" xlink:href="#DejaVuSans-108"/>
     <use x="97.607422" xlink:href="#DejaVuSans-111"/>
     <use x="158.789062" xlink:href="#DejaVuSans-110"/>
     <use x="222.167969" xlink:href="#DejaVuSans-101"/>
    </g>
   </g>
   <g id="patch_6">
    <path clip-path="url(#p49b7c9c020)" d="M 275.394938 109.011875 
L 291.234938 109.011875 
L 291.234938 93.171875 
L 275.394938 93.171875 
z
" style="fill:#ffffff;stroke:#000000;stroke-linejoin:miter;"/>
   </g>
   <g id="line2d_29">
    <path clip-path="url(#p49b7c9c020)" d="M 283.314938 101.091875 
" style="fill:none;stroke:#1f77b4;stroke-linecap:square;stroke-width:1.5;"/>
    <defs>
     <path d="M 0 1.772454 
C 0.47006 1.772454 0.920931 1.585697 1.253314 1.253314 
C 1.585697 0.920931 1.772454 0.47006 1.772454 0 
C 1.772454 -0.47006 1.585697 -0.920931 1.253314 -1.253314 
C 0.920931 -1.585697 0.47006 -1.772454 0 -1.772454 
C -0.47006 -1.772454 -0.920931 -1.585697 -1.253314 -1.253314 
C -1.585697 -0.920931 -1.772454 -0.47006 -1.772454 0 
C -1.772454 0.47006 -1.585697 0.920931 -1.253314 1.253314 
C -0.920931 1.585697 -0.47006 1.772454 0 1.772454 
z
" id="md485c08f01" style="stroke:#db5f57;stroke-width:0.886227;"/>
    </defs>
    <g clip-path="url(#p49b7c9c020)">
     <use style="fill:#db5f57;stroke:#db5f57;stroke-width:0.886227;" x="283.314938" xlink:href="#md485c08f01" y="101.091875"/>
    </g>
   </g>
   <g id="text_13">
    <!-- CloneA -->
    <g transform="translate(294.234938 103.520125)scale(0.088 -0.088)">
     <use xlink:href="#DejaVuSans-67"/>
     <use x="69.824219" xlink:href="#DejaVuSans-108"/>
     <use x="97.607422" xlink:href="#DejaVuSans-111"/>
     <use x="158.789062" xlink:href="#DejaVuSans-110"/>
     <use x="222.167969" xlink:href="#DejaVuSans-101"/>
     <use x="283.691406" xlink:href="#DejaVuSans-65"/>
    </g>
   </g>
   <g id="patch_7">
    <path clip-path="url(#p4087a44c74)" d="M 275.394938 126.851875 
L 291.234938 126.851875 
L 291.234938 111.011875 
L 275.394938 111.011875 
z
" style="fill:#ffffff;stroke:#000000;stroke-linejoin:miter;"/>
   </g>
   <g id="line2d_30">
    <path clip-path="url(#p4087a44c74)" d="M 283.314938 118.931875 
" style="fill:none;stroke:#1f77b4;stroke-linecap:square;stroke-width:1.5;"/>
    <defs>
     <path d="M 0 1.772454 
C 0.47006 1.772454 0.920931 1.585697 1.253314 1.253314 
C 1.585697 0.920931 1.772454 0.47006 1.772454 0 
C 1.772454 -0.47006 1.585697 -0.920931 1.253314 -1.253314 
C 0.920931 -1.585697 0.47006 -1.772454 0 -1.772454 
C -0.47006 -1.772454 -0.920931 -1.585697 -1.253314 -1.253314 
C -1.585697 -0.920931 -1.772454 -0.47006 -1.772454 0 
C -1.772454 0.47006 -1.585697 0.920931 -1.253314 1.253314 
C -0.920931 1.585697 -0.47006 1.772454 0 1.772454 
z
" id="m6c672ea2c8" style="stroke:#57db5f;stroke-width:0.886227;"/>
    </defs>
    <g clip-path="url(#p4087a44c74)">
     <use style="fill:#57db5f;stroke:#57db5f;stroke-width:0.886227;" x="283.314938" xlink:href="#m6c672ea2c8" y="118.931875"/>
    </g>
   </g>
   <g id="text_14">
    <!-- CloneE -->
    <defs>
     <path d="M 9.8125 72.90625 
L 55.90625 72.90625 
L 55.90625 64.59375 
L 19.671875 64.59375 
L 19.671875 43.015625 
L 54.390625 43.015625 
L 54.390625 34.71875 
L 19.671875 34.71875 
L 19.671875 8.296875 
L 56.78125 8.296875 
L 56.78125 0 
L 9.8125 0 
z
" id="DejaVuSans-69"/>
    </defs>
    <g transform="translate(294.234938 121.360125)scale(0.088 -0.088)">
     <use xlink:href="#DejaVuSans-67"/>
     <use x="69.824219" xlink:href="#DejaVuSans-108"/>
     <use x="97.607422" xlink:href="#DejaVuSans-111"/>
     <use x="158.789062" xlink:href="#DejaVuSans-110"/>
     <use x="222.167969" xlink:href="#DejaVuSans-101"/>
     <use x="283.691406" xlink:href="#DejaVuSans-69"/>
    </g>
   </g>
   <g id="patch_8">
    <path clip-path="url(#p8da6055576)" d="M 275.394938 144.691875 
L 291.234938 144.691875 
L 291.234938 128.851875 
L 275.394938 128.851875 
z
" style="fill:#ffffff;stroke:#000000;stroke-linejoin:miter;"/>
   </g>
   <g id="line2d_31">
    <path clip-path="url(#p8da6055576)" d="M 283.314938 136.771875 
" style="fill:none;stroke:#1f77b4;stroke-linecap:square;stroke-width:1.5;"/>
    <defs>
     <path d="M 0 1.772454 
C 0.47006 1.772454 0.920931 1.585697 1.253314 1.253314 
C 1.585697 0.920931 1.772454 0.47006 1.772454 0 
C 1.772454 -0.47006 1.585697 -0.920931 1.253314 -1.253314 
C 0.920931 -1.585697 0.47006 -1.772454 0 -1.772454 
C -0.47006 -1.772454 -0.920931 -1.585697 -1.253314 -1.253314 
C -1.585697 -0.920931 -1.772454 -0.47006 -1.772454 0 
C -1.772454 0.47006 -1.585697 0.920931 -1.253314 1.253314 
C -0.920931 1.585697 -0.47006 1.772454 0 1.772454 
z
" id="m8853f5fb29" style="stroke:#5f57db;stroke-width:0.886227;"/>
    </defs>
    <g clip-path="url(#p8da6055576)">
     <use style="fill:#5f57db;stroke:#5f57db;stroke-width:0.886227;" x="283.314938" xlink:href="#m8853f5fb29" y="136.771875"/>
    </g>
   </g>
   <g id="text_15">
    <!-- WT -->
    <defs>
     <path d="M 3.328125 72.90625 
L 13.28125 72.90625 
L 28.609375 11.28125 
L 43.890625 72.90625 
L 54.984375 72.90625 
L 70.3125 11.28125 
L 85.59375 72.90625 
L 95.609375 72.90625 
L 77.296875 0 
L 64.890625 0 
L 49.515625 63.28125 
L 33.984375 0 
L 21.578125 0 
z
" id="DejaVuSans-87"/>
    </defs>
    <g transform="translate(294.234938 139.200125)scale(0.088 -0.088)">
     <use xlink:href="#DejaVuSans-87"/>
     <use x="98.876953" xlink:href="#DejaVuSans-84"/>
    </g>
   </g>
   <g id="text_16">
    <!-- Dosage -->
    <defs>
     <path d="M 19.671875 64.796875 
L 19.671875 8.109375 
L 31.59375 8.109375 
Q 46.6875 8.109375 53.6875 14.9375 
Q 60.6875 21.78125 60.6875 36.53125 
Q 60.6875 51.171875 53.6875 57.984375 
Q 46.6875 64.796875 31.59375 64.796875 
z
M 9.8125 72.90625 
L 30.078125 72.90625 
Q 51.265625 72.90625 61.171875 64.09375 
Q 71.09375 55.28125 71.09375 36.53125 
Q 71.09375 17.671875 61.125 8.828125 
Q 51.171875 0 30.078125 0 
L 9.8125 0 
z
" id="DejaVuSans-68"/>
     <path d="M 45.40625 27.984375 
Q 45.40625 37.75 41.375 43.109375 
Q 37.359375 48.484375 30.078125 48.484375 
Q 22.859375 48.484375 18.828125 43.109375 
Q 14.796875 37.75 14.796875 27.984375 
Q 14.796875 18.265625 18.828125 12.890625 
Q 22.859375 7.515625 30.078125 7.515625 
Q 37.359375 7.515625 41.375 12.890625 
Q 45.40625 18.265625 45.40625 27.984375 
z
M 54.390625 6.78125 
Q 54.390625 -7.171875 48.1875 -13.984375 
Q 42 -20.796875 29.203125 -20.796875 
Q 24.46875 -20.796875 20.265625 -20.09375 
Q 16.0625 -19.390625 12.109375 -17.921875 
L 12.109375 -9.1875 
Q 16.0625 -11.328125 19.921875 -12.34375 
Q 23.78125 -13.375 27.78125 -13.375 
Q 36.625 -13.375 41.015625 -8.765625 
Q 45.40625 -4.15625 45.40625 5.171875 
L 45.40625 9.625 
Q 42.625 4.78125 38.28125 2.390625 
Q 33.9375 0 27.875 0 
Q 17.828125 0 11.671875 7.65625 
Q 5.515625 15.328125 5.515625 27.984375 
Q 5.515625 40.671875 11.671875 48.328125 
Q 17.828125 56 27.875 56 
Q 33.9375 56 38.28125 53.609375 
Q 42.625 51.21875 45.40625 46.390625 
L 45.40625 54.6875 
L 54.390625 54.6875 
z
" id="DejaVuSans-103"/>
    </defs>
    <g transform="translate(275.394938 166.085469)scale(0.11 -0.11)">
     <use xlink:href="#DejaVuSans-68"/>
     <use x="77.001953" xlink:href="#DejaVuSans-111"/>
     <use x="138.183594" xlink:href="#DejaVuSans-115"/>
     <use x="190.283203" xlink:href="#DejaVuSans-97"/>
     <use x="251.5625" xlink:href="#DejaVuSans-103"/>
     <use x="315.039062" xlink:href="#DejaVuSans-101"/>
    </g>
   </g>
   <g id="patch_9">
    <path clip-path="url(#pf8d6027681)" d="M 275.394938 185.577813 
L 295.722114 185.577813 
L 295.722114 169.737813 
L 275.394938 169.737813 
z
" style="fill:#ffffff;stroke:#000000;stroke-linejoin:miter;"/>
   </g>
   <g id="line2d_32">
    <path clip-path="url(#pf8d6027681)" d="M 285.558526 177.657813 
" style="fill:none;stroke:#1f77b4;stroke-linecap:square;stroke-width:1.5;"/>
    <defs>
     <path d="M 0 2.215567 
C 0.587575 2.215567 1.151164 1.982121 1.566643 1.566643 
C 1.982121 1.151164 2.215567 0.587575 2.215567 0 
C 2.215567 -0.587575 1.982121 -1.151164 1.566643 -1.566643 
C 1.151164 -1.982121 0.587575 -2.215567 0 -2.215567 
C -0.587575 -2.215567 -1.151164 -1.982121 -1.566643 -1.566643 
C -1.982121 -1.151164 -2.215567 -0.587575 -2.215567 0 
C -2.215567 0.587575 -1.982121 1.151164 -1.566643 1.566643 
C -1.151164 1.982121 -0.587575 2.215567 0 2.215567 
z
" id="m2270fc6602" style="stroke:#000000;stroke-width:0.886227;"/>
    </defs>
    <g clip-path="url(#pf8d6027681)">
     <use style="stroke:#000000;stroke-width:0.886227;" x="285.558526" xlink:href="#m2270fc6602" y="177.657813"/>
    </g>
   </g>
   <g id="text_17">
    <!-- 0 -->
    <g transform="translate(298.722114 180.086063)scale(0.088 -0.088)">
     <use xlink:href="#DejaVuSans-48"/>
    </g>
   </g>
   <g id="patch_10">
    <path clip-path="url(#ped6ba910b9)" d="M 275.394938 204.058248 
L 295.722114 204.058248 
L 295.722114 187.577813 
L 275.394938 187.577813 
z
" style="fill:#ffffff;stroke:#000000;stroke-linejoin:miter;"/>
   </g>
   <g id="line2d_33">
    <path clip-path="url(#ped6ba910b9)" d="M 285.558526 195.81803 
" style="fill:none;stroke:#1f77b4;stroke-linecap:square;stroke-width:1.5;"/>
    <defs>
     <path d="M 0 3.837104 
C 1.017612 3.837104 1.993682 3.432803 2.713242 2.713242 
C 3.432803 1.993682 3.837104 1.017612 3.837104 0 
C 3.837104 -1.017612 3.432803 -1.993682 2.713242 -2.713242 
C 1.993682 -3.432803 1.017612 -3.837104 0 -3.837104 
C -1.017612 -3.837104 -1.993682 -3.432803 -2.713242 -2.713242 
C -3.432803 -1.993682 -3.837104 -1.017612 -3.837104 0 
C -3.837104 1.017612 -3.432803 1.993682 -2.713242 2.713242 
C -1.993682 3.432803 -1.017612 3.837104 0 3.837104 
z
" id="m7edc1c2df5" style="stroke:#000000;stroke-width:0.886227;"/>
    </defs>
    <g clip-path="url(#ped6ba910b9)">
     <use style="stroke:#000000;stroke-width:0.886227;" x="285.558526" xlink:href="#m7edc1c2df5" y="195.81803"/>
    </g>
   </g>
   <g id="text_18">
    <!-- 0.7 -->
    <defs>
     <path d="M 10.6875 12.40625 
L 21 12.40625 
L 21 0 
L 10.6875 0 
z
" id="DejaVuSans-46"/>
    </defs>
    <g transform="translate(298.722114 198.24628)scale(0.088 -0.088)">
     <use xlink:href="#DejaVuSans-48"/>
     <use x="63.623047" xlink:href="#DejaVuSans-46"/>
     <use x="95.410156" xlink:href="#DejaVuSans-55"/>
    </g>
   </g>
   <g id="patch_11">
    <path clip-path="url(#p1f88d87b76)" d="M 275.394938 224.671857 
L 295.722114 224.671857 
L 295.722114 206.058248 
L 275.394938 206.058248 
z
" style="fill:#ffffff;stroke:#000000;stroke-linejoin:miter;"/>
   </g>
   <g id="line2d_34">
    <path clip-path="url(#p1f88d87b76)" d="M 285.558526 215.365052 
" style="fill:none;stroke:#1f77b4;stroke-linecap:square;stroke-width:1.5;"/>
    <defs>
     <path d="M 0 4.903691 
C 1.300474 4.903691 2.547859 4.387007 3.467433 3.467433 
C 4.387007 2.547859 4.903691 1.300474 4.903691 0 
C 4.903691 -1.300474 4.387007 -2.547859 3.467433 -3.467433 
C 2.547859 -4.387007 1.300474 -4.903691 0 -4.903691 
C -1.300474 -4.903691 -2.547859 -4.387007 -3.467433 -3.467433 
C -4.387007 -2.547859 -4.903691 -1.300474 -4.903691 0 
C -4.903691 1.300474 -4.387007 2.547859 -3.467433 3.467433 
C -2.547859 4.387007 -1.300474 4.903691 0 4.903691 
z
" id="ma675f5967a" style="stroke:#000000;stroke-width:0.886227;"/>
    </defs>
    <g clip-path="url(#p1f88d87b76)">
     <use style="stroke:#000000;stroke-width:0.886227;" x="285.558526" xlink:href="#ma675f5967a" y="215.365052"/>
    </g>
   </g>
   <g id="text_19">
    <!-- 7 -->
    <g transform="translate(298.722114 217.793302)scale(0.088 -0.088)">
     <use xlink:href="#DejaVuSans-55"/>
    </g>
   </g>
   <g id="patch_12">
    <path clip-path="url(#p37f36002f7)" d="M 275.394938 246.999034 
L 295.722114 246.999034 
L 295.722114 226.671857 
L 275.394938 226.671857 
z
" style="fill:#ffffff;stroke:#000000;stroke-linejoin:miter;"/>
   </g>
   <g id="line2d_35">
    <path clip-path="url(#p37f36002f7)" d="M 285.558526 236.835446 
" style="fill:none;stroke:#1f77b4;stroke-linecap:square;stroke-width:1.5;"/>
    <defs>
     <path d="M 0 5.760475 
C 1.527696 5.760475 2.993027 5.153515 4.073271 4.073271 
C 5.153515 2.993027 5.760475 1.527696 5.760475 0 
C 5.760475 -1.527696 5.153515 -2.993027 4.073271 -4.073271 
C 2.993027 -5.153515 1.527696 -5.760475 0 -5.760475 
C -1.527696 -5.760475 -2.993027 -5.153515 -4.073271 -4.073271 
C -5.153515 -2.993027 -5.760475 -1.527696 -5.760475 0 
C -5.760475 1.527696 -5.153515 2.993027 -4.073271 4.073271 
C -2.993027 5.153515 -1.527696 5.760475 0 5.760475 
z
" id="m493488a05d" style="stroke:#000000;stroke-width:0.886227;"/>
    </defs>
    <g clip-path="url(#p37f36002f7)">
     <use style="stroke:#000000;stroke-width:0.886227;" x="285.558526" xlink:href="#m493488a05d" y="236.835446"/>
    </g>
   </g>
   <g id="text_20">
    <!-- 70 -->
    <g transform="translate(298.722114 239.263696)scale(0.088 -0.088)">
     <use xlink:href="#DejaVuSans-55"/>
     <use x="63.623047" xlink:href="#DejaVuSans-48"/>
    </g>
   </g>
  </g>
  <g id="text_21">
   <!-- Cell Painting Clone A and E -->
   <defs>
    <path d="M 45.40625 46.390625 
L 45.40625 75.984375 
L 54.390625 75.984375 
L 54.390625 0 
L 45.40625 0 
L 45.40625 8.203125 
Q 42.578125 3.328125 38.25 0.953125 
Q 33.9375 -1.421875 27.875 -1.421875 
Q 17.96875 -1.421875 11.734375 6.484375 
Q 5.515625 14.40625 5.515625 27.296875 
Q 5.515625 40.1875 11.734375 48.09375 
Q 17.96875 56 27.875 56 
Q 33.9375 56 38.25 53.625 
Q 42.578125 51.265625 45.40625 46.390625 
z
M 14.796875 27.296875 
Q 14.796875 17.390625 18.875 11.75 
Q 22.953125 6.109375 30.078125 6.109375 
Q 37.203125 6.109375 41.296875 11.75 
Q 45.40625 17.390625 45.40625 27.296875 
Q 45.40625 37.203125 41.296875 42.84375 
Q 37.203125 48.484375 30.078125 48.484375 
Q 22.953125 48.484375 18.875 42.84375 
Q 14.796875 37.203125 14.796875 27.296875 
z
" id="DejaVuSans-100"/>
   </defs>
   <g transform="translate(51.313375 42.244084)scale(0.132 -0.132)">
    <use xlink:href="#DejaVuSans-67"/>
    <use x="69.824219" xlink:href="#DejaVuSans-101"/>
    <use x="131.347656" xlink:href="#DejaVuSans-108"/>
    <use x="159.130859" xlink:href="#DejaVuSans-108"/>
    <use x="186.914062" xlink:href="#DejaVuSans-32"/>
    <use x="218.701172" xlink:href="#DejaVuSans-80"/>
    <use x="278.941406" xlink:href="#DejaVuSans-97"/>
    <use x="340.220703" xlink:href="#DejaVuSans-105"/>
    <use x="368.003906" xlink:href="#DejaVuSans-110"/>
    <use x="431.382812" xlink:href="#DejaVuSans-116"/>
    <use x="470.591797" xlink:href="#DejaVuSans-105"/>
    <use x="498.375" xlink:href="#DejaVuSans-110"/>
    <use x="561.753906" xlink:href="#DejaVuSans-103"/>
    <use x="625.230469" xlink:href="#DejaVuSans-32"/>
    <use x="657.017578" xlink:href="#DejaVuSans-67"/>
    <use x="726.841797" xlink:href="#DejaVuSans-108"/>
    <use x="754.625" xlink:href="#DejaVuSans-111"/>
    <use x="815.806641" xlink:href="#DejaVuSans-110"/>
    <use x="879.185547" xlink:href="#DejaVuSans-101"/>
    <use x="940.708984" xlink:href="#DejaVuSans-32"/>
    <use x="972.496094" xlink:href="#DejaVuSans-65"/>
    <use x="1040.904297" xlink:href="#DejaVuSans-32"/>
    <use x="1072.691406" xlink:href="#DejaVuSans-97"/>
    <use x="1133.970703" xlink:href="#DejaVuSans-110"/>
    <use x="1197.349609" xlink:href="#DejaVuSans-100"/>
    <use x="1260.826172" xlink:href="#DejaVuSans-32"/>
    <use x="1292.613281" xlink:href="#DejaVuSans-69"/>
   </g>
  </g>
 </g>
 <defs>
  <clipPath id="p04e2c064a5">
   <rect height="166.32" width="223.2" x="32.794938" y="51.119517"/>
  </clipPath>
  <clipPath id="p3f6bd20215">
   <path d="M 275.394938 50.285938 
L 275.394938 34.445938 
L 291.234938 34.445938 
L 291.234938 50.285938 
"/>
  </clipPath>
  <clipPath id="p200cdcf024">
   <path d="M 275.394938 68.125938 
L 275.394938 52.285938 
L 291.234938 52.285938 
L 291.234938 68.125938 
"/>
  </clipPath>
  <clipPath id="p49b7c9c020">
   <path d="M 275.394938 109.011875 
L 275.394938 93.171875 
L 291.234938 93.171875 
L 291.234938 109.011875 
"/>
  </clipPath>
  <clipPath id="p4087a44c74">
   <path d="M 275.394938 126.851875 
L 275.394938 111.011875 
L 291.234938 111.011875 
L 291.234938 126.851875 
"/>
  </clipPath>
  <clipPath id="p8da6055576">
   <path d="M 275.394938 144.691875 
L 275.394938 128.851875 
L 291.234938 128.851875 
L 291.234938 144.691875 
"/>
  </clipPath>
  <clipPath id="pf8d6027681">
   <path d="M 275.394938 185.577813 
L 275.394938 169.737813 
L 295.722114 169.737813 
L 295.722114 185.577813 
"/>
  </clipPath>
  <clipPath id="ped6ba910b9">
   <path d="M 275.394938 204.058248 
L 275.394938 187.577813 
L 295.722114 187.577813 
L 295.722114 204.058248 
"/>
  </clipPath>
  <clipPath id="p1f88d87b76">
   <path d="M 275.394938 224.671857 
L 275.394938 206.058248 
L 295.722114 206.058248 
L 295.722114 224.671857 
"/>
  </clipPath>
  <clipPath id="p37f36002f7">
   <path d="M 275.394938 246.999034 
L 275.394938 226.671857 
L 295.722114 226.671857 
L 295.722114 246.999034 
"/>
  </clipPath>
 </defs>
</svg>
