<?xml version="1.0" encoding="utf-8" standalone="no"?>
<!DOCTYPE svg PUBLIC "-//W3C//DTD SVG 1.1//EN"
  "http://www.w3.org/Graphics/SVG/1.1/DTD/svg11.dtd">
<!-- Created with matplotlib (https://matplotlib.org/) -->
<svg height="394.458058pt" version="1.1" viewBox="0 0 576.609812 394.458058" width="576.609812pt" xmlns="http://www.w3.org/2000/svg" xmlns:xlink="http://www.w3.org/1999/xlink">
 <defs>
  <style type="text/css">
*{stroke-linecap:butt;stroke-linejoin:round;}
  </style>
 </defs>
 <g id="figure_1">
  <g id="patch_1">
   <path d="M 0 394.458058 
L 576.609812 394.458058 
L 576.609812 0 
L 0 0 
z
" style="fill:#ffffff;stroke:#ffffff;stroke-linejoin:miter;"/>
  </g>
  <g id="axes_1">
   <g id="patch_2">
    <path d="M 32.794938 358.745371 
L 423.394938 358.745371 
L 423.394938 26.105371 
L 32.794938 26.105371 
z
" style="fill:#ffffff;stroke:#7f7f7f;stroke-linejoin:miter;"/>
   </g>
   <g id="matplotlib.axis_1">
    <g id="xtick_1">
     <g id="line2d_1">
      <path clip-path="url(#p7022f1557c)" d="M 137.093021 358.745371 
L 137.093021 26.105371 
" style="fill:none;stroke:#e5e5e5;stroke-width:0.8;"/>
     </g>
     <g id="line2d_2">
      <path d="M 137.093021 358.745371 
" style="fill:none;stroke:#000000;stroke-width:1.5;"/>
      <defs>
       <path d="M 0 0 
L 0 2.75 
" id="m6ff2837527" style="stroke:#000000;"/>
      </defs>
      <g>
       <use style="stroke:#000000;" x="137.093021" xlink:href="#m6ff2837527" y="358.745371"/>
      </g>
     </g>
     <g id="text_1">
      <!-- 0 -->
      <defs>
       <path d="M 31.78125 66.40625 
Q 24.171875 66.40625 20.328125 58.90625 
Q 16.5 51.421875 16.5 36.375 
Q 16.5 21.390625 20.328125 13.890625 
Q 24.171875 6.390625 31.78125 6.390625 
Q 39.453125 6.390625 43.28125 13.890625 
Q 47.125 21.390625 47.125 36.375 
Q 47.125 51.421875 43.28125 58.90625 
Q 39.453125 66.40625 31.78125 66.40625 
z
M 31.78125 74.21875 
Q 44.046875 74.21875 50.515625 64.515625 
Q 56.984375 54.828125 56.984375 36.375 
Q 56.984375 17.96875 50.515625 8.265625 
Q 44.046875 -1.421875 31.78125 -1.421875 
Q 19.53125 -1.421875 13.0625 8.265625 
Q 6.59375 17.96875 6.59375 36.375 
Q 6.59375 54.828125 13.0625 64.515625 
Q 19.53125 74.21875 31.78125 74.21875 
z
" id="DejaVuSans-48"/>
      </defs>
      <g style="fill:#4d4d4d;" transform="translate(134.293521 370.381996)scale(0.088 -0.088)">
       <use xlink:href="#DejaVuSans-48"/>
      </g>
     </g>
    </g>
    <g id="xtick_2">
     <g id="line2d_3">
      <path clip-path="url(#p7022f1557c)" d="M 246.564806 358.745371 
L 246.564806 26.105371 
" style="fill:none;stroke:#e5e5e5;stroke-width:0.8;"/>
     </g>
     <g id="line2d_4">
      <path d="M 246.564806 358.745371 
" style="fill:none;stroke:#000000;stroke-width:1.5;"/>
      <g>
       <use style="stroke:#000000;" x="246.564806" xlink:href="#m6ff2837527" y="358.745371"/>
      </g>
     </g>
     <g id="text_2">
      <!-- 2 -->
      <defs>
       <path d="M 19.1875 8.296875 
L 53.609375 8.296875 
L 53.609375 0 
L 7.328125 0 
L 7.328125 8.296875 
Q 12.9375 14.109375 22.625 23.890625 
Q 32.328125 33.6875 34.8125 36.53125 
Q 39.546875 41.84375 41.421875 45.53125 
Q 43.3125 49.21875 43.3125 52.78125 
Q 43.3125 58.59375 39.234375 62.25 
Q 35.15625 65.921875 28.609375 65.921875 
Q 23.96875 65.921875 18.8125 64.3125 
Q 13.671875 62.703125 7.8125 59.421875 
L 7.8125 69.390625 
Q 13.765625 71.78125 18.9375 73 
Q 24.125 74.21875 28.421875 74.21875 
Q 39.75 74.21875 46.484375 68.546875 
Q 53.21875 62.890625 53.21875 53.421875 
Q 53.21875 48.921875 51.53125 44.890625 
Q 49.859375 40.875 45.40625 35.40625 
Q 44.1875 33.984375 37.640625 27.21875 
Q 31.109375 20.453125 19.1875 8.296875 
z
" id="DejaVuSans-50"/>
      </defs>
      <g style="fill:#4d4d4d;" transform="translate(243.765306 370.381996)scale(0.088 -0.088)">
       <use xlink:href="#DejaVuSans-50"/>
      </g>
     </g>
    </g>
    <g id="xtick_3">
     <g id="line2d_5">
      <path clip-path="url(#p7022f1557c)" d="M 356.03659 358.745371 
L 356.03659 26.105371 
" style="fill:none;stroke:#e5e5e5;stroke-width:0.8;"/>
     </g>
     <g id="line2d_6">
      <path d="M 356.03659 358.745371 
" style="fill:none;stroke:#000000;stroke-width:1.5;"/>
      <g>
       <use style="stroke:#000000;" x="356.03659" xlink:href="#m6ff2837527" y="358.745371"/>
      </g>
     </g>
     <g id="text_3">
      <!-- 4 -->
      <defs>
       <path d="M 37.796875 64.3125 
L 12.890625 25.390625 
L 37.796875 25.390625 
z
M 35.203125 72.90625 
L 47.609375 72.90625 
L 47.609375 25.390625 
L 58.015625 25.390625 
L 58.015625 17.1875 
L 47.609375 17.1875 
L 47.609375 0 
L 37.796875 0 
L 37.796875 17.1875 
L 4.890625 17.1875 
L 4.890625 26.703125 
z
" id="DejaVuSans-52"/>
      </defs>
      <g style="fill:#4d4d4d;" transform="translate(353.23709 370.381996)scale(0.088 -0.088)">
       <use xlink:href="#DejaVuSans-52"/>
      </g>
     </g>
    </g>
    <g id="xtick_4">
     <g id="line2d_7">
      <path clip-path="url(#p7022f1557c)" d="M 82.357129 358.745371 
L 82.357129 26.105371 
" style="fill:none;stroke:#fafafa;"/>
     </g>
     <g id="line2d_8">
      <path d="M 82.357129 358.745371 
" style="fill:none;stroke:#000000;stroke-width:1.5;"/>
     </g>
    </g>
    <g id="xtick_5">
     <g id="line2d_9">
      <path clip-path="url(#p7022f1557c)" d="M 191.828914 358.745371 
L 191.828914 26.105371 
" style="fill:none;stroke:#fafafa;"/>
     </g>
     <g id="line2d_10">
      <path d="M 191.828914 358.745371 
" style="fill:none;stroke:#000000;stroke-width:1.5;"/>
     </g>
    </g>
    <g id="xtick_6">
     <g id="line2d_11">
      <path clip-path="url(#p7022f1557c)" d="M 301.300698 358.745371 
L 301.300698 26.105371 
" style="fill:none;stroke:#fafafa;"/>
     </g>
     <g id="line2d_12">
      <path d="M 301.300698 358.745371 
" style="fill:none;stroke:#000000;stroke-width:1.5;"/>
     </g>
    </g>
    <g id="xtick_7">
     <g id="line2d_13">
      <path clip-path="url(#p7022f1557c)" d="M 410.772482 358.745371 
L 410.772482 26.105371 
" style="fill:none;stroke:#fafafa;"/>
     </g>
     <g id="line2d_14">
      <path d="M 410.772482 358.745371 
" style="fill:none;stroke:#000000;stroke-width:1.5;"/>
     </g>
    </g>
    <g id="text_4">
     <!-- UMAP X -->
     <defs>
      <path d="M 8.6875 72.90625 
L 18.609375 72.90625 
L 18.609375 28.609375 
Q 18.609375 16.890625 22.84375 11.734375 
Q 27.09375 6.59375 36.625 6.59375 
Q 46.09375 6.59375 50.34375 11.734375 
Q 54.59375 16.890625 54.59375 28.609375 
L 54.59375 72.90625 
L 64.5 72.90625 
L 64.5 27.390625 
Q 64.5 13.140625 57.4375 5.859375 
Q 50.390625 -1.421875 36.625 -1.421875 
Q 22.796875 -1.421875 15.734375 5.859375 
Q 8.6875 13.140625 8.6875 27.390625 
z
" id="DejaVuSans-85"/>
      <path d="M 9.8125 72.90625 
L 24.515625 72.90625 
L 43.109375 23.296875 
L 61.8125 72.90625 
L 76.515625 72.90625 
L 76.515625 0 
L 66.890625 0 
L 66.890625 64.015625 
L 48.09375 14.015625 
L 38.1875 14.015625 
L 19.390625 64.015625 
L 19.390625 0 
L 9.8125 0 
z
" id="DejaVuSans-77"/>
      <path d="M 34.1875 63.1875 
L 20.796875 26.90625 
L 47.609375 26.90625 
z
M 28.609375 72.90625 
L 39.796875 72.90625 
L 67.578125 0 
L 57.328125 0 
L 50.6875 18.703125 
L 17.828125 18.703125 
L 11.1875 0 
L 0.78125 0 
z
" id="DejaVuSans-65"/>
      <path d="M 19.671875 64.796875 
L 19.671875 37.40625 
L 32.078125 37.40625 
Q 38.96875 37.40625 42.71875 40.96875 
Q 46.484375 44.53125 46.484375 51.125 
Q 46.484375 57.671875 42.71875 61.234375 
Q 38.96875 64.796875 32.078125 64.796875 
z
M 9.8125 72.90625 
L 32.078125 72.90625 
Q 44.34375 72.90625 50.609375 67.359375 
Q 56.890625 61.8125 56.890625 51.125 
Q 56.890625 40.328125 50.609375 34.8125 
Q 44.34375 29.296875 32.078125 29.296875 
L 19.671875 29.296875 
L 19.671875 0 
L 9.8125 0 
z
" id="DejaVuSans-80"/>
      <path id="DejaVuSans-32"/>
      <path d="M 6.296875 72.90625 
L 16.890625 72.90625 
L 35.015625 45.796875 
L 53.21875 72.90625 
L 63.8125 72.90625 
L 40.375 37.890625 
L 65.375 0 
L 54.78125 0 
L 34.28125 31 
L 13.625 0 
L 2.984375 0 
L 29 38.921875 
z
" id="DejaVuSans-88"/>
     </defs>
     <g transform="translate(200.430016 384.970402)scale(0.11 -0.11)">
      <use xlink:href="#DejaVuSans-85"/>
      <use x="73.193359" xlink:href="#DejaVuSans-77"/>
      <use x="159.472656" xlink:href="#DejaVuSans-65"/>
      <use x="227.880859" xlink:href="#DejaVuSans-80"/>
      <use x="288.183594" xlink:href="#DejaVuSans-32"/>
      <use x="319.970703" xlink:href="#DejaVuSans-88"/>
     </g>
    </g>
   </g>
   <g id="matplotlib.axis_2">
    <g id="ytick_1">
     <g id="line2d_15">
      <path clip-path="url(#p7022f1557c)" d="M 32.794938 270.733155 
L 423.394938 270.733155 
" style="fill:none;stroke:#e5e5e5;stroke-width:0.8;"/>
     </g>
     <g id="line2d_16">
      <path d="M 32.794938 270.733155 
" style="fill:none;stroke:#000000;stroke-width:1.5;"/>
      <defs>
       <path d="M 0 0 
L -2.75 0 
" id="m41d8d64261" style="stroke:#000000;"/>
      </defs>
      <g>
       <use style="stroke:#000000;" x="32.794938" xlink:href="#m41d8d64261" y="270.733155"/>
      </g>
     </g>
     <g id="text_5">
      <!-- 2 -->
      <g style="fill:#4d4d4d;" transform="translate(22.245938 273.161405)scale(0.088 -0.088)">
       <use xlink:href="#DejaVuSans-50"/>
      </g>
     </g>
    </g>
    <g id="ytick_2">
     <g id="line2d_17">
      <path clip-path="url(#p7022f1557c)" d="M 32.794938 161.911544 
L 423.394938 161.911544 
" style="fill:none;stroke:#e5e5e5;stroke-width:0.8;"/>
     </g>
     <g id="line2d_18">
      <path d="M 32.794938 161.911544 
" style="fill:none;stroke:#000000;stroke-width:1.5;"/>
      <g>
       <use style="stroke:#000000;" x="32.794938" xlink:href="#m41d8d64261" y="161.911544"/>
      </g>
     </g>
     <g id="text_6">
      <!-- 4 -->
      <g style="fill:#4d4d4d;" transform="translate(22.245938 164.339794)scale(0.088 -0.088)">
       <use xlink:href="#DejaVuSans-52"/>
      </g>
     </g>
    </g>
    <g id="ytick_3">
     <g id="line2d_19">
      <path clip-path="url(#p7022f1557c)" d="M 32.794938 53.089933 
L 423.394938 53.089933 
" style="fill:none;stroke:#e5e5e5;stroke-width:0.8;"/>
     </g>
     <g id="line2d_20">
      <path d="M 32.794938 53.089933 
" style="fill:none;stroke:#000000;stroke-width:1.5;"/>
      <g>
       <use style="stroke:#000000;" x="32.794938" xlink:href="#m41d8d64261" y="53.089933"/>
      </g>
     </g>
     <g id="text_7">
      <!-- 6 -->
      <defs>
       <path d="M 33.015625 40.375 
Q 26.375 40.375 22.484375 35.828125 
Q 18.609375 31.296875 18.609375 23.390625 
Q 18.609375 15.53125 22.484375 10.953125 
Q 26.375 6.390625 33.015625 6.390625 
Q 39.65625 6.390625 43.53125 10.953125 
Q 47.40625 15.53125 47.40625 23.390625 
Q 47.40625 31.296875 43.53125 35.828125 
Q 39.65625 40.375 33.015625 40.375 
z
M 52.59375 71.296875 
L 52.59375 62.3125 
Q 48.875 64.0625 45.09375 64.984375 
Q 41.3125 65.921875 37.59375 65.921875 
Q 27.828125 65.921875 22.671875 59.328125 
Q 17.53125 52.734375 16.796875 39.40625 
Q 19.671875 43.65625 24.015625 45.921875 
Q 28.375 48.1875 33.59375 48.1875 
Q 44.578125 48.1875 50.953125 41.515625 
Q 57.328125 34.859375 57.328125 23.390625 
Q 57.328125 12.15625 50.6875 5.359375 
Q 44.046875 -1.421875 33.015625 -1.421875 
Q 20.359375 -1.421875 13.671875 8.265625 
Q 6.984375 17.96875 6.984375 36.375 
Q 6.984375 53.65625 15.1875 63.9375 
Q 23.390625 74.21875 37.203125 74.21875 
Q 40.921875 74.21875 44.703125 73.484375 
Q 48.484375 72.75 52.59375 71.296875 
z
" id="DejaVuSans-54"/>
      </defs>
      <g style="fill:#4d4d4d;" transform="translate(22.245938 55.518183)scale(0.088 -0.088)">
       <use xlink:href="#DejaVuSans-54"/>
      </g>
     </g>
    </g>
    <g id="ytick_4">
     <g id="line2d_21">
      <path clip-path="url(#p7022f1557c)" d="M 32.794938 325.14396 
L 423.394938 325.14396 
" style="fill:none;stroke:#fafafa;"/>
     </g>
     <g id="line2d_22">
      <path d="M 32.794938 325.14396 
" style="fill:none;stroke:#000000;stroke-width:1.5;"/>
     </g>
    </g>
    <g id="ytick_5">
     <g id="line2d_23">
      <path clip-path="url(#p7022f1557c)" d="M 32.794938 216.322349 
L 423.394938 216.322349 
" style="fill:none;stroke:#fafafa;"/>
     </g>
     <g id="line2d_24">
      <path d="M 32.794938 216.322349 
" style="fill:none;stroke:#000000;stroke-width:1.5;"/>
     </g>
    </g>
    <g id="ytick_6">
     <g id="line2d_25">
      <path clip-path="url(#p7022f1557c)" d="M 32.794938 107.500738 
L 423.394938 107.500738 
" style="fill:none;stroke:#fafafa;"/>
     </g>
     <g id="line2d_26">
      <path d="M 32.794938 107.500738 
" style="fill:none;stroke:#000000;stroke-width:1.5;"/>
     </g>
    </g>
    <g id="text_8">
     <!-- UMAP Y -->
     <defs>
      <path d="M -0.203125 72.90625 
L 10.40625 72.90625 
L 30.609375 42.921875 
L 50.6875 72.90625 
L 61.28125 72.90625 
L 35.5 34.71875 
L 35.5 0 
L 25.59375 0 
L 25.59375 34.71875 
z
" id="DejaVuSans-89"/>
     </defs>
     <g transform="translate(15.558281 211.222089)rotate(-90)scale(0.11 -0.11)">
      <use xlink:href="#DejaVuSans-85"/>
      <use x="73.193359" xlink:href="#DejaVuSans-77"/>
      <use x="159.472656" xlink:href="#DejaVuSans-65"/>
      <use x="227.880859" xlink:href="#DejaVuSans-80"/>
      <use x="288.183594" xlink:href="#DejaVuSans-32"/>
      <use x="319.970703" xlink:href="#DejaVuSans-89"/>
     </g>
    </g>
   </g>
   <g id="PathCollection_1">
    <path clip-path="url(#p7022f1557c)" d="M 405.488672 111.562137 
C 405.782459 111.562137 406.064254 111.445414 406.271993 111.237675 
C 406.479732 111.029936 406.596455 110.748141 406.596455 110.454354 
C 406.596455 110.160566 406.479732 109.878772 406.271993 109.671032 
C 406.064254 109.463293 405.782459 109.34657 405.488672 109.34657 
C 405.194884 109.34657 404.91309 109.463293 404.70535 109.671032 
C 404.497611 109.878772 404.380888 110.160566 404.380888 110.454354 
C 404.380888 110.748141 404.497611 111.029936 404.70535 111.237675 
C 404.91309 111.445414 405.194884 111.562137 405.488672 111.562137 
z
" style="fill:#db5f57;stroke:#db5f57;stroke-width:0.886227;"/>
    <path clip-path="url(#p7022f1557c)" d="M 395.716217 117.541158 
C 396.010005 117.541158 396.2918 117.424435 396.499539 117.216696 
C 396.707278 117.008957 396.824001 116.727162 396.824001 116.433375 
C 396.824001 116.139587 396.707278 115.857792 396.499539 115.650053 
C 396.2918 115.442314 396.010005 115.325591 395.716217 115.325591 
C 395.42243 115.325591 395.140635 115.442314 394.932896 115.650053 
C 394.725157 115.857792 394.608434 116.139587 394.608434 116.433375 
C 394.608434 116.727162 394.725157 117.008957 394.932896 117.216696 
C 395.140635 117.424435 395.42243 117.541158 395.716217 117.541158 
z
" style="fill:#db5f57;stroke:#db5f57;stroke-width:0.886227;"/>
    <path clip-path="url(#p7022f1557c)" d="M 405.640392 93.952761 
C 405.934179 93.952761 406.215974 93.836038 406.423713 93.628299 
C 406.631452 93.420559 406.748175 93.138765 406.748175 92.844977 
C 406.748175 92.55119 406.631452 92.269395 406.423713 92.061656 
C 406.215974 91.853917 405.934179 91.737194 405.640392 91.737194 
C 405.346604 91.737194 405.06481 91.853917 404.85707 92.061656 
C 404.649331 92.269395 404.532608 92.55119 404.532608 92.844977 
C 404.532608 93.138765 404.649331 93.420559 404.85707 93.628299 
C 405.06481 93.836038 405.346604 93.952761 405.640392 93.952761 
z
" style="fill:#db5f57;stroke:#db5f57;stroke-width:0.886227;"/>
   </g>
   <g id="PathCollection_2">
    <path clip-path="url(#p7022f1557c)" d="M 308.631748 122.064436 
C 309.140554 122.064436 309.628589 121.862285 309.988369 121.502505 
C 310.348149 121.142725 310.5503 120.65469 310.5503 120.145884 
C 310.5503 119.637078 310.348149 119.149043 309.988369 118.789263 
C 309.628589 118.429483 309.140554 118.227332 308.631748 118.227332 
C 308.122942 118.227332 307.634907 118.429483 307.275127 118.789263 
C 306.915347 119.149043 306.713196 119.637078 306.713196 120.145884 
C 306.713196 120.65469 306.915347 121.142725 307.275127 121.502505 
C 307.634907 121.862285 308.122942 122.064436 308.631748 122.064436 
z
" style="fill:#db5f57;stroke:#db5f57;stroke-width:0.886227;"/>
    <path clip-path="url(#p7022f1557c)" d="M 307.306502 152.746481 
C 307.815308 152.746481 308.303343 152.544331 308.663123 152.18455 
C 309.022903 151.82477 309.225054 151.336735 309.225054 150.827929 
C 309.225054 150.319123 309.022903 149.831088 308.663123 149.471308 
C 308.303343 149.111528 307.815308 148.909377 307.306502 148.909377 
C 306.797696 148.909377 306.309661 149.111528 305.949881 149.471308 
C 305.590101 149.831088 305.38795 150.319123 305.38795 150.827929 
C 305.38795 151.336735 305.590101 151.82477 305.949881 152.18455 
C 306.309661 152.544331 306.797696 152.746481 307.306502 152.746481 
z
" style="fill:#db5f57;stroke:#db5f57;stroke-width:0.886227;"/>
    <path clip-path="url(#p7022f1557c)" d="M 384.616103 112.703887 
C 385.124909 112.703887 385.612944 112.501737 385.972724 112.141956 
C 386.332504 111.782176 386.534655 111.294141 386.534655 110.785335 
C 386.534655 110.276529 386.332504 109.788494 385.972724 109.428714 
C 385.612944 109.068934 385.124909 108.866783 384.616103 108.866783 
C 384.107297 108.866783 383.619262 109.068934 383.259482 109.428714 
C 382.899702 109.788494 382.697551 110.276529 382.697551 110.785335 
C 382.697551 111.294141 382.899702 111.782176 383.259482 112.141956 
C 383.619262 112.501737 384.107297 112.703887 384.616103 112.703887 
z
" style="fill:#db5f57;stroke:#db5f57;stroke-width:0.886227;"/>
   </g>
   <g id="PathCollection_3">
    <path clip-path="url(#p7022f1557c)" d="M 172.87819 212.950274 
C 173.528427 212.950274 174.15212 212.691932 174.611907 212.232145 
C 175.071694 211.772358 175.330036 211.148665 175.330036 210.498428 
C 175.330036 209.848191 175.071694 209.224498 174.611907 208.764711 
C 174.15212 208.304924 173.528427 208.046582 172.87819 208.046582 
C 172.227953 208.046582 171.60426 208.304924 171.144473 208.764711 
C 170.684686 209.224498 170.426344 209.848191 170.426344 210.498428 
C 170.426344 211.148665 170.684686 211.772358 171.144473 212.232145 
C 171.60426 212.691932 172.227953 212.950274 172.87819 212.950274 
z
" style="fill:#db5f57;stroke:#db5f57;stroke-width:0.886227;"/>
    <path clip-path="url(#p7022f1557c)" d="M 157.40843 216.24351 
C 158.058667 216.24351 158.682359 215.985168 159.142146 215.525381 
C 159.601933 215.065594 159.860275 214.441902 159.860275 213.791665 
C 159.860275 213.141428 159.601933 212.517735 159.142146 212.057948 
C 158.682359 211.598161 158.058667 211.339819 157.40843 211.339819 
C 156.758193 211.339819 156.1345 211.598161 155.674713 212.057948 
C 155.214926 212.517735 154.956584 213.141428 154.956584 213.791665 
C 154.956584 214.441902 155.214926 215.065594 155.674713 215.525381 
C 156.1345 215.985168 156.758193 216.24351 157.40843 216.24351 
z
" style="fill:#db5f57;stroke:#db5f57;stroke-width:0.886227;"/>
    <path clip-path="url(#p7022f1557c)" d="M 158.266494 191.436706 
C 158.916731 191.436706 159.540423 191.178364 160.00021 190.718577 
C 160.459997 190.25879 160.718339 189.635097 160.718339 188.98486 
C 160.718339 188.334623 160.459997 187.71093 160.00021 187.251143 
C 159.540423 186.791356 158.916731 186.533014 158.266494 186.533014 
C 157.616257 186.533014 156.992564 186.791356 156.532777 187.251143 
C 156.07299 187.71093 155.814648 188.334623 155.814648 188.98486 
C 155.814648 189.635097 156.07299 190.25879 156.532777 190.718577 
C 156.992564 191.178364 157.616257 191.436706 158.266494 191.436706 
z
" style="fill:#db5f57;stroke:#db5f57;stroke-width:0.886227;"/>
   </g>
   <g id="PathCollection_4">
    <path clip-path="url(#p7022f1557c)" d="M 130.704934 270.159387 
C 131.468782 270.159387 132.201448 269.855907 132.74157 269.315785 
C 133.281692 268.775663 133.585172 268.042997 133.585172 267.279149 
C 133.585172 266.515301 133.281692 265.782636 132.74157 265.242514 
C 132.201448 264.702392 131.468782 264.398912 130.704934 264.398912 
C 129.941086 264.398912 129.208421 264.702392 128.668299 265.242514 
C 128.128177 265.782636 127.824697 266.515301 127.824697 267.279149 
C 127.824697 268.042997 128.128177 268.775663 128.668299 269.315785 
C 129.208421 269.855907 129.941086 270.159387 130.704934 270.159387 
z
" style="fill:#db5f57;stroke:#db5f57;stroke-width:0.886227;"/>
    <path clip-path="url(#p7022f1557c)" d="M 136.853918 289.450388 
C 137.617766 289.450388 138.350432 289.146908 138.890554 288.606786 
C 139.430676 288.066664 139.734156 287.333998 139.734156 286.57015 
C 139.734156 285.806302 139.430676 285.073637 138.890554 284.533515 
C 138.350432 283.993393 137.617766 283.689913 136.853918 283.689913 
C 136.090071 283.689913 135.357405 283.993393 134.817283 284.533515 
C 134.277161 285.073637 133.973681 285.806302 133.973681 286.57015 
C 133.973681 287.333998 134.277161 288.066664 134.817283 288.606786 
C 135.357405 289.146908 136.090071 289.450388 136.853918 289.450388 
z
" style="fill:#db5f57;stroke:#db5f57;stroke-width:0.886227;"/>
    <path clip-path="url(#p7022f1557c)" d="M 122.304836 279.087301 
C 123.068684 279.087301 123.801349 278.783821 124.341472 278.243699 
C 124.881594 277.703577 125.185074 276.970911 125.185074 276.207063 
C 125.185074 275.443216 124.881594 274.71055 124.341472 274.170428 
C 123.801349 273.630306 123.068684 273.326826 122.304836 273.326826 
C 121.540988 273.326826 120.808323 273.630306 120.268201 274.170428 
C 119.728079 274.71055 119.424599 275.443216 119.424599 276.207063 
C 119.424599 276.970911 119.728079 277.703577 120.268201 278.243699 
C 120.808323 278.783821 121.540988 279.087301 122.304836 279.087301 
z
" style="fill:#db5f57;stroke:#db5f57;stroke-width:0.886227;"/>
   </g>
   <g id="PathCollection_5">
    <path clip-path="url(#p7022f1557c)" d="M 345.652381 122.5745 
L 350.083515 122.5745 
M 347.867948 124.790068 
L 347.867948 120.358933 
" style="fill:#db5f57;stroke:#db5f57;stroke-width:0.886227;"/>
    <path clip-path="url(#p7022f1557c)" d="M 358.733533 133.39978 
L 363.164667 133.39978 
M 360.9491 135.615347 
L 360.9491 131.184212 
" style="fill:#db5f57;stroke:#db5f57;stroke-width:0.886227;"/>
    <path clip-path="url(#p7022f1557c)" d="M 328.08556 106.979008 
L 332.516695 106.979008 
M 330.301127 109.194576 
L 330.301127 104.763441 
" style="fill:#db5f57;stroke:#db5f57;stroke-width:0.886227;"/>
   </g>
   <g id="PathCollection_6">
    <path clip-path="url(#p7022f1557c)" d="M 332.390274 151.039356 
L 340.064483 151.039356 
M 336.227378 154.87646 
L 336.227378 147.202252 
" style="fill:#db5f57;stroke:#db5f57;stroke-width:0.886227;"/>
    <path clip-path="url(#p7022f1557c)" d="M 351.169863 153.036505 
L 358.844071 153.036505 
M 355.006967 156.87361 
L 355.006967 149.199401 
" style="fill:#db5f57;stroke:#db5f57;stroke-width:0.886227;"/>
    <path clip-path="url(#p7022f1557c)" d="M 261.731464 69.754596 
L 269.405672 69.754596 
M 265.568568 73.5917 
L 265.568568 65.917492 
" style="fill:#db5f57;stroke:#db5f57;stroke-width:0.886227;"/>
   </g>
   <g id="PathCollection_7">
    <path clip-path="url(#p7022f1557c)" d="M 155.361159 166.820265 
L 165.168541 166.820265 
M 160.26485 171.723956 
L 160.26485 161.916573 
" style="fill:#db5f57;stroke:#db5f57;stroke-width:0.886227;"/>
    <path clip-path="url(#p7022f1557c)" d="M 147.155019 172.287155 
L 156.962402 172.287155 
M 152.05871 177.190847 
L 152.05871 167.383464 
" style="fill:#db5f57;stroke:#db5f57;stroke-width:0.886227;"/>
    <path clip-path="url(#p7022f1557c)" d="M 147.943768 141.448415 
L 157.75115 141.448415 
M 152.847459 146.352106 
L 152.847459 136.544723 
" style="fill:#db5f57;stroke:#db5f57;stroke-width:0.886227;"/>
   </g>
   <g id="PathCollection_8">
    <path clip-path="url(#p7022f1557c)" d="M 111.608366 236.032746 
L 123.129316 236.032746 
M 117.368841 241.793221 
L 117.368841 230.272271 
" style="fill:#db5f57;stroke:#db5f57;stroke-width:0.886227;"/>
    <path clip-path="url(#p7022f1557c)" d="M 114.140786 175.716798 
L 125.661736 175.716798 
M 119.901261 181.477273 
L 119.901261 169.956323 
" style="fill:#db5f57;stroke:#db5f57;stroke-width:0.886227;"/>
    <path clip-path="url(#p7022f1557c)" d="M 111.049522 208.580644 
L 122.570472 208.580644 
M 116.809997 214.341119 
L 116.809997 202.820169 
" style="fill:#db5f57;stroke:#db5f57;stroke-width:0.886227;"/>
   </g>
   <g id="PathCollection_9">
    <path clip-path="url(#p7022f1557c)" d="M 392.420844 73.460963 
C 392.714632 73.460963 392.996426 73.34424 393.204165 73.1365 
C 393.411905 72.928761 393.528628 72.646967 393.528628 72.353179 
C 393.528628 72.059391 393.411905 71.777597 393.204165 71.569858 
C 392.996426 71.362118 392.714632 71.245395 392.420844 71.245395 
C 392.127056 71.245395 391.845262 71.362118 391.637523 71.569858 
C 391.429783 71.777597 391.31306 72.059391 391.31306 72.353179 
C 391.31306 72.646967 391.429783 72.928761 391.637523 73.1365 
C 391.845262 73.34424 392.127056 73.460963 392.420844 73.460963 
z
" style="fill:#57db5f;stroke:#57db5f;stroke-width:0.886227;"/>
    <path clip-path="url(#p7022f1557c)" d="M 387.084416 86.872968 
C 387.378204 86.872968 387.659998 86.756244 387.867737 86.548505 
C 388.075477 86.340766 388.1922 86.058972 388.1922 85.765184 
C 388.1922 85.471396 388.075477 85.189602 387.867737 84.981863 
C 387.659998 84.774123 387.378204 84.6574 387.084416 84.6574 
C 386.790628 84.6574 386.508834 84.774123 386.301095 84.981863 
C 386.093356 85.189602 385.976632 85.471396 385.976632 85.765184 
C 385.976632 86.058972 386.093356 86.340766 386.301095 86.548505 
C 386.508834 86.756244 386.790628 86.872968 387.084416 86.872968 
z
" style="fill:#57db5f;stroke:#57db5f;stroke-width:0.886227;"/>
    <path clip-path="url(#p7022f1557c)" d="M 366.071324 61.562776 
C 366.365112 61.562776 366.646906 61.446053 366.854646 61.238314 
C 367.062385 61.030575 367.179108 60.74878 367.179108 60.454992 
C 367.179108 60.161205 367.062385 59.87941 366.854646 59.671671 
C 366.646906 59.463932 366.365112 59.347209 366.071324 59.347209 
C 365.777537 59.347209 365.495742 59.463932 365.288003 59.671671 
C 365.080264 59.87941 364.963541 60.161205 364.963541 60.454992 
C 364.963541 60.74878 365.080264 61.030575 365.288003 61.238314 
C 365.495742 61.446053 365.777537 61.562776 366.071324 61.562776 
z
" style="fill:#57db5f;stroke:#57db5f;stroke-width:0.886227;"/>
   </g>
   <g id="PathCollection_10">
    <path clip-path="url(#p7022f1557c)" d="M 385.812453 91.38086 
C 386.321259 91.38086 386.809295 91.178709 387.169075 90.818929 
C 387.528855 90.459149 387.731006 89.971114 387.731006 89.462308 
C 387.731006 88.953502 387.528855 88.465467 387.169075 88.105687 
C 386.809295 87.745907 386.321259 87.543756 385.812453 87.543756 
C 385.303648 87.543756 384.815612 87.745907 384.455832 88.105687 
C 384.096052 88.465467 383.893901 88.953502 383.893901 89.462308 
C 383.893901 89.971114 384.096052 90.459149 384.455832 90.818929 
C 384.815612 91.178709 385.303648 91.38086 385.812453 91.38086 
z
" style="fill:#57db5f;stroke:#57db5f;stroke-width:0.886227;"/>
    <path clip-path="url(#p7022f1557c)" d="M 307.425897 86.127238 
C 307.934703 86.127238 308.422738 85.925087 308.782518 85.565307 
C 309.142298 85.205527 309.344449 84.717492 309.344449 84.208686 
C 309.344449 83.69988 309.142298 83.211845 308.782518 82.852065 
C 308.422738 82.492285 307.934703 82.290134 307.425897 82.290134 
C 306.917091 82.290134 306.429056 82.492285 306.069276 82.852065 
C 305.709496 83.211845 305.507345 83.69988 305.507345 84.208686 
C 305.507345 84.717492 305.709496 85.205527 306.069276 85.565307 
C 306.429056 85.925087 306.917091 86.127238 307.425897 86.127238 
z
" style="fill:#57db5f;stroke:#57db5f;stroke-width:0.886227;"/>
    <path clip-path="url(#p7022f1557c)" d="M 304.790739 46.940988 
C 305.299545 46.940988 305.78758 46.738837 306.14736 46.379057 
C 306.50714 46.019277 306.709291 45.531241 306.709291 45.022436 
C 306.709291 44.51363 306.50714 44.025594 306.14736 43.665814 
C 305.78758 43.306034 305.299545 43.103883 304.790739 43.103883 
C 304.281933 43.103883 303.793898 43.306034 303.434118 43.665814 
C 303.074337 44.025594 302.872187 44.51363 302.872187 45.022436 
C 302.872187 45.531241 303.074337 46.019277 303.434118 46.379057 
C 303.793898 46.738837 304.281933 46.940988 304.790739 46.940988 
z
" style="fill:#57db5f;stroke:#57db5f;stroke-width:0.886227;"/>
   </g>
   <g id="PathCollection_11">
    <path clip-path="url(#p7022f1557c)" d="M 138.997613 192.717265 
C 139.64785 192.717265 140.271543 192.458923 140.73133 191.999136 
C 141.191117 191.539349 141.449459 190.915656 141.449459 190.265419 
C 141.449459 189.615182 141.191117 188.991489 140.73133 188.531702 
C 140.271543 188.071915 139.64785 187.813573 138.997613 187.813573 
C 138.347376 187.813573 137.723684 188.071915 137.263896 188.531702 
C 136.804109 188.991489 136.545768 189.615182 136.545768 190.265419 
C 136.545768 190.915656 136.804109 191.539349 137.263896 191.999136 
C 137.723684 192.458923 138.347376 192.717265 138.997613 192.717265 
z
" style="fill:#57db5f;stroke:#57db5f;stroke-width:0.886227;"/>
    <path clip-path="url(#p7022f1557c)" d="M 131.183689 162.019847 
C 131.833926 162.019847 132.457618 161.761505 132.917405 161.301718 
C 133.377192 160.841931 133.635534 160.218238 133.635534 159.568001 
C 133.635534 158.917764 133.377192 158.294072 132.917405 157.834285 
C 132.457618 157.374498 131.833926 157.116156 131.183689 157.116156 
C 130.533452 157.116156 129.909759 157.374498 129.449972 157.834285 
C 128.990185 158.294072 128.731843 158.917764 128.731843 159.568001 
C 128.731843 160.218238 128.990185 160.841931 129.449972 161.301718 
C 129.909759 161.761505 130.533452 162.019847 131.183689 162.019847 
z
" style="fill:#57db5f;stroke:#57db5f;stroke-width:0.886227;"/>
    <path clip-path="url(#p7022f1557c)" d="M 133.041417 152.508116 
C 133.691654 152.508116 134.315347 152.249774 134.775134 151.789987 
C 135.234921 151.3302 135.493263 150.706507 135.493263 150.05627 
C 135.493263 149.406033 135.234921 148.782341 134.775134 148.322554 
C 134.315347 147.862767 133.691654 147.604425 133.041417 147.604425 
C 132.39118 147.604425 131.767487 147.862767 131.3077 148.322554 
C 130.847913 148.782341 130.589571 149.406033 130.589571 150.05627 
C 130.589571 150.706507 130.847913 151.3302 131.3077 151.789987 
C 131.767487 152.249774 132.39118 152.508116 133.041417 152.508116 
z
" style="fill:#57db5f;stroke:#57db5f;stroke-width:0.886227;"/>
   </g>
   <g id="PathCollection_12">
    <path clip-path="url(#p7022f1557c)" d="M 73.886242 312.539621 
C 74.65009 312.539621 75.382755 312.236141 75.922877 311.696019 
C 76.462999 311.155897 76.766479 310.423231 76.766479 309.659383 
C 76.766479 308.895535 76.462999 308.16287 75.922877 307.622748 
C 75.382755 307.082626 74.65009 306.779146 73.886242 306.779146 
C 73.122394 306.779146 72.389728 307.082626 71.849606 307.622748 
C 71.309484 308.16287 71.006004 308.895535 71.006004 309.659383 
C 71.006004 310.423231 71.309484 311.155897 71.849606 311.696019 
C 72.389728 312.236141 73.122394 312.539621 73.886242 312.539621 
z
" style="fill:#57db5f;stroke:#57db5f;stroke-width:0.886227;"/>
    <path clip-path="url(#p7022f1557c)" d="M 92.663112 297.81637 
C 93.42696 297.81637 94.159626 297.51289 94.699748 296.972768 
C 95.23987 296.432646 95.54335 295.699981 95.54335 294.936133 
C 95.54335 294.172285 95.23987 293.439619 94.699748 292.899497 
C 94.159626 292.359375 93.42696 292.055895 92.663112 292.055895 
C 91.899264 292.055895 91.166599 292.359375 90.626477 292.899497 
C 90.086355 293.439619 89.782875 294.172285 89.782875 294.936133 
C 89.782875 295.699981 90.086355 296.432646 90.626477 296.972768 
C 91.166599 297.51289 91.899264 297.81637 92.663112 297.81637 
z
" style="fill:#57db5f;stroke:#57db5f;stroke-width:0.886227;"/>
    <path clip-path="url(#p7022f1557c)" d="M 80.305948 303.284701 
C 81.069796 303.284701 81.802461 302.981221 82.342583 302.441099 
C 82.882706 301.900977 83.186185 301.168311 83.186185 300.404463 
C 83.186185 299.640615 82.882706 298.90795 82.342583 298.367828 
C 81.802461 297.827706 81.069796 297.524226 80.305948 297.524226 
C 79.5421 297.524226 78.809435 297.827706 78.269313 298.367828 
C 77.72919 298.90795 77.42571 299.640615 77.42571 300.404463 
C 77.42571 301.168311 77.72919 301.900977 78.269313 302.441099 
C 78.809435 302.981221 79.5421 303.284701 80.305948 303.284701 
z
" style="fill:#57db5f;stroke:#57db5f;stroke-width:0.886227;"/>
   </g>
   <g id="PathCollection_13">
    <path clip-path="url(#p7022f1557c)" d="M 311.719331 63.449783 
L 316.150466 63.449783 
M 313.934898 65.66535 
L 313.934898 61.234215 
" style="fill:#57db5f;stroke:#57db5f;stroke-width:0.886227;"/>
    <path clip-path="url(#p7022f1557c)" d="M 296.401504 53.204921 
L 300.832639 53.204921 
M 298.617072 55.420489 
L 298.617072 50.989354 
" style="fill:#57db5f;stroke:#57db5f;stroke-width:0.886227;"/>
    <path clip-path="url(#p7022f1557c)" d="M 290.694103 41.225371 
L 295.125237 41.225371 
M 292.90967 43.440938 
L 292.90967 39.009804 
" style="fill:#57db5f;stroke:#57db5f;stroke-width:0.886227;"/>
   </g>
   <g id="PathCollection_14">
    <path clip-path="url(#p7022f1557c)" d="M 323.419158 75.072303 
L 331.093367 75.072303 
M 327.256263 78.909407 
L 327.256263 71.235198 
" style="fill:#57db5f;stroke:#57db5f;stroke-width:0.886227;"/>
    <path clip-path="url(#p7022f1557c)" d="M 334.69079 88.520319 
L 342.364998 88.520319 
M 338.527894 92.357424 
L 338.527894 84.683215 
" style="fill:#57db5f;stroke:#57db5f;stroke-width:0.886227;"/>
    <path clip-path="url(#p7022f1557c)" d="M 283.253716 57.219769 
L 290.927925 57.219769 
M 287.090821 61.056873 
L 287.090821 53.382665 
" style="fill:#57db5f;stroke:#57db5f;stroke-width:0.886227;"/>
   </g>
   <g id="PathCollection_15">
    <path clip-path="url(#p7022f1557c)" d="M 159.860595 156.740245 
L 169.667978 156.740245 
M 164.764287 161.643937 
L 164.764287 151.836554 
" style="fill:#57db5f;stroke:#57db5f;stroke-width:0.886227;"/>
    <path clip-path="url(#p7022f1557c)" d="M 144.693597 149.006376 
L 154.50098 149.006376 
M 149.597288 153.910067 
L 149.597288 144.102685 
" style="fill:#57db5f;stroke:#57db5f;stroke-width:0.886227;"/>
    <path clip-path="url(#p7022f1557c)" d="M 142.005485 143.141073 
L 151.812867 143.141073 
M 146.909176 148.044764 
L 146.909176 138.237381 
" style="fill:#57db5f;stroke:#57db5f;stroke-width:0.886227;"/>
   </g>
   <g id="PathCollection_16">
    <path clip-path="url(#p7022f1557c)" d="M 66.637473 281.600997 
L 78.158423 281.600997 
M 72.397948 287.361472 
L 72.397948 275.840522 
" style="fill:#57db5f;stroke:#57db5f;stroke-width:0.886227;"/>
    <path clip-path="url(#p7022f1557c)" d="M 59.644498 276.250061 
L 71.165448 276.250061 
M 65.404973 282.010536 
L 65.404973 270.489586 
" style="fill:#57db5f;stroke:#57db5f;stroke-width:0.886227;"/>
    <path clip-path="url(#p7022f1557c)" d="M 58.28767 291.63364 
L 69.808621 291.63364 
M 64.048146 297.394115 
L 64.048146 285.873165 
" style="fill:#57db5f;stroke:#57db5f;stroke-width:0.886227;"/>
   </g>
   <g id="PathCollection_17">
    <path clip-path="url(#p7022f1557c)" d="M 261.855671 249.732592 
C 262.149459 249.732592 262.431253 249.615869 262.638992 249.40813 
C 262.846731 249.20039 262.963455 248.918596 262.963455 248.624808 
C 262.963455 248.331021 262.846731 248.049226 262.638992 247.841487 
C 262.431253 247.633748 262.149459 247.517025 261.855671 247.517025 
C 261.561883 247.517025 261.280089 247.633748 261.07235 247.841487 
C 260.86461 248.049226 260.747887 248.331021 260.747887 248.624808 
C 260.747887 248.918596 260.86461 249.20039 261.07235 249.40813 
C 261.280089 249.615869 261.561883 249.732592 261.855671 249.732592 
z
" style="fill:#5f57db;stroke:#5f57db;stroke-width:0.886227;"/>
    <path clip-path="url(#p7022f1557c)" d="M 270.85795 229.223877 
C 271.151738 229.223877 271.433532 229.107154 271.641272 228.899415 
C 271.849011 228.691676 271.965734 228.409881 271.965734 228.116094 
C 271.965734 227.822306 271.849011 227.540512 271.641272 227.332772 
C 271.433532 227.125033 271.151738 227.00831 270.85795 227.00831 
C 270.564163 227.00831 270.282368 227.125033 270.074629 227.332772 
C 269.86689 227.540512 269.750167 227.822306 269.750167 228.116094 
C 269.750167 228.409881 269.86689 228.691676 270.074629 228.899415 
C 270.282368 229.107154 270.564163 229.223877 270.85795 229.223877 
z
" style="fill:#5f57db;stroke:#5f57db;stroke-width:0.886227;"/>
    <path clip-path="url(#p7022f1557c)" d="M 255.179042 242.584615 
C 255.472829 242.584615 255.754624 242.467892 255.962363 242.260152 
C 256.170102 242.052413 256.286825 241.770619 256.286825 241.476831 
C 256.286825 241.183043 256.170102 240.901249 255.962363 240.69351 
C 255.754624 240.485771 255.472829 240.369047 255.179042 240.369047 
C 254.885254 240.369047 254.60346 240.485771 254.39572 240.69351 
C 254.187981 240.901249 254.071258 241.183043 254.071258 241.476831 
C 254.071258 241.770619 254.187981 242.052413 254.39572 242.260152 
C 254.60346 242.467892 254.885254 242.584615 255.179042 242.584615 
z
" style="fill:#5f57db;stroke:#5f57db;stroke-width:0.886227;"/>
   </g>
   <g id="PathCollection_18">
    <path clip-path="url(#p7022f1557c)" d="M 231.347673 242.393345 
C 231.856479 242.393345 232.344514 242.191194 232.704294 241.831414 
C 233.064074 241.471634 233.266225 240.983599 233.266225 240.474793 
C 233.266225 239.965987 233.064074 239.477952 232.704294 239.118171 
C 232.344514 238.758391 231.856479 238.556241 231.347673 238.556241 
C 230.838867 238.556241 230.350832 238.758391 229.991052 239.118171 
C 229.631272 239.477952 229.429121 239.965987 229.429121 240.474793 
C 229.429121 240.983599 229.631272 241.471634 229.991052 241.831414 
C 230.350832 242.191194 230.838867 242.393345 231.347673 242.393345 
z
" style="fill:#5f57db;stroke:#5f57db;stroke-width:0.886227;"/>
    <path clip-path="url(#p7022f1557c)" d="M 249.550736 238.388901 
C 250.059542 238.388901 250.547577 238.18675 250.907357 237.82697 
C 251.267138 237.46719 251.469288 236.979155 251.469288 236.470349 
C 251.469288 235.961543 251.267138 235.473508 250.907357 235.113728 
C 250.547577 234.753948 250.059542 234.551797 249.550736 234.551797 
C 249.04193 234.551797 248.553895 234.753948 248.194115 235.113728 
C 247.834335 235.473508 247.632184 235.961543 247.632184 236.470349 
C 247.632184 236.979155 247.834335 237.46719 248.194115 237.82697 
C 248.553895 238.18675 249.04193 238.388901 249.550736 238.388901 
z
" style="fill:#5f57db;stroke:#5f57db;stroke-width:0.886227;"/>
    <path clip-path="url(#p7022f1557c)" d="M 226.513007 246.123821 
C 227.021813 246.123821 227.509848 245.92167 227.869628 245.56189 
C 228.229408 245.20211 228.431559 244.714075 228.431559 244.205269 
C 228.431559 243.696463 228.229408 243.208428 227.869628 242.848648 
C 227.509848 242.488868 227.021813 242.286717 226.513007 242.286717 
C 226.004201 242.286717 225.516166 242.488868 225.156386 242.848648 
C 224.796605 243.208428 224.594455 243.696463 224.594455 244.205269 
C 224.594455 244.714075 224.796605 245.20211 225.156386 245.56189 
C 225.516166 245.92167 226.004201 246.123821 226.513007 246.123821 
z
" style="fill:#5f57db;stroke:#5f57db;stroke-width:0.886227;"/>
   </g>
   <g id="PathCollection_19">
    <path clip-path="url(#p7022f1557c)" d="M 61.417842 346.077216 
C 62.068079 346.077216 62.691772 345.818874 63.151559 345.359087 
C 63.611346 344.8993 63.869688 344.275607 63.869688 343.62537 
C 63.869688 342.975133 63.611346 342.351441 63.151559 341.891654 
C 62.691772 341.431867 62.068079 341.173525 61.417842 341.173525 
C 60.767605 341.173525 60.143912 341.431867 59.684125 341.891654 
C 59.224338 342.351441 58.965996 342.975133 58.965996 343.62537 
C 58.965996 344.275607 59.224338 344.8993 59.684125 345.359087 
C 60.143912 345.818874 60.767605 346.077216 61.417842 346.077216 
z
" style="fill:#5f57db;stroke:#5f57db;stroke-width:0.886227;"/>
    <path clip-path="url(#p7022f1557c)" d="M 88.979833 332.622061 
C 89.63007 332.622061 90.253762 332.363719 90.713549 331.903932 
C 91.173336 331.444145 91.431678 330.820453 91.431678 330.170216 
C 91.431678 329.519979 91.173336 328.896286 90.713549 328.436499 
C 90.253762 327.976712 89.63007 327.71837 88.979833 327.71837 
C 88.329595 327.71837 87.705903 327.976712 87.246116 328.436499 
C 86.786329 328.896286 86.527987 329.519979 86.527987 330.170216 
C 86.527987 330.820453 86.786329 331.444145 87.246116 331.903932 
C 87.705903 332.363719 88.329595 332.622061 88.979833 332.622061 
z
" style="fill:#5f57db;stroke:#5f57db;stroke-width:0.886227;"/>
    <path clip-path="url(#p7022f1557c)" d="M 79.745827 342.265126 
C 80.396064 342.265126 81.019756 342.006784 81.479543 341.546997 
C 81.93933 341.08721 82.197672 340.463518 82.197672 339.81328 
C 82.197672 339.163043 81.93933 338.539351 81.479543 338.079564 
C 81.019756 337.619777 80.396064 337.361435 79.745827 337.361435 
C 79.09559 337.361435 78.471897 337.619777 78.01211 338.079564 
C 77.552323 338.539351 77.293981 339.163043 77.293981 339.81328 
C 77.293981 340.463518 77.552323 341.08721 78.01211 341.546997 
C 78.471897 342.006784 79.09559 342.265126 79.745827 342.265126 
z
" style="fill:#5f57db;stroke:#5f57db;stroke-width:0.886227;"/>
   </g>
   <g id="PathCollection_20">
    <path clip-path="url(#p7022f1557c)" d="M 52.3423 328.953334 
C 53.106148 328.953334 53.838813 328.649854 54.378935 328.109732 
C 54.919057 327.569609 55.222537 326.836944 55.222537 326.073096 
C 55.222537 325.309248 54.919057 324.576583 54.378935 324.036461 
C 53.838813 323.496339 53.106148 323.192859 52.3423 323.192859 
C 51.578452 323.192859 50.845786 323.496339 50.305664 324.036461 
C 49.765542 324.576583 49.462062 325.309248 49.462062 326.073096 
C 49.462062 326.836944 49.765542 327.569609 50.305664 328.109732 
C 50.845786 328.649854 51.578452 328.953334 52.3423 328.953334 
z
" style="fill:#5f57db;stroke:#5f57db;stroke-width:0.886227;"/>
    <path clip-path="url(#p7022f1557c)" d="M 50.549483 325.689003 
C 51.313331 325.689003 52.045997 325.385523 52.586119 324.845401 
C 53.126241 324.305279 53.429721 323.572613 53.429721 322.808765 
C 53.429721 322.044918 53.126241 321.312252 52.586119 320.77213 
C 52.045997 320.232008 51.313331 319.928528 50.549483 319.928528 
C 49.785635 319.928528 49.05297 320.232008 48.512848 320.77213 
C 47.972726 321.312252 47.669246 322.044918 47.669246 322.808765 
C 47.669246 323.572613 47.972726 324.305279 48.512848 324.845401 
C 49.05297 325.385523 49.785635 325.689003 50.549483 325.689003 
z
" style="fill:#5f57db;stroke:#5f57db;stroke-width:0.886227;"/>
    <path clip-path="url(#p7022f1557c)" d="M 63.827541 333.858027 
C 64.591389 333.858027 65.324054 333.554547 65.864176 333.014425 
C 66.404298 332.474302 66.707778 331.741637 66.707778 330.977789 
C 66.707778 330.213941 66.404298 329.481276 65.864176 328.941154 
C 65.324054 328.401032 64.591389 328.097552 63.827541 328.097552 
C 63.063693 328.097552 62.331027 328.401032 61.790905 328.941154 
C 61.250783 329.481276 60.947303 330.213941 60.947303 330.977789 
C 60.947303 331.741637 61.250783 332.474302 61.790905 333.014425 
C 62.331027 333.554547 63.063693 333.858027 63.827541 333.858027 
z
" style="fill:#5f57db;stroke:#5f57db;stroke-width:0.886227;"/>
   </g>
   <g id="PathCollection_21">
    <path clip-path="url(#p7022f1557c)" d="M 344.636016 171.989643 
L 349.067151 171.989643 
M 346.851584 174.20521 
L 346.851584 169.774076 
" style="fill:#5f57db;stroke:#5f57db;stroke-width:0.886227;"/>
    <path clip-path="url(#p7022f1557c)" d="M 325.770976 170.811982 
L 330.202111 170.811982 
M 327.986544 173.027549 
L 327.986544 168.596415 
" style="fill:#5f57db;stroke:#5f57db;stroke-width:0.886227;"/>
    <path clip-path="url(#p7022f1557c)" d="M 318.039067 167.429896 
L 322.470202 167.429896 
M 320.254635 169.645464 
L 320.254635 165.214329 
" style="fill:#5f57db;stroke:#5f57db;stroke-width:0.886227;"/>
   </g>
   <g id="PathCollection_22">
    <path clip-path="url(#p7022f1557c)" d="M 335.183625 181.913135 
L 342.857834 181.913135 
M 339.020729 185.75024 
L 339.020729 178.076031 
" style="fill:#5f57db;stroke:#5f57db;stroke-width:0.886227;"/>
    <path clip-path="url(#p7022f1557c)" d="M 310.022887 175.592275 
L 317.697095 175.592275 
M 313.859991 179.429379 
L 313.859991 171.755171 
" style="fill:#5f57db;stroke:#5f57db;stroke-width:0.886227;"/>
    <path clip-path="url(#p7022f1557c)" d="M 278.059599 208.482326 
L 285.733808 208.482326 
M 281.896704 212.31943 
L 281.896704 204.645221 
" style="fill:#5f57db;stroke:#5f57db;stroke-width:0.886227;"/>
   </g>
   <g id="PathCollection_23">
    <path clip-path="url(#p7022f1557c)" d="M 169.194656 284.053924 
L 179.002038 284.053924 
M 174.098347 288.957615 
L 174.098347 279.150232 
" style="fill:#5f57db;stroke:#5f57db;stroke-width:0.886227;"/>
    <path clip-path="url(#p7022f1557c)" d="M 147.599333 292.422773 
L 157.406715 292.422773 
M 152.503024 297.326464 
L 152.503024 287.519082 
" style="fill:#5f57db;stroke:#5f57db;stroke-width:0.886227;"/>
    <path clip-path="url(#p7022f1557c)" d="M 158.347375 296.160443 
L 168.154757 296.160443 
M 163.251066 301.064134 
L 163.251066 291.256752 
" style="fill:#5f57db;stroke:#5f57db;stroke-width:0.886227;"/>
   </g>
   <g id="PathCollection_24">
    <path clip-path="url(#p7022f1557c)" d="M 125.656946 313.210845 
L 137.177896 313.210845 
M 131.417421 318.97132 
L 131.417421 307.45037 
" style="fill:#5f57db;stroke:#5f57db;stroke-width:0.886227;"/>
    <path clip-path="url(#p7022f1557c)" d="M 143.98503 311.267551 
L 155.50598 311.267551 
M 149.745505 317.028026 
L 149.745505 305.507076 
" style="fill:#5f57db;stroke:#5f57db;stroke-width:0.886227;"/>
    <path clip-path="url(#p7022f1557c)" d="M 121.145976 315.912054 
L 132.666926 315.912054 
M 126.906451 321.672529 
L 126.906451 310.151579 
" style="fill:#5f57db;stroke:#5f57db;stroke-width:0.886227;"/>
   </g>
   <g id="patch_3">
    <path d="M 430.594938 316.264888 
L 569.409813 316.264888 
L 569.409813 64.265854 
L 430.594938 64.265854 
z
" style="fill:#ffffff;"/>
   </g>
   <g id="text_9">
    <!-- Plate -->
    <defs>
     <path d="M 9.421875 75.984375 
L 18.40625 75.984375 
L 18.40625 0 
L 9.421875 0 
z
" id="DejaVuSans-108"/>
     <path d="M 34.28125 27.484375 
Q 23.390625 27.484375 19.1875 25 
Q 14.984375 22.515625 14.984375 16.5 
Q 14.984375 11.71875 18.140625 8.90625 
Q 21.296875 6.109375 26.703125 6.109375 
Q 34.1875 6.109375 38.703125 11.40625 
Q 43.21875 16.703125 43.21875 25.484375 
L 43.21875 27.484375 
z
M 52.203125 31.203125 
L 52.203125 0 
L 43.21875 0 
L 43.21875 8.296875 
Q 40.140625 3.328125 35.546875 0.953125 
Q 30.953125 -1.421875 24.3125 -1.421875 
Q 15.921875 -1.421875 10.953125 3.296875 
Q 6 8.015625 6 15.921875 
Q 6 25.140625 12.171875 29.828125 
Q 18.359375 34.515625 30.609375 34.515625 
L 43.21875 34.515625 
L 43.21875 35.40625 
Q 43.21875 41.609375 39.140625 45 
Q 35.0625 48.390625 27.6875 48.390625 
Q 23 48.390625 18.546875 47.265625 
Q 14.109375 46.140625 10.015625 43.890625 
L 10.015625 52.203125 
Q 14.9375 54.109375 19.578125 55.046875 
Q 24.21875 56 28.609375 56 
Q 40.484375 56 46.34375 49.84375 
Q 52.203125 43.703125 52.203125 31.203125 
z
" id="DejaVuSans-97"/>
     <path d="M 18.3125 70.21875 
L 18.3125 54.6875 
L 36.8125 54.6875 
L 36.8125 47.703125 
L 18.3125 47.703125 
L 18.3125 18.015625 
Q 18.3125 11.328125 20.140625 9.421875 
Q 21.96875 7.515625 27.59375 7.515625 
L 36.8125 7.515625 
L 36.8125 0 
L 27.59375 0 
Q 17.1875 0 13.234375 3.875 
Q 9.28125 7.765625 9.28125 18.015625 
L 9.28125 47.703125 
L 2.6875 47.703125 
L 2.6875 54.6875 
L 9.28125 54.6875 
L 9.28125 70.21875 
z
" id="DejaVuSans-116"/>
     <path d="M 56.203125 29.59375 
L 56.203125 25.203125 
L 14.890625 25.203125 
Q 15.484375 15.921875 20.484375 11.0625 
Q 25.484375 6.203125 34.421875 6.203125 
Q 39.59375 6.203125 44.453125 7.46875 
Q 49.3125 8.734375 54.109375 11.28125 
L 54.109375 2.78125 
Q 49.265625 0.734375 44.1875 -0.34375 
Q 39.109375 -1.421875 33.890625 -1.421875 
Q 20.796875 -1.421875 13.15625 6.1875 
Q 5.515625 13.8125 5.515625 26.8125 
Q 5.515625 40.234375 12.765625 48.109375 
Q 20.015625 56 32.328125 56 
Q 43.359375 56 49.78125 48.890625 
Q 56.203125 41.796875 56.203125 29.59375 
z
M 47.21875 32.234375 
Q 47.125 39.59375 43.09375 43.984375 
Q 39.0625 48.390625 32.421875 48.390625 
Q 24.90625 48.390625 20.390625 44.140625 
Q 15.875 39.890625 15.1875 32.171875 
z
" id="DejaVuSans-101"/>
    </defs>
    <g transform="translate(442.794938 87.859447)scale(0.11 -0.11)">
     <use xlink:href="#DejaVuSans-80"/>
     <use x="60.302734" xlink:href="#DejaVuSans-108"/>
     <use x="88.085938" xlink:href="#DejaVuSans-97"/>
     <use x="149.365234" xlink:href="#DejaVuSans-116"/>
     <use x="188.574219" xlink:href="#DejaVuSans-101"/>
    </g>
   </g>
   <g id="patch_4">
    <path clip-path="url(#p31edbb9723)" d="M 442.794938 107.351791 
L 458.634937 107.351791 
L 458.634937 91.511791 
L 442.794938 91.511791 
z
" style="fill:#ffffff;stroke:#000000;stroke-linejoin:miter;"/>
   </g>
   <g id="line2d_27">
    <path clip-path="url(#p31edbb9723)" d="M 450.714938 99.431791 
" style="fill:none;stroke:#1f77b4;stroke-linecap:square;stroke-width:1.5;"/>
    <defs>
     <path d="M 0 0.886227 
C 0.23503 0.886227 0.460466 0.792848 0.626657 0.626657 
C 0.792848 0.460466 0.886227 0.23503 0.886227 0 
C 0.886227 -0.23503 0.792848 -0.460466 0.626657 -0.626657 
C 0.460466 -0.792848 0.23503 -0.886227 0 -0.886227 
C -0.23503 -0.886227 -0.460466 -0.792848 -0.626657 -0.626657 
C -0.792848 -0.460466 -0.886227 -0.23503 -0.886227 0 
C -0.886227 0.23503 -0.792848 0.460466 -0.626657 0.626657 
C -0.460466 0.792848 -0.23503 0.886227 0 0.886227 
z
" id="m7d730f2f4b" style="stroke:#000000;stroke-width:0.886227;"/>
    </defs>
    <g clip-path="url(#p31edbb9723)">
     <use style="stroke:#000000;stroke-width:0.886227;" x="450.714938" xlink:href="#m7d730f2f4b" y="99.431791"/>
    </g>
   </g>
   <g id="text_10">
    <!-- 207106_exposure320 -->
    <defs>
     <path d="M 8.203125 72.90625 
L 55.078125 72.90625 
L 55.078125 68.703125 
L 28.609375 0 
L 18.3125 0 
L 43.21875 64.59375 
L 8.203125 64.59375 
z
" id="DejaVuSans-55"/>
     <path d="M 12.40625 8.296875 
L 28.515625 8.296875 
L 28.515625 63.921875 
L 10.984375 60.40625 
L 10.984375 69.390625 
L 28.421875 72.90625 
L 38.28125 72.90625 
L 38.28125 8.296875 
L 54.390625 8.296875 
L 54.390625 0 
L 12.40625 0 
z
" id="DejaVuSans-49"/>
     <path d="M 50.984375 -16.609375 
L 50.984375 -23.578125 
L -0.984375 -23.578125 
L -0.984375 -16.609375 
z
" id="DejaVuSans-95"/>
     <path d="M 54.890625 54.6875 
L 35.109375 28.078125 
L 55.90625 0 
L 45.3125 0 
L 29.390625 21.484375 
L 13.484375 0 
L 2.875 0 
L 24.125 28.609375 
L 4.6875 54.6875 
L 15.28125 54.6875 
L 29.78125 35.203125 
L 44.28125 54.6875 
z
" id="DejaVuSans-120"/>
     <path d="M 18.109375 8.203125 
L 18.109375 -20.796875 
L 9.078125 -20.796875 
L 9.078125 54.6875 
L 18.109375 54.6875 
L 18.109375 46.390625 
Q 20.953125 51.265625 25.265625 53.625 
Q 29.59375 56 35.59375 56 
Q 45.5625 56 51.78125 48.09375 
Q 58.015625 40.1875 58.015625 27.296875 
Q 58.015625 14.40625 51.78125 6.484375 
Q 45.5625 -1.421875 35.59375 -1.421875 
Q 29.59375 -1.421875 25.265625 0.953125 
Q 20.953125 3.328125 18.109375 8.203125 
z
M 48.6875 27.296875 
Q 48.6875 37.203125 44.609375 42.84375 
Q 40.53125 48.484375 33.40625 48.484375 
Q 26.265625 48.484375 22.1875 42.84375 
Q 18.109375 37.203125 18.109375 27.296875 
Q 18.109375 17.390625 22.1875 11.75 
Q 26.265625 6.109375 33.40625 6.109375 
Q 40.53125 6.109375 44.609375 11.75 
Q 48.6875 17.390625 48.6875 27.296875 
z
" id="DejaVuSans-112"/>
     <path d="M 30.609375 48.390625 
Q 23.390625 48.390625 19.1875 42.75 
Q 14.984375 37.109375 14.984375 27.296875 
Q 14.984375 17.484375 19.15625 11.84375 
Q 23.34375 6.203125 30.609375 6.203125 
Q 37.796875 6.203125 41.984375 11.859375 
Q 46.1875 17.53125 46.1875 27.296875 
Q 46.1875 37.015625 41.984375 42.703125 
Q 37.796875 48.390625 30.609375 48.390625 
z
M 30.609375 56 
Q 42.328125 56 49.015625 48.375 
Q 55.71875 40.765625 55.71875 27.296875 
Q 55.71875 13.875 49.015625 6.21875 
Q 42.328125 -1.421875 30.609375 -1.421875 
Q 18.84375 -1.421875 12.171875 6.21875 
Q 5.515625 13.875 5.515625 27.296875 
Q 5.515625 40.765625 12.171875 48.375 
Q 18.84375 56 30.609375 56 
z
" id="DejaVuSans-111"/>
     <path d="M 44.28125 53.078125 
L 44.28125 44.578125 
Q 40.484375 46.53125 36.375 47.5 
Q 32.28125 48.484375 27.875 48.484375 
Q 21.1875 48.484375 17.84375 46.4375 
Q 14.5 44.390625 14.5 40.28125 
Q 14.5 37.15625 16.890625 35.375 
Q 19.28125 33.59375 26.515625 31.984375 
L 29.59375 31.296875 
Q 39.15625 29.25 43.1875 25.515625 
Q 47.21875 21.78125 47.21875 15.09375 
Q 47.21875 7.46875 41.1875 3.015625 
Q 35.15625 -1.421875 24.609375 -1.421875 
Q 20.21875 -1.421875 15.453125 -0.5625 
Q 10.6875 0.296875 5.421875 2 
L 5.421875 11.28125 
Q 10.40625 8.6875 15.234375 7.390625 
Q 20.0625 6.109375 24.8125 6.109375 
Q 31.15625 6.109375 34.5625 8.28125 
Q 37.984375 10.453125 37.984375 14.40625 
Q 37.984375 18.0625 35.515625 20.015625 
Q 33.0625 21.96875 24.703125 23.78125 
L 21.578125 24.515625 
Q 13.234375 26.265625 9.515625 29.90625 
Q 5.8125 33.546875 5.8125 39.890625 
Q 5.8125 47.609375 11.28125 51.796875 
Q 16.75 56 26.8125 56 
Q 31.78125 56 36.171875 55.265625 
Q 40.578125 54.546875 44.28125 53.078125 
z
" id="DejaVuSans-115"/>
     <path d="M 8.5 21.578125 
L 8.5 54.6875 
L 17.484375 54.6875 
L 17.484375 21.921875 
Q 17.484375 14.15625 20.5 10.265625 
Q 23.53125 6.390625 29.59375 6.390625 
Q 36.859375 6.390625 41.078125 11.03125 
Q 45.3125 15.671875 45.3125 23.6875 
L 45.3125 54.6875 
L 54.296875 54.6875 
L 54.296875 0 
L 45.3125 0 
L 45.3125 8.40625 
Q 42.046875 3.421875 37.71875 1 
Q 33.40625 -1.421875 27.6875 -1.421875 
Q 18.265625 -1.421875 13.375 4.4375 
Q 8.5 10.296875 8.5 21.578125 
z
M 31.109375 56 
z
" id="DejaVuSans-117"/>
     <path d="M 41.109375 46.296875 
Q 39.59375 47.171875 37.8125 47.578125 
Q 36.03125 48 33.890625 48 
Q 26.265625 48 22.1875 43.046875 
Q 18.109375 38.09375 18.109375 28.8125 
L 18.109375 0 
L 9.078125 0 
L 9.078125 54.6875 
L 18.109375 54.6875 
L 18.109375 46.1875 
Q 20.953125 51.171875 25.484375 53.578125 
Q 30.03125 56 36.53125 56 
Q 37.453125 56 38.578125 55.875 
Q 39.703125 55.765625 41.0625 55.515625 
z
" id="DejaVuSans-114"/>
     <path d="M 40.578125 39.3125 
Q 47.65625 37.796875 51.625 33 
Q 55.609375 28.21875 55.609375 21.1875 
Q 55.609375 10.40625 48.1875 4.484375 
Q 40.765625 -1.421875 27.09375 -1.421875 
Q 22.515625 -1.421875 17.65625 -0.515625 
Q 12.796875 0.390625 7.625 2.203125 
L 7.625 11.71875 
Q 11.71875 9.328125 16.59375 8.109375 
Q 21.484375 6.890625 26.8125 6.890625 
Q 36.078125 6.890625 40.9375 10.546875 
Q 45.796875 14.203125 45.796875 21.1875 
Q 45.796875 27.640625 41.28125 31.265625 
Q 36.765625 34.90625 28.71875 34.90625 
L 20.21875 34.90625 
L 20.21875 43.015625 
L 29.109375 43.015625 
Q 36.375 43.015625 40.234375 45.921875 
Q 44.09375 48.828125 44.09375 54.296875 
Q 44.09375 59.90625 40.109375 62.90625 
Q 36.140625 65.921875 28.71875 65.921875 
Q 24.65625 65.921875 20.015625 65.03125 
Q 15.375 64.15625 9.8125 62.3125 
L 9.8125 71.09375 
Q 15.4375 72.65625 20.34375 73.4375 
Q 25.25 74.21875 29.59375 74.21875 
Q 40.828125 74.21875 47.359375 69.109375 
Q 53.90625 64.015625 53.90625 55.328125 
Q 53.90625 49.265625 50.4375 45.09375 
Q 46.96875 40.921875 40.578125 39.3125 
z
" id="DejaVuSans-51"/>
    </defs>
    <g transform="translate(461.634937 101.737666)scale(0.088 -0.088)">
     <use xlink:href="#DejaVuSans-50"/>
     <use x="63.623047" xlink:href="#DejaVuSans-48"/>
     <use x="127.246094" xlink:href="#DejaVuSans-55"/>
     <use x="190.869141" xlink:href="#DejaVuSans-49"/>
     <use x="254.492188" xlink:href="#DejaVuSans-48"/>
     <use x="318.115234" xlink:href="#DejaVuSans-54"/>
     <use x="381.738281" xlink:href="#DejaVuSans-95"/>
     <use x="431.738281" xlink:href="#DejaVuSans-101"/>
     <use x="493.246094" xlink:href="#DejaVuSans-120"/>
     <use x="552.425781" xlink:href="#DejaVuSans-112"/>
     <use x="615.902344" xlink:href="#DejaVuSans-111"/>
     <use x="677.083984" xlink:href="#DejaVuSans-115"/>
     <use x="729.183594" xlink:href="#DejaVuSans-117"/>
     <use x="792.5625" xlink:href="#DejaVuSans-114"/>
     <use x="833.644531" xlink:href="#DejaVuSans-101"/>
     <use x="895.167969" xlink:href="#DejaVuSans-51"/>
     <use x="958.791016" xlink:href="#DejaVuSans-50"/>
     <use x="1022.414062" xlink:href="#DejaVuSans-48"/>
    </g>
   </g>
   <g id="patch_5">
    <path clip-path="url(#pfe92d789f4)" d="M 442.794938 125.191791 
L 458.634937 125.191791 
L 458.634937 109.351791 
L 442.794938 109.351791 
z
" style="fill:#ffffff;stroke:#000000;stroke-linejoin:miter;"/>
   </g>
   <g id="line2d_28">
    <path clip-path="url(#pfe92d789f4)" d="M 450.714938 117.271791 
" style="fill:none;stroke:#1f77b4;stroke-linecap:square;stroke-width:1.5;"/>
    <defs>
     <path d="M -1.772454 0 
L 1.772454 0 
M 0 1.772454 
L 0 -1.772454 
" id="m26ab420c0e" style="stroke:#000000;stroke-width:0.886227;"/>
    </defs>
    <g clip-path="url(#pfe92d789f4)">
     <use style="stroke:#000000;stroke-width:0.886227;" x="450.714938" xlink:href="#m26ab420c0e" y="117.271791"/>
    </g>
   </g>
   <g id="text_11">
    <!-- HCT116bortezomib -->
    <defs>
     <path d="M 9.8125 72.90625 
L 19.671875 72.90625 
L 19.671875 43.015625 
L 55.515625 43.015625 
L 55.515625 72.90625 
L 65.375 72.90625 
L 65.375 0 
L 55.515625 0 
L 55.515625 34.71875 
L 19.671875 34.71875 
L 19.671875 0 
L 9.8125 0 
z
" id="DejaVuSans-72"/>
     <path d="M 64.40625 67.28125 
L 64.40625 56.890625 
Q 59.421875 61.53125 53.78125 63.8125 
Q 48.140625 66.109375 41.796875 66.109375 
Q 29.296875 66.109375 22.65625 58.46875 
Q 16.015625 50.828125 16.015625 36.375 
Q 16.015625 21.96875 22.65625 14.328125 
Q 29.296875 6.6875 41.796875 6.6875 
Q 48.140625 6.6875 53.78125 8.984375 
Q 59.421875 11.28125 64.40625 15.921875 
L 64.40625 5.609375 
Q 59.234375 2.09375 53.4375 0.328125 
Q 47.65625 -1.421875 41.21875 -1.421875 
Q 24.65625 -1.421875 15.125 8.703125 
Q 5.609375 18.84375 5.609375 36.375 
Q 5.609375 53.953125 15.125 64.078125 
Q 24.65625 74.21875 41.21875 74.21875 
Q 47.75 74.21875 53.53125 72.484375 
Q 59.328125 70.75 64.40625 67.28125 
z
" id="DejaVuSans-67"/>
     <path d="M -0.296875 72.90625 
L 61.375 72.90625 
L 61.375 64.59375 
L 35.5 64.59375 
L 35.5 0 
L 25.59375 0 
L 25.59375 64.59375 
L -0.296875 64.59375 
z
" id="DejaVuSans-84"/>
     <path d="M 48.6875 27.296875 
Q 48.6875 37.203125 44.609375 42.84375 
Q 40.53125 48.484375 33.40625 48.484375 
Q 26.265625 48.484375 22.1875 42.84375 
Q 18.109375 37.203125 18.109375 27.296875 
Q 18.109375 17.390625 22.1875 11.75 
Q 26.265625 6.109375 33.40625 6.109375 
Q 40.53125 6.109375 44.609375 11.75 
Q 48.6875 17.390625 48.6875 27.296875 
z
M 18.109375 46.390625 
Q 20.953125 51.265625 25.265625 53.625 
Q 29.59375 56 35.59375 56 
Q 45.5625 56 51.78125 48.09375 
Q 58.015625 40.1875 58.015625 27.296875 
Q 58.015625 14.40625 51.78125 6.484375 
Q 45.5625 -1.421875 35.59375 -1.421875 
Q 29.59375 -1.421875 25.265625 0.953125 
Q 20.953125 3.328125 18.109375 8.203125 
L 18.109375 0 
L 9.078125 0 
L 9.078125 75.984375 
L 18.109375 75.984375 
z
" id="DejaVuSans-98"/>
     <path d="M 5.515625 54.6875 
L 48.1875 54.6875 
L 48.1875 46.484375 
L 14.40625 7.171875 
L 48.1875 7.171875 
L 48.1875 0 
L 4.296875 0 
L 4.296875 8.203125 
L 38.09375 47.515625 
L 5.515625 47.515625 
z
" id="DejaVuSans-122"/>
     <path d="M 52 44.1875 
Q 55.375 50.25 60.0625 53.125 
Q 64.75 56 71.09375 56 
Q 79.640625 56 84.28125 50.015625 
Q 88.921875 44.046875 88.921875 33.015625 
L 88.921875 0 
L 79.890625 0 
L 79.890625 32.71875 
Q 79.890625 40.578125 77.09375 44.375 
Q 74.3125 48.1875 68.609375 48.1875 
Q 61.625 48.1875 57.5625 43.546875 
Q 53.515625 38.921875 53.515625 30.90625 
L 53.515625 0 
L 44.484375 0 
L 44.484375 32.71875 
Q 44.484375 40.625 41.703125 44.40625 
Q 38.921875 48.1875 33.109375 48.1875 
Q 26.21875 48.1875 22.15625 43.53125 
Q 18.109375 38.875 18.109375 30.90625 
L 18.109375 0 
L 9.078125 0 
L 9.078125 54.6875 
L 18.109375 54.6875 
L 18.109375 46.1875 
Q 21.1875 51.21875 25.484375 53.609375 
Q 29.78125 56 35.6875 56 
Q 41.65625 56 45.828125 52.96875 
Q 50 49.953125 52 44.1875 
z
" id="DejaVuSans-109"/>
     <path d="M 9.421875 54.6875 
L 18.40625 54.6875 
L 18.40625 0 
L 9.421875 0 
z
M 9.421875 75.984375 
L 18.40625 75.984375 
L 18.40625 64.59375 
L 9.421875 64.59375 
z
" id="DejaVuSans-105"/>
    </defs>
    <g transform="translate(461.634937 119.700041)scale(0.088 -0.088)">
     <use xlink:href="#DejaVuSans-72"/>
     <use x="75.195312" xlink:href="#DejaVuSans-67"/>
     <use x="145.019531" xlink:href="#DejaVuSans-84"/>
     <use x="206.103516" xlink:href="#DejaVuSans-49"/>
     <use x="269.726562" xlink:href="#DejaVuSans-49"/>
     <use x="333.349609" xlink:href="#DejaVuSans-54"/>
     <use x="396.972656" xlink:href="#DejaVuSans-98"/>
     <use x="460.449219" xlink:href="#DejaVuSans-111"/>
     <use x="521.630859" xlink:href="#DejaVuSans-114"/>
     <use x="562.744141" xlink:href="#DejaVuSans-116"/>
     <use x="601.953125" xlink:href="#DejaVuSans-101"/>
     <use x="663.476562" xlink:href="#DejaVuSans-122"/>
     <use x="715.966797" xlink:href="#DejaVuSans-111"/>
     <use x="777.148438" xlink:href="#DejaVuSans-109"/>
     <use x="874.560547" xlink:href="#DejaVuSans-105"/>
     <use x="902.34375" xlink:href="#DejaVuSans-98"/>
    </g>
   </g>
   <g id="text_12">
    <!-- Clone -->
    <defs>
     <path d="M 54.890625 33.015625 
L 54.890625 0 
L 45.90625 0 
L 45.90625 32.71875 
Q 45.90625 40.484375 42.875 44.328125 
Q 39.84375 48.1875 33.796875 48.1875 
Q 26.515625 48.1875 22.3125 43.546875 
Q 18.109375 38.921875 18.109375 30.90625 
L 18.109375 0 
L 9.078125 0 
L 9.078125 54.6875 
L 18.109375 54.6875 
L 18.109375 46.1875 
Q 21.34375 51.125 25.703125 53.5625 
Q 30.078125 56 35.796875 56 
Q 45.21875 56 50.046875 50.171875 
Q 54.890625 44.34375 54.890625 33.015625 
z
" id="DejaVuSans-110"/>
    </defs>
    <g transform="translate(442.794938 146.585385)scale(0.11 -0.11)">
     <use xlink:href="#DejaVuSans-67"/>
     <use x="69.824219" xlink:href="#DejaVuSans-108"/>
     <use x="97.607422" xlink:href="#DejaVuSans-111"/>
     <use x="158.789062" xlink:href="#DejaVuSans-110"/>
     <use x="222.167969" xlink:href="#DejaVuSans-101"/>
    </g>
   </g>
   <g id="patch_6">
    <path clip-path="url(#p6f1c80ee09)" d="M 442.794938 166.077729 
L 458.634937 166.077729 
L 458.634937 150.237729 
L 442.794938 150.237729 
z
" style="fill:#ffffff;stroke:#000000;stroke-linejoin:miter;"/>
   </g>
   <g id="line2d_29">
    <path clip-path="url(#p6f1c80ee09)" d="M 450.714938 158.157729 
" style="fill:none;stroke:#1f77b4;stroke-linecap:square;stroke-width:1.5;"/>
    <defs>
     <path d="M 0 1.772454 
C 0.47006 1.772454 0.920931 1.585697 1.253314 1.253314 
C 1.585697 0.920931 1.772454 0.47006 1.772454 0 
C 1.772454 -0.47006 1.585697 -0.920931 1.253314 -1.253314 
C 0.920931 -1.585697 0.47006 -1.772454 0 -1.772454 
C -0.47006 -1.772454 -0.920931 -1.585697 -1.253314 -1.253314 
C -1.585697 -0.920931 -1.772454 -0.47006 -1.772454 0 
C -1.772454 0.47006 -1.585697 0.920931 -1.253314 1.253314 
C -0.920931 1.585697 -0.47006 1.772454 0 1.772454 
z
" id="m894d69cadd" style="stroke:#db5f57;stroke-width:0.886227;"/>
    </defs>
    <g clip-path="url(#p6f1c80ee09)">
     <use style="fill:#db5f57;stroke:#db5f57;stroke-width:0.886227;" x="450.714938" xlink:href="#m894d69cadd" y="158.157729"/>
    </g>
   </g>
   <g id="text_13">
    <!-- CloneA -->
    <g transform="translate(461.634937 160.585979)scale(0.088 -0.088)">
     <use xlink:href="#DejaVuSans-67"/>
     <use x="69.824219" xlink:href="#DejaVuSans-108"/>
     <use x="97.607422" xlink:href="#DejaVuSans-111"/>
     <use x="158.789062" xlink:href="#DejaVuSans-110"/>
     <use x="222.167969" xlink:href="#DejaVuSans-101"/>
     <use x="283.691406" xlink:href="#DejaVuSans-65"/>
    </g>
   </g>
   <g id="patch_7">
    <path clip-path="url(#p276799cffd)" d="M 442.794938 183.917729 
L 458.634937 183.917729 
L 458.634937 168.077729 
L 442.794938 168.077729 
z
" style="fill:#ffffff;stroke:#000000;stroke-linejoin:miter;"/>
   </g>
   <g id="line2d_30">
    <path clip-path="url(#p276799cffd)" d="M 450.714938 175.997729 
" style="fill:none;stroke:#1f77b4;stroke-linecap:square;stroke-width:1.5;"/>
    <defs>
     <path d="M 0 1.772454 
C 0.47006 1.772454 0.920931 1.585697 1.253314 1.253314 
C 1.585697 0.920931 1.772454 0.47006 1.772454 0 
C 1.772454 -0.47006 1.585697 -0.920931 1.253314 -1.253314 
C 0.920931 -1.585697 0.47006 -1.772454 0 -1.772454 
C -0.47006 -1.772454 -0.920931 -1.585697 -1.253314 -1.253314 
C -1.585697 -0.920931 -1.772454 -0.47006 -1.772454 0 
C -1.772454 0.47006 -1.585697 0.920931 -1.253314 1.253314 
C -0.920931 1.585697 -0.47006 1.772454 0 1.772454 
z
" id="m31e40e3571" style="stroke:#57db5f;stroke-width:0.886227;"/>
    </defs>
    <g clip-path="url(#p276799cffd)">
     <use style="fill:#57db5f;stroke:#57db5f;stroke-width:0.886227;" x="450.714938" xlink:href="#m31e40e3571" y="175.997729"/>
    </g>
   </g>
   <g id="text_14">
    <!-- CloneE -->
    <defs>
     <path d="M 9.8125 72.90625 
L 55.90625 72.90625 
L 55.90625 64.59375 
L 19.671875 64.59375 
L 19.671875 43.015625 
L 54.390625 43.015625 
L 54.390625 34.71875 
L 19.671875 34.71875 
L 19.671875 8.296875 
L 56.78125 8.296875 
L 56.78125 0 
L 9.8125 0 
z
" id="DejaVuSans-69"/>
    </defs>
    <g transform="translate(461.634937 178.425979)scale(0.088 -0.088)">
     <use xlink:href="#DejaVuSans-67"/>
     <use x="69.824219" xlink:href="#DejaVuSans-108"/>
     <use x="97.607422" xlink:href="#DejaVuSans-111"/>
     <use x="158.789062" xlink:href="#DejaVuSans-110"/>
     <use x="222.167969" xlink:href="#DejaVuSans-101"/>
     <use x="283.691406" xlink:href="#DejaVuSans-69"/>
    </g>
   </g>
   <g id="patch_8">
    <path clip-path="url(#pa630c55daa)" d="M 442.794938 201.757729 
L 458.634937 201.757729 
L 458.634937 185.917729 
L 442.794938 185.917729 
z
" style="fill:#ffffff;stroke:#000000;stroke-linejoin:miter;"/>
   </g>
   <g id="line2d_31">
    <path clip-path="url(#pa630c55daa)" d="M 450.714938 193.837729 
" style="fill:none;stroke:#1f77b4;stroke-linecap:square;stroke-width:1.5;"/>
    <defs>
     <path d="M 0 1.772454 
C 0.47006 1.772454 0.920931 1.585697 1.253314 1.253314 
C 1.585697 0.920931 1.772454 0.47006 1.772454 0 
C 1.772454 -0.47006 1.585697 -0.920931 1.253314 -1.253314 
C 0.920931 -1.585697 0.47006 -1.772454 0 -1.772454 
C -0.47006 -1.772454 -0.920931 -1.585697 -1.253314 -1.253314 
C -1.585697 -0.920931 -1.772454 -0.47006 -1.772454 0 
C -1.772454 0.47006 -1.585697 0.920931 -1.253314 1.253314 
C -0.920931 1.585697 -0.47006 1.772454 0 1.772454 
z
" id="mfc22ec6276" style="stroke:#5f57db;stroke-width:0.886227;"/>
    </defs>
    <g clip-path="url(#pa630c55daa)">
     <use style="fill:#5f57db;stroke:#5f57db;stroke-width:0.886227;" x="450.714938" xlink:href="#mfc22ec6276" y="193.837729"/>
    </g>
   </g>
   <g id="text_15">
    <!-- WT -->
    <defs>
     <path d="M 3.328125 72.90625 
L 13.28125 72.90625 
L 28.609375 11.28125 
L 43.890625 72.90625 
L 54.984375 72.90625 
L 70.3125 11.28125 
L 85.59375 72.90625 
L 95.609375 72.90625 
L 77.296875 0 
L 64.890625 0 
L 49.515625 63.28125 
L 33.984375 0 
L 21.578125 0 
z
" id="DejaVuSans-87"/>
    </defs>
    <g transform="translate(461.634937 196.265979)scale(0.088 -0.088)">
     <use xlink:href="#DejaVuSans-87"/>
     <use x="98.876953" xlink:href="#DejaVuSans-84"/>
    </g>
   </g>
   <g id="text_16">
    <!-- Dosage -->
    <defs>
     <path d="M 19.671875 64.796875 
L 19.671875 8.109375 
L 31.59375 8.109375 
Q 46.6875 8.109375 53.6875 14.9375 
Q 60.6875 21.78125 60.6875 36.53125 
Q 60.6875 51.171875 53.6875 57.984375 
Q 46.6875 64.796875 31.59375 64.796875 
z
M 9.8125 72.90625 
L 30.078125 72.90625 
Q 51.265625 72.90625 61.171875 64.09375 
Q 71.09375 55.28125 71.09375 36.53125 
Q 71.09375 17.671875 61.125 8.828125 
Q 51.171875 0 30.078125 0 
L 9.8125 0 
z
" id="DejaVuSans-68"/>
     <path d="M 45.40625 27.984375 
Q 45.40625 37.75 41.375 43.109375 
Q 37.359375 48.484375 30.078125 48.484375 
Q 22.859375 48.484375 18.828125 43.109375 
Q 14.796875 37.75 14.796875 27.984375 
Q 14.796875 18.265625 18.828125 12.890625 
Q 22.859375 7.515625 30.078125 7.515625 
Q 37.359375 7.515625 41.375 12.890625 
Q 45.40625 18.265625 45.40625 27.984375 
z
M 54.390625 6.78125 
Q 54.390625 -7.171875 48.1875 -13.984375 
Q 42 -20.796875 29.203125 -20.796875 
Q 24.46875 -20.796875 20.265625 -20.09375 
Q 16.0625 -19.390625 12.109375 -17.921875 
L 12.109375 -9.1875 
Q 16.0625 -11.328125 19.921875 -12.34375 
Q 23.78125 -13.375 27.78125 -13.375 
Q 36.625 -13.375 41.015625 -8.765625 
Q 45.40625 -4.15625 45.40625 5.171875 
L 45.40625 9.625 
Q 42.625 4.78125 38.28125 2.390625 
Q 33.9375 0 27.875 0 
Q 17.828125 0 11.671875 7.65625 
Q 5.515625 15.328125 5.515625 27.984375 
Q 5.515625 40.671875 11.671875 48.328125 
Q 17.828125 56 27.875 56 
Q 33.9375 56 38.28125 53.609375 
Q 42.625 51.21875 45.40625 46.390625 
L 45.40625 54.6875 
L 54.390625 54.6875 
z
" id="DejaVuSans-103"/>
    </defs>
    <g transform="translate(442.794938 223.151322)scale(0.11 -0.11)">
     <use xlink:href="#DejaVuSans-68"/>
     <use x="77.001953" xlink:href="#DejaVuSans-111"/>
     <use x="138.183594" xlink:href="#DejaVuSans-115"/>
     <use x="190.283203" xlink:href="#DejaVuSans-97"/>
     <use x="251.5625" xlink:href="#DejaVuSans-103"/>
     <use x="315.039062" xlink:href="#DejaVuSans-101"/>
    </g>
   </g>
   <g id="patch_9">
    <path clip-path="url(#pb1c6c683ea)" d="M 442.794938 242.643666 
L 463.122114 242.643666 
L 463.122114 226.803666 
L 442.794938 226.803666 
z
" style="fill:#ffffff;stroke:#000000;stroke-linejoin:miter;"/>
   </g>
   <g id="line2d_32">
    <path clip-path="url(#pb1c6c683ea)" d="M 452.958526 234.723666 
" style="fill:none;stroke:#1f77b4;stroke-linecap:square;stroke-width:1.5;"/>
    <defs>
     <path d="M 0 2.215567 
C 0.587575 2.215567 1.151164 1.982121 1.566643 1.566643 
C 1.982121 1.151164 2.215567 0.587575 2.215567 0 
C 2.215567 -0.587575 1.982121 -1.151164 1.566643 -1.566643 
C 1.151164 -1.982121 0.587575 -2.215567 0 -2.215567 
C -0.587575 -2.215567 -1.151164 -1.982121 -1.566643 -1.566643 
C -1.982121 -1.151164 -2.215567 -0.587575 -2.215567 0 
C -2.215567 0.587575 -1.982121 1.151164 -1.566643 1.566643 
C -1.151164 1.982121 -0.587575 2.215567 0 2.215567 
z
" id="mc3917cde89" style="stroke:#000000;stroke-width:0.886227;"/>
    </defs>
    <g clip-path="url(#pb1c6c683ea)">
     <use style="stroke:#000000;stroke-width:0.886227;" x="452.958526" xlink:href="#mc3917cde89" y="234.723666"/>
    </g>
   </g>
   <g id="text_17">
    <!-- 0 -->
    <g transform="translate(466.122114 237.151916)scale(0.088 -0.088)">
     <use xlink:href="#DejaVuSans-48"/>
    </g>
   </g>
   <g id="patch_10">
    <path clip-path="url(#pd11546edb2)" d="M 442.794938 261.124102 
L 463.122114 261.124102 
L 463.122114 244.643666 
L 442.794938 244.643666 
z
" style="fill:#ffffff;stroke:#000000;stroke-linejoin:miter;"/>
   </g>
   <g id="line2d_33">
    <path clip-path="url(#pd11546edb2)" d="M 452.958526 252.883884 
" style="fill:none;stroke:#1f77b4;stroke-linecap:square;stroke-width:1.5;"/>
    <defs>
     <path d="M 0 3.837104 
C 1.017612 3.837104 1.993682 3.432803 2.713242 2.713242 
C 3.432803 1.993682 3.837104 1.017612 3.837104 0 
C 3.837104 -1.017612 3.432803 -1.993682 2.713242 -2.713242 
C 1.993682 -3.432803 1.017612 -3.837104 0 -3.837104 
C -1.017612 -3.837104 -1.993682 -3.432803 -2.713242 -2.713242 
C -3.432803 -1.993682 -3.837104 -1.017612 -3.837104 0 
C -3.837104 1.017612 -3.432803 1.993682 -2.713242 2.713242 
C -1.993682 3.432803 -1.017612 3.837104 0 3.837104 
z
" id="m9aca84ba58" style="stroke:#000000;stroke-width:0.886227;"/>
    </defs>
    <g clip-path="url(#pd11546edb2)">
     <use style="stroke:#000000;stroke-width:0.886227;" x="452.958526" xlink:href="#m9aca84ba58" y="252.883884"/>
    </g>
   </g>
   <g id="text_18">
    <!-- 0.7 -->
    <defs>
     <path d="M 10.6875 12.40625 
L 21 12.40625 
L 21 0 
L 10.6875 0 
z
" id="DejaVuSans-46"/>
    </defs>
    <g transform="translate(466.122114 255.312134)scale(0.088 -0.088)">
     <use xlink:href="#DejaVuSans-48"/>
     <use x="63.623047" xlink:href="#DejaVuSans-46"/>
     <use x="95.410156" xlink:href="#DejaVuSans-55"/>
    </g>
   </g>
   <g id="patch_11">
    <path clip-path="url(#pe69a99c981)" d="M 442.794938 281.737711 
L 463.122114 281.737711 
L 463.122114 263.124102 
L 442.794938 263.124102 
z
" style="fill:#ffffff;stroke:#000000;stroke-linejoin:miter;"/>
   </g>
   <g id="line2d_34">
    <path clip-path="url(#pe69a99c981)" d="M 452.958526 272.430906 
" style="fill:none;stroke:#1f77b4;stroke-linecap:square;stroke-width:1.5;"/>
    <defs>
     <path d="M 0 4.903691 
C 1.300474 4.903691 2.547859 4.387007 3.467433 3.467433 
C 4.387007 2.547859 4.903691 1.300474 4.903691 0 
C 4.903691 -1.300474 4.387007 -2.547859 3.467433 -3.467433 
C 2.547859 -4.387007 1.300474 -4.903691 0 -4.903691 
C -1.300474 -4.903691 -2.547859 -4.387007 -3.467433 -3.467433 
C -4.387007 -2.547859 -4.903691 -1.300474 -4.903691 0 
C -4.903691 1.300474 -4.387007 2.547859 -3.467433 3.467433 
C -2.547859 4.387007 -1.300474 4.903691 0 4.903691 
z
" id="m6f5827c7b0" style="stroke:#000000;stroke-width:0.886227;"/>
    </defs>
    <g clip-path="url(#pe69a99c981)">
     <use style="stroke:#000000;stroke-width:0.886227;" x="452.958526" xlink:href="#m6f5827c7b0" y="272.430906"/>
    </g>
   </g>
   <g id="text_19">
    <!-- 7 -->
    <g transform="translate(466.122114 274.859156)scale(0.088 -0.088)">
     <use xlink:href="#DejaVuSans-55"/>
    </g>
   </g>
   <g id="patch_12">
    <path clip-path="url(#p0c90165f20)" d="M 442.794938 304.064888 
L 463.122114 304.064888 
L 463.122114 283.737711 
L 442.794938 283.737711 
z
" style="fill:#ffffff;stroke:#000000;stroke-linejoin:miter;"/>
   </g>
   <g id="line2d_35">
    <path clip-path="url(#p0c90165f20)" d="M 452.958526 293.901299 
" style="fill:none;stroke:#1f77b4;stroke-linecap:square;stroke-width:1.5;"/>
    <defs>
     <path d="M 0 5.760475 
C 1.527696 5.760475 2.993027 5.153515 4.073271 4.073271 
C 5.153515 2.993027 5.760475 1.527696 5.760475 0 
C 5.760475 -1.527696 5.153515 -2.993027 4.073271 -4.073271 
C 2.993027 -5.153515 1.527696 -5.760475 0 -5.760475 
C -1.527696 -5.760475 -2.993027 -5.153515 -4.073271 -4.073271 
C -5.153515 -2.993027 -5.760475 -1.527696 -5.760475 0 
C -5.760475 1.527696 -5.153515 2.993027 -4.073271 4.073271 
C -2.993027 5.153515 -1.527696 5.760475 0 5.760475 
z
" id="mf4042aa1f2" style="stroke:#000000;stroke-width:0.886227;"/>
    </defs>
    <g clip-path="url(#p0c90165f20)">
     <use style="stroke:#000000;stroke-width:0.886227;" x="452.958526" xlink:href="#mf4042aa1f2" y="293.901299"/>
    </g>
   </g>
   <g id="text_20">
    <!-- 70 -->
    <g transform="translate(466.122114 296.329549)scale(0.088 -0.088)">
     <use xlink:href="#DejaVuSans-55"/>
     <use x="63.623047" xlink:href="#DejaVuSans-48"/>
    </g>
   </g>
  </g>
  <g id="text_21">
   <!-- Cell Painting Clone A and E -->
   <defs>
    <path d="M 45.40625 46.390625 
L 45.40625 75.984375 
L 54.390625 75.984375 
L 54.390625 0 
L 45.40625 0 
L 45.40625 8.203125 
Q 42.578125 3.328125 38.25 0.953125 
Q 33.9375 -1.421875 27.875 -1.421875 
Q 17.96875 -1.421875 11.734375 6.484375 
Q 5.515625 14.40625 5.515625 27.296875 
Q 5.515625 40.1875 11.734375 48.09375 
Q 17.96875 56 27.875 56 
Q 33.9375 56 38.25 53.625 
Q 42.578125 51.265625 45.40625 46.390625 
z
M 14.796875 27.296875 
Q 14.796875 17.390625 18.875 11.75 
Q 22.953125 6.109375 30.078125 6.109375 
Q 37.203125 6.109375 41.296875 11.75 
Q 45.40625 17.390625 45.40625 27.296875 
Q 45.40625 37.203125 41.296875 42.84375 
Q 37.203125 48.484375 30.078125 48.484375 
Q 22.953125 48.484375 18.875 42.84375 
Q 14.796875 37.203125 14.796875 27.296875 
z
" id="DejaVuSans-100"/>
   </defs>
   <g transform="translate(132.313375 17.229937)scale(0.132 -0.132)">
    <use xlink:href="#DejaVuSans-67"/>
    <use x="69.824219" xlink:href="#DejaVuSans-101"/>
    <use x="131.347656" xlink:href="#DejaVuSans-108"/>
    <use x="159.130859" xlink:href="#DejaVuSans-108"/>
    <use x="186.914062" xlink:href="#DejaVuSans-32"/>
    <use x="218.701172" xlink:href="#DejaVuSans-80"/>
    <use x="278.941406" xlink:href="#DejaVuSans-97"/>
    <use x="340.220703" xlink:href="#DejaVuSans-105"/>
    <use x="368.003906" xlink:href="#DejaVuSans-110"/>
    <use x="431.382812" xlink:href="#DejaVuSans-116"/>
    <use x="470.591797" xlink:href="#DejaVuSans-105"/>
    <use x="498.375" xlink:href="#DejaVuSans-110"/>
    <use x="561.753906" xlink:href="#DejaVuSans-103"/>
    <use x="625.230469" xlink:href="#DejaVuSans-32"/>
    <use x="657.017578" xlink:href="#DejaVuSans-67"/>
    <use x="726.841797" xlink:href="#DejaVuSans-108"/>
    <use x="754.625" xlink:href="#DejaVuSans-111"/>
    <use x="815.806641" xlink:href="#DejaVuSans-110"/>
    <use x="879.185547" xlink:href="#DejaVuSans-101"/>
    <use x="940.708984" xlink:href="#DejaVuSans-32"/>
    <use x="972.496094" xlink:href="#DejaVuSans-65"/>
    <use x="1040.904297" xlink:href="#DejaVuSans-32"/>
    <use x="1072.691406" xlink:href="#DejaVuSans-97"/>
    <use x="1133.970703" xlink:href="#DejaVuSans-110"/>
    <use x="1197.349609" xlink:href="#DejaVuSans-100"/>
    <use x="1260.826172" xlink:href="#DejaVuSans-32"/>
    <use x="1292.613281" xlink:href="#DejaVuSans-69"/>
   </g>
  </g>
 </g>
 <defs>
  <clipPath id="p7022f1557c">
   <rect height="332.64" width="390.6" x="32.794938" y="26.105371"/>
  </clipPath>
  <clipPath id="p31edbb9723">
   <path d="M 442.794938 107.351791 
L 442.794938 91.511791 
L 458.634937 91.511791 
L 458.634937 107.351791 
"/>
  </clipPath>
  <clipPath id="pfe92d789f4">
   <path d="M 442.794938 125.191791 
L 442.794938 109.351791 
L 458.634937 109.351791 
L 458.634937 125.191791 
"/>
  </clipPath>
  <clipPath id="p6f1c80ee09">
   <path d="M 442.794938 166.077729 
L 442.794938 150.237729 
L 458.634937 150.237729 
L 458.634937 166.077729 
"/>
  </clipPath>
  <clipPath id="p276799cffd">
   <path d="M 442.794938 183.917729 
L 442.794938 168.077729 
L 458.634937 168.077729 
L 458.634937 183.917729 
"/>
  </clipPath>
  <clipPath id="pa630c55daa">
   <path d="M 442.794938 201.757729 
L 442.794938 185.917729 
L 458.634937 185.917729 
L 458.634937 201.757729 
"/>
  </clipPath>
  <clipPath id="pb1c6c683ea">
   <path d="M 442.794938 242.643666 
L 442.794938 226.803666 
L 463.122114 226.803666 
L 463.122114 242.643666 
"/>
  </clipPath>
  <clipPath id="pd11546edb2">
   <path d="M 442.794938 261.124102 
L 442.794938 244.643666 
L 463.122114 244.643666 
L 463.122114 261.124102 
"/>
  </clipPath>
  <clipPath id="pe69a99c981">
   <path d="M 442.794938 281.737711 
L 442.794938 263.124102 
L 463.122114 263.124102 
L 463.122114 281.737711 
"/>
  </clipPath>
  <clipPath id="p0c90165f20">
   <path d="M 442.794938 304.064888 
L 442.794938 283.737711 
L 463.122114 283.737711 
L 463.122114 304.064888 
"/>
  </clipPath>
 </defs>
</svg>
