<?xml version="1.0" encoding="utf-8" standalone="no"?>
<!DOCTYPE svg PUBLIC "-//W3C//DTD SVG 1.1//EN"
  "http://www.w3.org/Graphics/SVG/1.1/DTD/svg11.dtd">
<!-- Created with matplotlib (https://matplotlib.org/) -->
<svg height="394.458058pt" version="1.1" viewBox="0 0 519.394687 394.458058" width="519.394687pt" xmlns="http://www.w3.org/2000/svg" xmlns:xlink="http://www.w3.org/1999/xlink">
 <defs>
  <style type="text/css">
*{stroke-linecap:butt;stroke-linejoin:round;}
  </style>
 </defs>
 <g id="figure_1">
  <g id="patch_1">
   <path d="M 0 394.458058 
L 519.394687 394.458058 
L 519.394687 0 
L 0 0 
z
" style="fill:#ffffff;stroke:#ffffff;stroke-linejoin:miter;"/>
  </g>
  <g id="axes_1">
   <g id="patch_2">
    <path d="M 40.169063 358.745371 
L 430.769063 358.745371 
L 430.769063 26.105371 
L 40.169063 26.105371 
z
" style="fill:#ffffff;stroke:#7f7f7f;stroke-linejoin:miter;"/>
   </g>
   <g id="matplotlib.axis_1">
    <g id="xtick_1">
     <g id="line2d_1">
      <path clip-path="url(#pd97bbea44a)" d="M 77.206777 358.745371 
L 77.206777 26.105371 
" style="fill:none;stroke:#e5e5e5;stroke-width:0.8;"/>
     </g>
     <g id="line2d_2">
      <path d="M 77.206777 358.745371 
" style="fill:none;stroke:#000000;stroke-width:1.5;"/>
      <defs>
       <path d="M 0 0 
L 0 2.75 
" id="m80c72c12ee" style="stroke:#000000;"/>
      </defs>
      <g>
       <use style="stroke:#000000;" x="77.206777" xlink:href="#m80c72c12ee" y="358.745371"/>
      </g>
     </g>
     <g id="text_1">
      <!-- 0 -->
      <defs>
       <path d="M 31.78125 66.40625 
Q 24.171875 66.40625 20.328125 58.90625 
Q 16.5 51.421875 16.5 36.375 
Q 16.5 21.390625 20.328125 13.890625 
Q 24.171875 6.390625 31.78125 6.390625 
Q 39.453125 6.390625 43.28125 13.890625 
Q 47.125 21.390625 47.125 36.375 
Q 47.125 51.421875 43.28125 58.90625 
Q 39.453125 66.40625 31.78125 66.40625 
z
M 31.78125 74.21875 
Q 44.046875 74.21875 50.515625 64.515625 
Q 56.984375 54.828125 56.984375 36.375 
Q 56.984375 17.96875 50.515625 8.265625 
Q 44.046875 -1.421875 31.78125 -1.421875 
Q 19.53125 -1.421875 13.0625 8.265625 
Q 6.59375 17.96875 6.59375 36.375 
Q 6.59375 54.828125 13.0625 64.515625 
Q 19.53125 74.21875 31.78125 74.21875 
z
" id="DejaVuSans-48"/>
      </defs>
      <g style="fill:#4d4d4d;" transform="translate(74.407277 370.381996)scale(0.088 -0.088)">
       <use xlink:href="#DejaVuSans-48"/>
      </g>
     </g>
    </g>
    <g id="xtick_2">
     <g id="line2d_3">
      <path clip-path="url(#pd97bbea44a)" d="M 179.412304 358.745371 
L 179.412304 26.105371 
" style="fill:none;stroke:#e5e5e5;stroke-width:0.8;"/>
     </g>
     <g id="line2d_4">
      <path d="M 179.412304 358.745371 
" style="fill:none;stroke:#000000;stroke-width:1.5;"/>
      <g>
       <use style="stroke:#000000;" x="179.412304" xlink:href="#m80c72c12ee" y="358.745371"/>
      </g>
     </g>
     <g id="text_2">
      <!-- 2 -->
      <defs>
       <path d="M 19.1875 8.296875 
L 53.609375 8.296875 
L 53.609375 0 
L 7.328125 0 
L 7.328125 8.296875 
Q 12.9375 14.109375 22.625 23.890625 
Q 32.328125 33.6875 34.8125 36.53125 
Q 39.546875 41.84375 41.421875 45.53125 
Q 43.3125 49.21875 43.3125 52.78125 
Q 43.3125 58.59375 39.234375 62.25 
Q 35.15625 65.921875 28.609375 65.921875 
Q 23.96875 65.921875 18.8125 64.3125 
Q 13.671875 62.703125 7.8125 59.421875 
L 7.8125 69.390625 
Q 13.765625 71.78125 18.9375 73 
Q 24.125 74.21875 28.421875 74.21875 
Q 39.75 74.21875 46.484375 68.546875 
Q 53.21875 62.890625 53.21875 53.421875 
Q 53.21875 48.921875 51.53125 44.890625 
Q 49.859375 40.875 45.40625 35.40625 
Q 44.1875 33.984375 37.640625 27.21875 
Q 31.109375 20.453125 19.1875 8.296875 
z
" id="DejaVuSans-50"/>
      </defs>
      <g style="fill:#4d4d4d;" transform="translate(176.612804 370.381996)scale(0.088 -0.088)">
       <use xlink:href="#DejaVuSans-50"/>
      </g>
     </g>
    </g>
    <g id="xtick_3">
     <g id="line2d_5">
      <path clip-path="url(#pd97bbea44a)" d="M 281.617831 358.745371 
L 281.617831 26.105371 
" style="fill:none;stroke:#e5e5e5;stroke-width:0.8;"/>
     </g>
     <g id="line2d_6">
      <path d="M 281.617831 358.745371 
" style="fill:none;stroke:#000000;stroke-width:1.5;"/>
      <g>
       <use style="stroke:#000000;" x="281.617831" xlink:href="#m80c72c12ee" y="358.745371"/>
      </g>
     </g>
     <g id="text_3">
      <!-- 4 -->
      <defs>
       <path d="M 37.796875 64.3125 
L 12.890625 25.390625 
L 37.796875 25.390625 
z
M 35.203125 72.90625 
L 47.609375 72.90625 
L 47.609375 25.390625 
L 58.015625 25.390625 
L 58.015625 17.1875 
L 47.609375 17.1875 
L 47.609375 0 
L 37.796875 0 
L 37.796875 17.1875 
L 4.890625 17.1875 
L 4.890625 26.703125 
z
" id="DejaVuSans-52"/>
      </defs>
      <g style="fill:#4d4d4d;" transform="translate(278.818331 370.381996)scale(0.088 -0.088)">
       <use xlink:href="#DejaVuSans-52"/>
      </g>
     </g>
    </g>
    <g id="xtick_4">
     <g id="line2d_7">
      <path clip-path="url(#pd97bbea44a)" d="M 383.823357 358.745371 
L 383.823357 26.105371 
" style="fill:none;stroke:#e5e5e5;stroke-width:0.8;"/>
     </g>
     <g id="line2d_8">
      <path d="M 383.823357 358.745371 
" style="fill:none;stroke:#000000;stroke-width:1.5;"/>
      <g>
       <use style="stroke:#000000;" x="383.823357" xlink:href="#m80c72c12ee" y="358.745371"/>
      </g>
     </g>
     <g id="text_4">
      <!-- 6 -->
      <defs>
       <path d="M 33.015625 40.375 
Q 26.375 40.375 22.484375 35.828125 
Q 18.609375 31.296875 18.609375 23.390625 
Q 18.609375 15.53125 22.484375 10.953125 
Q 26.375 6.390625 33.015625 6.390625 
Q 39.65625 6.390625 43.53125 10.953125 
Q 47.40625 15.53125 47.40625 23.390625 
Q 47.40625 31.296875 43.53125 35.828125 
Q 39.65625 40.375 33.015625 40.375 
z
M 52.59375 71.296875 
L 52.59375 62.3125 
Q 48.875 64.0625 45.09375 64.984375 
Q 41.3125 65.921875 37.59375 65.921875 
Q 27.828125 65.921875 22.671875 59.328125 
Q 17.53125 52.734375 16.796875 39.40625 
Q 19.671875 43.65625 24.015625 45.921875 
Q 28.375 48.1875 33.59375 48.1875 
Q 44.578125 48.1875 50.953125 41.515625 
Q 57.328125 34.859375 57.328125 23.390625 
Q 57.328125 12.15625 50.6875 5.359375 
Q 44.046875 -1.421875 33.015625 -1.421875 
Q 20.359375 -1.421875 13.671875 8.265625 
Q 6.984375 17.96875 6.984375 36.375 
Q 6.984375 53.65625 15.1875 63.9375 
Q 23.390625 74.21875 37.203125 74.21875 
Q 40.921875 74.21875 44.703125 73.484375 
Q 48.484375 72.75 52.59375 71.296875 
z
" id="DejaVuSans-54"/>
      </defs>
      <g style="fill:#4d4d4d;" transform="translate(381.023857 370.381996)scale(0.088 -0.088)">
       <use xlink:href="#DejaVuSans-54"/>
      </g>
     </g>
    </g>
    <g id="xtick_5">
     <g id="line2d_9">
      <path clip-path="url(#pd97bbea44a)" d="M 128.30954 358.745371 
L 128.30954 26.105371 
" style="fill:none;stroke:#fafafa;"/>
     </g>
     <g id="line2d_10">
      <path d="M 128.30954 358.745371 
" style="fill:none;stroke:#000000;stroke-width:1.5;"/>
     </g>
    </g>
    <g id="xtick_6">
     <g id="line2d_11">
      <path clip-path="url(#pd97bbea44a)" d="M 230.515067 358.745371 
L 230.515067 26.105371 
" style="fill:none;stroke:#fafafa;"/>
     </g>
     <g id="line2d_12">
      <path d="M 230.515067 358.745371 
" style="fill:none;stroke:#000000;stroke-width:1.5;"/>
     </g>
    </g>
    <g id="xtick_7">
     <g id="line2d_13">
      <path clip-path="url(#pd97bbea44a)" d="M 332.720594 358.745371 
L 332.720594 26.105371 
" style="fill:none;stroke:#fafafa;"/>
     </g>
     <g id="line2d_14">
      <path d="M 332.720594 358.745371 
" style="fill:none;stroke:#000000;stroke-width:1.5;"/>
     </g>
    </g>
    <g id="text_5">
     <!-- x -->
     <defs>
      <path d="M 54.890625 54.6875 
L 35.109375 28.078125 
L 55.90625 0 
L 45.3125 0 
L 29.390625 21.484375 
L 13.484375 0 
L 2.875 0 
L 24.125 28.609375 
L 4.6875 54.6875 
L 15.28125 54.6875 
L 29.78125 35.203125 
L 44.28125 54.6875 
z
" id="DejaVuSans-120"/>
     </defs>
     <g transform="translate(225.91375 384.970402)scale(0.11 -0.11)">
      <use xlink:href="#DejaVuSans-120"/>
     </g>
    </g>
   </g>
   <g id="matplotlib.axis_2">
    <g id="ytick_1">
     <g id="line2d_15">
      <path clip-path="url(#pd97bbea44a)" d="M 40.169063 308.856734 
L 430.769063 308.856734 
" style="fill:none;stroke:#e5e5e5;stroke-width:0.8;"/>
     </g>
     <g id="line2d_16">
      <path d="M 40.169063 308.856734 
" style="fill:none;stroke:#000000;stroke-width:1.5;"/>
      <defs>
       <path d="M 0 0 
L -2.75 0 
" id="m45c946246e" style="stroke:#000000;"/>
      </defs>
      <g>
       <use style="stroke:#000000;" x="40.169063" xlink:href="#m45c946246e" y="308.856734"/>
      </g>
     </g>
     <g id="text_6">
      <!-- −2 -->
      <defs>
       <path d="M 10.59375 35.5 
L 73.1875 35.5 
L 73.1875 27.203125 
L 10.59375 27.203125 
z
" id="DejaVuSans-8722"/>
      </defs>
      <g style="fill:#4d4d4d;" transform="translate(22.245938 311.284984)scale(0.088 -0.088)">
       <use xlink:href="#DejaVuSans-8722"/>
       <use x="83.789062" xlink:href="#DejaVuSans-50"/>
      </g>
     </g>
    </g>
    <g id="ytick_2">
     <g id="line2d_17">
      <path clip-path="url(#pd97bbea44a)" d="M 40.169063 222.202658 
L 430.769063 222.202658 
" style="fill:none;stroke:#e5e5e5;stroke-width:0.8;"/>
     </g>
     <g id="line2d_18">
      <path d="M 40.169063 222.202658 
" style="fill:none;stroke:#000000;stroke-width:1.5;"/>
      <g>
       <use style="stroke:#000000;" x="40.169063" xlink:href="#m45c946246e" y="222.202658"/>
      </g>
     </g>
     <g id="text_7">
      <!-- −1 -->
      <defs>
       <path d="M 12.40625 8.296875 
L 28.515625 8.296875 
L 28.515625 63.921875 
L 10.984375 60.40625 
L 10.984375 69.390625 
L 28.421875 72.90625 
L 38.28125 72.90625 
L 38.28125 8.296875 
L 54.390625 8.296875 
L 54.390625 0 
L 12.40625 0 
z
" id="DejaVuSans-49"/>
      </defs>
      <g style="fill:#4d4d4d;" transform="translate(22.245938 224.630908)scale(0.088 -0.088)">
       <use xlink:href="#DejaVuSans-8722"/>
       <use x="83.789062" xlink:href="#DejaVuSans-49"/>
      </g>
     </g>
    </g>
    <g id="ytick_3">
     <g id="line2d_19">
      <path clip-path="url(#pd97bbea44a)" d="M 40.169063 135.548582 
L 430.769063 135.548582 
" style="fill:none;stroke:#e5e5e5;stroke-width:0.8;"/>
     </g>
     <g id="line2d_20">
      <path d="M 40.169063 135.548582 
" style="fill:none;stroke:#000000;stroke-width:1.5;"/>
      <g>
       <use style="stroke:#000000;" x="40.169063" xlink:href="#m45c946246e" y="135.548582"/>
      </g>
     </g>
     <g id="text_8">
      <!-- 0 -->
      <g style="fill:#4d4d4d;" transform="translate(29.620063 137.976832)scale(0.088 -0.088)">
       <use xlink:href="#DejaVuSans-48"/>
      </g>
     </g>
    </g>
    <g id="ytick_4">
     <g id="line2d_21">
      <path clip-path="url(#pd97bbea44a)" d="M 40.169063 48.894506 
L 430.769063 48.894506 
" style="fill:none;stroke:#e5e5e5;stroke-width:0.8;"/>
     </g>
     <g id="line2d_22">
      <path d="M 40.169063 48.894506 
" style="fill:none;stroke:#000000;stroke-width:1.5;"/>
      <g>
       <use style="stroke:#000000;" x="40.169063" xlink:href="#m45c946246e" y="48.894506"/>
      </g>
     </g>
     <g id="text_9">
      <!-- 1 -->
      <g style="fill:#4d4d4d;" transform="translate(29.620063 51.322756)scale(0.088 -0.088)">
       <use xlink:href="#DejaVuSans-49"/>
      </g>
     </g>
    </g>
    <g id="ytick_5">
     <g id="line2d_23">
      <path clip-path="url(#pd97bbea44a)" d="M 40.169063 352.183772 
L 430.769063 352.183772 
" style="fill:none;stroke:#fafafa;"/>
     </g>
     <g id="line2d_24">
      <path d="M 40.169063 352.183772 
" style="fill:none;stroke:#000000;stroke-width:1.5;"/>
     </g>
    </g>
    <g id="ytick_6">
     <g id="line2d_25">
      <path clip-path="url(#pd97bbea44a)" d="M 40.169063 265.529696 
L 430.769063 265.529696 
" style="fill:none;stroke:#fafafa;"/>
     </g>
     <g id="line2d_26">
      <path d="M 40.169063 265.529696 
" style="fill:none;stroke:#000000;stroke-width:1.5;"/>
     </g>
    </g>
    <g id="ytick_7">
     <g id="line2d_27">
      <path clip-path="url(#pd97bbea44a)" d="M 40.169063 178.87562 
L 430.769063 178.87562 
" style="fill:none;stroke:#fafafa;"/>
     </g>
     <g id="line2d_28">
      <path d="M 40.169063 178.87562 
" style="fill:none;stroke:#000000;stroke-width:1.5;"/>
     </g>
    </g>
    <g id="ytick_8">
     <g id="line2d_29">
      <path clip-path="url(#pd97bbea44a)" d="M 40.169063 92.221544 
L 430.769063 92.221544 
" style="fill:none;stroke:#fafafa;"/>
     </g>
     <g id="line2d_30">
      <path d="M 40.169063 92.221544 
" style="fill:none;stroke:#000000;stroke-width:1.5;"/>
     </g>
    </g>
    <g id="text_10">
     <!-- y -->
     <defs>
      <path d="M 32.171875 -5.078125 
Q 28.375 -14.84375 24.75 -17.8125 
Q 21.140625 -20.796875 15.09375 -20.796875 
L 7.90625 -20.796875 
L 7.90625 -13.28125 
L 13.1875 -13.28125 
Q 16.890625 -13.28125 18.9375 -11.515625 
Q 21 -9.765625 23.484375 -3.21875 
L 25.09375 0.875 
L 2.984375 54.6875 
L 12.5 54.6875 
L 29.59375 11.921875 
L 46.6875 54.6875 
L 56.203125 54.6875 
z
" id="DejaVuSans-121"/>
     </defs>
     <g transform="translate(15.558281 193.520683)rotate(-90)scale(0.11 -0.11)">
      <use xlink:href="#DejaVuSans-121"/>
     </g>
    </g>
   </g>
   <g id="PathCollection_1">
    <path clip-path="url(#pd97bbea44a)" d="M 343.776681 134.218928 
C 344.364256 134.218928 344.927845 133.985481 345.343324 133.570003 
C 345.758802 133.154524 345.992248 132.590936 345.992248 132.00336 
C 345.992248 131.415785 345.758802 130.852196 345.343324 130.436718 
C 344.927845 130.021239 344.364256 129.787793 343.776681 129.787793 
C 343.189106 129.787793 342.625517 130.021239 342.210038 130.436718 
C 341.79456 130.852196 341.561114 131.415785 341.561114 132.00336 
C 341.561114 132.590936 341.79456 133.154524 342.210038 133.570003 
C 342.625517 133.985481 343.189106 134.218928 343.776681 134.218928 
z
" style="fill:#1b9e77;stroke:#1b9e77;stroke-width:0.886227;"/>
    <path clip-path="url(#pd97bbea44a)" d="M 369.102881 126.1249 
C 369.690456 126.1249 370.254045 125.891454 370.669523 125.475976 
C 371.085002 125.060497 371.318448 124.496908 371.318448 123.909333 
C 371.318448 123.321758 371.085002 122.758169 370.669523 122.34269 
C 370.254045 121.927212 369.690456 121.693766 369.102881 121.693766 
C 368.515305 121.693766 367.951717 121.927212 367.536238 122.34269 
C 367.12076 122.758169 366.887313 123.321758 366.887313 123.909333 
C 366.887313 124.496908 367.12076 125.060497 367.536238 125.475976 
C 367.951717 125.891454 368.515305 126.1249 369.102881 126.1249 
z
" style="fill:#1b9e77;stroke:#1b9e77;stroke-width:0.886227;"/>
    <path clip-path="url(#pd97bbea44a)" d="M 366.990567 150.823232 
C 367.578142 150.823232 368.141731 150.589785 368.55721 150.174307 
C 368.972688 149.758828 369.206134 149.19524 369.206134 148.607664 
C 369.206134 148.020089 368.972688 147.4565 368.55721 147.041022 
C 368.141731 146.625543 367.578142 146.392097 366.990567 146.392097 
C 366.402992 146.392097 365.839403 146.625543 365.423924 147.041022 
C 365.008446 147.4565 364.775 148.020089 364.775 148.607664 
C 364.775 149.19524 365.008446 149.758828 365.423924 150.174307 
C 365.839403 150.589785 366.402992 150.823232 366.990567 150.823232 
z
" style="fill:#1b9e77;stroke:#1b9e77;stroke-width:0.886227;"/>
   </g>
   <g id="PathCollection_2">
    <path clip-path="url(#pd97bbea44a)" d="M 367.819305 71.726634 
L 372.250439 71.726634 
M 370.034872 73.942202 
L 370.034872 69.511067 
" style="fill:#1b9e77;stroke:#1b9e77;stroke-width:0.886227;"/>
    <path clip-path="url(#pd97bbea44a)" d="M 358.865955 104.950196 
L 363.29709 104.950196 
M 361.081522 107.165764 
L 361.081522 102.734629 
" style="fill:#1b9e77;stroke:#1b9e77;stroke-width:0.886227;"/>
    <path clip-path="url(#pd97bbea44a)" d="M 359.401362 75.629235 
L 363.832497 75.629235 
M 361.616929 77.844803 
L 361.616929 73.413668 
" style="fill:#1b9e77;stroke:#1b9e77;stroke-width:0.886227;"/>
   </g>
   <g id="PathCollection_3">
    <path clip-path="url(#pd97bbea44a)" d="M 413.014518 139.565965 
C 413.602093 139.565965 414.165682 139.332519 414.58116 138.917041 
C 414.996639 138.501562 415.230085 137.937973 415.230085 137.350398 
C 415.230085 136.762823 414.996639 136.199234 414.58116 135.783755 
C 414.165682 135.368277 413.602093 135.134831 413.014518 135.134831 
C 412.426942 135.134831 411.863353 135.368277 411.447875 135.783755 
C 411.032396 136.199234 410.79895 136.762823 410.79895 137.350398 
C 410.79895 137.937973 411.032396 138.501562 411.447875 138.917041 
C 411.863353 139.332519 412.426942 139.565965 413.014518 139.565965 
z
" style="fill:#d95f02;stroke:#d95f02;stroke-width:0.886227;"/>
    <path clip-path="url(#pd97bbea44a)" d="M 411.471823 173.248927 
C 412.059398 173.248927 412.622987 173.015481 413.038466 172.600002 
C 413.453944 172.184524 413.68739 171.620935 413.68739 171.03336 
C 413.68739 170.445784 413.453944 169.882195 413.038466 169.466717 
C 412.622987 169.051238 412.059398 168.817792 411.471823 168.817792 
C 410.884248 168.817792 410.320659 169.051238 409.90518 169.466717 
C 409.489702 169.882195 409.256256 170.445784 409.256256 171.03336 
C 409.256256 171.620935 409.489702 172.184524 409.90518 172.600002 
C 410.320659 173.015481 410.884248 173.248927 411.471823 173.248927 
z
" style="fill:#d95f02;stroke:#d95f02;stroke-width:0.886227;"/>
    <path clip-path="url(#pd97bbea44a)" d="M 392.380001 170.810715 
C 392.967576 170.810715 393.531165 170.577269 393.946644 170.161791 
C 394.362122 169.746312 394.595568 169.182723 394.595568 168.595148 
C 394.595568 168.007573 394.362122 167.443984 393.946644 167.028505 
C 393.531165 166.613027 392.967576 166.379581 392.380001 166.379581 
C 391.792426 166.379581 391.228837 166.613027 390.813358 167.028505 
C 390.39788 167.443984 390.164434 168.007573 390.164434 168.595148 
C 390.164434 169.182723 390.39788 169.746312 390.813358 170.161791 
C 391.228837 170.577269 391.792426 170.810715 392.380001 170.810715 
z
" style="fill:#d95f02;stroke:#d95f02;stroke-width:0.886227;"/>
   </g>
   <g id="PathCollection_4">
    <path clip-path="url(#pd97bbea44a)" d="M 355.773353 49.124792 
L 360.204488 49.124792 
M 357.988921 51.34036 
L 357.988921 46.909225 
" style="fill:#d95f02;stroke:#d95f02;stroke-width:0.886227;"/>
    <path clip-path="url(#pd97bbea44a)" d="M 348.891039 41.225371 
L 353.322173 41.225371 
M 351.106606 43.440938 
L 351.106606 39.009803 
" style="fill:#d95f02;stroke:#d95f02;stroke-width:0.886227;"/>
    <path clip-path="url(#pd97bbea44a)" d="M 335.990683 56.033363 
L 340.421817 56.033363 
M 338.20625 58.248931 
L 338.20625 53.817796 
" style="fill:#d95f02;stroke:#d95f02;stroke-width:0.886227;"/>
   </g>
   <g id="PathCollection_5">
    <path clip-path="url(#pd97bbea44a)" d="M 297.727778 126.745219 
C 298.315353 126.745219 298.878942 126.511773 299.29442 126.096294 
C 299.709899 125.680816 299.943345 125.117227 299.943345 124.529651 
C 299.943345 123.942076 299.709899 123.378487 299.29442 122.963009 
C 298.878942 122.54753 298.315353 122.314084 297.727778 122.314084 
C 297.140202 122.314084 296.576614 122.54753 296.161135 122.963009 
C 295.745657 123.378487 295.51221 123.942076 295.51221 124.529651 
C 295.51221 125.117227 295.745657 125.680816 296.161135 126.096294 
C 296.576614 126.511773 297.140202 126.745219 297.727778 126.745219 
z
" style="fill:#7570b3;stroke:#7570b3;stroke-width:0.886227;"/>
    <path clip-path="url(#pd97bbea44a)" d="M 299.781682 159.618321 
C 300.369257 159.618321 300.932846 159.384875 301.348325 158.969396 
C 301.763803 158.553918 301.997249 157.990329 301.997249 157.402754 
C 301.997249 156.815179 301.763803 156.25159 301.348325 155.836111 
C 300.932846 155.420633 300.369257 155.187187 299.781682 155.187187 
C 299.194107 155.187187 298.630518 155.420633 298.215039 155.836111 
C 297.799561 156.25159 297.566115 156.815179 297.566115 157.402754 
C 297.566115 157.990329 297.799561 158.553918 298.215039 158.969396 
C 298.630518 159.384875 299.194107 159.618321 299.781682 159.618321 
z
" style="fill:#7570b3;stroke:#7570b3;stroke-width:0.886227;"/>
    <path clip-path="url(#pd97bbea44a)" d="M 314.545363 175.574301 
C 315.132938 175.574301 315.696527 175.340855 316.112005 174.925377 
C 316.527484 174.509898 316.76093 173.946309 316.76093 173.358734 
C 316.76093 172.771159 316.527484 172.20757 316.112005 171.792091 
C 315.696527 171.376613 315.132938 171.143167 314.545363 171.143167 
C 313.957787 171.143167 313.394199 171.376613 312.97872 171.792091 
C 312.563242 172.20757 312.329795 172.771159 312.329795 173.358734 
C 312.329795 173.946309 312.563242 174.509898 312.97872 174.925377 
C 313.394199 175.340855 313.957787 175.574301 314.545363 175.574301 
z
" style="fill:#7570b3;stroke:#7570b3;stroke-width:0.886227;"/>
   </g>
   <g id="PathCollection_6">
    <path clip-path="url(#pd97bbea44a)" d="M 270.178932 200.678382 
L 274.610066 200.678382 
M 272.394499 202.893949 
L 272.394499 198.462815 
" style="fill:#7570b3;stroke:#7570b3;stroke-width:0.886227;"/>
    <path clip-path="url(#pd97bbea44a)" d="M 289.546682 195.765438 
L 293.977816 195.765438 
M 291.762249 197.981005 
L 291.762249 193.54987 
" style="fill:#7570b3;stroke:#7570b3;stroke-width:0.886227;"/>
    <path clip-path="url(#pd97bbea44a)" d="M 279.626178 207.592247 
L 284.057313 207.592247 
M 281.841745 209.807814 
L 281.841745 205.37668 
" style="fill:#7570b3;stroke:#7570b3;stroke-width:0.886227;"/>
   </g>
   <g id="PathCollection_7">
    <path clip-path="url(#pd97bbea44a)" d="M 325.857359 147.157983 
C 326.679965 147.157983 327.468989 146.831158 328.050659 146.249488 
C 328.632329 145.667819 328.959153 144.878794 328.959153 144.056189 
C 328.959153 143.233583 328.632329 142.444559 328.050659 141.862889 
C 327.468989 141.281219 326.679965 140.954395 325.857359 140.954395 
C 325.034754 140.954395 324.245729 141.281219 323.664059 141.862889 
C 323.08239 142.444559 322.755565 143.233583 322.755565 144.056189 
C 322.755565 144.878794 323.08239 145.667819 323.664059 146.249488 
C 324.245729 146.831158 325.034754 147.157983 325.857359 147.157983 
z
" style="fill:#1b9e77;stroke:#1b9e77;stroke-width:0.886227;"/>
    <path clip-path="url(#pd97bbea44a)" d="M 325.56597 194.77459 
C 326.388576 194.77459 327.1776 194.447766 327.75927 193.866096 
C 328.34094 193.284426 328.667765 192.495402 328.667765 191.672796 
C 328.667765 190.850191 328.34094 190.061166 327.75927 189.479496 
C 327.1776 188.897827 326.388576 188.571002 325.56597 188.571002 
C 324.743365 188.571002 323.95434 188.897827 323.372671 189.479496 
C 322.791001 190.061166 322.464176 190.850191 322.464176 191.672796 
C 322.464176 192.495402 322.791001 193.284426 323.372671 193.866096 
C 323.95434 194.447766 324.743365 194.77459 325.56597 194.77459 
z
" style="fill:#1b9e77;stroke:#1b9e77;stroke-width:0.886227;"/>
    <path clip-path="url(#pd97bbea44a)" d="M 359.302437 170.444911 
C 360.125042 170.444911 360.914067 170.118087 361.495737 169.536417 
C 362.077406 168.954747 362.404231 168.165722 362.404231 167.343117 
C 362.404231 166.520511 362.077406 165.731487 361.495737 165.149817 
C 360.914067 164.568147 360.125042 164.241323 359.302437 164.241323 
C 358.479831 164.241323 357.690807 164.568147 357.109137 165.149817 
C 356.527467 165.731487 356.200643 166.520511 356.200643 167.343117 
C 356.200643 168.165722 356.527467 168.954747 357.109137 169.536417 
C 357.690807 170.118087 358.479831 170.444911 359.302437 170.444911 
z
" style="fill:#1b9e77;stroke:#1b9e77;stroke-width:0.886227;"/>
   </g>
   <g id="PathCollection_8">
    <path clip-path="url(#pd97bbea44a)" d="M 386.500241 229.412255 
L 392.703829 229.412255 
M 389.602035 232.514049 
L 389.602035 226.310461 
" style="fill:#1b9e77;stroke:#1b9e77;stroke-width:0.886227;"/>
    <path clip-path="url(#pd97bbea44a)" d="M 379.076305 222.232037 
L 385.279894 222.232037 
M 382.178099 225.333831 
L 382.178099 219.130242 
" style="fill:#1b9e77;stroke:#1b9e77;stroke-width:0.886227;"/>
    <path clip-path="url(#pd97bbea44a)" d="M 346.083297 94.912179 
L 352.286885 94.912179 
M 349.185091 98.013973 
L 349.185091 91.810385 
" style="fill:#1b9e77;stroke:#1b9e77;stroke-width:0.886227;"/>
   </g>
   <g id="PathCollection_9">
    <path clip-path="url(#pd97bbea44a)" d="M 399.27852 166.934526 
C 400.101126 166.934526 400.89015 166.607702 401.47182 166.026032 
C 402.05349 165.444362 402.380314 164.655337 402.380314 163.832732 
C 402.380314 163.010127 402.05349 162.221102 401.47182 161.639432 
C 400.89015 161.057762 400.101126 160.730938 399.27852 160.730938 
C 398.455915 160.730938 397.66689 161.057762 397.08522 161.639432 
C 396.503551 162.221102 396.176726 163.010127 396.176726 163.832732 
C 396.176726 164.655337 396.503551 165.444362 397.08522 166.026032 
C 397.66689 166.607702 398.455915 166.934526 399.27852 166.934526 
z
" style="fill:#d95f02;stroke:#d95f02;stroke-width:0.886227;"/>
    <path clip-path="url(#pd97bbea44a)" d="M 396.511105 134.917307 
C 397.333711 134.917307 398.122735 134.590483 398.704405 134.008813 
C 399.286075 133.427143 399.6129 132.638119 399.6129 131.815513 
C 399.6129 130.992908 399.286075 130.203883 398.704405 129.622213 
C 398.122735 129.040544 397.333711 128.713719 396.511105 128.713719 
C 395.6885 128.713719 394.899475 129.040544 394.317806 129.622213 
C 393.736136 130.203883 393.409311 130.992908 393.409311 131.815513 
C 393.409311 132.638119 393.736136 133.427143 394.317806 134.008813 
C 394.899475 134.590483 395.6885 134.917307 396.511105 134.917307 
z
" style="fill:#d95f02;stroke:#d95f02;stroke-width:0.886227;"/>
    <path clip-path="url(#pd97bbea44a)" d="M 370.406626 197.422033 
C 371.229231 197.422033 372.018255 197.095208 372.599925 196.513538 
C 373.181595 195.931868 373.50842 195.142844 373.50842 194.320239 
C 373.50842 193.497633 373.181595 192.708609 372.599925 192.126939 
C 372.018255 191.545269 371.229231 191.218444 370.406626 191.218444 
C 369.58402 191.218444 368.794996 191.545269 368.213326 192.126939 
C 367.631656 192.708609 367.304831 193.497633 367.304831 194.320239 
C 367.304831 195.142844 367.631656 195.931868 368.213326 196.513538 
C 368.794996 197.095208 369.58402 197.422033 370.406626 197.422033 
z
" style="fill:#d95f02;stroke:#d95f02;stroke-width:0.886227;"/>
   </g>
   <g id="PathCollection_10">
    <path clip-path="url(#pd97bbea44a)" d="M 377.025812 53.785608 
L 383.229401 53.785608 
M 380.127606 56.887402 
L 380.127606 50.683814 
" style="fill:#d95f02;stroke:#d95f02;stroke-width:0.886227;"/>
    <path clip-path="url(#pd97bbea44a)" d="M 399.655385 217.020902 
L 405.858974 217.020902 
M 402.757179 220.122696 
L 402.757179 213.919108 
" style="fill:#d95f02;stroke:#d95f02;stroke-width:0.886227;"/>
    <path clip-path="url(#pd97bbea44a)" d="M 386.826622 195.361903 
L 393.03021 195.361903 
M 389.928416 198.463697 
L 389.928416 192.260108 
" style="fill:#d95f02;stroke:#d95f02;stroke-width:0.886227;"/>
   </g>
   <g id="PathCollection_11">
    <path clip-path="url(#pd97bbea44a)" d="M 288.930138 141.534636 
C 289.752743 141.534636 290.541768 141.207812 291.123437 140.626142 
C 291.705107 140.044472 292.031932 139.255448 292.031932 138.432842 
C 292.031932 137.610237 291.705107 136.821212 291.123437 136.239542 
C 290.541768 135.657873 289.752743 135.331048 288.930138 135.331048 
C 288.107532 135.331048 287.318508 135.657873 286.736838 136.239542 
C 286.155168 136.821212 285.828343 137.610237 285.828343 138.432842 
C 285.828343 139.255448 286.155168 140.044472 286.736838 140.626142 
C 287.318508 141.207812 288.107532 141.534636 288.930138 141.534636 
z
" style="fill:#7570b3;stroke:#7570b3;stroke-width:0.886227;"/>
    <path clip-path="url(#pd97bbea44a)" d="M 280.519603 167.280141 
C 281.342208 167.280141 282.131233 166.953317 282.712903 166.371647 
C 283.294573 165.789977 283.621397 165.000952 283.621397 164.178347 
C 283.621397 163.355742 283.294573 162.566717 282.712903 161.985047 
C 282.131233 161.403377 281.342208 161.076553 280.519603 161.076553 
C 279.696997 161.076553 278.907973 161.403377 278.326303 161.985047 
C 277.744633 162.566717 277.417809 163.355742 277.417809 164.178347 
C 277.417809 165.000952 277.744633 165.789977 278.326303 166.371647 
C 278.907973 166.953317 279.696997 167.280141 280.519603 167.280141 
z
" style="fill:#7570b3;stroke:#7570b3;stroke-width:0.886227;"/>
    <path clip-path="url(#pd97bbea44a)" d="M 273.26389 179.025039 
C 274.086495 179.025039 274.87552 178.698215 275.457189 178.116545 
C 276.038859 177.534875 276.365684 176.74585 276.365684 175.923245 
C 276.365684 175.100639 276.038859 174.311615 275.457189 173.729945 
C 274.87552 173.148275 274.086495 172.821451 273.26389 172.821451 
C 272.441284 172.821451 271.65226 173.148275 271.07059 173.729945 
C 270.48892 174.311615 270.162096 175.100639 270.162096 175.923245 
C 270.162096 176.74585 270.48892 177.534875 271.07059 178.116545 
C 271.65226 178.698215 272.441284 179.025039 273.26389 179.025039 
z
" style="fill:#7570b3;stroke:#7570b3;stroke-width:0.886227;"/>
   </g>
   <g id="PathCollection_12">
    <path clip-path="url(#pd97bbea44a)" d="M 241.562242 191.058116 
L 247.76583 191.058116 
M 244.664036 194.159911 
L 244.664036 187.956322 
" style="fill:#7570b3;stroke:#7570b3;stroke-width:0.886227;"/>
    <path clip-path="url(#pd97bbea44a)" d="M 254.49603 199.91524 
L 260.699619 199.91524 
M 257.597825 203.017034 
L 257.597825 196.813446 
" style="fill:#7570b3;stroke:#7570b3;stroke-width:0.886227;"/>
    <path clip-path="url(#pd97bbea44a)" d="M 230.673269 179.340402 
L 236.876857 179.340402 
M 233.775063 182.442196 
L 233.775063 176.238608 
" style="fill:#7570b3;stroke:#7570b3;stroke-width:0.886227;"/>
   </g>
   <g id="PathCollection_13">
    <path clip-path="url(#pd97bbea44a)" d="M 161.127856 347.613392 
C 162.185492 347.613392 163.199952 347.193189 163.947813 346.445328 
C 164.695675 345.697466 165.115878 344.683006 165.115878 343.625371 
C 165.115878 342.567735 164.695675 341.553275 163.947813 340.805414 
C 163.199952 340.057553 162.185492 339.63735 161.127856 339.63735 
C 160.070221 339.63735 159.055761 340.057553 158.3079 340.805414 
C 157.560038 341.553275 157.139835 342.567735 157.139835 343.625371 
C 157.139835 344.683006 157.560038 345.697466 158.3079 346.445328 
C 159.055761 347.193189 160.070221 347.613392 161.127856 347.613392 
z
" style="fill:#1b9e77;stroke:#1b9e77;stroke-width:0.886227;"/>
    <path clip-path="url(#pd97bbea44a)" d="M 175.784599 328.781917 
C 176.842235 328.781917 177.856695 328.361714 178.604556 327.613853 
C 179.352418 326.865991 179.772621 325.851531 179.772621 324.793896 
C 179.772621 323.73626 179.352418 322.7218 178.604556 321.973939 
C 177.856695 321.226078 176.842235 320.805875 175.784599 320.805875 
C 174.726964 320.805875 173.712504 321.226078 172.964643 321.973939 
C 172.216781 322.7218 171.796578 323.73626 171.796578 324.793896 
C 171.796578 325.851531 172.216781 326.865991 172.964643 327.613853 
C 173.712504 328.361714 174.726964 328.781917 175.784599 328.781917 
z
" style="fill:#1b9e77;stroke:#1b9e77;stroke-width:0.886227;"/>
    <path clip-path="url(#pd97bbea44a)" d="M 175.965615 320.972087 
C 177.02325 320.972087 178.03771 320.551884 178.785572 319.804023 
C 179.533433 319.056162 179.953636 318.041702 179.953636 316.984066 
C 179.953636 315.92643 179.533433 314.911971 178.785572 314.164109 
C 178.03771 313.416248 177.02325 312.996045 175.965615 312.996045 
C 174.907979 312.996045 173.893519 313.416248 173.145658 314.164109 
C 172.397797 314.911971 171.977594 315.92643 171.977594 316.984066 
C 171.977594 318.041702 172.397797 319.056162 173.145658 319.804023 
C 173.893519 320.551884 174.907979 320.972087 175.965615 320.972087 
z
" style="fill:#1b9e77;stroke:#1b9e77;stroke-width:0.886227;"/>
   </g>
   <g id="PathCollection_14">
    <path clip-path="url(#pd97bbea44a)" d="M 224.728235 246.060387 
L 232.704277 246.060387 
M 228.716256 250.048408 
L 228.716256 242.072366 
" style="fill:#1b9e77;stroke:#1b9e77;stroke-width:0.886227;"/>
    <path clip-path="url(#pd97bbea44a)" d="M 186.351635 239.518613 
L 194.327677 239.518613 
M 190.339656 243.506634 
L 190.339656 235.530592 
" style="fill:#1b9e77;stroke:#1b9e77;stroke-width:0.886227;"/>
    <path clip-path="url(#pd97bbea44a)" d="M 195.424837 240.375918 
L 203.400879 240.375918 
M 199.412858 244.363939 
L 199.412858 236.387897 
" style="fill:#1b9e77;stroke:#1b9e77;stroke-width:0.886227;"/>
   </g>
   <g id="PathCollection_15">
    <path clip-path="url(#pd97bbea44a)" d="M 171.54314 284.929662 
C 172.600776 284.929662 173.615235 284.509459 174.363097 283.761598 
C 175.110958 283.013736 175.531161 281.999276 175.531161 280.941641 
C 175.531161 279.884005 175.110958 278.869545 174.363097 278.121684 
C 173.615235 277.373823 172.600776 276.95362 171.54314 276.95362 
C 170.485504 276.95362 169.471044 277.373823 168.723183 278.121684 
C 167.975322 278.869545 167.555119 279.884005 167.555119 280.941641 
C 167.555119 281.999276 167.975322 283.013736 168.723183 283.761598 
C 169.471044 284.509459 170.485504 284.929662 171.54314 284.929662 
z
" style="fill:#d95f02;stroke:#d95f02;stroke-width:0.886227;"/>
    <path clip-path="url(#pd97bbea44a)" d="M 146.65925 302.976379 
C 147.716886 302.976379 148.731346 302.556176 149.479207 301.808315 
C 150.227068 301.060454 150.647272 300.045994 150.647272 298.988358 
C 150.647272 297.930723 150.227068 296.916263 149.479207 296.168401 
C 148.731346 295.42054 147.716886 295.000337 146.65925 295.000337 
C 145.601615 295.000337 144.587155 295.42054 143.839294 296.168401 
C 143.091432 296.916263 142.671229 297.930723 142.671229 298.988358 
C 142.671229 300.045994 143.091432 301.060454 143.839294 301.808315 
C 144.587155 302.556176 145.601615 302.976379 146.65925 302.976379 
z
" style="fill:#d95f02;stroke:#d95f02;stroke-width:0.886227;"/>
    <path clip-path="url(#pd97bbea44a)" d="M 159.363526 302.806296 
C 160.421161 302.806296 161.435621 302.386093 162.183482 301.638232 
C 162.931344 300.890371 163.351547 299.875911 163.351547 298.818275 
C 163.351547 297.76064 162.931344 296.74618 162.183482 295.998318 
C 161.435621 295.250457 160.421161 294.830254 159.363526 294.830254 
C 158.30589 294.830254 157.29143 295.250457 156.543569 295.998318 
C 155.795707 296.74618 155.375504 297.76064 155.375504 298.818275 
C 155.375504 299.875911 155.795707 300.890371 156.543569 301.638232 
C 157.29143 302.386093 158.30589 302.806296 159.363526 302.806296 
z
" style="fill:#d95f02;stroke:#d95f02;stroke-width:0.886227;"/>
   </g>
   <g id="PathCollection_16">
    <path clip-path="url(#pd97bbea44a)" d="M 202.20739 275.546493 
L 210.183433 275.546493 
M 206.195412 279.534515 
L 206.195412 271.558472 
" style="fill:#d95f02;stroke:#d95f02;stroke-width:0.886227;"/>
    <path clip-path="url(#pd97bbea44a)" d="M 166.4315 254.520354 
L 174.407542 254.520354 
M 170.419521 258.508375 
L 170.419521 250.532333 
" style="fill:#d95f02;stroke:#d95f02;stroke-width:0.886227;"/>
    <path clip-path="url(#pd97bbea44a)" d="M 184.643106 265.658005 
L 192.619148 265.658005 
M 188.631127 269.646026 
L 188.631127 261.669984 
" style="fill:#d95f02;stroke:#d95f02;stroke-width:0.886227;"/>
   </g>
   <g id="PathCollection_17">
    <path clip-path="url(#pd97bbea44a)" d="M 140.723109 125.638158 
C 141.780744 125.638158 142.795204 125.217955 143.543066 124.470094 
C 144.290927 123.722233 144.71113 122.707773 144.71113 121.650137 
C 144.71113 120.592502 144.290927 119.578042 143.543066 118.83018 
C 142.795204 118.082319 141.780744 117.662116 140.723109 117.662116 
C 139.665473 117.662116 138.651013 118.082319 137.903152 118.83018 
C 137.155291 119.578042 136.735088 120.592502 136.735088 121.650137 
C 136.735088 122.707773 137.155291 123.722233 137.903152 124.470094 
C 138.651013 125.217955 139.665473 125.638158 140.723109 125.638158 
z
" style="fill:#7570b3;stroke:#7570b3;stroke-width:0.886227;"/>
    <path clip-path="url(#pd97bbea44a)" d="M 127.393906 134.204469 
C 128.451541 134.204469 129.466001 133.784266 130.213863 133.036405 
C 130.961724 132.288543 131.381927 131.274084 131.381927 130.216448 
C 131.381927 129.158812 130.961724 128.144352 130.213863 127.396491 
C 129.466001 126.64863 128.451541 126.228427 127.393906 126.228427 
C 126.33627 126.228427 125.32181 126.64863 124.573949 127.396491 
C 123.826088 128.144352 123.405885 129.158812 123.405885 130.216448 
C 123.405885 131.274084 123.826088 132.288543 124.573949 133.036405 
C 125.32181 133.784266 126.33627 134.204469 127.393906 134.204469 
z
" style="fill:#7570b3;stroke:#7570b3;stroke-width:0.886227;"/>
    <path clip-path="url(#pd97bbea44a)" d="M 122.838097 119.725621 
C 123.895733 119.725621 124.910192 119.305418 125.658054 118.557557 
C 126.405915 117.809696 126.826118 116.795236 126.826118 115.7376 
C 126.826118 114.679965 126.405915 113.665505 125.658054 112.917643 
C 124.910192 112.169782 123.895733 111.749579 122.838097 111.749579 
C 121.780461 111.749579 120.766001 112.169782 120.01814 112.917643 
C 119.270279 113.665505 118.850076 114.679965 118.850076 115.7376 
C 118.850076 116.795236 119.270279 117.809696 120.01814 118.557557 
C 120.766001 119.305418 121.780461 119.725621 122.838097 119.725621 
z
" style="fill:#7570b3;stroke:#7570b3;stroke-width:0.886227;"/>
   </g>
   <g id="PathCollection_18">
    <path clip-path="url(#pd97bbea44a)" d="M 99.84015 262.076005 
L 107.816193 262.076005 
M 103.828172 266.064026 
L 103.828172 258.087984 
" style="fill:#7570b3;stroke:#7570b3;stroke-width:0.886227;"/>
    <path clip-path="url(#pd97bbea44a)" d="M 97.89674 233.938197 
L 105.872782 233.938197 
M 101.884761 237.926218 
L 101.884761 229.950176 
" style="fill:#7570b3;stroke:#7570b3;stroke-width:0.886227;"/>
    <path clip-path="url(#pd97bbea44a)" d="M 82.978639 241.609833 
L 90.954681 241.609833 
M 86.96666 245.597854 
L 86.96666 237.621812 
" style="fill:#7570b3;stroke:#7570b3;stroke-width:0.886227;"/>
   </g>
   <g id="PathCollection_19">
    <path clip-path="url(#pd97bbea44a)" d="M 137.786332 171.829436 
C 139.078998 171.829436 140.318894 171.315854 141.232946 170.401802 
C 142.146999 169.487749 142.660581 168.247853 142.660581 166.955188 
C 142.660581 165.662522 142.146999 164.422627 141.232946 163.508574 
C 140.318894 162.594521 139.078998 162.08094 137.786332 162.08094 
C 136.493667 162.08094 135.253771 162.594521 134.339719 163.508574 
C 133.425666 164.422627 132.912084 165.662522 132.912084 166.955188 
C 132.912084 168.247853 133.425666 169.487749 134.339719 170.401802 
C 135.253771 171.315854 136.493667 171.829436 137.786332 171.829436 
z
" style="fill:#1b9e77;stroke:#1b9e77;stroke-width:0.886227;"/>
    <path clip-path="url(#pd97bbea44a)" d="M 170.9813 199.27378 
C 172.273966 199.27378 173.513861 198.760198 174.427914 197.846145 
C 175.341967 196.932093 175.855548 195.692197 175.855548 194.399531 
C 175.855548 193.106866 175.341967 191.86697 174.427914 190.952918 
C 173.513861 190.038865 172.273966 189.525283 170.9813 189.525283 
C 169.688634 189.525283 168.448739 190.038865 167.534686 190.952918 
C 166.620633 191.86697 166.107052 193.106866 166.107052 194.399531 
C 166.107052 195.692197 166.620633 196.932093 167.534686 197.846145 
C 168.448739 198.760198 169.688634 199.27378 170.9813 199.27378 
z
" style="fill:#1b9e77;stroke:#1b9e77;stroke-width:0.886227;"/>
    <path clip-path="url(#pd97bbea44a)" d="M 149.597733 199.710908 
C 150.890398 199.710908 152.130294 199.197326 153.044346 198.283274 
C 153.958399 197.369221 154.471981 196.129325 154.471981 194.83666 
C 154.471981 193.543994 153.958399 192.304098 153.044346 191.390046 
C 152.130294 190.475993 150.890398 189.962412 149.597733 189.962412 
C 148.305067 189.962412 147.065171 190.475993 146.151119 191.390046 
C 145.237066 192.304098 144.723485 193.543994 144.723485 194.83666 
C 144.723485 196.129325 145.237066 197.369221 146.151119 198.283274 
C 147.065171 199.197326 148.305067 199.710908 149.597733 199.710908 
z
" style="fill:#1b9e77;stroke:#1b9e77;stroke-width:0.886227;"/>
   </g>
   <g id="PathCollection_20">
    <path clip-path="url(#pd97bbea44a)" d="M 114.202667 203.537083 
L 123.951164 203.537083 
M 119.076916 208.411331 
L 119.076916 198.662835 
" style="fill:#1b9e77;stroke:#1b9e77;stroke-width:0.886227;"/>
    <path clip-path="url(#pd97bbea44a)" d="M 103.470616 175.355401 
L 113.219112 175.355401 
M 108.344864 180.229649 
L 108.344864 170.481153 
" style="fill:#1b9e77;stroke:#1b9e77;stroke-width:0.886227;"/>
    <path clip-path="url(#pd97bbea44a)" d="M 122.118398 183.999709 
L 131.866894 183.999709 
M 126.992646 188.873957 
L 126.992646 179.125461 
" style="fill:#1b9e77;stroke:#1b9e77;stroke-width:0.886227;"/>
   </g>
   <g id="PathCollection_21">
    <path clip-path="url(#pd97bbea44a)" d="M 63.75585 150.305096 
C 65.048515 150.305096 66.288411 149.791515 67.202463 148.877462 
C 68.116516 147.96341 68.630098 146.723514 68.630098 145.430848 
C 68.630098 144.138183 68.116516 142.898287 67.202463 141.984234 
C 66.288411 141.070182 65.048515 140.5566 63.75585 140.5566 
C 62.463184 140.5566 61.223288 141.070182 60.309236 141.984234 
C 59.395183 142.898287 58.881601 144.138183 58.881601 145.430848 
C 58.881601 146.723514 59.395183 147.96341 60.309236 148.877462 
C 61.223288 149.791515 62.463184 150.305096 63.75585 150.305096 
z
" style="fill:#d95f02;stroke:#d95f02;stroke-width:0.886227;"/>
    <path clip-path="url(#pd97bbea44a)" d="M 57.986902 175.240013 
C 59.279568 175.240013 60.519464 174.726431 61.433516 173.812378 
C 62.347569 172.898326 62.861151 171.65843 62.861151 170.365764 
C 62.861151 169.073099 62.347569 167.833203 61.433516 166.919151 
C 60.519464 166.005098 59.279568 165.491516 57.986902 165.491516 
C 56.694237 165.491516 55.454341 166.005098 54.540289 166.919151 
C 53.626236 167.833203 53.112654 169.073099 53.112654 170.365764 
C 53.112654 171.65843 53.626236 172.898326 54.540289 173.812378 
C 55.454341 174.726431 56.694237 175.240013 57.986902 175.240013 
z
" style="fill:#d95f02;stroke:#d95f02;stroke-width:0.886227;"/>
    <path clip-path="url(#pd97bbea44a)" d="M 62.729563 159.526623 
C 64.022229 159.526623 65.262124 159.013041 66.176177 158.098988 
C 67.090229 157.184936 67.603811 155.94504 67.603811 154.652375 
C 67.603811 153.359709 67.090229 152.119813 66.176177 151.205761 
C 65.262124 150.291708 64.022229 149.778126 62.729563 149.778126 
C 61.436897 149.778126 60.197002 150.291708 59.282949 151.205761 
C 58.368896 152.119813 57.855315 153.359709 57.855315 154.652375 
C 57.855315 155.94504 58.368896 157.184936 59.282949 158.098988 
C 60.197002 159.013041 61.436897 159.526623 62.729563 159.526623 
z
" style="fill:#d95f02;stroke:#d95f02;stroke-width:0.886227;"/>
   </g>
   <g id="PathCollection_22">
    <path clip-path="url(#pd97bbea44a)" d="M 67.955585 190.889531 
L 77.704081 190.889531 
M 72.829833 195.763779 
L 72.829833 186.015283 
" style="fill:#d95f02;stroke:#d95f02;stroke-width:0.886227;"/>
    <path clip-path="url(#pd97bbea44a)" d="M 77.856938 153.772978 
L 87.605434 153.772978 
M 82.731186 158.647226 
L 82.731186 148.89873 
" style="fill:#d95f02;stroke:#d95f02;stroke-width:0.886227;"/>
    <path clip-path="url(#pd97bbea44a)" d="M 80.175327 178.450036 
L 89.923823 178.450036 
M 85.049575 183.324284 
L 85.049575 173.575788 
" style="fill:#d95f02;stroke:#d95f02;stroke-width:0.886227;"/>
   </g>
   <g id="PathCollection_23">
    <path clip-path="url(#pd97bbea44a)" d="M 103.099349 121.428026 
C 104.392015 121.428026 105.63191 120.914444 106.545963 120.000392 
C 107.460016 119.086339 107.973597 117.846443 107.973597 116.553778 
C 107.973597 115.261112 107.460016 114.021217 106.545963 113.107164 
C 105.63191 112.193111 104.392015 111.67953 103.099349 111.67953 
C 101.806683 111.67953 100.566788 112.193111 99.652735 113.107164 
C 98.738682 114.021217 98.225101 115.261112 98.225101 116.553778 
C 98.225101 117.846443 98.738682 119.086339 99.652735 120.000392 
C 100.566788 120.914444 101.806683 121.428026 103.099349 121.428026 
z
" style="fill:#7570b3;stroke:#7570b3;stroke-width:0.886227;"/>
    <path clip-path="url(#pd97bbea44a)" d="M 109.624226 112.945831 
C 110.916892 112.945831 112.156787 112.43225 113.07084 111.518197 
C 113.984893 110.604144 114.498474 109.364249 114.498474 108.071583 
C 114.498474 106.778917 113.984893 105.539022 113.07084 104.624969 
C 112.156787 103.710916 110.916892 103.197335 109.624226 103.197335 
C 108.33156 103.197335 107.091665 103.710916 106.177612 104.624969 
C 105.26356 105.539022 104.749978 106.778917 104.749978 108.071583 
C 104.749978 109.364249 105.26356 110.604144 106.177612 111.518197 
C 107.091665 112.43225 108.33156 112.945831 109.624226 112.945831 
z
" style="fill:#7570b3;stroke:#7570b3;stroke-width:0.886227;"/>
    <path clip-path="url(#pd97bbea44a)" d="M 98.24458 124.960553 
C 99.537246 124.960553 100.777142 124.446971 101.691194 123.532919 
C 102.605247 122.618866 103.118829 121.378971 103.118829 120.086305 
C 103.118829 118.793639 102.605247 117.553744 101.691194 116.639691 
C 100.777142 115.725638 99.537246 115.212057 98.24458 115.212057 
C 96.951915 115.212057 95.712019 115.725638 94.797967 116.639691 
C 93.883914 117.553744 93.370332 118.793639 93.370332 120.086305 
C 93.370332 121.378971 93.883914 122.618866 94.797967 123.532919 
C 95.712019 124.446971 96.951915 124.960553 98.24458 124.960553 
z
" style="fill:#7570b3;stroke:#7570b3;stroke-width:0.886227;"/>
   </g>
   <g id="PathCollection_24">
    <path clip-path="url(#pd97bbea44a)" d="M 53.049359 246.812626 
L 62.797855 246.812626 
M 57.923607 251.686874 
L 57.923607 241.938378 
" style="fill:#7570b3;stroke:#7570b3;stroke-width:0.886227;"/>
    <path clip-path="url(#pd97bbea44a)" d="M 65.435213 261.654697 
L 75.18371 261.654697 
M 70.309462 266.528945 
L 70.309462 256.780449 
" style="fill:#7570b3;stroke:#7570b3;stroke-width:0.886227;"/>
    <path clip-path="url(#pd97bbea44a)" d="M 66.705441 255.854501 
L 76.453938 255.854501 
M 71.579689 260.728749 
L 71.579689 250.980253 
" style="fill:#7570b3;stroke:#7570b3;stroke-width:0.886227;"/>
   </g>
   <g id="patch_3">
    <path d="M 437.969063 314.142773 
L 512.194687 314.142773 
L 512.194687 66.387968 
L 437.969063 66.387968 
z
" style="fill:#ffffff;"/>
   </g>
   <g id="text_11">
    <!-- CellLine -->
    <defs>
     <path d="M 64.40625 67.28125 
L 64.40625 56.890625 
Q 59.421875 61.53125 53.78125 63.8125 
Q 48.140625 66.109375 41.796875 66.109375 
Q 29.296875 66.109375 22.65625 58.46875 
Q 16.015625 50.828125 16.015625 36.375 
Q 16.015625 21.96875 22.65625 14.328125 
Q 29.296875 6.6875 41.796875 6.6875 
Q 48.140625 6.6875 53.78125 8.984375 
Q 59.421875 11.28125 64.40625 15.921875 
L 64.40625 5.609375 
Q 59.234375 2.09375 53.4375 0.328125 
Q 47.65625 -1.421875 41.21875 -1.421875 
Q 24.65625 -1.421875 15.125 8.703125 
Q 5.609375 18.84375 5.609375 36.375 
Q 5.609375 53.953125 15.125 64.078125 
Q 24.65625 74.21875 41.21875 74.21875 
Q 47.75 74.21875 53.53125 72.484375 
Q 59.328125 70.75 64.40625 67.28125 
z
" id="DejaVuSans-67"/>
     <path d="M 56.203125 29.59375 
L 56.203125 25.203125 
L 14.890625 25.203125 
Q 15.484375 15.921875 20.484375 11.0625 
Q 25.484375 6.203125 34.421875 6.203125 
Q 39.59375 6.203125 44.453125 7.46875 
Q 49.3125 8.734375 54.109375 11.28125 
L 54.109375 2.78125 
Q 49.265625 0.734375 44.1875 -0.34375 
Q 39.109375 -1.421875 33.890625 -1.421875 
Q 20.796875 -1.421875 13.15625 6.1875 
Q 5.515625 13.8125 5.515625 26.8125 
Q 5.515625 40.234375 12.765625 48.109375 
Q 20.015625 56 32.328125 56 
Q 43.359375 56 49.78125 48.890625 
Q 56.203125 41.796875 56.203125 29.59375 
z
M 47.21875 32.234375 
Q 47.125 39.59375 43.09375 43.984375 
Q 39.0625 48.390625 32.421875 48.390625 
Q 24.90625 48.390625 20.390625 44.140625 
Q 15.875 39.890625 15.1875 32.171875 
z
" id="DejaVuSans-101"/>
     <path d="M 9.421875 75.984375 
L 18.40625 75.984375 
L 18.40625 0 
L 9.421875 0 
z
" id="DejaVuSans-108"/>
     <path d="M 9.8125 72.90625 
L 19.671875 72.90625 
L 19.671875 8.296875 
L 55.171875 8.296875 
L 55.171875 0 
L 9.8125 0 
z
" id="DejaVuSans-76"/>
     <path d="M 9.421875 54.6875 
L 18.40625 54.6875 
L 18.40625 0 
L 9.421875 0 
z
M 9.421875 75.984375 
L 18.40625 75.984375 
L 18.40625 64.59375 
L 9.421875 64.59375 
z
" id="DejaVuSans-105"/>
     <path d="M 54.890625 33.015625 
L 54.890625 0 
L 45.90625 0 
L 45.90625 32.71875 
Q 45.90625 40.484375 42.875 44.328125 
Q 39.84375 48.1875 33.796875 48.1875 
Q 26.515625 48.1875 22.3125 43.546875 
Q 18.109375 38.921875 18.109375 30.90625 
L 18.109375 0 
L 9.078125 0 
L 9.078125 54.6875 
L 18.109375 54.6875 
L 18.109375 46.1875 
Q 21.34375 51.125 25.703125 53.5625 
Q 30.078125 56 35.796875 56 
Q 45.21875 56 50.046875 50.171875 
Q 54.890625 44.34375 54.890625 33.015625 
z
" id="DejaVuSans-110"/>
    </defs>
    <g transform="translate(450.169062 89.981562)scale(0.11 -0.11)">
     <use xlink:href="#DejaVuSans-67"/>
     <use x="69.824219" xlink:href="#DejaVuSans-101"/>
     <use x="131.347656" xlink:href="#DejaVuSans-108"/>
     <use x="159.130859" xlink:href="#DejaVuSans-108"/>
     <use x="186.914062" xlink:href="#DejaVuSans-76"/>
     <use x="242.626953" xlink:href="#DejaVuSans-105"/>
     <use x="270.410156" xlink:href="#DejaVuSans-110"/>
     <use x="333.789062" xlink:href="#DejaVuSans-101"/>
    </g>
   </g>
   <g id="patch_4">
    <path clip-path="url(#pff736e5698)" d="M 450.169062 109.473906 
L 466.009062 109.473906 
L 466.009062 93.633906 
L 450.169062 93.633906 
z
" style="fill:#ffffff;stroke:#000000;stroke-linejoin:miter;"/>
   </g>
   <g id="line2d_31">
    <path clip-path="url(#pff736e5698)" d="M 458.089063 101.553906 
" style="fill:none;stroke:#1f77b4;stroke-linecap:square;stroke-width:1.5;"/>
    <defs>
     <path d="M 0 1.772454 
C 0.47006 1.772454 0.920931 1.585697 1.253314 1.253314 
C 1.585697 0.920931 1.772454 0.47006 1.772454 0 
C 1.772454 -0.47006 1.585697 -0.920931 1.253314 -1.253314 
C 0.920931 -1.585697 0.47006 -1.772454 0 -1.772454 
C -0.47006 -1.772454 -0.920931 -1.585697 -1.253314 -1.253314 
C -1.585697 -0.920931 -1.772454 -0.47006 -1.772454 0 
C -1.772454 0.47006 -1.585697 0.920931 -1.253314 1.253314 
C -0.920931 1.585697 -0.47006 1.772454 0 1.772454 
z
" id="mf7f529ed70" style="stroke:#1b9e77;stroke-width:0.886227;"/>
    </defs>
    <g clip-path="url(#pff736e5698)">
     <use style="fill:#1b9e77;stroke:#1b9e77;stroke-width:0.886227;" x="458.089063" xlink:href="#mf7f529ed70" y="101.553906"/>
    </g>
   </g>
   <g id="text_12">
    <!-- CloneA -->
    <defs>
     <path d="M 30.609375 48.390625 
Q 23.390625 48.390625 19.1875 42.75 
Q 14.984375 37.109375 14.984375 27.296875 
Q 14.984375 17.484375 19.15625 11.84375 
Q 23.34375 6.203125 30.609375 6.203125 
Q 37.796875 6.203125 41.984375 11.859375 
Q 46.1875 17.53125 46.1875 27.296875 
Q 46.1875 37.015625 41.984375 42.703125 
Q 37.796875 48.390625 30.609375 48.390625 
z
M 30.609375 56 
Q 42.328125 56 49.015625 48.375 
Q 55.71875 40.765625 55.71875 27.296875 
Q 55.71875 13.875 49.015625 6.21875 
Q 42.328125 -1.421875 30.609375 -1.421875 
Q 18.84375 -1.421875 12.171875 6.21875 
Q 5.515625 13.875 5.515625 27.296875 
Q 5.515625 40.765625 12.171875 48.375 
Q 18.84375 56 30.609375 56 
z
" id="DejaVuSans-111"/>
     <path d="M 34.1875 63.1875 
L 20.796875 26.90625 
L 47.609375 26.90625 
z
M 28.609375 72.90625 
L 39.796875 72.90625 
L 67.578125 0 
L 57.328125 0 
L 50.6875 18.703125 
L 17.828125 18.703125 
L 11.1875 0 
L 0.78125 0 
z
" id="DejaVuSans-65"/>
    </defs>
    <g transform="translate(469.009063 103.982156)scale(0.088 -0.088)">
     <use xlink:href="#DejaVuSans-67"/>
     <use x="69.824219" xlink:href="#DejaVuSans-108"/>
     <use x="97.607422" xlink:href="#DejaVuSans-111"/>
     <use x="158.789062" xlink:href="#DejaVuSans-110"/>
     <use x="222.167969" xlink:href="#DejaVuSans-101"/>
     <use x="283.691406" xlink:href="#DejaVuSans-65"/>
    </g>
   </g>
   <g id="patch_5">
    <path clip-path="url(#p7379f2f6d9)" d="M 450.169062 127.313906 
L 466.009062 127.313906 
L 466.009062 111.473906 
L 450.169062 111.473906 
z
" style="fill:#ffffff;stroke:#000000;stroke-linejoin:miter;"/>
   </g>
   <g id="line2d_32">
    <path clip-path="url(#p7379f2f6d9)" d="M 458.089063 119.393906 
" style="fill:none;stroke:#1f77b4;stroke-linecap:square;stroke-width:1.5;"/>
    <defs>
     <path d="M 0 1.772454 
C 0.47006 1.772454 0.920931 1.585697 1.253314 1.253314 
C 1.585697 0.920931 1.772454 0.47006 1.772454 0 
C 1.772454 -0.47006 1.585697 -0.920931 1.253314 -1.253314 
C 0.920931 -1.585697 0.47006 -1.772454 0 -1.772454 
C -0.47006 -1.772454 -0.920931 -1.585697 -1.253314 -1.253314 
C -1.585697 -0.920931 -1.772454 -0.47006 -1.772454 0 
C -1.772454 0.47006 -1.585697 0.920931 -1.253314 1.253314 
C -0.920931 1.585697 -0.47006 1.772454 0 1.772454 
z
" id="mb0f38f3cac" style="stroke:#d95f02;stroke-width:0.886227;"/>
    </defs>
    <g clip-path="url(#p7379f2f6d9)">
     <use style="fill:#d95f02;stroke:#d95f02;stroke-width:0.886227;" x="458.089063" xlink:href="#mb0f38f3cac" y="119.393906"/>
    </g>
   </g>
   <g id="text_13">
    <!-- CloneE -->
    <defs>
     <path d="M 9.8125 72.90625 
L 55.90625 72.90625 
L 55.90625 64.59375 
L 19.671875 64.59375 
L 19.671875 43.015625 
L 54.390625 43.015625 
L 54.390625 34.71875 
L 19.671875 34.71875 
L 19.671875 8.296875 
L 56.78125 8.296875 
L 56.78125 0 
L 9.8125 0 
z
" id="DejaVuSans-69"/>
    </defs>
    <g transform="translate(469.009063 121.822156)scale(0.088 -0.088)">
     <use xlink:href="#DejaVuSans-67"/>
     <use x="69.824219" xlink:href="#DejaVuSans-108"/>
     <use x="97.607422" xlink:href="#DejaVuSans-111"/>
     <use x="158.789062" xlink:href="#DejaVuSans-110"/>
     <use x="222.167969" xlink:href="#DejaVuSans-101"/>
     <use x="283.691406" xlink:href="#DejaVuSans-69"/>
    </g>
   </g>
   <g id="patch_6">
    <path clip-path="url(#pc2dc8603c8)" d="M 450.169062 145.153906 
L 466.009062 145.153906 
L 466.009062 129.313906 
L 450.169062 129.313906 
z
" style="fill:#ffffff;stroke:#000000;stroke-linejoin:miter;"/>
   </g>
   <g id="line2d_33">
    <path clip-path="url(#pc2dc8603c8)" d="M 458.089063 137.233906 
" style="fill:none;stroke:#1f77b4;stroke-linecap:square;stroke-width:1.5;"/>
    <defs>
     <path d="M 0 1.772454 
C 0.47006 1.772454 0.920931 1.585697 1.253314 1.253314 
C 1.585697 0.920931 1.772454 0.47006 1.772454 0 
C 1.772454 -0.47006 1.585697 -0.920931 1.253314 -1.253314 
C 0.920931 -1.585697 0.47006 -1.772454 0 -1.772454 
C -0.47006 -1.772454 -0.920931 -1.585697 -1.253314 -1.253314 
C -1.585697 -0.920931 -1.772454 -0.47006 -1.772454 0 
C -1.772454 0.47006 -1.585697 0.920931 -1.253314 1.253314 
C -0.920931 1.585697 -0.47006 1.772454 0 1.772454 
z
" id="m546a3076de" style="stroke:#7570b3;stroke-width:0.886227;"/>
    </defs>
    <g clip-path="url(#pc2dc8603c8)">
     <use style="fill:#7570b3;stroke:#7570b3;stroke-width:0.886227;" x="458.089063" xlink:href="#m546a3076de" y="137.233906"/>
    </g>
   </g>
   <g id="text_14">
    <!-- WT -->
    <defs>
     <path d="M 3.328125 72.90625 
L 13.28125 72.90625 
L 28.609375 11.28125 
L 43.890625 72.90625 
L 54.984375 72.90625 
L 70.3125 11.28125 
L 85.59375 72.90625 
L 95.609375 72.90625 
L 77.296875 0 
L 64.890625 0 
L 49.515625 63.28125 
L 33.984375 0 
L 21.578125 0 
z
" id="DejaVuSans-87"/>
     <path d="M -0.296875 72.90625 
L 61.375 72.90625 
L 61.375 64.59375 
L 35.5 64.59375 
L 35.5 0 
L 25.59375 0 
L 25.59375 64.59375 
L -0.296875 64.59375 
z
" id="DejaVuSans-84"/>
    </defs>
    <g transform="translate(469.009063 139.662156)scale(0.088 -0.088)">
     <use xlink:href="#DejaVuSans-87"/>
     <use x="98.876953" xlink:href="#DejaVuSans-84"/>
    </g>
   </g>
   <g id="text_15">
    <!-- Batch -->
    <defs>
     <path d="M 19.671875 34.8125 
L 19.671875 8.109375 
L 35.5 8.109375 
Q 43.453125 8.109375 47.28125 11.40625 
Q 51.125 14.703125 51.125 21.484375 
Q 51.125 28.328125 47.28125 31.5625 
Q 43.453125 34.8125 35.5 34.8125 
z
M 19.671875 64.796875 
L 19.671875 42.828125 
L 34.28125 42.828125 
Q 41.5 42.828125 45.03125 45.53125 
Q 48.578125 48.25 48.578125 53.8125 
Q 48.578125 59.328125 45.03125 62.0625 
Q 41.5 64.796875 34.28125 64.796875 
z
M 9.8125 72.90625 
L 35.015625 72.90625 
Q 46.296875 72.90625 52.390625 68.21875 
Q 58.5 63.53125 58.5 54.890625 
Q 58.5 48.1875 55.375 44.234375 
Q 52.25 40.28125 46.1875 39.3125 
Q 53.46875 37.75 57.5 32.78125 
Q 61.53125 27.828125 61.53125 20.40625 
Q 61.53125 10.640625 54.890625 5.3125 
Q 48.25 0 35.984375 0 
L 9.8125 0 
z
" id="DejaVuSans-66"/>
     <path d="M 34.28125 27.484375 
Q 23.390625 27.484375 19.1875 25 
Q 14.984375 22.515625 14.984375 16.5 
Q 14.984375 11.71875 18.140625 8.90625 
Q 21.296875 6.109375 26.703125 6.109375 
Q 34.1875 6.109375 38.703125 11.40625 
Q 43.21875 16.703125 43.21875 25.484375 
L 43.21875 27.484375 
z
M 52.203125 31.203125 
L 52.203125 0 
L 43.21875 0 
L 43.21875 8.296875 
Q 40.140625 3.328125 35.546875 0.953125 
Q 30.953125 -1.421875 24.3125 -1.421875 
Q 15.921875 -1.421875 10.953125 3.296875 
Q 6 8.015625 6 15.921875 
Q 6 25.140625 12.171875 29.828125 
Q 18.359375 34.515625 30.609375 34.515625 
L 43.21875 34.515625 
L 43.21875 35.40625 
Q 43.21875 41.609375 39.140625 45 
Q 35.0625 48.390625 27.6875 48.390625 
Q 23 48.390625 18.546875 47.265625 
Q 14.109375 46.140625 10.015625 43.890625 
L 10.015625 52.203125 
Q 14.9375 54.109375 19.578125 55.046875 
Q 24.21875 56 28.609375 56 
Q 40.484375 56 46.34375 49.84375 
Q 52.203125 43.703125 52.203125 31.203125 
z
" id="DejaVuSans-97"/>
     <path d="M 18.3125 70.21875 
L 18.3125 54.6875 
L 36.8125 54.6875 
L 36.8125 47.703125 
L 18.3125 47.703125 
L 18.3125 18.015625 
Q 18.3125 11.328125 20.140625 9.421875 
Q 21.96875 7.515625 27.59375 7.515625 
L 36.8125 7.515625 
L 36.8125 0 
L 27.59375 0 
Q 17.1875 0 13.234375 3.875 
Q 9.28125 7.765625 9.28125 18.015625 
L 9.28125 47.703125 
L 2.6875 47.703125 
L 2.6875 54.6875 
L 9.28125 54.6875 
L 9.28125 70.21875 
z
" id="DejaVuSans-116"/>
     <path d="M 48.78125 52.59375 
L 48.78125 44.1875 
Q 44.96875 46.296875 41.140625 47.34375 
Q 37.3125 48.390625 33.40625 48.390625 
Q 24.65625 48.390625 19.8125 42.84375 
Q 14.984375 37.3125 14.984375 27.296875 
Q 14.984375 17.28125 19.8125 11.734375 
Q 24.65625 6.203125 33.40625 6.203125 
Q 37.3125 6.203125 41.140625 7.25 
Q 44.96875 8.296875 48.78125 10.40625 
L 48.78125 2.09375 
Q 45.015625 0.34375 40.984375 -0.53125 
Q 36.96875 -1.421875 32.421875 -1.421875 
Q 20.0625 -1.421875 12.78125 6.34375 
Q 5.515625 14.109375 5.515625 27.296875 
Q 5.515625 40.671875 12.859375 48.328125 
Q 20.21875 56 33.015625 56 
Q 37.15625 56 41.109375 55.140625 
Q 45.0625 54.296875 48.78125 52.59375 
z
" id="DejaVuSans-99"/>
     <path d="M 54.890625 33.015625 
L 54.890625 0 
L 45.90625 0 
L 45.90625 32.71875 
Q 45.90625 40.484375 42.875 44.328125 
Q 39.84375 48.1875 33.796875 48.1875 
Q 26.515625 48.1875 22.3125 43.546875 
Q 18.109375 38.921875 18.109375 30.90625 
L 18.109375 0 
L 9.078125 0 
L 9.078125 75.984375 
L 18.109375 75.984375 
L 18.109375 46.1875 
Q 21.34375 51.125 25.703125 53.5625 
Q 30.078125 56 35.796875 56 
Q 45.21875 56 50.046875 50.171875 
Q 54.890625 44.34375 54.890625 33.015625 
z
" id="DejaVuSans-104"/>
    </defs>
    <g transform="translate(450.169062 166.5475)scale(0.11 -0.11)">
     <use xlink:href="#DejaVuSans-66"/>
     <use x="68.603516" xlink:href="#DejaVuSans-97"/>
     <use x="129.882812" xlink:href="#DejaVuSans-116"/>
     <use x="169.091797" xlink:href="#DejaVuSans-99"/>
     <use x="224.072266" xlink:href="#DejaVuSans-104"/>
    </g>
   </g>
   <g id="patch_7">
    <path clip-path="url(#pae9787d81c)" d="M 450.169062 186.039843 
L 466.009062 186.039843 
L 466.009062 170.199843 
L 450.169062 170.199843 
z
" style="fill:#ffffff;stroke:#000000;stroke-linejoin:miter;"/>
   </g>
   <g id="line2d_34">
    <path clip-path="url(#pae9787d81c)" d="M 458.089063 178.119843 
" style="fill:none;stroke:#1f77b4;stroke-linecap:square;stroke-width:1.5;"/>
    <defs>
     <path d="M 0 1.772454 
C 0.47006 1.772454 0.920931 1.585697 1.253314 1.253314 
C 1.585697 0.920931 1.772454 0.47006 1.772454 0 
C 1.772454 -0.47006 1.585697 -0.920931 1.253314 -1.253314 
C 0.920931 -1.585697 0.47006 -1.772454 0 -1.772454 
C -0.47006 -1.772454 -0.920931 -1.585697 -1.253314 -1.253314 
C -1.585697 -0.920931 -1.772454 -0.47006 -1.772454 0 
C -1.772454 0.47006 -1.585697 0.920931 -1.253314 1.253314 
C -0.920931 1.585697 -0.47006 1.772454 0 1.772454 
z
" id="m902b16890e" style="stroke:#000000;stroke-width:0.886227;"/>
    </defs>
    <g clip-path="url(#pae9787d81c)">
     <use style="stroke:#000000;stroke-width:0.886227;" x="458.089063" xlink:href="#m902b16890e" y="178.119843"/>
    </g>
   </g>
   <g id="text_16">
    <!-- 1 -->
    <g transform="translate(469.009063 180.548093)scale(0.088 -0.088)">
     <use xlink:href="#DejaVuSans-49"/>
    </g>
   </g>
   <g id="patch_8">
    <path clip-path="url(#p236bba03ae)" d="M 450.169062 203.879843 
L 466.009062 203.879843 
L 466.009062 188.039843 
L 450.169062 188.039843 
z
" style="fill:#ffffff;stroke:#000000;stroke-linejoin:miter;"/>
   </g>
   <g id="line2d_35">
    <path clip-path="url(#p236bba03ae)" d="M 458.089063 195.959843 
" style="fill:none;stroke:#1f77b4;stroke-linecap:square;stroke-width:1.5;"/>
    <defs>
     <path d="M -1.772454 0 
L 1.772454 0 
M 0 1.772454 
L 0 -1.772454 
" id="ma6363fa815" style="stroke:#000000;stroke-width:0.886227;"/>
    </defs>
    <g clip-path="url(#p236bba03ae)">
     <use style="stroke:#000000;stroke-width:0.886227;" x="458.089063" xlink:href="#ma6363fa815" y="195.959843"/>
    </g>
   </g>
   <g id="text_17">
    <!-- 2 -->
    <g transform="translate(469.009063 198.388093)scale(0.088 -0.088)">
     <use xlink:href="#DejaVuSans-50"/>
    </g>
   </g>
   <g id="text_18">
    <!-- Dosage -->
    <defs>
     <path d="M 19.671875 64.796875 
L 19.671875 8.109375 
L 31.59375 8.109375 
Q 46.6875 8.109375 53.6875 14.9375 
Q 60.6875 21.78125 60.6875 36.53125 
Q 60.6875 51.171875 53.6875 57.984375 
Q 46.6875 64.796875 31.59375 64.796875 
z
M 9.8125 72.90625 
L 30.078125 72.90625 
Q 51.265625 72.90625 61.171875 64.09375 
Q 71.09375 55.28125 71.09375 36.53125 
Q 71.09375 17.671875 61.125 8.828125 
Q 51.171875 0 30.078125 0 
L 9.8125 0 
z
" id="DejaVuSans-68"/>
     <path d="M 44.28125 53.078125 
L 44.28125 44.578125 
Q 40.484375 46.53125 36.375 47.5 
Q 32.28125 48.484375 27.875 48.484375 
Q 21.1875 48.484375 17.84375 46.4375 
Q 14.5 44.390625 14.5 40.28125 
Q 14.5 37.15625 16.890625 35.375 
Q 19.28125 33.59375 26.515625 31.984375 
L 29.59375 31.296875 
Q 39.15625 29.25 43.1875 25.515625 
Q 47.21875 21.78125 47.21875 15.09375 
Q 47.21875 7.46875 41.1875 3.015625 
Q 35.15625 -1.421875 24.609375 -1.421875 
Q 20.21875 -1.421875 15.453125 -0.5625 
Q 10.6875 0.296875 5.421875 2 
L 5.421875 11.28125 
Q 10.40625 8.6875 15.234375 7.390625 
Q 20.0625 6.109375 24.8125 6.109375 
Q 31.15625 6.109375 34.5625 8.28125 
Q 37.984375 10.453125 37.984375 14.40625 
Q 37.984375 18.0625 35.515625 20.015625 
Q 33.0625 21.96875 24.703125 23.78125 
L 21.578125 24.515625 
Q 13.234375 26.265625 9.515625 29.90625 
Q 5.8125 33.546875 5.8125 39.890625 
Q 5.8125 47.609375 11.28125 51.796875 
Q 16.75 56 26.8125 56 
Q 31.78125 56 36.171875 55.265625 
Q 40.578125 54.546875 44.28125 53.078125 
z
" id="DejaVuSans-115"/>
     <path d="M 45.40625 27.984375 
Q 45.40625 37.75 41.375 43.109375 
Q 37.359375 48.484375 30.078125 48.484375 
Q 22.859375 48.484375 18.828125 43.109375 
Q 14.796875 37.75 14.796875 27.984375 
Q 14.796875 18.265625 18.828125 12.890625 
Q 22.859375 7.515625 30.078125 7.515625 
Q 37.359375 7.515625 41.375 12.890625 
Q 45.40625 18.265625 45.40625 27.984375 
z
M 54.390625 6.78125 
Q 54.390625 -7.171875 48.1875 -13.984375 
Q 42 -20.796875 29.203125 -20.796875 
Q 24.46875 -20.796875 20.265625 -20.09375 
Q 16.0625 -19.390625 12.109375 -17.921875 
L 12.109375 -9.1875 
Q 16.0625 -11.328125 19.921875 -12.34375 
Q 23.78125 -13.375 27.78125 -13.375 
Q 36.625 -13.375 41.015625 -8.765625 
Q 45.40625 -4.15625 45.40625 5.171875 
L 45.40625 9.625 
Q 42.625 4.78125 38.28125 2.390625 
Q 33.9375 0 27.875 0 
Q 17.828125 0 11.671875 7.65625 
Q 5.515625 15.328125 5.515625 27.984375 
Q 5.515625 40.671875 11.671875 48.328125 
Q 17.828125 56 27.875 56 
Q 33.9375 56 38.28125 53.609375 
Q 42.625 51.21875 45.40625 46.390625 
L 45.40625 54.6875 
L 54.390625 54.6875 
z
" id="DejaVuSans-103"/>
    </defs>
    <g transform="translate(450.169062 225.273437)scale(0.11 -0.11)">
     <use xlink:href="#DejaVuSans-68"/>
     <use x="77.001953" xlink:href="#DejaVuSans-111"/>
     <use x="138.183594" xlink:href="#DejaVuSans-115"/>
     <use x="190.283203" xlink:href="#DejaVuSans-97"/>
     <use x="251.5625" xlink:href="#DejaVuSans-103"/>
     <use x="315.039062" xlink:href="#DejaVuSans-101"/>
    </g>
   </g>
   <g id="patch_9">
    <path clip-path="url(#p5ce51c52a2)" d="M 450.169062 244.765781 
L 468.723786 244.765781 
L 468.723786 228.925781 
L 450.169062 228.925781 
z
" style="fill:#ffffff;stroke:#000000;stroke-linejoin:miter;"/>
   </g>
   <g id="line2d_36">
    <path clip-path="url(#p5ce51c52a2)" d="M 459.446424 236.845781 
" style="fill:none;stroke:#1f77b4;stroke-linecap:square;stroke-width:1.5;"/>
    <defs>
     <path d="M 0 2.215567 
C 0.587575 2.215567 1.151164 1.982121 1.566643 1.566643 
C 1.982121 1.151164 2.215567 0.587575 2.215567 0 
C 2.215567 -0.587575 1.982121 -1.151164 1.566643 -1.566643 
C 1.151164 -1.982121 0.587575 -2.215567 0 -2.215567 
C -0.587575 -2.215567 -1.151164 -1.982121 -1.566643 -1.566643 
C -1.982121 -1.151164 -2.215567 -0.587575 -2.215567 0 
C -2.215567 0.587575 -1.982121 1.151164 -1.566643 1.566643 
C -1.151164 1.982121 -0.587575 2.215567 0 2.215567 
z
" id="mefab399f09" style="stroke:#000000;stroke-width:0.886227;"/>
    </defs>
    <g clip-path="url(#p5ce51c52a2)">
     <use style="stroke:#000000;stroke-width:0.886227;" x="459.446424" xlink:href="#mefab399f09" y="236.845781"/>
    </g>
   </g>
   <g id="text_19">
    <!-- 0 -->
    <g transform="translate(471.723786 239.274031)scale(0.088 -0.088)">
     <use xlink:href="#DejaVuSans-48"/>
    </g>
   </g>
   <g id="patch_10">
    <path clip-path="url(#pc2f383ba1a)" d="M 450.169062 262.605781 
L 468.723786 262.605781 
L 468.723786 246.765781 
L 450.169062 246.765781 
z
" style="fill:#ffffff;stroke:#000000;stroke-linejoin:miter;"/>
   </g>
   <g id="line2d_37">
    <path clip-path="url(#pc2f383ba1a)" d="M 459.446424 254.685781 
" style="fill:none;stroke:#1f77b4;stroke-linecap:square;stroke-width:1.5;"/>
    <defs>
     <path d="M 0 3.101794 
C 0.822605 3.101794 1.61163 2.77497 2.1933 2.1933 
C 2.77497 1.61163 3.101794 0.822605 3.101794 0 
C 3.101794 -0.822605 2.77497 -1.61163 2.1933 -2.1933 
C 1.61163 -2.77497 0.822605 -3.101794 0 -3.101794 
C -0.822605 -3.101794 -1.61163 -2.77497 -2.1933 -2.1933 
C -2.77497 -1.61163 -3.101794 -0.822605 -3.101794 0 
C -3.101794 0.822605 -2.77497 1.61163 -2.1933 2.1933 
C -1.61163 2.77497 -0.822605 3.101794 0 3.101794 
z
" id="m44bc48dffa" style="stroke:#000000;stroke-width:0.886227;"/>
    </defs>
    <g clip-path="url(#pc2f383ba1a)">
     <use style="stroke:#000000;stroke-width:0.886227;" x="459.446424" xlink:href="#m44bc48dffa" y="254.685781"/>
    </g>
   </g>
   <g id="text_20">
    <!-- 0.7 -->
    <defs>
     <path d="M 10.6875 12.40625 
L 21 12.40625 
L 21 0 
L 10.6875 0 
z
" id="DejaVuSans-46"/>
     <path d="M 8.203125 72.90625 
L 55.078125 72.90625 
L 55.078125 68.703125 
L 28.609375 0 
L 18.3125 0 
L 43.21875 64.59375 
L 8.203125 64.59375 
z
" id="DejaVuSans-55"/>
    </defs>
    <g transform="translate(471.723786 257.114031)scale(0.088 -0.088)">
     <use xlink:href="#DejaVuSans-48"/>
     <use x="63.623047" xlink:href="#DejaVuSans-46"/>
     <use x="95.410156" xlink:href="#DejaVuSans-55"/>
    </g>
   </g>
   <g id="patch_11">
    <path clip-path="url(#p62a8a9607e)" d="M 450.169062 281.38805 
L 468.723786 281.38805 
L 468.723786 264.605781 
L 450.169062 264.605781 
z
" style="fill:#ffffff;stroke:#000000;stroke-linejoin:miter;"/>
   </g>
   <g id="line2d_38">
    <path clip-path="url(#p62a8a9607e)" d="M 459.446424 272.996915 
" style="fill:none;stroke:#1f77b4;stroke-linecap:square;stroke-width:1.5;"/>
    <defs>
     <path d="M 0 3.988021 
C 1.057636 3.988021 2.072096 3.567818 2.819957 2.819957 
C 3.567818 2.072096 3.988021 1.057636 3.988021 0 
C 3.988021 -1.057636 3.567818 -2.072096 2.819957 -2.819957 
C 2.072096 -3.567818 1.057636 -3.988021 0 -3.988021 
C -1.057636 -3.988021 -2.072096 -3.567818 -2.819957 -2.819957 
C -3.567818 -2.072096 -3.988021 -1.057636 -3.988021 0 
C -3.988021 1.057636 -3.567818 2.072096 -2.819957 2.819957 
C -2.072096 3.567818 -1.057636 3.988021 0 3.988021 
z
" id="mdb3253514f" style="stroke:#000000;stroke-width:0.886227;"/>
    </defs>
    <g clip-path="url(#p62a8a9607e)">
     <use style="stroke:#000000;stroke-width:0.886227;" x="459.446424" xlink:href="#mdb3253514f" y="272.996915"/>
    </g>
   </g>
   <g id="text_21">
    <!-- 7 -->
    <g transform="translate(471.723786 275.425165)scale(0.088 -0.088)">
     <use xlink:href="#DejaVuSans-55"/>
    </g>
   </g>
   <g id="patch_12">
    <path clip-path="url(#pf7fe6f6861)" d="M 450.169062 301.942773 
L 468.723786 301.942773 
L 468.723786 283.38805 
L 450.169062 283.38805 
z
" style="fill:#ffffff;stroke:#000000;stroke-linejoin:miter;"/>
   </g>
   <g id="line2d_39">
    <path clip-path="url(#pf7fe6f6861)" d="M 459.446424 292.665412 
" style="fill:none;stroke:#1f77b4;stroke-linecap:square;stroke-width:1.5;"/>
    <defs>
     <path d="M 0 4.874248 
C 1.292666 4.874248 2.532561 4.360667 3.446614 3.446614 
C 4.360667 2.532561 4.874248 1.292666 4.874248 0 
C 4.874248 -1.292666 4.360667 -2.532561 3.446614 -3.446614 
C 2.532561 -4.360667 1.292666 -4.874248 0 -4.874248 
C -1.292666 -4.874248 -2.532561 -4.360667 -3.446614 -3.446614 
C -4.360667 -2.532561 -4.874248 -1.292666 -4.874248 0 
C -4.874248 1.292666 -4.360667 2.532561 -3.446614 3.446614 
C -2.532561 4.360667 -1.292666 4.874248 0 4.874248 
z
" id="m9a56d67305" style="stroke:#000000;stroke-width:0.886227;"/>
    </defs>
    <g clip-path="url(#pf7fe6f6861)">
     <use style="stroke:#000000;stroke-width:0.886227;" x="459.446424" xlink:href="#m9a56d67305" y="292.665412"/>
    </g>
   </g>
   <g id="text_22">
    <!-- 70 -->
    <g transform="translate(471.723786 295.093662)scale(0.088 -0.088)">
     <use xlink:href="#DejaVuSans-55"/>
     <use x="63.623047" xlink:href="#DejaVuSans-48"/>
    </g>
   </g>
  </g>
  <g id="text_23">
   <!-- Cell Painting Merged (UMAP) -->
   <defs>
    <path id="DejaVuSans-32"/>
    <path d="M 19.671875 64.796875 
L 19.671875 37.40625 
L 32.078125 37.40625 
Q 38.96875 37.40625 42.71875 40.96875 
Q 46.484375 44.53125 46.484375 51.125 
Q 46.484375 57.671875 42.71875 61.234375 
Q 38.96875 64.796875 32.078125 64.796875 
z
M 9.8125 72.90625 
L 32.078125 72.90625 
Q 44.34375 72.90625 50.609375 67.359375 
Q 56.890625 61.8125 56.890625 51.125 
Q 56.890625 40.328125 50.609375 34.8125 
Q 44.34375 29.296875 32.078125 29.296875 
L 19.671875 29.296875 
L 19.671875 0 
L 9.8125 0 
z
" id="DejaVuSans-80"/>
    <path d="M 9.8125 72.90625 
L 24.515625 72.90625 
L 43.109375 23.296875 
L 61.8125 72.90625 
L 76.515625 72.90625 
L 76.515625 0 
L 66.890625 0 
L 66.890625 64.015625 
L 48.09375 14.015625 
L 38.1875 14.015625 
L 19.390625 64.015625 
L 19.390625 0 
L 9.8125 0 
z
" id="DejaVuSans-77"/>
    <path d="M 41.109375 46.296875 
Q 39.59375 47.171875 37.8125 47.578125 
Q 36.03125 48 33.890625 48 
Q 26.265625 48 22.1875 43.046875 
Q 18.109375 38.09375 18.109375 28.8125 
L 18.109375 0 
L 9.078125 0 
L 9.078125 54.6875 
L 18.109375 54.6875 
L 18.109375 46.1875 
Q 20.953125 51.171875 25.484375 53.578125 
Q 30.03125 56 36.53125 56 
Q 37.453125 56 38.578125 55.875 
Q 39.703125 55.765625 41.0625 55.515625 
z
" id="DejaVuSans-114"/>
    <path d="M 45.40625 46.390625 
L 45.40625 75.984375 
L 54.390625 75.984375 
L 54.390625 0 
L 45.40625 0 
L 45.40625 8.203125 
Q 42.578125 3.328125 38.25 0.953125 
Q 33.9375 -1.421875 27.875 -1.421875 
Q 17.96875 -1.421875 11.734375 6.484375 
Q 5.515625 14.40625 5.515625 27.296875 
Q 5.515625 40.1875 11.734375 48.09375 
Q 17.96875 56 27.875 56 
Q 33.9375 56 38.25 53.625 
Q 42.578125 51.265625 45.40625 46.390625 
z
M 14.796875 27.296875 
Q 14.796875 17.390625 18.875 11.75 
Q 22.953125 6.109375 30.078125 6.109375 
Q 37.203125 6.109375 41.296875 11.75 
Q 45.40625 17.390625 45.40625 27.296875 
Q 45.40625 37.203125 41.296875 42.84375 
Q 37.203125 48.484375 30.078125 48.484375 
Q 22.953125 48.484375 18.875 42.84375 
Q 14.796875 37.203125 14.796875 27.296875 
z
" id="DejaVuSans-100"/>
    <path d="M 31 75.875 
Q 24.46875 64.65625 21.28125 53.65625 
Q 18.109375 42.671875 18.109375 31.390625 
Q 18.109375 20.125 21.3125 9.0625 
Q 24.515625 -2 31 -13.1875 
L 23.1875 -13.1875 
Q 15.875 -1.703125 12.234375 9.375 
Q 8.59375 20.453125 8.59375 31.390625 
Q 8.59375 42.28125 12.203125 53.3125 
Q 15.828125 64.359375 23.1875 75.875 
z
" id="DejaVuSans-40"/>
    <path d="M 8.6875 72.90625 
L 18.609375 72.90625 
L 18.609375 28.609375 
Q 18.609375 16.890625 22.84375 11.734375 
Q 27.09375 6.59375 36.625 6.59375 
Q 46.09375 6.59375 50.34375 11.734375 
Q 54.59375 16.890625 54.59375 28.609375 
L 54.59375 72.90625 
L 64.5 72.90625 
L 64.5 27.390625 
Q 64.5 13.140625 57.4375 5.859375 
Q 50.390625 -1.421875 36.625 -1.421875 
Q 22.796875 -1.421875 15.734375 5.859375 
Q 8.6875 13.140625 8.6875 27.390625 
z
" id="DejaVuSans-85"/>
    <path d="M 8.015625 75.875 
L 15.828125 75.875 
Q 23.140625 64.359375 26.78125 53.3125 
Q 30.421875 42.28125 30.421875 31.390625 
Q 30.421875 20.453125 26.78125 9.375 
Q 23.140625 -1.703125 15.828125 -13.1875 
L 8.015625 -13.1875 
Q 14.5 -2 17.703125 9.0625 
Q 20.90625 20.125 20.90625 31.390625 
Q 20.90625 42.671875 17.703125 53.65625 
Q 14.5 64.65625 8.015625 75.875 
z
" id="DejaVuSans-41"/>
   </defs>
   <g transform="translate(134.631281 17.229937)scale(0.132 -0.132)">
    <use xlink:href="#DejaVuSans-67"/>
    <use x="69.824219" xlink:href="#DejaVuSans-101"/>
    <use x="131.347656" xlink:href="#DejaVuSans-108"/>
    <use x="159.130859" xlink:href="#DejaVuSans-108"/>
    <use x="186.914062" xlink:href="#DejaVuSans-32"/>
    <use x="218.701172" xlink:href="#DejaVuSans-80"/>
    <use x="278.941406" xlink:href="#DejaVuSans-97"/>
    <use x="340.220703" xlink:href="#DejaVuSans-105"/>
    <use x="368.003906" xlink:href="#DejaVuSans-110"/>
    <use x="431.382812" xlink:href="#DejaVuSans-116"/>
    <use x="470.591797" xlink:href="#DejaVuSans-105"/>
    <use x="498.375" xlink:href="#DejaVuSans-110"/>
    <use x="561.753906" xlink:href="#DejaVuSans-103"/>
    <use x="625.230469" xlink:href="#DejaVuSans-32"/>
    <use x="657.017578" xlink:href="#DejaVuSans-77"/>
    <use x="743.296875" xlink:href="#DejaVuSans-101"/>
    <use x="804.820312" xlink:href="#DejaVuSans-114"/>
    <use x="845.917969" xlink:href="#DejaVuSans-103"/>
    <use x="909.394531" xlink:href="#DejaVuSans-101"/>
    <use x="970.917969" xlink:href="#DejaVuSans-100"/>
    <use x="1034.394531" xlink:href="#DejaVuSans-32"/>
    <use x="1066.181641" xlink:href="#DejaVuSans-40"/>
    <use x="1105.195312" xlink:href="#DejaVuSans-85"/>
    <use x="1178.388672" xlink:href="#DejaVuSans-77"/>
    <use x="1264.667969" xlink:href="#DejaVuSans-65"/>
    <use x="1333.076172" xlink:href="#DejaVuSans-80"/>
    <use x="1393.378906" xlink:href="#DejaVuSans-41"/>
   </g>
  </g>
 </g>
 <defs>
  <clipPath id="pd97bbea44a">
   <rect height="332.64" width="390.6" x="40.169063" y="26.105371"/>
  </clipPath>
  <clipPath id="pff736e5698">
   <path d="M 450.169062 109.473906 
L 450.169062 93.633906 
L 466.009062 93.633906 
L 466.009062 109.473906 
"/>
  </clipPath>
  <clipPath id="p7379f2f6d9">
   <path d="M 450.169062 127.313906 
L 450.169062 111.473906 
L 466.009062 111.473906 
L 466.009062 127.313906 
"/>
  </clipPath>
  <clipPath id="pc2dc8603c8">
   <path d="M 450.169062 145.153906 
L 450.169062 129.313906 
L 466.009062 129.313906 
L 466.009062 145.153906 
"/>
  </clipPath>
  <clipPath id="pae9787d81c">
   <path d="M 450.169062 186.039843 
L 450.169062 170.199843 
L 466.009062 170.199843 
L 466.009062 186.039843 
"/>
  </clipPath>
  <clipPath id="p236bba03ae">
   <path d="M 450.169062 203.879843 
L 450.169062 188.039843 
L 466.009062 188.039843 
L 466.009062 203.879843 
"/>
  </clipPath>
  <clipPath id="p5ce51c52a2">
   <path d="M 450.169062 244.765781 
L 450.169062 228.925781 
L 468.723786 228.925781 
L 468.723786 244.765781 
"/>
  </clipPath>
  <clipPath id="pc2f383ba1a">
   <path d="M 450.169062 262.605781 
L 450.169062 246.765781 
L 468.723786 246.765781 
L 468.723786 262.605781 
"/>
  </clipPath>
  <clipPath id="p62a8a9607e">
   <path d="M 450.169062 281.38805 
L 450.169062 264.605781 
L 468.723786 264.605781 
L 468.723786 281.38805 
"/>
  </clipPath>
  <clipPath id="pf7fe6f6861">
   <path d="M 450.169062 301.942773 
L 450.169062 283.38805 
L 468.723786 283.38805 
L 468.723786 301.942773 
"/>
  </clipPath>
 </defs>
</svg>
